<svg width="433" height="506" viewBox="0 0 433 506" fill="none" xmlns="http://www.w3.org/2000/svg">
<g id="Apples">
<g id="Apples_3">
<path id="Apples_3_23" d="M313.524 93.7064H307.264V99.9535H313.524V93.7064Z" fill="#BD111F"/>
<path id="Apples_3_22" d="M244.665 68.718H238.405V74.9651H244.665V68.718Z" fill="#BD111F"/>
<path id="Apples_3_21" d="M275.964 31.2355H269.705V37.4826H275.964V31.2355Z" fill="#BD111F"/>
<path id="Apples_3_20" d="M269.705 137.436H263.445V143.683H269.705V137.436Z" fill="#BD111F"/>
<path id="Apples_3_19" d="M194.586 162.425H188.326V168.672H194.586V162.425Z" fill="#BD111F"/>
<path id="Apples_3_18" d="M106.947 156.177H100.688V162.424H106.947V156.177Z" fill="#BD111F"/>
<path id="Apples_3_17" d="M69.3878 187.413H63.1279V193.66H69.3878V187.413Z" fill="#BD111F"/>
<path id="Apples_3_16" d="M6.78871 249.884H0.528809V256.131H6.78871V249.884Z" fill="#BD111F"/>
<path id="Apples_3_15" d="M106.947 268.625H100.688V274.872H106.947V268.625Z" fill="#BD111F"/>
<path id="Apples_3_14" d="M131.987 331.096H125.727V337.343H131.987V331.096Z" fill="#BD111F"/>
<path id="Apples_3_13" d="M113.207 356.084H106.947V362.332H113.207V356.084Z" fill="#BD111F"/>
<path id="Apples_3_12" d="M56.8678 368.579H50.6079V374.826H56.8678V368.579Z" fill="#BD111F"/>
<path id="Apples_3_11" d="M100.687 399.814H94.4272V406.061H100.687V399.814Z" fill="#BD111F"/>
<path id="Apples_3_10" d="M319.784 387.32H313.524V393.567H319.784V387.32Z" fill="#BD111F"/>
<path id="Apples_3_9" d="M163.286 424.803H157.026V431.05H163.286V424.803Z" fill="#BD111F"/>
<path id="Apples_3_8" d="M244.665 437.297H238.405V443.544H244.665V437.297Z" fill="#BD111F"/>
<path id="Apples_3_7" d="M244.665 362.332H238.405V368.579H244.665V362.332Z" fill="#BD111F"/>
<path id="Apples_3_6" d="M363.603 318.602H357.343V324.849H363.603V318.602Z" fill="#BD111F"/>
<path id="Apples_3_5" d="M288.485 249.884H282.225V256.131H288.485V249.884Z" fill="#BD111F"/>
<path id="Apples_3_4" d="M426.202 256.131H419.942V262.378H426.202V256.131Z" fill="#BD111F"/>
<path id="Apples_3_3" d="M432.463 224.896H426.203V231.143H432.463V224.896Z" fill="#BD111F"/>
<path id="Apples_3_2" d="M376.123 143.683H369.863V149.93H376.123V143.683Z" fill="#BD111F"/>
<path id="Apples_3_1" d="M44.3483 106.201H38.0884V112.448H44.3483V106.201Z" fill="#BD111F"/>
</g>
<g id="Apples_2">
<path id="Apples_2_23" d="M360.474 334.22V327.973H354.214V334.22H360.474Z" fill="#BD111F"/>
<path id="Apples_2_22" d="M385.513 265.502V259.255H379.253V265.502H385.513Z" fill="#BD111F"/>
<path id="Apples_2_21" d="M423.073 296.737V290.49H416.813V296.737H423.073Z" fill="#BD111F"/>
<path id="Apples_2_20" d="M316.654 290.49V284.243H310.394V290.49H316.654Z" fill="#BD111F"/>
<path id="Apples_2_19" d="M291.615 215.525V209.278H285.355V215.525H291.615Z" fill="#BD111F"/>
<path id="Apples_2_18" d="M297.875 128.066V121.818H291.615V128.066H297.875Z" fill="#BD111F"/>
<path id="Apples_2_17" d="M266.575 90.5829V84.3358H260.315V90.5829H266.575Z" fill="#BD111F"/>
<path id="Apples_2_16" d="M203.976 28.112V21.8649H197.716V28.112H203.976Z" fill="#BD111F"/>
<path id="Apples_2_15" d="M185.196 128.066V121.818H178.936V128.066H185.196Z" fill="#BD111F"/>
<path id="Apples_2_14" d="M122.597 153.054V146.807H116.337V153.054H122.597Z" fill="#BD111F"/>
<path id="Apples_2_13" d="M97.5576 134.313V128.066H91.2977V134.313H97.5576Z" fill="#BD111F"/>
<path id="Apples_2_12" d="M85.0376 78.0888V71.8417H78.7777V78.0888H85.0376Z" fill="#BD111F"/>
<path id="Apples_2_11" d="M53.7383 121.818V115.571H47.4784V121.818H53.7383Z" fill="#BD111F"/>
<path id="Apples_2_10" d="M66.2583 340.467V334.22H59.9984V340.467H66.2583Z" fill="#BD111F"/>
<path id="Apples_2_9" d="M28.6987 184.289V178.042H22.4388V184.289H28.6987Z" fill="#BD111F"/>
<path id="Apples_2_8" d="M16.1787 265.502V259.255H9.9188V265.502H16.1787Z" fill="#BD111F"/>
<path id="Apples_2_7" d="M91.2979 265.502V259.255H85.0379V265.502H91.2979Z" fill="#BD111F"/>
<path id="Apples_2_6" d="M135.117 384.196V377.949H128.857V384.196H135.117Z" fill="#BD111F"/>
<path id="Apples_2_5" d="M203.976 309.231V302.984H197.716V309.231H203.976Z" fill="#BD111F"/>
<path id="Apples_2_4" d="M197.716 446.668V440.42H191.456V446.668H197.716Z" fill="#BD111F"/>
<path id="Apples_2_3" d="M229.016 452.915V446.667H222.756V452.915H229.016Z" fill="#BD111F"/>
<path id="Apples_2_2" d="M310.395 396.691V390.444H304.135V396.691H310.395Z" fill="#BD111F"/>
<path id="Apples_2_1" d="M347.954 65.5945V59.3474H341.694V65.5945H347.954Z" fill="#BD111F"/>
</g>
<g id="Apples_1">
<path id="Apples_1_23" d="M119.476 381.073H125.736V374.826H119.476V381.073Z" fill="#BD111F"/>
<path id="Apples_1_22" d="M188.335 406.061H194.595V399.814H188.335V406.061Z" fill="#BD111F"/>
<path id="Apples_1_21" d="M157.036 443.544H163.296V437.297H157.036V443.544Z" fill="#BD111F"/>
<path id="Apples_1_20" d="M163.296 337.343H169.556V331.096H163.296V337.343Z" fill="#BD111F"/>
<path id="Apples_1_19" d="M238.414 312.355H244.674V306.108H238.414V312.355Z" fill="#BD111F"/>
<path id="Apples_1_18" d="M326.053 318.602H332.313V312.355H326.053V318.602Z" fill="#BD111F"/>
<path id="Apples_1_17" d="M363.612 287.366H369.872V281.119H363.612V287.366Z" fill="#BD111F"/>
<path id="Apples_1_16" d="M426.212 224.896H432.472V218.648H426.212V224.896Z" fill="#BD111F"/>
<path id="Apples_1_15" d="M326.053 206.154H332.313V199.907H326.053V206.154Z" fill="#BD111F"/>
<path id="Apples_1_14" d="M301.014 143.683H307.273V137.436H301.014V143.683Z" fill="#BD111F"/>
<path id="Apples_1_13" d="M319.793 118.695H326.053V112.448H319.793V118.695Z" fill="#BD111F"/>
<path id="Apples_1_12" d="M376.133 106.201H382.393V99.9536H376.133V106.201Z" fill="#BD111F"/>
<path id="Apples_1_11" d="M332.313 74.9652H338.573V68.7181H332.313V74.9652Z" fill="#BD111F"/>
<path id="Apples_1_10" d="M113.216 87.4594H119.476V81.2123H113.216V87.4594Z" fill="#BD111F"/>
<path id="Apples_1_9" d="M269.714 49.9768H275.974V43.7297H269.714V49.9768Z" fill="#BD111F"/>
<path id="Apples_1_8" d="M188.335 37.4825H194.595V31.2354H188.335V37.4825Z" fill="#BD111F"/>
<path id="Apples_1_7" d="M188.335 112.448H194.595V106.201H188.335V112.448Z" fill="#BD111F"/>
<path id="Apples_1_6" d="M69.3968 156.177H75.6567V149.93H69.3968V156.177Z" fill="#BD111F"/>
<path id="Apples_1_5" d="M144.516 224.896H150.776V218.648H144.516V224.896Z" fill="#BD111F"/>
<path id="Apples_1_4" d="M6.7982 218.648H13.0581V212.401H6.7982L6.7982 218.648Z" fill="#BD111F"/>
<path id="Apples_1_3" d="M0.537945 249.884H6.79785L6.79785 243.637H0.537945L0.537945 249.884Z" fill="#BD111F"/>
<path id="Apples_1_2" d="M56.8773 331.096H63.1372V324.849H56.8773V331.096Z" fill="#BD111F"/>
<path id="Apples_1_1" d="M388.652 368.579H394.912V362.332H388.652V368.579Z" fill="#BD111F"/>
</g>
</g>
</svg>
