<svg width="617" height="204" viewBox="0 0 617 204" fill="none" xmlns="http://www.w3.org/2000/svg">
<g id="Branch_mobile">
<g id="Road">
<g id="ROAD_SMALL">
<path id="Vector" d="M67.5306 179.714H-29.6123V204H67.5306V179.714Z" fill="white"/>
<path id="Vector_2" d="M454.714 179.714H357.571V204H454.714V179.714Z" fill="white"/>
<path id="Vector_3" d="M649 179.714H551.857V204H649V179.714Z" fill="white"/>
<path id="Vector_4" d="M261.816 179.714H164.673V204H261.816V179.714Z" fill="white"/>
</g>
</g>
<g id="Group 11">
<g id="Frame" clip-path="url(#clip0_401_2)">
<g id="Group">
<path id="Vector_5" d="M522.571 140.857H517.714V160.286H522.571V140.857Z" fill="#BD111F"/>
<path id="Vector_6" d="M527.428 131.143H522.571V140.857H527.428V131.143Z" fill="#BD111F"/>
<path id="Vector_7" d="M537.143 126.286H527.429V131.143H537.143V126.286Z" fill="#BD111F"/>
<path id="Vector_8" d="M556.571 126.286V121.429H537.143V126.286H556.571Z" fill="#BD111F"/>
<path id="Vector_9" d="M566.286 131.143V126.286H556.571V131.143H566.286Z" fill="#BD111F"/>
<path id="Vector_10" d="M571.143 140.857V131.143H566.286V140.857H571.143Z" fill="#BD111F"/>
<path id="Vector_11" d="M571.143 160.286H576V140.857H571.143V160.286Z" fill="#BD111F"/>
<path id="Vector_12" d="M566.286 170H571.143V160.286H566.286V170Z" fill="#BD111F"/>
<path id="Vector_13" d="M556.571 174.857H566.286V170H556.571V174.857Z" fill="#BD111F"/>
<path id="Vector_14" d="M537.143 174.857V179.714H556.572V174.857H537.143Z" fill="#BD111F"/>
<path id="Vector_15" d="M527.429 170V174.857H537.143V170H527.429Z" fill="#BD111F"/>
<path id="Vector_16" d="M522.571 160.286V170H527.428V160.286H522.571Z" fill="#BD111F"/>
</g>
<g id="Group_2">
<path id="Vector_17" d="M420.571 140.857H415.714V160.286H420.571V140.857Z" fill="#BD111F"/>
<path id="Vector_18" d="M425.428 131.143H420.571V140.857H425.428V131.143Z" fill="#BD111F"/>
<path id="Vector_19" d="M435.143 126.286H425.429V131.143H435.143V126.286Z" fill="#BD111F"/>
<path id="Vector_20" d="M454.571 126.286V121.429H435.143V126.286H454.571Z" fill="#BD111F"/>
<path id="Vector_21" d="M464.286 131.143V126.286H454.571V131.143H464.286Z" fill="#BD111F"/>
<path id="Vector_22" d="M469.143 140.857V131.143H464.286V140.857H469.143Z" fill="#BD111F"/>
<path id="Vector_23" d="M469.143 160.286H474V140.857H469.143V160.286Z" fill="#BD111F"/>
<path id="Vector_24" d="M464.286 170H469.143V160.286H464.286V170Z" fill="#BD111F"/>
<path id="Vector_25" d="M454.571 174.857H464.286V170H454.571V174.857Z" fill="#BD111F"/>
<path id="Vector_26" d="M435.143 174.857V179.714H454.572V174.857H435.143Z" fill="#BD111F"/>
<path id="Vector_27" d="M425.429 170V174.857H435.143V170H425.429Z" fill="#BD111F"/>
<path id="Vector_28" d="M420.571 160.286V170H425.428V160.286H420.571Z" fill="#BD111F"/>
</g>
<path id="Vector_29" d="M522.571 140.857V160.286H527.428V140.857H522.571ZM532.286 136H537.143V131.143H527.428V140.857H532.286V136ZM556.571 126.286H537.143V131.143H556.571V126.286ZM561.428 136V140.857H566.286V131.143H556.571V136H561.428ZM566.286 140.857V160.286H571.143V140.857H566.286ZM561.428 165.143H556.571V170H566.286V160.286H561.428V165.143ZM537.143 174.857H556.571V170H537.143V174.857ZM532.286 165.143V160.286H527.428V170H537.143V165.143H532.286ZM542 155.429H551.714V145.714H542V155.429ZM420.571 140.857V160.286H425.428V140.857H420.571ZM430.286 136H435.143V131.143H425.428V140.857H430.286V136ZM454.571 126.286H435.143V131.143H454.571V126.286ZM459.428 136V140.857H464.286V131.143H454.571V136H459.428ZM464.286 160.286H469.143V140.857H464.286V160.286ZM459.428 165.143H454.571V170H464.286V160.286H459.428V165.143ZM435.143 174.857H454.571V170H435.143V174.857ZM430.286 165.143V160.286H425.428V170H435.143V165.143H430.286ZM440 155.429H449.714V145.714H440V155.429Z" fill="white"/>
<g id="Car_2">
<path id="Vector_30" d="M498.286 38.8572H493.429V43.7143H498.286V38.8572Z" fill="#BD111F"/>
<path id="Vector_31" d="M522.571 38.8572H517.714V43.7143H522.571V38.8572Z" fill="#BD111F"/>
<path id="Vector_32" d="M517.714 0H512.857V9.71429H517.714V29.1429H508V9.71429H493.429V19.4286H498.286V29.1429H493.429V38.8571H498.286V43.7143H493.429V63.1429H498.286V58.2857H503.143V63.1429H498.286V68H527.429V0H517.714ZM508 63.1429V58.2857H512.857V63.1429H508ZM522.572 63.1429H517.714V58.2857H522.572V63.1429ZM508 53.4286H503.143V48.5714H508V53.4286ZM522.572 43.7143H517.714V38.8571H522.572V43.7143Z" fill="white"/>
<path id="Vector_33" d="M498.286 68V72.8571H493.428V87.4286H478.857V102H493.428V121.429H498.286V126.286H522.571V121.429H527.428V68H498.286Z" fill="#BD111F"/>
<path id="Vector_34" d="M464.286 87.4286V92.2857H469.143V97.1429H474V102H478.857V97.1429V92.2857V87.4286H464.286Z" fill="white"/>
<g id="Group_3">
<path id="Vector_35" d="M469.143 82.5714H464.286V87.4286H469.143V82.5714Z" fill="#738928"/>
<path id="Vector_36" d="M488.571 102H483.714V106.857H488.571V102Z" fill="#738928"/>
<path id="Vector_37" d="M464.285 77.7144H459.428V82.5715H464.285V77.7144Z" fill="#738928"/>
<path id="Vector_38" d="M459.428 72.8572H454.571V77.7143H459.428V72.8572Z" fill="#738928"/>
</g>
<path id="Vector_39" d="M556.571 87.4286H532.286V92.2857H556.571V87.4286Z" fill="#738928"/>
<path id="Vector_40" d="M498.286 131.143V126.286H493.429V121.429H488.571V116.571H483.714V111.714H478.857V106.857H474V102H469.143V97.1429H464.286V92.2858H454.571V97.1429H444.857V102H435.143V106.857H425.429V111.714H415.714V116.571H406V140.857H415.714V131.143H420.571V126.286H430.286V121.429H435.143V116.571H454.571V121.429H459.429V126.286H469.143V131.143H474V140.857H478.857V150.571H512.857V140.857H517.714V136H522.571V131.143H498.286ZM527.429 126.286H532.286V121.429H527.429V126.286ZM595.429 131.143V126.286H590.571V121.429H585.714V116.571H580.857V111.714H576V106.857H571.143V102H566.286V97.1429H561.429V92.2858H532.286V121.429H537.143V116.571H556.571V121.429H561.429V126.286H571.143V131.143H576V140.857H580.857V150.571H590.571V145.714H595.429V140.857H600.286V131.143H595.429Z" fill="#738928"/>
<path id="Vector_41" d="M493.429 140.857V126.286H488.571H483.714V131.143H488.571V140.857H483.714V145.714H498.286V140.857H493.429Z" fill="white"/>
<path id="Vector_42" d="M503.143 19.4286H498.286V29.1429H503.143V19.4286Z" fill="#F8C4B6"/>
<path id="Vector_43" d="M522.571 4.85718H517.714V29.1429H522.571V4.85718Z" fill="#F8C4B6"/>
</g>
<g id="Car_light_2">
<path id="Vector_44" d="M406 116.571H396.286V121.429H406V116.571Z" fill="white"/>
<path id="Vector_45" d="M396.286 111.714H386.571V116.571H396.286V111.714Z" fill="white"/>
<path id="Vector_46" d="M406 126.286H396.286V131.143H406V126.286Z" fill="white"/>
<path id="Vector_47" d="M396.286 131.143H386.571V136H396.286V131.143Z" fill="white"/>
<path id="Vector_48" d="M386.571 136H376.857V140.857H386.571V136Z" fill="white"/>
<path id="Vector_49" d="M376.857 140.857H367.143V145.714H376.857V140.857Z" fill="white"/>
<path id="Vector_50" d="M367.143 145.714H357.429V150.571H367.143V145.714Z" fill="white"/>
<path id="Vector_51" d="M352.571 150.571H347.714V155.429H352.571V150.571Z" fill="white"/>
<path id="Vector_52" d="M342.857 155.429H338V160.286H342.857V155.429Z" fill="white"/>
<path id="Vector_53" d="M386.571 106.857H376.857V111.714H386.571V106.857Z" fill="white"/>
<path id="Vector_54" d="M376.857 102H367.143V106.857H376.857V102Z" fill="white"/>
<path id="Vector_55" d="M367.143 97.1428H357.429V102H367.143V97.1428Z" fill="white"/>
<path id="Vector_56" d="M352.571 92.2858H347.714V97.1429H352.571V92.2858Z" fill="white"/>
<path id="Vector_57" d="M342.857 87.4286H338V92.2857H342.857V87.4286Z" fill="white"/>
</g>
</g>
</g>
<g id="Group 15">
<g id="Group_4">
<path id="Vector_58" d="M125.857 140.163H121V159.592H125.857V140.163Z" fill="#738928"/>
<path id="Vector_59" d="M130.714 130.449H125.857V140.163H130.714V130.449Z" fill="#738928"/>
<path id="Vector_60" d="M140.429 125.592H130.714V130.449H140.429V125.592Z" fill="#738928"/>
<path id="Vector_61" d="M159.857 125.592V120.735H140.428V125.592H159.857Z" fill="#738928"/>
<path id="Vector_62" d="M169.571 130.449V125.592H159.857V130.449H169.571Z" fill="#738928"/>
<path id="Vector_63" d="M174.429 140.163V130.449H169.572V140.163H174.429Z" fill="#738928"/>
<path id="Vector_64" d="M174.429 159.592H179.286V140.163H174.429V159.592Z" fill="#738928"/>
<path id="Vector_65" d="M169.572 169.306H174.429V159.592H169.572V169.306Z" fill="#738928"/>
<path id="Vector_66" d="M159.857 174.163H169.571V169.306H159.857V174.163Z" fill="#738928"/>
<path id="Vector_67" d="M140.429 174.163V179.02H159.857V174.163H140.429Z" fill="#738928"/>
<path id="Vector_68" d="M130.714 169.306V174.163H140.429V169.306H130.714Z" fill="#738928"/>
<path id="Vector_69" d="M125.857 159.592V169.306H130.714V159.592H125.857Z" fill="#738928"/>
</g>
<g id="Group_5">
<path id="Vector_70" d="M28.7141 140.163H23.8569V159.592H28.7141V140.163Z" fill="#738928"/>
<path id="Vector_71" d="M33.571 130.449H28.7139V140.163H33.571V130.449Z" fill="#738928"/>
<path id="Vector_72" d="M43.2856 125.592H33.5713V130.449H43.2856V125.592Z" fill="#738928"/>
<path id="Vector_73" d="M62.7139 125.592V120.735H43.2853V125.592H62.7139Z" fill="#738928"/>
<path id="Vector_74" d="M72.4282 130.449V125.592H62.7139V130.449H72.4282Z" fill="#738928"/>
<path id="Vector_75" d="M77.2856 140.163V130.449H72.4285V140.163H77.2856Z" fill="#738928"/>
<path id="Vector_76" d="M77.2854 159.592H82.1426V140.163H77.2854V159.592Z" fill="#738928"/>
<path id="Vector_77" d="M72.4285 169.306H77.2856V159.592H72.4285V169.306Z" fill="#738928"/>
<path id="Vector_78" d="M62.7139 174.163H72.4282V169.306H62.7139V174.163Z" fill="#738928"/>
<path id="Vector_79" d="M43.2856 174.163V179.02H62.7142V174.163H43.2856Z" fill="#738928"/>
<path id="Vector_80" d="M33.5713 169.306V174.163H43.2856V169.306H33.5713Z" fill="#738928"/>
<path id="Vector_81" d="M28.7139 159.592V169.306H33.571V159.592H28.7139Z" fill="#738928"/>
</g>
<path id="Vector_82" d="M38.4286 164.449V159.592H33.5715V169.306H43.2858V164.449H38.4286ZM67.5715 164.449H62.7144V169.306H72.4286V159.592H67.5715V164.449ZM38.4286 135.306H43.2858V130.449H33.5715V140.163H38.4286V135.306ZM48.1429 154.735H57.8572V145.02H48.1429V154.735ZM43.2858 174.163H62.7144V169.306H43.2858V174.163ZM28.7144 140.163V159.592H33.5715V140.163H28.7144ZM62.7144 125.592H43.2858V130.449H62.7144V125.592ZM67.5715 135.306V140.163H72.4286V130.449H62.7144V135.306H67.5715ZM164.714 164.449H159.857V169.306H169.572V159.592H164.714V164.449ZM72.4286 159.592H77.2858V140.163H72.4286V159.592ZM135.572 164.449V159.592H130.714V169.306H140.429V164.449H135.572ZM135.572 135.306H140.429V130.449H130.714V140.163H135.572V135.306ZM169.572 140.163V159.592H174.429V140.163H169.572ZM145.286 154.735H155V145.02H145.286V154.735ZM125.857 140.163V159.592H130.714V140.163H125.857ZM140.429 174.163H159.857V169.306H140.429V174.163ZM164.714 135.306V140.163H169.572V130.449H159.857V135.306H164.714ZM159.857 125.592H140.429V130.449H159.857V125.592Z" fill="white"/>
<g id="Car_1">
<path id="Vector_83" d="M106.429 18.7346V23.5918H101.572V28.4489H96.7144V33.306H87.0001V28.4489H82.143V23.5918H77.2859V18.7346H72.4287V62.4489H77.2859V67.306H106.429V62.4489H96.7144V57.5918H106.429V62.4489H111.286V18.7346H106.429ZM106.429 52.7346H101.572V47.8775H106.429V52.7346Z" fill="white"/>
<path id="Vector_84" d="M116.143 101.306H121V86.7346H116.143V101.306Z" fill="#738928"/>
<path id="Vector_85" d="M106.429 101.306H111.286V86.7346H106.429V101.306Z" fill="#738928"/>
<path id="Vector_86" d="M77.2859 72.1632H106.429V67.3061H77.2859V72.1632Z" fill="#738928"/>
<path id="Vector_87" d="M77.2859 81.8774H106.429V77.0203H77.2859V81.8774Z" fill="#738928"/>
<path id="Vector_88" d="M96.7142 86.7346H77.2856V91.5918H96.7142V96.4489H77.2856V101.306H96.7142H101.571V86.7346H96.7142Z" fill="#738928"/>
<path id="Vector_89" d="M77.2859 111.02H106.429V106.163H77.2859V111.02Z" fill="#738928"/>
<path id="Vector_90" d="M77.2859 120.735H106.429V115.877H77.2859V120.735Z" fill="#738928"/>
<path id="Vector_91" d="M121 86.7346V91.5918V96.4489V101.306H125.857V96.4489H130.714V91.5918H135.571V86.7346H121Z" fill="white"/>
<path id="Vector_92" d="M130.714 86.7346H135.571V81.8775H130.714V86.7346Z" fill="#738928"/>
<path id="Vector_93" d="M111.286 106.163H116.143V101.306H111.286V106.163Z" fill="#738928"/>
<path id="Vector_94" d="M135.572 81.8774H140.429V77.0203H135.572V81.8774Z" fill="#738928"/>
<path id="Vector_95" d="M106.429 47.8774H111.286V43.0203H106.429V47.8774Z" fill="#738928"/>
<path id="Vector_96" d="M86.9998 47.8774H91.8569V43.0203H86.9998V47.8774Z" fill="#738928"/>
<path id="Vector_97" d="M140.429 72.1631V77.0203H145.286V72.1631H140.429ZM72.4286 120.735V125.592H77.2857V120.735H72.4286ZM111.286 115.877V120.735H106.429V125.592H77.2857V130.449H82.1429V140.163H121V130.449H125.857V125.592H130.714V120.735H140.429V115.877H159.857V120.735H169.571V125.592H174.429V130.449H179.286V140.163H189V111.02H111.286V115.877ZM179.286 101.306V96.4489H164.714V91.5917H159.857V96.4489H130.714V101.306H125.857V106.163H189V101.306H179.286ZM72.4286 96.4489V62.4489H23.8571V67.306H19V106.163H72.4286V96.4489ZM67.5714 96.4489H33.5714V67.306H67.5714V96.4489ZM72.4286 111.02H19V140.163H23.8571V130.449H28.7143V125.592H33.5714V120.735H43.2857V115.877H62.7143V120.735H72.4286V111.02ZM111.286 62.4489V67.306H135.571V62.4489H111.286ZM135.571 67.306V72.1631H140.429V67.306H135.571ZM145.286 77.0203V81.8774H150.143V77.0203H145.286ZM150.143 81.8774V86.7346H155V81.8774H150.143ZM155 86.7346V91.5917H159.857V86.7346H155Z" fill="#BD111F"/>
<path id="Vector_98" d="M184.143 125.592H189V115.878H184.143V125.592Z" fill="white"/>
<path id="Vector_99" d="M77.2859 28.4489H72.4287V33.306H77.2859V28.4489Z" fill="#F8C4B6"/>
<path id="Vector_100" d="M111.286 28.4489H106.429V33.306H111.286V28.4489Z" fill="#F8C4B6"/>
<path id="Vector_101" d="M106.428 47.8774H101.571V52.7346H106.428V47.8774Z" fill="#F8C4B6"/>
<path id="Vector_102" d="M184.143 125.592H193.857V115.878H184.143V125.592Z" fill="white"/>
<path id="Vector_103" d="M193.857 130.449H203.571V125.592H193.857V130.449Z" fill="white"/>
<path id="Vector_104" d="M203.571 135.306H213.286V130.449H203.571V135.306Z" fill="white"/>
<path id="Vector_105" d="M193.857 115.877H203.571V111.02H193.857V115.877Z" fill="white"/>
<path id="Vector_106" d="M203.571 111.02H213.286V106.163H203.571V111.02Z" fill="white"/>
<path id="Vector_107" d="M213.286 106.163H223V101.306H213.286V106.163Z" fill="white"/>
<path id="Vector_108" d="M223 101.306H232.714V96.4489H223V101.306Z" fill="white"/>
<path id="Vector_109" d="M232.714 96.4489H242.429V91.5917H232.714V96.4489Z" fill="white"/>
<path id="Vector_110" d="M247.286 91.5918H252.143V86.7347H247.286V91.5918Z" fill="white"/>
<path id="Vector_111" d="M257 86.7346H261.857V81.8775H257V86.7346Z" fill="white"/>
<path id="Vector_112" d="M213.286 140.163H223V135.306H213.286V140.163Z" fill="white"/>
<path id="Vector_113" d="M223 145.02H232.714V140.163H223V145.02Z" fill="white"/>
<path id="Vector_114" d="M232.714 149.877H242.429V145.02H232.714V149.877Z" fill="white"/>
<path id="Vector_115" d="M247.286 154.735H252.143V149.877H247.286V154.735Z" fill="white"/>
<path id="Vector_116" d="M257 159.592H261.857V154.735H257V159.592Z" fill="white"/>
</g>
</g>
</g>
<defs>
<clipPath id="clip0_401_2">
<rect width="262.286" height="179.714" fill="white" transform="translate(338)"/>
</clipPath>
</defs>
</svg>
