<svg width="1918" height="294" viewBox="0 0 1918 294" fill="none" xmlns="http://www.w3.org/2000/svg">
<g id="Branches">
<g id="Frame" clip-path="url(#clip0_128_1116)">
<g id="Group">
<g id="Group_2">
<g id="Group_3">
<g id="Group_4">
<path id="Vector" d="M310 203H303V231H310V203Z" fill="#738928"/>
<path id="Vector_2" d="M317 189H310V203H317V189Z" fill="#738928"/>
<path id="Vector_3" d="M331 182H317V189H331V182Z" fill="#738928"/>
<path id="Vector_4" d="M359 182V175H331V182H359Z" fill="#738928"/>
<path id="Vector_5" d="M373 189V182H359V189H373Z" fill="#738928"/>
<path id="Vector_6" d="M380 203V189H373V203H380Z" fill="#738928"/>
<path id="Vector_7" d="M380 231H387V203H380V231Z" fill="#738928"/>
<path id="Vector_8" d="M373 245H380V231H373V245Z" fill="#738928"/>
<path id="Vector_9" d="M359 252H373V245H359V252Z" fill="#738928"/>
<path id="Vector_10" d="M331 252V259H359V252H331Z" fill="#738928"/>
<path id="Vector_11" d="M317 245V252H331V245H317Z" fill="#738928"/>
<path id="Vector_12" d="M310 231V245H317V231H310Z" fill="#738928"/>
</g>
<g id="Group_5">
<path id="Vector_13" d="M317 203H310V231H317V203Z" fill="white"/>
<path id="Vector_14" d="M324 189H317V203H324V189Z" fill="white"/>
<path id="Vector_15" d="M331 189H324V196H331V189Z" fill="white"/>
<path id="Vector_16" d="M359 189V182H331V189H359Z" fill="white"/>
<path id="Vector_17" d="M373 196V189H359V196H373Z" fill="white"/>
<path id="Vector_18" d="M373 203V196H366V203H373Z" fill="white"/>
<path id="Vector_19" d="M373 231H380V203H373V231Z" fill="white"/>
<path id="Vector_20" d="M366 245H373V231H366V245Z" fill="white"/>
<path id="Vector_21" d="M359 245H366V238H359V245Z" fill="white"/>
<path id="Vector_22" d="M331 245V252H359V245H331Z" fill="white"/>
<path id="Vector_23" d="M317 238V245H331V238H317Z" fill="white"/>
<path id="Vector_24" d="M317 231V238H324V231H317Z" fill="white"/>
<path id="Vector_25" d="M352 210H338V224H352V210Z" fill="white"/>
</g>
</g>
<g id="Group_6">
<g id="Group_7">
<path id="Vector_26" d="M170 203H163V231H170V203Z" fill="#738928"/>
<path id="Vector_27" d="M177 189H170V203H177V189Z" fill="#738928"/>
<path id="Vector_28" d="M191 182H177V189H191V182Z" fill="#738928"/>
<path id="Vector_29" d="M219 182V175H191V182H219Z" fill="#738928"/>
<path id="Vector_30" d="M233 189V182H219V189H233Z" fill="#738928"/>
<path id="Vector_31" d="M240 203V189H233V203H240Z" fill="#738928"/>
<path id="Vector_32" d="M240 231H247V203H240V231Z" fill="#738928"/>
<path id="Vector_33" d="M233 245H240V231H233V245Z" fill="#738928"/>
<path id="Vector_34" d="M219 252H233V245H219V252Z" fill="#738928"/>
<path id="Vector_35" d="M191 252V259H219V252H191Z" fill="#738928"/>
<path id="Vector_36" d="M177 245V252H191V245H177Z" fill="#738928"/>
<path id="Vector_37" d="M170 231V245H177V231H170Z" fill="#738928"/>
</g>
<g id="Group_8">
<path id="Vector_38" d="M177 203H170V231H177V203Z" fill="white"/>
<path id="Vector_39" d="M184 189H177V203H184V189Z" fill="white"/>
<path id="Vector_40" d="M191 189H184V196H191V189Z" fill="white"/>
<path id="Vector_41" d="M219 189V182H191V189H219Z" fill="white"/>
<path id="Vector_42" d="M233 196V189H219V196H233Z" fill="white"/>
<path id="Vector_43" d="M233 203V196H226V203H233Z" fill="white"/>
<path id="Vector_44" d="M233 231H240V203H233V231Z" fill="white"/>
<path id="Vector_45" d="M226 245H233V231H226V245Z" fill="white"/>
<path id="Vector_46" d="M219 245H226V238H219V245Z" fill="white"/>
<path id="Vector_47" d="M191 245V252H219V245H191Z" fill="white"/>
<path id="Vector_48" d="M177 238V245H191V238H177Z" fill="white"/>
<path id="Vector_49" d="M177 231V238H184V231H177Z" fill="white"/>
<path id="Vector_50" d="M212 210H198V224H212V210Z" fill="white"/>
</g>
</g>
<path id="Vector_51" d="M233 70H289V63L233 63V70Z" fill="white"/>
<path id="Vector_52" d="M233 84H289V77H233V84Z" fill="white"/>
<path id="Vector_53" d="M233 63L289 63V49L233 49V63Z" fill="white"/>
<path id="Vector_54" d="M240 98H282V91H240V98Z" fill="white"/>
<path id="Vector_55" d="M282 77H289V70H282V77Z" fill="white"/>
<g id="Group_9">
<path id="Vector_56" d="M268 49H289V42H268V49Z" fill="white"/>
<path id="Vector_57" d="M275 42H289V35H275V42Z" fill="white"/>
<path id="Vector_58" d="M282 35H289V28H282V35Z" fill="white"/>
</g>
<g id="Group_10">
<path id="Vector_59" d="M254 42H233V49H254V42Z" fill="white"/>
<path id="Vector_60" d="M247 35H233V42H247V35Z" fill="white"/>
<path id="Vector_61" d="M240 28H233V35H240V28Z" fill="white"/>
</g>
<path id="Vector_62" d="M282 91H289V84H282V91Z" fill="white"/>
<path id="Vector_63" d="M233 77H275V70H233V77Z" fill="white"/>
<path id="Vector_64" d="M233 91H268V84H233V91Z" fill="white"/>
<path id="Vector_65" d="M296 147H303V126H296V147Z" fill="#738928"/>
<path id="Vector_66" d="M282 147H289V126H282V147Z" fill="#738928"/>
<path id="Vector_67" d="M268 147H275V126H268V147Z" fill="#738928"/>
<path id="Vector_68" d="M240 105H282V98H240V105Z" fill="#738928"/>
<path id="Vector_69" d="M240 119H282V112H240V119Z" fill="#738928"/>
<path id="Vector_70" d="M240 133H268V126H240V133Z" fill="#738928"/>
<path id="Vector_71" d="M240 147H268V140H240V147Z" fill="#738928"/>
<path id="Vector_72" d="M240 161H282V154H240V161Z" fill="#738928"/>
<path id="Vector_73" d="M240 175H282V168H240V175Z" fill="#738928"/>
<path id="Vector_74" d="M303 133H324V126H303V133Z" fill="white"/>
<path id="Vector_75" d="M303 140H317V133H303V140Z" fill="white"/>
<path id="Vector_76" d="M303 147H310V140H303V147Z" fill="white"/>
<g id="Group_11">
<path id="Vector_77" d="M317 126H324V119H317V126Z" fill="#738928"/>
<path id="Vector_78" d="M289 154H296V147H289V154Z" fill="#738928"/>
<path id="Vector_79" d="M324 119H331V112H324V119Z" fill="#738928"/>
<path id="Vector_80" d="M331 112H338V105H331V112Z" fill="#BD111F"/>
</g>
<path id="Vector_81" d="M282 70H289V63H282V70Z" fill="#738928"/>
<path id="Vector_82" d="M254 70H261V63H254V70Z" fill="#738928"/>
<path id="Vector_83" d="M163 189H156V203H163V189Z" fill="#BD111F"/>
<path id="Vector_84" d="M170 182H156V189H170V182Z" fill="#BD111F"/>
<path id="Vector_85" d="M177 175H156V182H177V175Z" fill="#BD111F"/>
<path id="Vector_86" d="M191 168H156V175H191V168Z" fill="#BD111F"/>
<path id="Vector_87" d="M233 168H219V175H233V168Z" fill="#BD111F"/>
<path id="Vector_88" d="M240 175H233V182H240V175Z" fill="#BD111F"/>
<path id="Vector_89" d="M317 175H282V182H317V175Z" fill="#BD111F"/>
<path id="Vector_90" d="M331 168H289V175H331V168Z" fill="#BD111F"/>
<path id="Vector_91" d="M401 168H359V175H401V168Z" fill="#BD111F"/>
<path id="Vector_92" d="M401 175H373V182H401V175Z" fill="#BD111F"/>
<path id="Vector_93" d="M401 182H380V189H401V182Z" fill="#BD111F"/>
<path id="Vector_94" d="M401 189H387V203H401V189Z" fill="#BD111F"/>
<path id="Vector_95" d="M401 161H289V168H401V161Z" fill="#BD111F"/>
<path id="Vector_96" d="M401 147H310V154H401V147Z" fill="#BD111F"/>
<path id="Vector_97" d="M387 140H317V147H387V140Z" fill="#BD111F"/>
<path id="Vector_98" d="M310 182H240V189H310V182Z" fill="#BD111F"/>
<path id="Vector_99" d="M303 189H247V203H303V189Z" fill="#BD111F"/>
<path id="Vector_100" d="M233 140H156V154H233V140Z" fill="#BD111F"/>
<path id="Vector_101" d="M233 161H156V168H233V161Z" fill="#BD111F"/>
<path id="Vector_102" d="M177 98H156V140H177V98Z" fill="#BD111F"/>
<path id="Vector_103" d="M233 98H226V140H233V98Z" fill="#BD111F"/>
<path id="Vector_104" d="M163 91V98H233V91H163Z" fill="#BD111F"/>
<path id="Vector_105" d="M289 91V98H324V91H289Z" fill="#BD111F"/>
<path id="Vector_106" d="M331 98H324V105H331V98Z" fill="#BD111F"/>
<path id="Vector_107" d="M345 112H338V119H345V112Z" fill="#BD111F"/>
<path id="Vector_108" d="M352 119H345V126H352V119Z" fill="#BD111F"/>
<path id="Vector_109" d="M359 126H352V133H359V126Z" fill="#BD111F"/>
<path id="Vector_110" d="M366 133H359V140H366V133Z" fill="#BD111F"/>
</g>
<path id="Vector_111" d="M394 182H401V168H394V182Z" fill="white"/>
<path id="Vector_112" d="M240 42H233V49H240V42Z" fill="#F8C4B6"/>
<path id="Vector_113" d="M289 42H282V49H289V42Z" fill="#F8C4B6"/>
<path id="Vector_114" d="M282 70H275V77H282V70Z" fill="#F8C4B6"/>
<g id="Group_12">
<path id="Vector_115" d="M394 182H408V168H394V182Z" fill="white"/>
<path id="Vector_116" d="M408 189H422V182H408V189Z" fill="white"/>
<path id="Vector_117" d="M422 196H436V189H422V196Z" fill="white"/>
<path id="Vector_118" d="M408 168H422V161H408V168Z" fill="white"/>
<path id="Vector_119" d="M422 161H436V154H422V161Z" fill="white"/>
<path id="Vector_120" d="M436 154H450V147H436V154Z" fill="white"/>
<path id="Vector_121" d="M450 147H464V140H450V147Z" fill="white"/>
<path id="Vector_122" d="M464 140H478V133H464V140Z" fill="white"/>
<path id="Vector_123" d="M485 133H492V126H485V133Z" fill="white"/>
<path id="Vector_124" d="M499 126H506V119H499V126Z" fill="white"/>
<path id="Vector_125" d="M436 203H450V196H436V203Z" fill="white"/>
<path id="Vector_126" d="M450 210H464V203H450V210Z" fill="white"/>
<path id="Vector_127" d="M464 217H478V210H464V217Z" fill="white"/>
<path id="Vector_128" d="M485 224H492V217H485V224Z" fill="white"/>
<path id="Vector_129" d="M499 231H506V224H499V231Z" fill="white"/>
</g>
</g>
<path id="Vector_130" d="M891 259H751V294H891V259Z" fill="white"/>
<path id="Vector_131" d="M331 259H191V294H331V259Z" fill="white"/>
<path id="Vector_132" d="M49 259H0V294H49V259Z" fill="white"/>
<path id="Vector_133" d="M611 259H471V294H611V259Z" fill="white"/>
</g>
<g id="Group 5">
<g id="Frame_2">
<g id="Group_13">
<g id="Group_14">
<g id="Group_15">
<g id="Group_16">
<g id="Group_17">
<path id="Vector_134" d="M1666 203H1659V231H1666V203Z" fill="#BD111F"/>
<path id="Vector_135" d="M1673 189H1666V203H1673V189Z" fill="#BD111F"/>
<path id="Vector_136" d="M1687 182H1673V189H1687V182Z" fill="#BD111F"/>
<path id="Vector_137" d="M1715 182V175H1687V182H1715Z" fill="#BD111F"/>
<path id="Vector_138" d="M1729 189V182H1715V189H1729Z" fill="#BD111F"/>
<path id="Vector_139" d="M1736 203V189H1729V203H1736Z" fill="#BD111F"/>
<path id="Vector_140" d="M1736 231H1743V203H1736V231Z" fill="#BD111F"/>
<path id="Vector_141" d="M1729 245H1736V231H1729V245Z" fill="#BD111F"/>
<path id="Vector_142" d="M1715 252H1729V245H1715V252Z" fill="#BD111F"/>
<path id="Vector_143" d="M1687 252V259H1715V252H1687Z" fill="#BD111F"/>
<path id="Vector_144" d="M1673 245V252H1687V245H1673Z" fill="#BD111F"/>
<path id="Vector_145" d="M1666 231V245H1673V231H1666Z" fill="#BD111F"/>
</g>
<g id="Group_18">
<path id="Vector_146" d="M1673 203H1666V231H1673V203Z" fill="white"/>
<path id="Vector_147" d="M1680 189H1673V203H1680V189Z" fill="white"/>
<path id="Vector_148" d="M1687 189H1680V196H1687V189Z" fill="white"/>
<path id="Vector_149" d="M1715 189V182H1687V189H1715Z" fill="white"/>
<path id="Vector_150" d="M1729 196V189H1715V196H1729Z" fill="white"/>
<path id="Vector_151" d="M1729 203V196H1722V203H1729Z" fill="white"/>
<path id="Vector_152" d="M1729 231H1736V203H1729V231Z" fill="white"/>
<path id="Vector_153" d="M1722 245H1729V231H1722V245Z" fill="white"/>
<path id="Vector_154" d="M1715 245H1722V238H1715V245Z" fill="white"/>
<path id="Vector_155" d="M1687 245V252H1715V245H1687Z" fill="white"/>
<path id="Vector_156" d="M1673 238V245H1687V238H1673Z" fill="white"/>
<path id="Vector_157" d="M1673 231V238H1680V231H1673Z" fill="white"/>
<path id="Vector_158" d="M1708 210H1694V224H1708V210Z" fill="white"/>
</g>
</g>
<g id="Group_19">
<g id="Group_20">
<path id="Vector_159" d="M1519 203H1512V231H1519V203Z" fill="#BD111F"/>
<path id="Vector_160" d="M1526 189H1519V203H1526V189Z" fill="#BD111F"/>
<path id="Vector_161" d="M1540 182H1526V189H1540V182Z" fill="#BD111F"/>
<path id="Vector_162" d="M1568 182V175H1540V182H1568Z" fill="#BD111F"/>
<path id="Vector_163" d="M1582 189V182H1568V189H1582Z" fill="#BD111F"/>
<path id="Vector_164" d="M1589 203V189H1582V203H1589Z" fill="#BD111F"/>
<path id="Vector_165" d="M1589 231H1596V203H1589V231Z" fill="#BD111F"/>
<path id="Vector_166" d="M1582 245H1589V231H1582V245Z" fill="#BD111F"/>
<path id="Vector_167" d="M1568 252H1582V245H1568V252Z" fill="#BD111F"/>
<path id="Vector_168" d="M1540 252V259H1568V252H1540Z" fill="#BD111F"/>
<path id="Vector_169" d="M1526 245V252H1540V245H1526Z" fill="#BD111F"/>
<path id="Vector_170" d="M1519 231V245H1526V231H1519Z" fill="#BD111F"/>
</g>
<g id="Group_21">
<path id="Vector_171" d="M1526 203H1519V231H1526V203Z" fill="white"/>
<path id="Vector_172" d="M1533 189H1526V203H1533V189Z" fill="white"/>
<path id="Vector_173" d="M1540 189H1533V196H1540V189Z" fill="white"/>
<path id="Vector_174" d="M1568 189V182H1540V189H1568Z" fill="white"/>
<path id="Vector_175" d="M1582 196V189H1568V196H1582Z" fill="white"/>
<path id="Vector_176" d="M1582 203V196H1575V203H1582Z" fill="white"/>
<path id="Vector_177" d="M1582 231H1589V203H1582V231Z" fill="white"/>
<path id="Vector_178" d="M1575 245H1582V231H1575V245Z" fill="white"/>
<path id="Vector_179" d="M1568 245H1575V238H1568V245Z" fill="white"/>
<path id="Vector_180" d="M1540 245V252H1568V245H1540Z" fill="white"/>
<path id="Vector_181" d="M1526 238V245H1540V238H1526Z" fill="white"/>
<path id="Vector_182" d="M1526 231V238H1533V231H1526Z" fill="white"/>
<path id="Vector_183" d="M1561 210H1547V224H1561V210Z" fill="white"/>
</g>
</g>
<g id="Group_22">
<path id="Vector_184" d="M1631 56H1624V63H1631V56Z" fill="#BD111F"/>
<path id="Vector_185" d="M1666 56H1659V63H1666V56Z" fill="#BD111F"/>
<path id="Vector_186" d="M1645 84H1638V91H1645V84Z" fill="white"/>
<path id="Vector_187" d="M1659 84H1652V91H1659V84Z" fill="white"/>
<path id="Vector_188" d="M1673 63H1624V70H1673V63Z" fill="white"/>
<path id="Vector_189" d="M1673 77H1624V84H1673V77Z" fill="white"/>
<path id="Vector_190" d="M1673 42H1624V56H1673V42Z" fill="white"/>
<path id="Vector_191" d="M1673 91H1631V98H1673V91Z" fill="white"/>
<path id="Vector_192" d="M1638 70H1624V77H1638V70Z" fill="white"/>
<path id="Vector_193" d="M1659 0H1652V14H1659V0Z" fill="white"/>
<path id="Vector_194" d="M1631 14H1624V28H1631V14Z" fill="white"/>
<path id="Vector_195" d="M1645 14H1631V42H1645V14Z" fill="white"/>
<path id="Vector_196" d="M1673 0H1659V42H1673V0Z" fill="white"/>
<path id="Vector_197" d="M1631 84H1624V91H1631V84Z" fill="white"/>
<path id="Vector_198" d="M1673 56H1666V63H1673V56Z" fill="white"/>
<path id="Vector_199" d="M1673 70H1645V77H1673V70Z" fill="white"/>
<path id="Vector_200" d="M1673 84H1666V91H1673V84Z" fill="white"/>
<path id="Vector_201" d="M1659 56H1631V63H1659V56Z" fill="white"/>
<path id="Vector_202" d="M1638 126H1603V147H1638V126Z" fill="#BD111F"/>
<path id="Vector_203" d="M1666 175H1631V182H1666V175Z" fill="#BD111F"/>
<path id="Vector_204" d="M1673 98H1631V175H1673V98Z" fill="#BD111F"/>
<path id="Vector_205" d="M1631 105H1624V175H1631V105Z" fill="#BD111F"/>
<path id="Vector_206" d="M1603 126H1582V133H1603V126Z" fill="white"/>
<path id="Vector_207" d="M1603 133H1589V140H1603V133Z" fill="white"/>
<path id="Vector_208" d="M1603 140H1596V147H1603V140Z" fill="white"/>
<g id="Group_23">
<path id="Vector_209" d="M1589 119H1582V126H1589V119Z" fill="#738928"/>
<path id="Vector_210" d="M1617 147H1610V154H1617V147Z" fill="#738928"/>
<path id="Vector_211" d="M1582 112H1575V119H1582V112Z" fill="#738928"/>
<path id="Vector_212" d="M1575 105H1568V112H1575V105Z" fill="#738928"/>
</g>
</g>
<g id="Group_24">
<path id="Vector_213" d="M1715 126H1680V133H1715V126Z" fill="#738928"/>
<g id="Group_25">
<path id="Vector_214" d="M1582 133H1568V140H1582V133Z" fill="#738928"/>
<path id="Vector_215" d="M1589 140H1554V147H1589V140Z" fill="#738928"/>
<path id="Vector_216" d="M1596 147H1540V154H1596V147Z" fill="#738928"/>
<path id="Vector_217" d="M1603 154H1526V161H1603V154Z" fill="#738928"/>
<path id="Vector_218" d="M1610 161H1512V168H1610V161Z" fill="#738928"/>
<path id="Vector_219" d="M1540 168H1498V175H1540V168Z" fill="#738928"/>
<path id="Vector_220" d="M1617 168H1568V175H1617V168Z" fill="#738928"/>
<path id="Vector_221" d="M1624 175H1575V182H1624V175Z" fill="#738928"/>
<path id="Vector_222" d="M1631 182H1589V189H1631V182Z" fill="#738928"/>
<path id="Vector_223" d="M1659 189H1596V203H1659V189Z" fill="#738928"/>
<path id="Vector_224" d="M1652 203H1603V217H1652V203Z" fill="#738928"/>
<path id="Vector_225" d="M1533 175H1498V182H1533V175Z" fill="#738928"/>
<path id="Vector_226" d="M1519 182H1498V189H1519V182Z" fill="#738928"/>
<path id="Vector_227" d="M1512 175H1498V182H1512V175Z" fill="white"/>
<path id="Vector_228" d="M1512 189H1498V203H1512V189Z" fill="#738928"/>
<path id="Vector_229" d="M1680 175H1673V182H1680V175Z" fill="#738928"/>
<path id="Vector_230" d="M1687 168H1680V175H1687V168Z" fill="#738928"/>
<path id="Vector_231" d="M1757 168H1715V175H1757V168Z" fill="#738928"/>
<path id="Vector_232" d="M1764 175H1722V182H1764V175Z" fill="#738928"/>
<path id="Vector_233" d="M1771 182H1736V189H1771V182Z" fill="#738928"/>
<path id="Vector_234" d="M1771 203H1750V210H1771V203Z" fill="#738928"/>
<path id="Vector_235" d="M1764 210H1750V217H1764V210Z" fill="#738928"/>
<path id="Vector_236" d="M1778 189H1743V203H1778V189Z" fill="#738928"/>
<path id="Vector_237" d="M1750 161H1680V168H1750V161Z" fill="#738928"/>
<path id="Vector_238" d="M1750 161H1680V168H1750V161Z" fill="#738928"/>
<path id="Vector_239" d="M1743 154H1680V161H1743V154Z" fill="#738928"/>
<path id="Vector_240" d="M1736 147H1680V154H1736V147Z" fill="#738928"/>
<path id="Vector_241" d="M1729 140H1680V147H1729V140Z" fill="#738928"/>
<path id="Vector_242" d="M1722 133H1680V140H1722V133Z" fill="#738928"/>
<path id="Vector_243" d="M1666 189H1659V196H1666V189Z" fill="#738928"/>
</g>
</g>
<path id="Vector_244" d="M1631 203H1610V210H1631V203Z" fill="white"/>
<path id="Vector_245" d="M1624 182H1617V203H1624V182Z" fill="white"/>
<path id="Vector_246" d="M1617 182H1610V189H1617V182Z" fill="white"/>
</g>
<path id="Vector_247" d="M1638 28H1631V42H1638V28Z" fill="#F8C4B6"/>
<path id="Vector_248" d="M1666 7H1659V42H1666V7Z" fill="#F8C4B6"/>
</g>
<g id="Group_26">
<path id="Vector_249" d="M1498 168H1484V175H1498V168Z" fill="white"/>
<path id="Vector_250" d="M1484 161H1470V168H1484V161Z" fill="white"/>
<path id="Vector_251" d="M1498 182H1484V189H1498V182Z" fill="white"/>
<path id="Vector_252" d="M1484 189H1470V196H1484V189Z" fill="white"/>
<path id="Vector_253" d="M1470 196H1456V203H1470V196Z" fill="white"/>
<path id="Vector_254" d="M1456 203H1442V210H1456V203Z" fill="white"/>
<path id="Vector_255" d="M1442 210H1428V217H1442V210Z" fill="white"/>
<path id="Vector_256" d="M1421 217H1414V224H1421V217Z" fill="white"/>
<path id="Vector_257" d="M1407 224H1400V231H1407V224Z" fill="white"/>
<path id="Vector_258" d="M1470 154H1456V161H1470V154Z" fill="white"/>
<path id="Vector_259" d="M1456 147H1442V154H1456V147Z" fill="white"/>
<path id="Vector_260" d="M1442 140H1428V147H1442V140Z" fill="white"/>
<path id="Vector_261" d="M1421 133H1414V140H1421V133Z" fill="white"/>
<path id="Vector_262" d="M1407 126H1400V133H1407V126Z" fill="white"/>
</g>
</g>
<path id="Vector_263" d="M1169 259H1029V294H1169V259Z" fill="white"/>
<path id="Vector_264" d="M1449 259H1309V294H1449V259Z" fill="white"/>
<path id="Vector_265" d="M1729 259H1589V294H1729V259Z" fill="white"/>
<path id="Vector_266" d="M1918 259H1869V294H1918V259Z" fill="white"/>
</g>
</g>
</g>
<defs>
<clipPath id="clip0_128_1116">
<rect width="891" height="266" fill="white" transform="translate(0 28)"/>
</clipPath>
</defs>
</svg>
