<svg width="763" height="728" viewBox="0 0 763 728" fill="none" xmlns="http://www.w3.org/2000/svg">
<g id="Contacts" clip-path="url(#clip0_129_2166)">
<path id="Vector" d="M750 721H-13V728H750V721Z" fill="white"/>
<path id="Vector_2" d="M231 126H217V140H231V126Z" fill="white"/>
<path id="Vector_3" d="M49 14H35V28H49V14Z" fill="white"/>
<path id="Vector_4" d="M532 461.8H448V476H532V461.8Z" fill="white"/>
<g id="Shape_5">
<path id="Vector_5" d="M371 273H357V287H371V273Z" fill="white"/>
<path id="Vector_6" d="M371 287H364V294H371V287Z" fill="white"/>
<path id="Vector_7" d="M364 294H357V301H364V294Z" fill="white"/>
</g>
<g id="Group_2">
<g id="Group_3">
<path id="Vector_8" d="M615.96 622.95H546V636.94H615.96V622.95Z" fill="#F8C4B6"/>
<path id="Vector_9" d="M560 636.95H553V643.95H560V636.95Z" fill="#F8C4B6"/>
</g>
<g id="Group_4">
<path id="Vector_10" d="M629.95 650.94V720.9H643.94V650.94H629.95Z" fill="#F8C4B6"/>
<path id="Vector_11" d="M629.96 713.91H622.96V720.91H629.96V713.91Z" fill="#F8C4B6"/>
</g>
<path id="Vector_12" d="M615.96 622.95H573.98V636.94H615.96V622.95Z" fill="#BD111F"/>
<path id="Vector_13" d="M629.95 650.95V699.92H643.94V650.95H629.95Z" fill="#BD111F"/>
<path id="Vector_14" d="M629.95 622.95H615.96V650.93H629.95V622.95Z" fill="#BD111F"/>
<path id="Vector_15" d="M643.95 636.95H622.96V650.94H643.95V636.95Z" fill="#BD111F"/>
<path id="Vector_16" d="M629.96 615.96H622.96V622.96H629.96V615.96Z" fill="#BD111F"/>
<path id="Vector_17" d="M650.95 636.95H643.95V643.95H650.95V636.95Z" fill="#BD111F"/>
<path id="Vector_18" d="M643.95 629.95H636.95V636.95H643.95V629.95Z" fill="white"/>
<path id="Vector_19" d="M636.95 622.95H629.95V629.95H636.95V622.95Z" fill="white"/>
<path id="Vector_20" d="M636.95 629.95H629.95V636.95H636.95V629.95Z" fill="white"/>
<path id="Vector_21" d="M643.95 636.95H636.95V643.95H643.95V636.95Z" fill="white"/>
<path id="Vector_22" d="M629.96 622.95H622.96V629.95H629.96V622.95Z" fill="white"/>
<path id="Vector_23" d="M636.95 608.96H629.95V615.96H636.95V608.96Z" fill="#BD111F"/>
<path id="Vector_24" d="M657.94 629.95H650.94V636.95H657.94V629.95Z" fill="#BD111F"/>
<path id="Vector_25" d="M650.95 622.95H643.95V629.95H650.95V622.95Z" fill="#BD111F"/>
<path id="Vector_26" d="M643.95 615.96H636.95V622.96H643.95V615.96Z" fill="#BD111F"/>
<path id="Vector_27" d="M643.95 622.95H636.95V629.95H643.95V622.95Z" fill="#BD111F"/>
<path id="Vector_28" d="M650.95 629.95H643.95V636.95H650.95V629.95Z" fill="#BD111F"/>
<path id="Vector_29" d="M636.95 615.96H629.95V622.96H636.95V615.96Z" fill="#BD111F"/>
<path id="Vector_30" d="M643.95 601.97H636.95V608.97H643.95V601.97Z" fill="#BD111F"/>
<path id="Vector_31" d="M664.94 622.95H657.94V629.95H664.94V622.95Z" fill="#BD111F"/>
<path id="Vector_32" d="M657.94 615.96H650.94V622.96H657.94V615.96Z" fill="#BD111F"/>
<path id="Vector_33" d="M650.95 608.96H643.95V615.96H650.95V608.96Z" fill="#BD111F"/>
<path id="Vector_34" d="M650.95 615.96H643.95V622.96H650.95V615.96Z" fill="#BD111F"/>
<path id="Vector_35" d="M657.94 622.95H650.94V629.95H657.94V622.95Z" fill="#BD111F"/>
<path id="Vector_36" d="M643.95 608.96H636.95V615.96H643.95V608.96Z" fill="#BD111F"/>
<path id="Vector_37" d="M720.91 608.97V636.95H727.91V608.97H720.91Z" fill="#40500E"/>
<path id="Vector_38" d="M657.93 539H629.95V546H657.93V539Z" fill="#40500E"/>
<g id="Group_5">
<path id="Vector_39" d="M713.91 608.96V623H720.91V608.96H713.91Z" fill="white"/>
<path id="Vector_40" d="M727.9 609V637H734.9V609H727.9Z" fill="white"/>
<path id="Vector_41" d="M657.94 532H629.9V539H657.94V532Z" fill="white"/>
<path id="Vector_42" d="M657.94 546H643.9V567H657.94V546Z" fill="white"/>
</g>
<path id="Vector_43" d="M657.94 552.99H643.95V587.97H657.94V552.99Z" fill="#F8C4B6"/>
<path id="Vector_44" d="M713.91 622.95V608.96H678.93V622.95H713.91Z" fill="#F8C4B6"/>
<path id="Vector_45" d="M664.94 588H643.95V608.96H664.94V588Z" fill="#40500E"/>
<path id="Vector_46" d="M657.94 601.96V622.95H678.9V601.96H657.94Z" fill="#40500E"/>
<path id="Vector_47" d="M636.9 644H587.9V693H636.9V644Z" fill="#F8C4B6"/>
<path id="Vector_48" d="M615.91 679H608.91V686H615.91V679Z" fill="#738928"/>
<path id="Vector_49" d="M629.91 665H622.91V672H629.91V665Z" fill="#BD111F"/>
<path id="Vector_50" d="M615.91 651H608.91V658H615.91V651Z" fill="#738928"/>
<path id="Vector_51" d="M622.91 637H615.91V644H622.91V637Z" fill="#F8C4B6"/>
<path id="Vector_52" d="M622.91 693H615.91V700H622.91V693Z" fill="#F8C4B6"/>
<path id="Vector_53" d="M664.9 602H650.9V616H664.9V602Z" fill="#40500E"/>
</g>
</g>
<defs>
<clipPath id="clip0_129_2166">
<rect width="763" height="728" fill="white"/>
</clipPath>
</defs>
</svg>
