<svg width="763" height="714" viewBox="0 0 763 714" fill="none" xmlns="http://www.w3.org/2000/svg">
<g id="Contacts" clip-path="url(#clip0_129_2166)">
<path id="Vector" d="M750 707H-13V714H750V707Z" fill="white"/>
<path id="Vector_2" d="M231 112H217V126H231V112Z" fill="white"/>
<path id="Vector_3" d="M49 0H35V14H49V0Z" fill="white"/>
<path id="Vector_4" d="M532 447.8H448V462H532V447.8Z" fill="white"/>
<g id="Group">
<path id="Vector_5" d="M371 259H357V273H371V259Z" fill="white"/>
<path id="Vector_6" d="M371 273H364V280H371V273Z" fill="white"/>
<path id="Vector_7" d="M364 280H357V287H364V280Z" fill="white"/>
</g>
<g id="Group_2">
<g id="Group_3">
<path id="Vector_8" d="M615.96 608.95H546V622.94H615.96V608.95Z" fill="#F8C4B6"/>
<path id="Vector_9" d="M560 622.95H553V629.95H560V622.95Z" fill="#F8C4B6"/>
</g>
<g id="Group_4">
<path id="Vector_10" d="M629.95 636.94V706.9H643.94V636.94H629.95Z" fill="#F8C4B6"/>
<path id="Vector_11" d="M629.96 699.91H622.96V706.91H629.96V699.91Z" fill="#F8C4B6"/>
</g>
<path id="Vector_12" d="M615.96 608.95H573.98V622.94H615.96V608.95Z" fill="#BD111F"/>
<path id="Vector_13" d="M629.95 636.95V685.92H643.94V636.95H629.95Z" fill="#BD111F"/>
<path id="Vector_14" d="M629.95 608.95H615.96V636.93H629.95V608.95Z" fill="#BD111F"/>
<path id="Vector_15" d="M643.95 622.95H622.96V636.94H643.95V622.95Z" fill="#BD111F"/>
<path id="Vector_16" d="M629.96 601.96H622.96V608.96H629.96V601.96Z" fill="#BD111F"/>
<path id="Vector_17" d="M650.95 622.95H643.95V629.95H650.95V622.95Z" fill="#BD111F"/>
<path id="Vector_18" d="M643.95 615.95H636.95V622.95H643.95V615.95Z" fill="white"/>
<path id="Vector_19" d="M636.95 608.95H629.95V615.95H636.95V608.95Z" fill="white"/>
<path id="Vector_20" d="M636.95 615.95H629.95V622.95H636.95V615.95Z" fill="white"/>
<path id="Vector_21" d="M643.95 622.95H636.95V629.95H643.95V622.95Z" fill="white"/>
<path id="Vector_22" d="M629.96 608.95H622.96V615.95H629.96V608.95Z" fill="white"/>
<path id="Vector_23" d="M636.95 594.96H629.95V601.96H636.95V594.96Z" fill="#BD111F"/>
<path id="Vector_24" d="M657.94 615.95H650.94V622.95H657.94V615.95Z" fill="#BD111F"/>
<path id="Vector_25" d="M650.95 608.95H643.95V615.95H650.95V608.95Z" fill="#BD111F"/>
<path id="Vector_26" d="M643.95 601.96H636.95V608.96H643.95V601.96Z" fill="#BD111F"/>
<path id="Vector_27" d="M643.95 608.95H636.95V615.95H643.95V608.95Z" fill="#BD111F"/>
<path id="Vector_28" d="M650.95 615.95H643.95V622.95H650.95V615.95Z" fill="#BD111F"/>
<path id="Vector_29" d="M636.95 601.96H629.95V608.96H636.95V601.96Z" fill="#BD111F"/>
<path id="Vector_30" d="M643.95 587.97H636.95V594.97H643.95V587.97Z" fill="#BD111F"/>
<path id="Vector_31" d="M664.94 608.95H657.94V615.95H664.94V608.95Z" fill="#BD111F"/>
<path id="Vector_32" d="M657.94 601.96H650.94V608.96H657.94V601.96Z" fill="#BD111F"/>
<path id="Vector_33" d="M650.95 594.96H643.95V601.96H650.95V594.96Z" fill="#BD111F"/>
<path id="Vector_34" d="M650.95 601.96H643.95V608.96H650.95V601.96Z" fill="#BD111F"/>
<path id="Vector_35" d="M657.94 608.95H650.94V615.95H657.94V608.95Z" fill="#BD111F"/>
<path id="Vector_36" d="M643.95 594.96H636.95V601.96H643.95V594.96Z" fill="#BD111F"/>
<path id="Vector_37" d="M720.91 594.97V622.95H727.91V594.97H720.91Z" fill="#40500E"/>
<path id="Vector_38" d="M657.93 525H629.95V532H657.93V525Z" fill="#40500E"/>
<g id="Group_5">
<path id="Vector_39" d="M713.91 594.96V609H720.91V594.96H713.91Z" fill="white"/>
<path id="Vector_40" d="M727.9 595V623H734.9V595H727.9Z" fill="white"/>
<path id="Vector_41" d="M657.94 518H629.9V525H657.94V518Z" fill="white"/>
<path id="Vector_42" d="M657.94 532H643.9V553H657.94V532Z" fill="white"/>
</g>
<path id="Vector_43" d="M657.94 538.99H643.95V573.97H657.94V538.99Z" fill="#F8C4B6"/>
<path id="Vector_44" d="M713.91 608.95V594.96H678.93V608.95H713.91Z" fill="#F8C4B6"/>
<path id="Vector_45" d="M664.94 574H643.95V594.96H664.94V574Z" fill="#40500E"/>
<path id="Vector_46" d="M657.94 587.96V608.95H678.9V587.96H657.94Z" fill="#40500E"/>
<path id="Vector_47" d="M636.9 630H587.9V679H636.9V630Z" fill="#F8C4B6"/>
<path id="Vector_48" d="M615.91 665H608.91V672H615.91V665Z" fill="#738928"/>
<path id="Vector_49" d="M629.91 651H622.91V658H629.91V651Z" fill="#BD111F"/>
<path id="Vector_50" d="M615.91 637H608.91V644H615.91V637Z" fill="#738928"/>
<path id="Vector_51" d="M622.91 623H615.91V630H622.91V623Z" fill="#F8C4B6"/>
<path id="Vector_52" d="M622.91 679H615.91V686H622.91V679Z" fill="#F8C4B6"/>
<path id="Vector_53" d="M664.9 588H650.9V602H664.9V588Z" fill="#40500E"/>
</g>
</g>
<defs>
<clipPath id="clip0_129_2166">
<rect width="763" height="714" fill="white"/>
</clipPath>
</defs>
</svg>
