<svg width="49" height="49" viewBox="0 0 49 49" fill="none" xmlns="http://www.w3.org/2000/svg">
<g id="Element_3">
<g id="Frame">
<path id="Vector" d="M42 42H35V49H42V42Z" fill="#A1AC45"/>
<path id="Vector_2" d="M49 35H42V42H49V35Z" fill="#A1AC45"/>
<path id="Vector_3" d="M35 35H28V42H35V35Z" fill="#A1AC45"/>
<path id="Vector_4" d="M42 28H35V35H42V28Z" fill="#A1AC45"/>
<path id="Vector_5" d="M14 42H7V49H14V42Z" fill="#A1AC45"/>
<path id="Vector_6" d="M21 35H14V42H21V35Z" fill="#A1AC45"/>
<path id="Vector_7" d="M28 28H21V35H28V28Z" fill="#A1AC45"/>
<path id="Vector_8" d="M35 21H28V28H35V21Z" fill="#A1AC45"/>
<path id="Vector_9" d="M42 14H35V21H42V14Z" fill="#A1AC45"/>
<path id="Vector_10" d="M49 7H42V14H49V7Z" fill="#A1AC45"/>
<path id="Vector_11" d="M35 28H28V35H35V28Z" fill="#A1AC45"/>
<path id="Vector_12" d="M7 35H0V42H7V35Z" fill="#A1AC45"/>
<path id="Vector_13" d="M14 28H7V35H14V28Z" fill="#A1AC45"/>
<path id="Vector_14" d="M21 21H14V28H21V21Z" fill="#A1AC45"/>
<path id="Vector_15" d="M28 14H21V21H28V14Z" fill="#A1AC45"/>
<path id="Vector_16" d="M35 7H28V14H35V7Z" fill="#A1AC45"/>
<path id="Vector_17" d="M42 0H35V7H42V0Z" fill="#A1AC45"/>
<path id="Vector_18" d="M21 28H14V35H21V28Z" fill="#A1AC45"/>
<path id="Vector_19" d="M35 14H28V21H35V14Z" fill="#A1AC45"/>
<path id="Vector_20" d="M14 14H7V21H14V14Z" fill="#A1AC45"/>
<path id="Vector_21" d="M21 7H14V14H21V7Z" fill="#A1AC45"/>
<path id="Vector_22" d="M21 14H14V21H21V14Z" fill="#A1AC45"/>
<path id="Vector_23" d="M7 7H0V14H7V7Z" fill="#A1AC45"/>
<path id="Vector_24" d="M14 0H7V7H14V0Z" fill="#A1AC45"/>
</g>
</g>
</svg>
