<svg width="77" height="77" viewBox="0 0 77 77" fill="none" xmlns="http://www.w3.org/2000/svg">
<path d="M42 70H35V77H42V70Z" fill="#738928"/>
<path d="M77 35H70V42H77V35Z" fill="#738928"/>
<path d="M42 56H35V63H42V56Z" fill="#738928"/>
<path d="M63 35H56V42H63V35Z" fill="#738928"/>
<path d="M42 42H35V49H42V42Z" fill="#738928"/>
<path d="M49 35H42V42H49V35Z" fill="#738928"/>
<path d="M35 35H28V42H35V35Z" fill="#738928"/>
<path d="M42 28H35V35H42V28Z" fill="#738928"/>
<path d="M21 35H14V42H21V35Z" fill="#738928"/>
<path d="M42 14H35V21H42V14Z" fill="#738928"/>
<path d="M7 35H0V42H7V35Z" fill="#738928"/>
<path d="M42 0H35V7H42V0Z" fill="#738928"/>
</svg>
