<svg width="35" height="35" viewBox="0 0 35 35" fill="none" xmlns="http://www.w3.org/2000/svg">
<g id="Element_4">
<g id="Frame">
<path id="Vector" d="M28 28H21V35H28V28Z" fill="#CDD496"/>
<path id="Vector_2" d="M35 21H28V28H35V21Z" fill="#CDD496"/>
<path id="Vector_3" d="M14 28H7V35H14V28Z" fill="#CDD496"/>
<path id="Vector_4" d="M21 21H14V28H21V21Z" fill="#CDD496"/>
<path id="Vector_5" d="M28 14H21V21H28V14Z" fill="#CDD496"/>
<path id="Vector_6" d="M35 7H28V14H35V7Z" fill="#CDD496"/>
<path id="Vector_7" d="M28 21H21V28H28V21Z" fill="#CDD496"/>
<path id="Vector_8" d="M7 21H0V28H7V21Z" fill="#CDD496"/>
<path id="Vector_9" d="M14 14H7V21H14V14Z" fill="#CDD496"/>
<path id="Vector_10" d="M21 7H14V14H21V7Z" fill="#CDD496"/>
<path id="Vector_11" d="M28 0H21V7H28V0Z" fill="#CDD496"/>
<path id="Vector_12" d="M14 21H7V28H14V21Z" fill="#CDD496"/>
<path id="Vector_13" d="M28 7H21V14H28V7Z" fill="#CDD496"/>
<path id="Vector_14" d="M7 7H0V14H7V7Z" fill="#CDD496"/>
<path id="Vector_15" d="M14 0H7V7H14V0Z" fill="#CDD496"/>
<path id="Vector_16" d="M14 7H7V14H14V7Z" fill="#CDD496"/>
</g>
</g>
</svg>
