<svg width="126" height="49" viewBox="0 0 126 49" fill="none" xmlns="http://www.w3.org/2000/svg">
<g id="Element">
<g id="Group 7">
<g id="Group">
<path id="Vector" d="M119 14V21H126V14H119Z" fill="#CDD496"/>
<path id="Vector_2" d="M112 7V14H119V7H112Z" fill="#CDD496"/>
<path id="Vector_3" d="M105 0V7H112V0H105Z" fill="#CDD496"/>
<path id="Vector_4" d="M98 7V14H105V7H98Z" fill="#CDD496"/>
<path id="Vector_5" d="M91 14V21H98V14H91Z" fill="#CDD496"/>
<path id="Vector_6" d="M84 7V14H91V7H84Z" fill="#CDD496"/>
<path id="Vector_7" d="M77 0V7H84V0H77Z" fill="#CDD496"/>
<path id="Vector_8" d="M70 7V14H77V7H70Z" fill="#CDD496"/>
<path id="Vector_9" d="M63 14V21H70V14H63Z" fill="#CDD496"/>
<path id="Vector_10" d="M56 7V14H63V7H56Z" fill="#CDD496"/>
<path id="Vector_11" d="M49 0V7H56V0H49Z" fill="#CDD496"/>
<path id="Vector_12" d="M42 7V14H49V7H42Z" fill="#CDD496"/>
<path id="Vector_13" d="M35 14V21H42V14H35Z" fill="#CDD496"/>
<path id="Vector_14" d="M28 7V14H35V7H28Z" fill="#CDD496"/>
<path id="Vector_15" d="M21 0V7H28V0H21Z" fill="#CDD496"/>
<path id="Vector_16" d="M14 7V14H21V7H14Z" fill="#CDD496"/>
<path id="Vector_17" d="M7 14V21H14V14H7Z" fill="#CDD496"/>
<path id="Vector_18" d="M0 7L0 14H7V7H0Z" fill="#CDD496"/>
</g>
<g id="Group_2">
<path id="Vector_19" d="M119 42V49H126V42H119Z" fill="#CDD496"/>
<path id="Vector_20" d="M112 35V42H119V35H112Z" fill="#CDD496"/>
<path id="Vector_21" d="M105 28V35H112V28H105Z" fill="#CDD496"/>
<path id="Vector_22" d="M98 35V42H105V35H98Z" fill="#CDD496"/>
<path id="Vector_23" d="M91 42V49H98V42H91Z" fill="#CDD496"/>
<path id="Vector_24" d="M84 35V42H91V35H84Z" fill="#CDD496"/>
<path id="Vector_25" d="M77 28V35H84V28H77Z" fill="#CDD496"/>
<path id="Vector_26" d="M70 35V42H77V35H70Z" fill="#CDD496"/>
<path id="Vector_27" d="M63 42V49H70V42H63Z" fill="#CDD496"/>
<path id="Vector_28" d="M56 35V42H63V35H56Z" fill="#CDD496"/>
<path id="Vector_29" d="M49 28V35H56V28H49Z" fill="#CDD496"/>
<path id="Vector_30" d="M42 35V42H49V35H42Z" fill="#CDD496"/>
<path id="Vector_31" d="M35 42V49H42V42H35Z" fill="#CDD496"/>
<path id="Vector_32" d="M28 35V42H35V35H28Z" fill="#CDD496"/>
<path id="Vector_33" d="M21 28V35H28V28H21Z" fill="#CDD496"/>
<path id="Vector_34" d="M14 35V42H21V35H14Z" fill="#CDD496"/>
<path id="Vector_35" d="M7 42V49H14V42H7Z" fill="#CDD496"/>
<path id="Vector_36" d="M0 35L0 42H7V35H0Z" fill="#CDD496"/>
</g>
</g>
</g>
</svg>
