<svg width="456" height="632" viewBox="0 0 456 632" fill="none" xmlns="http://www.w3.org/2000/svg">
<g id="HERO_LOGO" clip-path="url(#clip0_128_3)">
<g id="Group">
<path id="Vector" d="M94.7777 535.172L83.2345 557.648H94.5261V562.579H67.5232L79.1023 540.104H69.0862V535.172H94.7777Z" fill="#E7EEAF"/>
<path id="Vector_2" d="M127.045 557.648V562.579H103.365V535.172H126.425L126.389 540.104H115.277V545.44H123.568V550.371H115.277V557.648H127.045Z" fill="#E7EEAF"/>
<path id="Vector_3" d="M159.86 557.648V562.579H136.18V535.172H148.092V557.648H159.86Z" fill="#E7EEAF"/>
<path id="Vector_4" d="M193.402 540.113H184.015V562.588H172.104V540.113H162.716V535.181H193.411V540.113H193.402Z" fill="#E7EEAF"/>
<path id="Vector_5" d="M234.473 562.579V535.172H251.388C252.726 535.172 254.002 535.531 255.223 536.25C256.445 536.969 257.37 537.903 257.999 539.044C258.655 540.265 258.987 541.514 258.987 542.808C258.987 544.389 258.367 545.934 257.128 547.452C259.095 549.087 260.083 551.279 260.083 554.027C260.083 555.492 259.751 556.875 259.077 558.196C258.403 559.507 257.397 560.567 256.059 561.376C254.72 562.184 253.292 562.579 251.783 562.579H234.464H234.473ZM250.992 545.44C251.801 545.44 252.466 545.188 253.005 544.676C253.544 544.164 253.813 543.526 253.813 542.772C253.813 542.062 253.535 541.442 252.969 540.903C252.412 540.373 251.747 540.104 250.992 540.104H246.384V545.44H250.992ZM251.136 557.648C252.16 557.648 253.04 557.297 253.768 556.588C254.496 555.878 254.864 555.025 254.864 554.027C254.864 552.976 254.505 552.105 253.786 551.395C253.067 550.686 252.187 550.335 251.136 550.335H246.384V557.648H251.136Z" fill="#E7EEAF"/>
<path id="Vector_6" d="M293.302 557.648V562.579H269.623V535.172H292.682L292.647 540.104H281.535V545.44H289.826V550.371H281.535V557.648H293.302Z" fill="#E7EEAF"/>
<path id="Vector_7" d="M326.117 557.648V562.579H302.438V535.172H314.349V557.648H326.117Z" fill="#E7EEAF"/>
<path id="Vector_8" d="M358.016 557.648V562.579H334.337V535.172H357.396L357.36 540.104H346.248V545.44H354.539V550.371H346.248V557.648H358.016Z" fill="#E7EEAF"/>
<path id="Vector_9" d="M368.751 555.052C371.257 557.315 373.88 558.447 376.611 558.447C378.075 558.447 379.413 558.205 380.635 557.719L371.248 551.943C367.888 549.877 366.199 547.227 366.199 544.011C366.199 541.361 367.385 539.098 369.766 537.238C372.137 535.37 375.102 534.444 378.659 534.444C381.848 534.444 384.956 535.406 387.974 537.328L385.091 541.316C383.312 540.005 381.183 539.34 378.695 539.34C377.545 539.34 376.467 539.502 375.443 539.816L384.651 545.485C388.01 547.56 389.69 550.228 389.69 553.497C389.69 556.255 388.441 558.582 385.944 560.486C383.447 562.391 380.357 563.343 376.683 563.343C372.2 563.343 368.481 561.87 365.535 558.923L368.751 555.052Z" fill="#E7EEAF"/>
<path id="Vector_10" d="M138.265 593.975V601.027H126.353V573.619H140.385C143.6 573.619 146.313 574.509 148.532 576.287C151.02 578.282 152.26 580.779 152.26 583.779C152.26 586.78 151.02 589.313 148.532 591.307C146.313 593.086 143.582 593.975 140.349 593.975H138.265ZM140.349 589.043C142.343 589.043 143.969 588.549 145.226 587.561C146.484 586.573 147.104 585.324 147.104 583.815C147.104 582.306 146.484 581.021 145.244 580.033C144.005 579.045 142.379 578.551 140.385 578.551H138.265V589.034H140.349V589.043Z" fill="#E7EEAF"/>
<path id="Vector_11" d="M190.079 601.027H177.439L175.796 596.894H165.42L163.812 601.027H158.476L169.256 573.619H179.236L190.088 601.027H190.079ZM173.999 592.367L170.603 583.743L167.208 592.367H174.008H173.999Z" fill="#E7EEAF"/>
<path id="Vector_12" d="M200.274 593.499C202.781 595.763 205.404 596.894 208.134 596.894C209.599 596.894 210.937 596.652 212.15 596.167L202.763 590.391C199.403 588.325 197.723 585.675 197.723 582.459C197.723 579.809 198.909 577.545 201.289 575.685C203.661 573.817 206.625 572.892 210.183 572.892C213.372 572.892 216.48 573.853 219.498 575.775L216.614 579.764C214.836 578.47 212.707 577.823 210.218 577.823C209.069 577.823 207.991 577.985 206.967 578.3L216.174 583.968C219.534 586.034 221.214 588.711 221.214 591.972C221.214 594.72 219.965 597.056 217.468 598.952C214.97 600.856 211.88 601.799 208.206 601.799C203.724 601.799 200.014 600.326 197.058 597.379L200.274 593.508V593.499Z" fill="#E7EEAF"/>
<path id="Vector_13" d="M259.903 601.027H247.255L245.611 596.894H235.236L233.628 601.027H228.292L239.072 573.619H249.052L259.903 601.027ZM243.824 592.367L240.428 583.743L237.033 592.367H243.833H243.824Z" fill="#E7EEAF"/>
<path id="Vector_14" d="M296.222 598.691L291.73 601.871L283.214 589.995L280.403 593.867V601.027H268.491V573.619H280.403V585.351L289.359 573.619H295.494L286.619 585.387L296.231 598.691H296.222Z" fill="#E7EEAF"/>
<path id="Vector_15" d="M333.528 601.027H320.889L319.245 596.894H308.87L307.262 601.027H301.926L312.706 573.619H322.686L333.537 601.027H333.528ZM317.449 592.367L314.053 583.743L310.658 592.367H317.458H317.449Z" fill="#E7EEAF"/>
</g>
<path id="Vector_16" d="M399.302 504.432H56.7883V510.666H399.302V504.432Z" fill="#E7EEAF"/>
<path id="Vector_17" d="M399.302 516.892H56.7883V523.126H399.302V516.892Z" fill="#E7EEAF"/>
<path id="Vector_18" d="M399.302 613.315H56.7883V619.541H399.302V613.315Z" fill="#E7EEAF"/>
<path id="Vector_19" d="M399.302 625.775H56.7883V632H399.302V625.775Z" fill="#E7EEAF"/>
<path id="Vector_20" d="M237.392 6.22522H231.158V24.9099H237.392V6.22522Z" fill="#E7EEAF"/>
<path id="Vector_21" d="M231.158 12.4505H224.932V31.1351H231.158V12.4505Z" fill="#E7EEAF"/>
<path id="Vector_22" d="M231.158 37.3693H224.932V56.054H231.158V37.3693Z" fill="#E7EEAF"/>
<path id="Vector_23" d="M231.158 74.7297H224.932V93.4144H231.158V74.7297Z" fill="#E7EEAF"/>
<path id="Vector_24" d="M231.158 118.324H224.932V137.009H231.158V118.324Z" fill="#E7EEAF"/>
<path id="Vector_25" d="M237.392 31.1351H231.158V49.8198H237.392V31.1351Z" fill="#E7EEAF"/>
<path id="Vector_26" d="M274.752 31.1351H268.518V49.8198H274.752V31.1351Z" fill="#E7EEAF"/>
<path id="Vector_27" d="M243.617 24.9099H237.383V43.5946H243.617V24.9099Z" fill="#E7EEAF"/>
<path id="Vector_28" d="M268.518 24.9099H262.293V56.045H268.518V24.9099Z" fill="#E7EEAF"/>
<path id="Vector_29" d="M249.842 18.6847H243.608V37.3693H249.842V18.6847Z" fill="#E7EEAF"/>
<path id="Vector_30" d="M268.518 62.2703H262.293V74.7207H268.518V62.2703Z" fill="#E7EEAF"/>
<path id="Vector_31" d="M262.302 18.6847H256.068V37.3693H262.302V18.6847Z" fill="#E7EEAF"/>
<path id="Vector_32" d="M262.302 43.5946H256.068V62.2792H262.302V43.5946Z" fill="#E7EEAF"/>
<path id="Vector_33" d="M256.068 49.8198H249.842V68.5045H256.068V49.8198Z" fill="#E7EEAF"/>
<path id="Vector_34" d="M249.842 56.045H243.617V74.7297H249.842V56.045Z" fill="#E7EEAF"/>
<path id="Vector_35" d="M243.608 62.2703H237.383V80.9549H243.608V62.2703Z" fill="#E7EEAF"/>
<path id="Vector_36" d="M237.383 68.5045H231.158V87.1891H237.383V68.5045Z" fill="#E7EEAF"/>
<path id="Vector_37" d="M256.068 12.4505H249.833V31.1351H256.068V12.4505Z" fill="#E7EEAF"/>
<path id="Vector_38" d="M243.617 0H237.383V18.6847H243.617V0Z" fill="#E7EEAF"/>
<path id="Vector_39" d="M249.842 6.22522H231.158V12.4504H249.842V6.22522Z" fill="#E7EEAF"/>
<path id="Vector_40" d="M280.978 37.3604H262.293V43.5856H280.978V37.3604Z" fill="#E7EEAF"/>
<path id="Vector_41" d="M274.752 87.1802H268.518V80.9549H262.293V87.1802H256.068V93.4144H262.293V99.6396H268.518V93.4144H274.752V87.1802Z" fill="#E7EEAF"/>
<path id="Vector_42" d="M280.978 124.55H274.752V118.324H268.518V124.55H262.293V130.784H268.518V137.009H274.752V130.784H280.978V124.55Z" fill="#E7EEAF"/>
<path id="Vector_43" d="M349.482 62.2703H343.257V56.045H337.032V62.2703H330.797V68.5045H337.032V74.7297H343.257V68.5045H349.482V62.2703Z" fill="#E7EEAF"/>
<path id="Vector_44" d="M374.392 62.2703H368.167V56.045H361.932V62.2703H355.707V68.5045H361.932V74.7297H368.167V68.5045H374.392V62.2703Z" fill="#E7EEAF"/>
<path id="Vector_45" d="M361.942 49.8198H355.707V43.5946H349.482V49.8198H343.257V56.045H349.482V62.2703H355.707V56.045H361.942V49.8198Z" fill="#E7EEAF"/>
<path id="Vector_46" d="M274.743 62.2703H262.293V68.5045H274.743V62.2703Z" fill="#E7EEAF"/>
<path id="Vector_47" d="M274.752 56.045H268.518V68.4955H274.752V56.045Z" fill="#E7EEAF"/>
<path id="Vector_48" d="M386.851 74.7297H380.617V68.5045H374.392V74.7297H368.167V80.9549H374.392V87.1802H380.617V80.9549H386.851V74.7297Z" fill="#E7EEAF"/>
<path id="Vector_49" d="M268.518 68.5045H256.068V74.7387H268.518V68.5045Z" fill="#E7EEAF"/>
<path id="Vector_50" d="M243.617 12.4505H231.158V18.6757H243.617V12.4505Z" fill="#E7EEAF"/>
<path id="Vector_51" d="M237.383 56.045H231.158V62.2703H237.383V56.045Z" fill="#E7EEAF"/>
<path id="Vector_52" d="M231.158 62.2703H224.932V68.4955H231.158V62.2703Z" fill="#E7EEAF"/>
<path id="Vector_53" d="M231.158 168.144H224.932V180.595H231.158V168.144Z" fill="#E7EEAF"/>
<path id="Vector_54" d="M237.383 174.369H231.158V186.829H237.383V174.369Z" fill="#E7EEAF"/>
<path id="Vector_55" d="M243.608 180.595H237.383V193.054H243.608V180.595Z" fill="#E7EEAF"/>
<path id="Vector_56" d="M249.842 186.829H237.383V193.054H249.842V186.829Z" fill="#E7EEAF"/>
<path id="Vector_57" d="M243.617 180.604H231.158V186.829H243.617V180.604Z" fill="#E7EEAF"/>
<path id="Vector_58" d="M237.392 174.378H224.932V180.604H237.392V174.378Z" fill="#E7EEAF"/>
<g id="Group_2">
<path id="Vector_59" d="M361.941 99.6486H343.257V105.874H361.941V99.6486Z" fill="#E7EEAF"/>
<path id="Vector_60" d="M337.031 99.6486H324.572V105.874H337.031V99.6486Z" fill="#E7EEAF"/>
<path id="Vector_61" d="M343.257 93.4144H330.797V99.6396H343.257V93.4144Z" fill="#E7EEAF"/>
<path id="Vector_62" d="M349.491 87.1891H337.031V93.4144H349.491V87.1891Z" fill="#E7EEAF"/>
<path id="Vector_63" d="M355.707 93.4144H349.482V112.099H355.707V93.4144Z" fill="#E7EEAF"/>
<path id="Vector_64" d="M337.023 93.4144H330.797V112.099H337.023V93.4144Z" fill="#E7EEAF"/>
<path id="Vector_65" d="M343.257 87.1891H337.031V99.6486H343.257V87.1891Z" fill="#E7EEAF"/>
<path id="Vector_66" d="M355.716 80.9639H343.257V87.1891H355.716V80.9639Z" fill="#E7EEAF"/>
<path id="Vector_67" d="M349.482 80.9639H343.257V93.4144H349.482V80.9639Z" fill="#E7EEAF"/>
<path id="Vector_68" d="M361.941 80.9639H349.482V87.1891H361.941V80.9639Z" fill="#E7EEAF"/>
<path id="Vector_69" d="M361.932 80.9639H355.707V93.4144H361.932V80.9639Z" fill="#E7EEAF"/>
<path id="Vector_70" d="M355.707 74.7297H349.482V87.1891H355.707V74.7297Z" fill="#E7EEAF"/>
<path id="Vector_71" d="M343.257 105.874H330.797V112.099H343.257V105.874Z" fill="#E7EEAF"/>
<path id="Vector_72" d="M343.257 105.865H337.031V118.315H343.257V105.865Z" fill="#E7EEAF"/>
</g>
<path id="Vector_73" d="M243.608 186.829H237.383V199.288H243.608V186.829Z" fill="#E7EEAF"/>
<path id="Vector_74" d="M237.383 193.054H231.158V205.513H237.383V193.054Z" fill="#E7EEAF"/>
<path id="Vector_75" d="M231.158 199.279H224.932V211.73H231.158V199.279Z" fill="#E7EEAF"/>
<path id="Vector_76" d="M237.392 199.288H224.932V205.513H237.392V199.288Z" fill="#E7EEAF"/>
<path id="Vector_77" d="M243.617 193.054H231.158V199.279H243.617V193.054Z" fill="#E7EEAF"/>
<path id="Vector_78" d="M237.383 124.549H224.932V130.784H237.383V124.549Z" fill="#E7EEAF"/>
<g id="Group_3">
<path id="Vector_79" d="M324.572 74.7297H280.978V87.1802H324.572V74.7297Z" fill="#E7EEAF"/>
<path id="Vector_80" d="M318.347 80.9549H287.203V93.4054H318.347V80.9549Z" fill="#E7EEAF"/>
<path id="Vector_81" d="M330.806 68.5045H318.347V80.9639H330.806V68.5045Z" fill="#E7EEAF"/>
<path id="Vector_82" d="M299.662 56.045H280.978V62.2702H299.662V56.045Z" fill="#E7EEAF"/>
<path id="Vector_83" d="M293.437 49.8198H287.203V62.2703H293.437V49.8198Z" fill="#E7EEAF"/>
<path id="Vector_84" d="M299.662 56.045H293.428V74.7297H299.662V56.045Z" fill="#E7EEAF"/>
<path id="Vector_85" d="M324.572 56.045H318.347V74.7297H324.572V56.045Z" fill="#E7EEAF"/>
<path id="Vector_86" d="M312.122 56.045H305.887V68.4955H312.122V56.045Z" fill="#E7EEAF"/>
<path id="Vector_87" d="M318.347 49.8198H312.113V62.2703H318.347V49.8198Z" fill="#E7EEAF"/>
<path id="Vector_88" d="M299.662 87.1801H293.437V105.865H299.662V87.1801Z" fill="#E7EEAF"/>
<path id="Vector_89" d="M312.122 87.1801H305.887V105.865H312.122V87.1801Z" fill="#E7EEAF"/>
<path id="Vector_90" d="M293.437 56.045H280.978V62.2702H293.437V56.045Z" fill="#E7EEAF"/>
<path id="Vector_91" d="M312.113 68.5045H287.203V80.9639H312.113V68.5045Z" fill="#E7EEAF"/>
<path id="Vector_92" d="M324.572 56.045H305.887V68.5045H324.572V56.045Z" fill="#E7EEAF"/>
<path id="Vector_93" d="M293.428 105.865H287.203V112.09H293.428V105.865Z" fill="#E7EEAF"/>
<path id="Vector_94" d="M305.887 105.865H299.662V112.09H305.887V105.865Z" fill="#E7EEAF"/>
</g>
<path id="Vector_95" d="M243.608 49.8198H237.383V56.054H243.608V49.8198Z" fill="#E7EEAF"/>
<path id="Vector_96" d="M231.158 186.829H224.932V193.054H231.158V186.829Z" fill="#E7EEAF"/>
<path id="Vector_97" d="M237.383 217.964H231.158V224.189H237.383V217.964Z" fill="#E7EEAF"/>
<path id="Vector_98" d="M231.158 224.189H224.932V230.414H231.158V224.189Z" fill="#E7EEAF"/>
<path id="Vector_99" d="M243.608 211.739H237.383V217.973H243.608V211.739Z" fill="#E7EEAF"/>
<path id="Vector_100" d="M249.842 205.513H243.617V211.739H249.842V205.513Z" fill="#E7EEAF"/>
<path id="Vector_101" d="M256.068 199.288H249.842V205.513H256.068V199.288Z" fill="#E7EEAF"/>
<path id="Vector_102" d="M262.293 193.054H256.068V199.279H262.293V193.054Z" fill="#E7EEAF"/>
<path id="Vector_103" d="M268.527 186.829H262.302V193.063H268.527V186.829Z" fill="#E7EEAF"/>
<path id="Vector_104" d="M274.752 180.604H268.527V186.829H274.752V180.604Z" fill="#E7EEAF"/>
<path id="Vector_105" d="M280.986 174.378H274.761V180.604H280.986V174.378Z" fill="#E7EEAF"/>
<path id="Vector_106" d="M287.212 168.144H280.987V174.369H287.212V168.144Z" fill="#E7EEAF"/>
<path id="Vector_107" d="M293.437 161.919H287.212V168.153H293.437V161.919Z" fill="#E7EEAF"/>
<path id="Vector_108" d="M299.662 155.694H293.437V161.919H299.662V155.694Z" fill="#E7EEAF"/>
<path id="Vector_109" d="M305.896 149.468H299.671V155.694H305.896V149.468Z" fill="#E7EEAF"/>
<path id="Vector_110" d="M312.122 143.234H305.896V149.459H312.122V143.234Z" fill="#E7EEAF"/>
<path id="Vector_111" d="M318.356 137.009H312.131V143.243H318.356V137.009Z" fill="#E7EEAF"/>
<path id="Vector_112" d="M324.581 130.784H318.356V137.009H324.581V130.784Z" fill="#E7EEAF"/>
<path id="Vector_113" d="M330.806 124.558H324.581V130.784H330.806V124.558Z" fill="#E7EEAF"/>
<path id="Vector_114" d="M337.031 118.333H330.806V124.558H337.031V118.333Z" fill="#E7EEAF"/>
<path id="Vector_115" d="M249.833 43.5946H243.608V49.8198H249.833V43.5946Z" fill="#E7EEAF"/>
<path id="Vector_116" d="M256.059 37.3693H249.833V43.5946H256.059V37.3693Z" fill="#E7EEAF"/>
<path id="Vector_117" d="M274.752 105.874H262.293V99.6396H256.067V105.874H249.842V112.099H243.617H243.608V118.324H237.383V124.549H262.293V118.324H268.518V112.099H274.752V105.874Z" fill="#E7EEAF"/>
<path id="Vector_118" d="M256.068 93.4144H249.842V80.9549H243.608V87.1802H237.383V93.4144H231.158V118.324H237.383V112.099H243.617V105.865H249.842V99.6396H256.068V93.4144Z" fill="#E7EEAF"/>
<path id="Vector_119" d="M249.833 174.369V161.919H256.068V155.685H249.833V149.459H243.617V143.234H243.608H237.383V137.009H231.158V161.919H237.383V168.144H243.608V174.369H249.833Z" fill="#E7EEAF"/>
<path id="Vector_120" d="M262.293 155.685V149.459H274.752V143.234H268.518V137.009H262.293V130.784H237.383V137.009H243.617V143.234H249.842V149.459H256.067V155.685H262.293Z" fill="#E7EEAF"/>
<path id="Vector_121" d="M262.302 161.919H256.068V186.829H262.302V161.919Z" fill="#E7EEAF"/>
<path id="Vector_122" d="M268.527 161.919H256.068V180.604H268.527V161.919Z" fill="#E7EEAF"/>
<path id="Vector_123" d="M274.752 161.919H262.778V168.144H274.752V161.919Z" fill="#E7EEAF"/>
<path id="Vector_124" d="M287.203 137.009H280.978V161.919H287.203V137.009Z" fill="#E7EEAF"/>
<path id="Vector_125" d="M299.662 118.324H293.437V143.234H299.662V118.324Z" fill="#E7EEAF"/>
<path id="Vector_126" d="M293.437 137.009H280.978V155.694H293.437V137.009Z" fill="#E7EEAF"/>
<path id="Vector_127" d="M299.662 137.009H287.697V143.234H299.662V137.009Z" fill="#E7EEAF"/>
<path id="Vector_128" d="M299.662 124.415H287.203V137H299.662V124.415Z" fill="#E7EEAF"/>
<g id="Group_4">
<path id="Vector_129" d="M312.122 112.099H305.887V137.009H312.122V112.099Z" fill="#E7EEAF"/>
<path id="Vector_130" d="M318.347 112.099H305.887V130.784H318.347V112.099Z" fill="#E7EEAF"/>
<path id="Vector_131" d="M324.581 112.099H312.607V118.324H324.581V112.099Z" fill="#E7EEAF"/>
</g>
<path id="Vector_132" d="M318.347 24.9099V18.6847H312.122V24.9099H305.896V31.1351H299.662V24.9099H293.437V18.6847H287.203V24.9099H280.978V31.1351H287.203V37.3693H293.437V43.5946H299.662V49.8198H305.887V43.5946H312.122V37.3693H318.347V31.1351H324.572V24.9099H318.347Z" fill="#E7EEAF"/>
<path id="Vector_133" d="M449.13 217.964H430.446V224.189H449.13V217.964Z" fill="#E7EEAF"/>
<path id="Vector_134" d="M424.221 217.964H405.536V224.189H424.221V217.964Z" fill="#E7EEAF"/>
<path id="Vector_135" d="M424.221 180.604H405.536V186.829H424.221V180.604Z" fill="#E7EEAF"/>
<path id="Vector_136" d="M430.446 211.739H411.761V217.964H430.446V211.739Z" fill="#E7EEAF"/>
<path id="Vector_137" d="M430.446 186.829H399.311V193.054H430.446V186.829Z" fill="#E7EEAF"/>
<path id="Vector_138" d="M436.671 205.513H417.986V211.739H436.671V205.513Z" fill="#E7EEAF"/>
<path id="Vector_139" d="M399.302 180.604H386.851V186.829H399.302V180.604Z" fill="#E7EEAF"/>
<path id="Vector_140" d="M380.626 130.784H368.167V174.378H380.626V130.784Z" fill="#E7EEAF"/>
<path id="Vector_141" d="M374.392 137.009H361.941V168.153H374.392V137.009Z" fill="#E7EEAF"/>
<path id="Vector_142" d="M386.851 124.549H374.401V137H386.851V124.549Z" fill="#E7EEAF"/>
<path id="Vector_143" d="M436.671 193.054H417.986V199.279H436.671V193.054Z" fill="#E7EEAF"/>
<path id="Vector_144" d="M411.761 193.054H393.077V199.279H411.761V193.054Z" fill="#E7EEAF"/>
<path id="Vector_145" d="M405.536 199.288H386.851V205.513H405.536V199.288Z" fill="#E7EEAF"/>
<path id="Vector_146" d="M399.311 205.513H380.626V211.739H399.311V205.513Z" fill="#E7EEAF"/>
<path id="Vector_147" d="M393.076 211.739H374.392V217.964H393.076V211.739Z" fill="#E7EEAF"/>
<path id="Vector_148" d="M386.851 217.964H368.167V224.189H386.851V217.964Z" fill="#E7EEAF"/>
<path id="Vector_149" d="M442.897 199.288H424.212V205.513H442.897V199.288Z" fill="#E7EEAF"/>
<path id="Vector_150" d="M455.356 211.739H436.671V217.964H455.356V211.739Z" fill="#E7EEAF"/>
<path id="Vector_151" d="M449.131 205.513H442.896V224.198H449.131V205.513Z" fill="#E7EEAF"/>
<path id="Vector_152" d="M417.995 174.369H411.761V193.054H417.995V174.369Z" fill="#E7EEAF"/>
<path id="Vector_153" d="M399.311 155.694H393.077V174.378H399.311V155.694Z" fill="#E7EEAF"/>
<path id="Vector_154" d="M368.167 180.604V186.829H374.392V193.054H368.167V199.279H361.941V193.054H355.707V186.829H361.941V180.604H368.167Z" fill="#E7EEAF"/>
<path id="Vector_155" d="M330.797 174.369V180.604H337.032V186.829H330.797V193.054H324.572V186.829H318.347V180.604H324.572V174.369H330.797Z" fill="#E7EEAF"/>
<path id="Vector_156" d="M393.077 105.865V112.099H399.302V118.324H393.077V124.55H386.851V118.324H380.617V112.099H386.851V105.865H393.077Z" fill="#E7EEAF"/>
<path id="Vector_157" d="M393.077 80.9639V87.1891H399.302V93.4144H393.077V99.6396H386.851V93.4144H380.617V87.1891H386.851V80.9639H393.077Z" fill="#E7EEAF"/>
<path id="Vector_158" d="M405.536 93.4144V99.6396H411.761V105.865H405.536V112.099H399.311V105.865H393.077V99.6396H399.311V93.4144H405.536Z" fill="#E7EEAF"/>
<path id="Vector_159" d="M386.851 186.829H380.617V199.279H386.851V186.829Z" fill="#E7EEAF"/>
<path id="Vector_160" d="M393.076 180.604H386.851V193.054H393.076V180.604Z" fill="#E7EEAF"/>
<path id="Vector_161" d="M405.536 161.919H393.077V168.144H405.536V161.919Z" fill="#E7EEAF"/>
<path id="Vector_162" d="M399.311 155.694H380.626V161.919H399.311V155.694Z" fill="#E7EEAF"/>
<path id="Vector_163" d="M399.311 130.784H380.626V137.009H399.311V130.784Z" fill="#E7EEAF"/>
<path id="Vector_164" d="M399.311 143.234H386.851V149.459H399.311V143.234Z" fill="#E7EEAF"/>
<path id="Vector_165" d="M405.536 137.009H393.077V143.234H405.536V137.009Z" fill="#E7EEAF"/>
<path id="Vector_166" d="M368.167 155.685H349.491V161.91H368.167V155.685Z" fill="#E7EEAF"/>
<path id="Vector_167" d="M368.167 143.234H349.491V149.459H368.167V143.234Z" fill="#E7EEAF"/>
<path id="Vector_168" d="M399.311 161.919H393.077V174.369H399.311V161.919Z" fill="#E7EEAF"/>
<path id="Vector_169" d="M386.851 143.234H374.392V168.144H386.851V143.234Z" fill="#E7EEAF"/>
<path id="Vector_170" d="M399.302 130.784H386.842V149.468H399.302V130.784Z" fill="#E7EEAF"/>
<path id="Vector_171" d="M442.896 211.739H436.671V224.189H442.896V211.739Z" fill="#E7EEAF"/>
<path id="Vector_172" d="M399.311 217.964H393.077V224.189H399.311V217.964Z" fill="#E7EEAF"/>
<path id="Vector_173" d="M280.978 217.964H268.518V224.189H280.978V217.964Z" fill="#E7EEAF"/>
<path id="Vector_174" d="M274.752 211.739H262.293V217.964H274.752V211.739Z" fill="#E7EEAF"/>
<path id="Vector_175" d="M268.518 205.513H262.293V217.973H268.518V205.513Z" fill="#E7EEAF"/>
<path id="Vector_176" d="M274.752 211.739H268.527V224.198H274.752V211.739Z" fill="#E7EEAF"/>
<g id="Group_5">
<path id="Vector_177" d="M355.707 118.324H349.482V130.784H355.707V118.324Z" fill="#E7EEAF"/>
<path id="Vector_178" d="M361.932 112.099H355.707V124.558H361.932V112.099Z" fill="#E7EEAF"/>
<path id="Vector_179" d="M368.158 105.865H361.932V118.324H368.158V105.865Z" fill="#E7EEAF"/>
<path id="Vector_180" d="M361.942 118.324H343.257V124.55H361.942V118.324Z" fill="#E7EEAF"/>
<path id="Vector_181" d="M368.158 112.099H355.707V118.324H368.158V112.099Z" fill="#E7EEAF"/>
<path id="Vector_182" d="M374.392 99.6396H368.167V112.099H374.392V99.6396Z" fill="#E7EEAF"/>
<path id="Vector_183" d="M374.392 105.874H361.932V112.099H374.392V105.874Z" fill="#E7EEAF"/>
<path id="Vector_184" d="M374.392 93.4144H368.167V105.874H374.392V93.4144Z" fill="#E7EEAF"/>
<path id="Vector_185" d="M374.392 93.4144H361.932V99.6396H374.392V93.4144Z" fill="#E7EEAF"/>
<path id="Vector_186" d="M368.158 87.1891H355.707V93.4144H368.158V87.1891Z" fill="#E7EEAF"/>
<path id="Vector_187" d="M380.617 99.6486H368.167V105.874H380.617V99.6486Z" fill="#E7EEAF"/>
<path id="Vector_188" d="M349.482 112.099H343.257V124.558H349.482V112.099Z" fill="#E7EEAF"/>
<path id="Vector_189" d="M349.491 112.099H337.031V118.324H349.491V112.099Z" fill="#E7EEAF"/>
</g>
<path id="Vector_190" d="M268.518 211.739H256.068V217.964H268.518V211.739Z" fill="#E7EEAF"/>
<path id="Vector_191" d="M262.302 217.964H249.842V224.189H262.302V217.964Z" fill="#E7EEAF"/>
<path id="Vector_192" d="M262.293 211.739H256.068V224.198H262.293V211.739Z" fill="#E7EEAF"/>
<path id="Vector_193" d="M330.806 217.964H324.572V224.189H330.806V217.964Z" fill="#E7EEAF"/>
<path id="Vector_194" d="M231.158 0H224.932V6.22523H231.158V0Z" fill="#E7EEAF"/>
<path id="Vector_195" d="M349.482 161.919H343.257V168.144H349.482V161.919Z" fill="#E7EEAF"/>
<path id="Vector_196" d="M349.482 149.459H343.257V155.685H349.482V149.459Z" fill="#E7EEAF"/>
<path id="Vector_197" d="M405.536 211.739H399.311V217.964H405.536V211.739Z" fill="#E7EEAF"/>
<path id="Vector_198" d="M411.761 205.513H405.536V211.739H411.761V205.513Z" fill="#E7EEAF"/>
<path id="Vector_199" d="M417.995 199.288H411.761V205.513H417.995V199.288Z" fill="#E7EEAF"/>
<path id="Vector_200" d="M349.482 180.604V193.054H355.707V199.288H349.482V205.513H343.257V211.739H337.032V217.964H330.797V193.054H337.032V186.829H343.257V180.604H349.482Z" fill="#E7EEAF"/>
<path id="Vector_201" d="M361.941 199.288V205.513H374.392V211.739H368.167V217.964H361.941V224.189H337.031V217.964H343.257V211.739H349.482V205.513H355.707V199.288H361.941Z" fill="#E7EEAF"/>
<path id="Vector_202" d="M280.978 205.513H293.437V199.288H299.662V205.513H305.896V211.739H312.122V217.964H318.347V224.189H293.428V217.964H287.212V211.739H280.978V205.513Z" fill="#E7EEAF"/>
<path id="Vector_203" d="M299.662 193.054H305.896V180.604H312.122V186.829H318.347V193.054H324.572V217.964H318.347V211.739H312.122V205.513H305.896V199.288H299.662V193.054Z" fill="#E7EEAF"/>
<path id="Vector_204" d="M293.437 193.054H268.527V199.279H293.437V193.054Z" fill="#E7EEAF"/>
<path id="Vector_205" d="M293.437 186.829H274.752V199.288H293.437V186.829Z" fill="#E7EEAF"/>
<path id="Vector_206" d="M293.437 180.604H287.212V192.569H293.437V180.604Z" fill="#E7EEAF"/>
<path id="Vector_207" d="M318.347 168.144H293.437V174.369H318.347V168.144Z" fill="#E7EEAF"/>
<path id="Vector_208" d="M337.031 155.685H312.122V161.91H337.031V155.685Z" fill="#E7EEAF"/>
<path id="Vector_209" d="M318.347 161.919H299.662V174.378H318.347V161.919Z" fill="#E7EEAF"/>
<path id="Vector_210" d="M337.023 193.054H330.797V205.019H337.023V193.054Z" fill="#E7EEAF"/>
<path id="Vector_211" d="M330.932 155.685H318.347V168.144H330.932V155.685Z" fill="#E7EEAF"/>
<g id="Group_6">
<path id="Vector_212" d="M343.257 143.234H318.347V149.459H343.257V143.234Z" fill="#E7EEAF"/>
<path id="Vector_213" d="M343.257 137.009H324.572V149.468H343.257V137.009Z" fill="#E7EEAF"/>
<path id="Vector_214" d="M343.257 130.775H337.031V142.74H343.257V130.775Z" fill="#E7EEAF"/>
</g>
<path id="Vector_215" d="M430.446 137.009H436.671V143.234H430.446V149.459H424.212V155.685H430.446V161.919H436.671V168.144H430.446V174.369H424.212V168.144H417.987V161.919H411.761V155.685H405.536V149.459H411.761V143.234H417.987V137.009H424.212V130.784H430.446V137.009Z" fill="#E7EEAF"/>
<g id="Group_7">
<path id="Vector_216" d="M449.13 230.423H430.446V236.649H449.13V230.423Z" fill="#E7EEAF"/>
<path id="Vector_217" d="M442.897 224.189H424.212V230.414H442.897V224.189Z" fill="#E7EEAF"/>
<path id="Vector_218" d="M417.995 224.189H399.311V230.414H417.995V224.189Z" fill="#E7EEAF"/>
<path id="Vector_219" d="M380.626 224.189H361.941V230.414H380.626V224.189Z" fill="#E7EEAF"/>
<path id="Vector_220" d="M337.032 224.189H318.347V230.414H337.032V224.189Z" fill="#E7EEAF"/>
<path id="Vector_221" d="M424.221 230.423H405.536V236.649H424.221V230.423Z" fill="#E7EEAF"/>
<path id="Vector_222" d="M424.221 267.784H405.536V274.009H424.221V267.784Z" fill="#E7EEAF"/>
<path id="Vector_223" d="M430.446 236.649H411.761V242.874H430.446V236.649Z" fill="#E7EEAF"/>
<path id="Vector_224" d="M430.446 261.558H399.311V267.784H430.446V261.558Z" fill="#E7EEAF"/>
<path id="Vector_225" d="M436.671 242.874H417.986V249.099H436.671V242.874Z" fill="#E7EEAF"/>
<path id="Vector_226" d="M399.302 267.784H386.851V274.009H399.302V267.784Z" fill="#E7EEAF"/>
<path id="Vector_227" d="M380.617 280.243H368.167V323.838H380.617V280.243Z" fill="#E7EEAF"/>
<path id="Vector_228" d="M374.392 286.468H361.941V317.612H374.392V286.468Z" fill="#E7EEAF"/>
<path id="Vector_229" d="M386.851 317.603H374.401V330.063H386.851V317.603Z" fill="#E7EEAF"/>
<path id="Vector_230" d="M436.671 255.333H417.986V261.558H436.671V255.333Z" fill="#E7EEAF"/>
<path id="Vector_231" d="M411.761 255.333H393.077V261.558H411.761V255.333Z" fill="#E7EEAF"/>
<path id="Vector_232" d="M405.536 249.099H386.851V255.324H405.536V249.099Z" fill="#E7EEAF"/>
<path id="Vector_233" d="M399.311 242.874H380.626V249.099H399.311V242.874Z" fill="#E7EEAF"/>
<path id="Vector_234" d="M393.077 236.649H374.392V242.874H393.077V236.649Z" fill="#E7EEAF"/>
<path id="Vector_235" d="M386.851 230.423H368.167V236.649H386.851V230.423Z" fill="#E7EEAF"/>
<path id="Vector_236" d="M442.897 249.099H424.212V255.324H442.897V249.099Z" fill="#E7EEAF"/>
<path id="Vector_237" d="M455.356 236.649H436.671V242.874H455.356V236.649Z" fill="#E7EEAF"/>
<path id="Vector_238" d="M449.131 230.423H442.896V249.108H449.131V230.423Z" fill="#E7EEAF"/>
<path id="Vector_239" d="M417.986 261.558H411.761V280.243H417.986V261.558Z" fill="#E7EEAF"/>
<path id="Vector_240" d="M399.311 280.243H393.077V298.928H399.311V280.243Z" fill="#E7EEAF"/>
<path id="Vector_241" d="M368.167 274.018V267.784H374.401V261.558H368.167V255.333H361.942V261.558H355.716V267.784H361.942V274.018H368.167Z" fill="#E7EEAF"/>
<path id="Vector_242" d="M330.797 280.243V274.009H337.032V267.784H330.797V261.558H324.572V267.784H318.347V274.009H324.572V280.243H330.797Z" fill="#E7EEAF"/>
<path id="Vector_243" d="M393.076 348.748V342.522H399.311V336.288H393.076V330.063H386.851V336.288H380.626V342.522H386.851V348.748H393.076Z" fill="#E7EEAF"/>
<path id="Vector_244" d="M393.076 373.657V367.423H399.311V361.198H393.076V354.973H386.851V361.198H380.626V367.423H386.851V373.657H393.076Z" fill="#E7EEAF"/>
<path id="Vector_245" d="M405.536 361.207V354.973H411.761V348.748H405.536V342.522H399.311V348.748H393.077V354.973H399.311V361.207H405.536Z" fill="#E7EEAF"/>
<path id="Vector_246" d="M380.626 386.108V379.883H386.851V373.657H380.626V367.432H374.401V373.657H368.167V379.883H374.401V386.108H380.626Z" fill="#E7EEAF"/>
<path id="Vector_247" d="M386.842 255.333H380.617V267.784H386.842V255.333Z" fill="#E7EEAF"/>
<path id="Vector_248" d="M393.076 261.558H386.842V274.009H393.076V261.558Z" fill="#E7EEAF"/>
<path id="Vector_249" d="M405.527 286.468H393.077V292.694H405.527V286.468Z" fill="#E7EEAF"/>
<path id="Vector_250" d="M399.311 292.694H380.626V298.919H399.311V292.694Z" fill="#E7EEAF"/>
<path id="Vector_251" d="M399.311 317.603H380.626V323.829H399.311V317.603Z" fill="#E7EEAF"/>
<path id="Vector_252" d="M399.311 305.153H386.851V311.378H399.311V305.153Z" fill="#E7EEAF"/>
<path id="Vector_253" d="M405.527 311.378H393.077V317.603H405.527V311.378Z" fill="#E7EEAF"/>
<path id="Vector_254" d="M368.176 292.703H349.491V298.928H368.176V292.703Z" fill="#E7EEAF"/>
<path id="Vector_255" d="M368.176 305.153H349.491V311.378H368.176V305.153Z" fill="#E7EEAF"/>
<path id="Vector_256" d="M399.302 280.243H393.077V292.694H399.302V280.243Z" fill="#E7EEAF"/>
<path id="Vector_257" d="M386.852 286.468H374.392V311.378H386.852V286.468Z" fill="#E7EEAF"/>
<path id="Vector_258" d="M399.302 305.153H386.842V323.838H399.302V305.153Z" fill="#E7EEAF"/>
<path id="Vector_259" d="M442.896 230.423H436.671V242.874H442.896V230.423Z" fill="#E7EEAF"/>
<path id="Vector_260" d="M399.302 230.423H393.077V236.649H399.302V230.423Z" fill="#E7EEAF"/>
<path id="Vector_261" d="M393.085 224.198H386.851V230.423H393.085V224.198Z" fill="#E7EEAF"/>
<path id="Vector_262" d="M287.212 224.198H274.752V230.423H287.212V224.198Z" fill="#E7EEAF"/>
<path id="Vector_263" d="M280.978 230.423H268.518V236.649H280.978V230.423Z" fill="#E7EEAF"/>
<path id="Vector_264" d="M274.752 236.649H262.302V242.874H274.752V236.649Z" fill="#E7EEAF"/>
<path id="Vector_265" d="M268.527 236.649H262.302V249.108H268.527V236.649Z" fill="#E7EEAF"/>
<path id="Vector_266" d="M274.752 230.423H268.527V242.883H274.752V230.423Z" fill="#E7EEAF"/>
<path id="Vector_267" d="M280.977 224.198H274.752V236.658H280.977V224.198Z" fill="#E7EEAF"/>
<g id="Group_8">
<path id="Vector_268" d="M355.707 342.522H349.482V361.207H355.707V342.522Z" fill="#E7EEAF"/>
<path id="Vector_269" d="M355.707 323.838H349.482V336.297H355.707V323.838Z" fill="#E7EEAF"/>
<path id="Vector_270" d="M361.932 330.063H355.707V342.522H361.932V330.063Z" fill="#E7EEAF"/>
<path id="Vector_271" d="M368.167 336.288H361.941V348.748H368.167V336.288Z" fill="#E7EEAF"/>
<path id="Vector_272" d="M361.942 348.748H343.257V354.973H361.942V348.748Z" fill="#E7EEAF"/>
<path id="Vector_273" d="M361.942 330.063H343.257V336.288H361.942V330.063Z" fill="#E7EEAF"/>
<path id="Vector_274" d="M368.167 336.288H355.707V342.513H368.167V336.288Z" fill="#E7EEAF"/>
<path id="Vector_275" d="M374.392 342.513H368.167V354.973H374.392V342.513Z" fill="#E7EEAF"/>
<path id="Vector_276" d="M374.392 342.522H361.932V348.748H374.392V342.522Z" fill="#E7EEAF"/>
<path id="Vector_277" d="M374.392 348.748H368.167V361.207H374.392V348.748Z" fill="#E7EEAF"/>
<path id="Vector_278" d="M374.392 354.973H361.932V361.198H374.392V354.973Z" fill="#E7EEAF"/>
<path id="Vector_279" d="M368.167 361.198H355.707V367.423H368.167V361.198Z" fill="#E7EEAF"/>
<path id="Vector_280" d="M380.626 348.748H368.167V354.973H380.626V348.748Z" fill="#E7EEAF"/>
<path id="Vector_281" d="M349.482 330.063H343.257V342.522H349.482V330.063Z" fill="#E7EEAF"/>
<path id="Vector_282" d="M349.491 336.288H337.031V342.513H349.491V336.288Z" fill="#E7EEAF"/>
</g>
<path id="Vector_283" d="M268.527 236.649H256.068V242.874H268.527V236.649Z" fill="#E7EEAF"/>
<path id="Vector_284" d="M262.302 230.423H249.842V236.649H262.302V230.423Z" fill="#E7EEAF"/>
<path id="Vector_285" d="M256.077 224.198H243.617V230.423H256.077V224.198Z" fill="#E7EEAF"/>
<path id="Vector_286" d="M256.068 224.198H249.842V236.658H256.068V224.198Z" fill="#E7EEAF"/>
<path id="Vector_287" d="M262.293 230.423H256.068V242.883H262.293V230.423Z" fill="#E7EEAF"/>
<path id="Vector_288" d="M330.797 224.189H324.572V236.64H330.797V224.189Z" fill="#E7EEAF"/>
<path id="Vector_289" d="M349.491 286.468H343.257V292.694H349.491V286.468Z" fill="#E7EEAF"/>
<path id="Vector_290" d="M349.491 298.928H343.257V305.153H349.491V298.928Z" fill="#E7EEAF"/>
<path id="Vector_291" d="M405.536 236.649H399.311V242.874H405.536V236.649Z" fill="#E7EEAF"/>
<path id="Vector_292" d="M268.527 224.198H262.293V230.423H268.527V224.198Z" fill="#E7EEAF"/>
<path id="Vector_293" d="M237.383 230.423H231.158V236.649H237.383V230.423Z" fill="#E7EEAF"/>
<path id="Vector_294" d="M243.608 236.649H237.383V242.874H243.608V236.649Z" fill="#E7EEAF"/>
<path id="Vector_295" d="M249.851 242.874H243.617V249.099H249.851V242.874Z" fill="#E7EEAF"/>
<path id="Vector_296" d="M256.076 249.108H249.842V255.333H256.076V249.108Z" fill="#E7EEAF"/>
<path id="Vector_297" d="M262.293 255.333H256.068V261.558H262.293V255.333Z" fill="#E7EEAF"/>
<path id="Vector_298" d="M268.518 261.567H262.293V267.793H268.518V261.567Z" fill="#E7EEAF"/>
<path id="Vector_299" d="M274.752 267.793H268.518V274.018H274.752V267.793Z" fill="#E7EEAF"/>
<path id="Vector_300" d="M280.986 274.018H274.752V280.243H280.986V274.018Z" fill="#E7EEAF"/>
<path id="Vector_301" d="M287.203 280.252H280.978V286.477H287.203V280.252Z" fill="#E7EEAF"/>
<path id="Vector_302" d="M293.428 286.477H287.203V292.703H293.428V286.477Z" fill="#E7EEAF"/>
<path id="Vector_303" d="M299.662 292.703H293.428V298.928H299.662V292.703Z" fill="#E7EEAF"/>
<path id="Vector_304" d="M305.896 298.937H299.662V305.162H305.896V298.937Z" fill="#E7EEAF"/>
<path id="Vector_305" d="M312.113 305.162H305.887V311.387H312.113V305.162Z" fill="#E7EEAF"/>
<path id="Vector_306" d="M318.338 311.387H312.113V317.612H318.338V311.387Z" fill="#E7EEAF"/>
<path id="Vector_307" d="M324.572 317.621H318.338V323.847H324.572V317.621Z" fill="#E7EEAF"/>
<path id="Vector_308" d="M330.797 323.847H324.563V330.072H330.797V323.847Z" fill="#E7EEAF"/>
<path id="Vector_309" d="M337.023 330.072H330.797V336.297H337.023V330.072Z" fill="#E7EEAF"/>
<path id="Vector_310" d="M411.77 242.874H405.536V249.099H411.77V242.874Z" fill="#E7EEAF"/>
<path id="Vector_311" d="M417.995 249.099H411.761V255.324H417.995V249.099Z" fill="#E7EEAF"/>
<path id="Vector_312" d="M349.482 274.009V261.558H355.707V255.333H349.482V249.099H343.257V242.874H337.032V236.649H330.797V261.558H337.032V267.784H343.257V274.009H349.482Z" fill="#E7EEAF"/>
<path id="Vector_313" d="M361.941 255.333V249.099H374.401V242.874H368.167V236.649H361.941V230.423H337.031V236.649H343.257V242.874H349.482V249.099H355.716V255.333H361.941Z" fill="#E7EEAF"/>
<path id="Vector_314" d="M280.987 249.099H293.437V255.333H299.662V249.099H305.896V242.874H312.122V236.649H318.347V230.423H293.437V236.649H287.212V242.874H280.987V249.099Z" fill="#E7EEAF"/>
<path id="Vector_315" d="M299.662 261.558H305.896V274.009H312.122V267.784H318.347V261.558H324.572V236.649H318.347V242.874H312.122V249.108H305.896V255.333H299.662V261.558Z" fill="#E7EEAF"/>
<path id="Vector_316" d="M293.437 255.333H268.527V261.558H293.437V255.333Z" fill="#E7EEAF"/>
<path id="Vector_317" d="M293.437 255.333H274.752V267.793H293.437V255.333Z" fill="#E7EEAF"/>
<path id="Vector_318" d="M293.437 262.044H287.212V274.009H293.437V262.044Z" fill="#E7EEAF"/>
<path id="Vector_319" d="M318.347 280.243H293.437V286.468H318.347V280.243Z" fill="#E7EEAF"/>
<path id="Vector_320" d="M337.031 292.703H312.122V298.928H337.031V292.703Z" fill="#E7EEAF"/>
<path id="Vector_321" d="M318.347 280.243H299.662V292.703H318.347V280.243Z" fill="#E7EEAF"/>
<path id="Vector_322" d="M318.347 286.953H312.122V298.919H318.347V286.953Z" fill="#E7EEAF"/>
<path id="Vector_323" d="M330.932 286.468H318.347V298.928H330.932V286.468Z" fill="#E7EEAF"/>
<g id="Group_9">
<path id="Vector_324" d="M343.257 305.153H318.347V311.378H343.257V305.153Z" fill="#E7EEAF"/>
<path id="Vector_325" d="M343.257 305.153H324.572V317.612H343.257V305.153Z" fill="#E7EEAF"/>
<path id="Vector_326" d="M343.257 311.872H337.031V323.838H343.257V311.872Z" fill="#E7EEAF"/>
</g>
<path id="Vector_327" d="M430.446 317.612H436.671V311.378H430.446V305.153H424.212V298.928H430.446V292.703H436.671V286.468H430.446V280.243H424.212V286.468H417.987V292.694H411.761V298.928H405.536V305.153H411.761V311.378H417.987V317.612H424.212V323.838H430.446V317.612Z" fill="#E7EEAF"/>
<path id="Vector_328" d="M237.383 429.703H231.158V448.387H237.383V429.703Z" fill="#E7EEAF"/>
<path id="Vector_329" d="M237.383 404.793H231.158V423.477H237.383V404.793Z" fill="#E7EEAF"/>
<path id="Vector_330" d="M274.752 404.793H268.527V423.477H274.752V404.793Z" fill="#E7EEAF"/>
<path id="Vector_331" d="M243.608 411.027H237.383V429.711H243.608V411.027Z" fill="#E7EEAF"/>
<path id="Vector_332" d="M268.527 398.567H262.293V429.703H268.527V398.567Z" fill="#E7EEAF"/>
<path id="Vector_333" d="M249.842 417.252H243.617V435.937H249.842V417.252Z" fill="#E7EEAF"/>
<path id="Vector_334" d="M274.743 386.108H268.518V398.558H274.743V386.108Z" fill="#E7EEAF"/>
<path id="Vector_335" d="M324.572 367.432H280.978V379.883H324.572V367.432Z" fill="#E7EEAF"/>
<path id="Vector_336" d="M318.347 361.207H287.203V373.657H318.347V361.207Z" fill="#E7EEAF"/>
<path id="Vector_337" d="M330.806 373.657H318.347V386.108H330.806V373.657Z" fill="#E7EEAF"/>
<path id="Vector_338" d="M262.293 417.252H256.068V435.937H262.293V417.252Z" fill="#E7EEAF"/>
<path id="Vector_339" d="M262.293 392.342H256.068V411.027H262.293V392.342Z" fill="#E7EEAF"/>
<path id="Vector_340" d="M256.076 386.117H249.842V404.802H256.076V386.117Z" fill="#E7EEAF"/>
<path id="Vector_341" d="M249.851 379.883H243.617V398.567H249.851V379.883Z" fill="#E7EEAF"/>
<path id="Vector_342" d="M243.617 373.657H237.383V392.342H243.617V373.657Z" fill="#E7EEAF"/>
<path id="Vector_343" d="M237.392 367.432H231.158V386.117H237.392V367.432Z" fill="#E7EEAF"/>
<path id="Vector_344" d="M256.068 423.477H249.842V442.162H256.068V423.477Z" fill="#E7EEAF"/>
<path id="Vector_345" d="M243.608 435.937H237.383V454.621H243.608V435.937Z" fill="#E7EEAF"/>
<path id="Vector_346" d="M249.842 442.162H231.158V448.387H249.842V442.162Z" fill="#E7EEAF"/>
<path id="Vector_347" d="M280.978 411.027H262.293V417.252H280.978V411.027Z" fill="#E7EEAF"/>
<path id="Vector_348" d="M299.662 392.342H280.978V398.567H299.662V392.342Z" fill="#E7EEAF"/>
<path id="Vector_349" d="M274.752 367.432H268.527V373.657H262.293V367.432H256.068V361.207H262.293V354.973H268.527V361.207H274.752V367.432Z" fill="#E7EEAF"/>
<path id="Vector_350" d="M280.978 330.063H274.752V336.288H268.518V330.063H262.293V323.838H268.518V317.612H274.752V323.838H280.978V330.063Z" fill="#E7EEAF"/>
<path id="Vector_351" d="M349.482 392.342H343.257V398.567H337.032V392.342H330.797V386.108H337.032V379.883H343.257V386.108H349.482V392.342Z" fill="#E7EEAF"/>
<path id="Vector_352" d="M374.392 392.342H368.167V398.567H361.932V392.342H355.707V386.108H361.932V379.883H368.167V386.108H374.392V392.342Z" fill="#E7EEAF"/>
<path id="Vector_353" d="M361.942 404.793H355.716V411.027H349.482V404.793H343.257V398.567H349.482V392.342H355.716V398.567H361.942V404.793Z" fill="#E7EEAF"/>
<path id="Vector_354" d="M268.527 379.883H256.068V386.108H268.527V379.883Z" fill="#E7EEAF"/>
<path id="Vector_355" d="M274.743 386.108H262.293V392.333H274.743V386.108Z" fill="#E7EEAF"/>
<path id="Vector_356" d="M293.437 392.342H287.212V404.793H293.437V392.342Z" fill="#E7EEAF"/>
<path id="Vector_357" d="M299.662 379.883H293.437V398.567H299.662V379.883Z" fill="#E7EEAF"/>
<path id="Vector_358" d="M324.581 379.883H318.347V398.567H324.581V379.883Z" fill="#E7EEAF"/>
<path id="Vector_359" d="M312.122 386.117H305.896V398.567H312.122V386.117Z" fill="#E7EEAF"/>
<path id="Vector_360" d="M318.347 392.342H312.122V404.793H318.347V392.342Z" fill="#E7EEAF"/>
<path id="Vector_361" d="M299.671 348.748H293.437V367.432H299.671V348.748Z" fill="#E7EEAF"/>
<path id="Vector_362" d="M312.122 348.748H305.896V367.432H312.122V348.748Z" fill="#E7EEAF"/>
<path id="Vector_363" d="M293.437 392.342H280.987V398.567H293.437V392.342Z" fill="#E7EEAF"/>
<path id="Vector_364" d="M312.113 373.657H287.212V386.117H312.113V373.657Z" fill="#E7EEAF"/>
<path id="Vector_365" d="M324.581 386.108H305.896V398.567H324.581V386.108Z" fill="#E7EEAF"/>
<path id="Vector_366" d="M243.608 435.937H231.158V442.162H243.608V435.937Z" fill="#E7EEAF"/>
<path id="Vector_367" d="M237.383 392.342H231.158V398.567H237.383V392.342Z" fill="#E7EEAF"/>
<path id="Vector_368" d="M237.383 267.784H231.158V280.243H237.383V267.784Z" fill="#E7EEAF"/>
<path id="Vector_369" d="M243.608 261.558H237.383V274.018H243.608V261.558Z" fill="#E7EEAF"/>
<path id="Vector_370" d="M249.842 261.558H237.383V267.784H249.842V261.558Z" fill="#E7EEAF"/>
<path id="Vector_371" d="M243.617 267.784H231.158V274.009H243.617V267.784Z" fill="#E7EEAF"/>
<g id="Group_10">
<path id="Vector_372" d="M337.031 348.748H324.572V354.973H337.031V348.748Z" fill="#E7EEAF"/>
<path id="Vector_373" d="M343.257 354.973H330.797V361.198H343.257V354.973Z" fill="#E7EEAF"/>
<path id="Vector_374" d="M349.491 361.198H337.031V367.423H349.491V361.198Z" fill="#E7EEAF"/>
<path id="Vector_375" d="M337.023 342.522H330.797V361.207H337.023V342.522Z" fill="#E7EEAF"/>
<path id="Vector_376" d="M343.257 354.973H337.031V367.423H343.257V354.973Z" fill="#E7EEAF"/>
<path id="Vector_377" d="M355.716 367.432H343.257V373.657H355.716V367.432Z" fill="#E7EEAF"/>
<path id="Vector_378" d="M349.482 361.198H343.257V373.649H349.482V361.198Z" fill="#E7EEAF"/>
<path id="Vector_379" d="M361.941 367.432H349.482V373.657H361.941V367.432Z" fill="#E7EEAF"/>
<path id="Vector_380" d="M361.941 361.198H355.716V373.649H361.941V361.198Z" fill="#E7EEAF"/>
<path id="Vector_381" d="M355.707 367.432H349.482V379.883H355.707V367.432Z" fill="#E7EEAF"/>
<path id="Vector_382" d="M343.257 342.522H330.797V348.748H343.257V342.522Z" fill="#E7EEAF"/>
<path id="Vector_383" d="M343.257 336.288H337.031V348.739H343.257V336.288Z" fill="#E7EEAF"/>
</g>
<path id="Vector_384" d="M243.617 255.333H237.392V267.784H243.617V255.333Z" fill="#E7EEAF"/>
<path id="Vector_385" d="M237.383 249.099H231.158V261.558H237.383V249.099Z" fill="#E7EEAF"/>
<path id="Vector_386" d="M243.617 255.333H231.158V261.558H243.617V255.333Z" fill="#E7EEAF"/>
<path id="Vector_387" d="M237.383 323.838H231.158V330.063H237.383V323.838Z" fill="#E7EEAF"/>
<path id="Vector_388" d="M455.356 224.189H449.13V230.414H455.356V224.189Z" fill="#E7EEAF"/>
<path id="Vector_389" d="M293.437 342.522H287.212V348.748H293.437V342.522Z" fill="#E7EEAF"/>
<path id="Vector_390" d="M305.887 342.522H299.662V348.748H305.887V342.522Z" fill="#E7EEAF"/>
<path id="Vector_391" d="M243.608 398.567H237.383V404.793H243.608V398.567Z" fill="#E7EEAF"/>
<path id="Vector_392" d="M249.842 404.793H243.617V411.018H249.842V404.793Z" fill="#E7EEAF"/>
<path id="Vector_393" d="M256.068 411.027H249.842V417.252H256.068V411.027Z" fill="#E7EEAF"/>
<path id="Vector_394" d="M274.752 348.748H262.293V354.973H256.068V348.748H249.842V342.522H243.617V336.288H237.383V330.063H262.302V336.288H268.518V342.513H274.752V348.748Z" fill="#E7EEAF"/>
<path id="Vector_395" d="M256.068 361.207H249.842V373.657H243.617V367.432H237.383V361.207H231.158V336.297H237.383V342.522H243.617V348.748H249.842V354.973H256.068V361.207Z" fill="#E7EEAF"/>
<path id="Vector_396" d="M249.842 280.243V292.703H256.068V298.928H249.842V305.153H243.617V311.378V311.387H237.383V317.612H231.158V292.694H237.383V286.468H243.617V280.243H249.842Z" fill="#E7EEAF"/>
<path id="Vector_397" d="M262.302 298.928V305.153H274.752V311.387H268.527V317.612H262.302V323.838H237.383V317.603H243.617V311.378H249.842V305.153H256.068V298.928H262.302Z" fill="#E7EEAF"/>
<path id="Vector_398" d="M262.293 267.793H256.068V292.703H262.293V267.793Z" fill="#E7EEAF"/>
<path id="Vector_399" d="M268.527 274.018H256.068V292.703H268.527V274.018Z" fill="#E7EEAF"/>
<path id="Vector_400" d="M274.752 286.468H262.787V292.694H274.752V286.468Z" fill="#E7EEAF"/>
<path id="Vector_401" d="M287.212 292.703H280.978V317.612H287.212V292.703Z" fill="#E7EEAF"/>
<path id="Vector_402" d="M299.671 311.387H293.437V336.297H299.671V311.387Z" fill="#E7EEAF"/>
<path id="Vector_403" d="M293.437 298.928H280.978V317.612H293.437V298.928Z" fill="#E7EEAF"/>
<path id="Vector_404" d="M262.302 330.063H250.327V336.288H262.302V330.063Z" fill="#E7EEAF"/>
<path id="Vector_405" d="M299.671 317.612H287.212V330.198H299.671V317.612Z" fill="#E7EEAF"/>
<g id="Group_11">
<path id="Vector_406" d="M312.122 317.603H305.896V342.513H312.122V317.603Z" fill="#E7EEAF"/>
<path id="Vector_407" d="M318.356 323.838H305.896V342.522H318.356V323.838Z" fill="#E7EEAF"/>
<path id="Vector_408" d="M324.572 336.288H312.607V342.513H324.572V336.288Z" fill="#E7EEAF"/>
</g>
<path id="Vector_409" d="M318.347 429.703V435.928H312.122V429.703H305.896V423.477H299.662V429.703H293.437V435.928H287.203V429.703H280.978V423.477H287.203V417.252H293.437V411.018H299.662V404.793H305.887V411.018H312.122V417.252H318.347V423.477H324.572V429.703H318.347Z" fill="#E7EEAF"/>
</g>
<g id="Group_12">
<path id="Vector_410" d="M224.932 429.711H218.698V448.396H224.932V429.711Z" fill="#E7EEAF"/>
<path id="Vector_411" d="M231.158 423.477H224.932V442.162H231.158V423.477Z" fill="#E7EEAF"/>
<path id="Vector_412" d="M231.158 398.567H224.932V417.252H231.158V398.567Z" fill="#E7EEAF"/>
<path id="Vector_413" d="M231.158 361.207H224.932V379.892H231.158V361.207Z" fill="#E7EEAF"/>
<path id="Vector_414" d="M231.158 317.612H224.932V336.297H231.158V317.612Z" fill="#E7EEAF"/>
<path id="Vector_415" d="M224.932 404.793H218.698V423.477H224.932V404.793Z" fill="#E7EEAF"/>
<path id="Vector_416" d="M187.563 404.793H181.338V423.477H187.563V404.793Z" fill="#E7EEAF"/>
<path id="Vector_417" d="M218.698 411.027H212.473V429.711H218.698V411.027Z" fill="#E7EEAF"/>
<path id="Vector_418" d="M193.788 398.567H187.563V429.703H193.788V398.567Z" fill="#E7EEAF"/>
<path id="Vector_419" d="M212.473 417.252H206.248V435.937H212.473V417.252Z" fill="#E7EEAF"/>
<path id="Vector_420" d="M187.563 386.108H181.338V398.567H187.563V386.108Z" fill="#E7EEAF"/>
<path id="Vector_421" d="M175.113 367.432H131.518V379.883H175.113V367.432Z" fill="#E7EEAF"/>
<path id="Vector_422" d="M168.888 361.207H137.743V373.657H168.888V361.207Z" fill="#E7EEAF"/>
<path id="Vector_423" d="M137.734 373.657H125.284V386.108H137.734V373.657Z" fill="#E7EEAF"/>
<path id="Vector_424" d="M200.014 417.252H193.788V435.937H200.014V417.252Z" fill="#E7EEAF"/>
<path id="Vector_425" d="M200.014 392.342H193.788V411.027H200.014V392.342Z" fill="#E7EEAF"/>
<path id="Vector_426" d="M206.248 386.117H200.022V404.802H206.248V386.117Z" fill="#E7EEAF"/>
<path id="Vector_427" d="M212.473 379.883H206.248V398.567H212.473V379.883Z" fill="#E7EEAF"/>
<path id="Vector_428" d="M218.698 373.657H212.473V392.342H218.698V373.657Z" fill="#E7EEAF"/>
<path id="Vector_429" d="M224.923 367.432H218.698V386.117H224.923V367.432Z" fill="#E7EEAF"/>
<path id="Vector_430" d="M206.248 423.477H200.022V442.162H206.248V423.477Z" fill="#E7EEAF"/>
<path id="Vector_431" d="M218.698 435.937H212.473V454.621H218.698V435.937Z" fill="#E7EEAF"/>
<path id="Vector_432" d="M224.932 442.162H206.248V448.387H224.932V442.162Z" fill="#E7EEAF"/>
<path id="Vector_433" d="M193.797 411.027H175.113V417.252H193.797V411.027Z" fill="#E7EEAF"/>
<path id="Vector_434" d="M175.113 392.342H156.428V398.567H175.113V392.342Z" fill="#E7EEAF"/>
<path id="Vector_435" d="M181.338 367.432H187.563V373.657H193.788V367.432H200.023V361.207H193.788V354.973H187.563V361.207H181.338V367.432Z" fill="#E7EEAF"/>
<path id="Vector_436" d="M175.113 330.063H181.338V336.288H187.563V330.063H193.788V323.838H187.563V317.612H181.338V323.838H175.113V330.063Z" fill="#E7EEAF"/>
<path id="Vector_437" d="M106.608 392.342H112.833V398.567H119.059V392.342H125.284V386.108H119.059V379.883H112.833V386.108H106.608V392.342Z" fill="#E7EEAF"/>
<path id="Vector_438" d="M81.6982 392.342H87.9235V398.567H94.1487V392.342H100.383V386.108H94.1487V379.883H87.9235V386.108H81.6982V392.342Z" fill="#E7EEAF"/>
<path id="Vector_439" d="M94.1487 404.802H100.374V411.027H106.608V404.802H112.833V398.567H106.608V392.342H100.374V398.567H94.1487V404.802Z" fill="#E7EEAF"/>
<path id="Vector_440" d="M69.2388 379.892H75.464V386.117H81.6982V379.892H87.9234V373.657H81.6982V367.432H75.464V373.657H69.2388V379.892Z" fill="#E7EEAF"/>
<path id="Vector_441" d="M200.013 379.883H187.563V386.108H200.013V379.883Z" fill="#E7EEAF"/>
<path id="Vector_442" d="M193.788 386.108H181.338V392.333H193.788V386.108Z" fill="#E7EEAF"/>
<path id="Vector_443" d="M168.879 392.342H162.653V404.793H168.879V392.342Z" fill="#E7EEAF"/>
<path id="Vector_444" d="M162.653 379.883H156.428V398.567H162.653V379.883Z" fill="#E7EEAF"/>
<path id="Vector_445" d="M137.743 379.883H131.518V398.567H137.743V379.883Z" fill="#E7EEAF"/>
<path id="Vector_446" d="M150.194 386.117H143.969V398.567H150.194V386.117Z" fill="#E7EEAF"/>
<path id="Vector_447" d="M143.969 392.342H137.743V404.793H143.969V392.342Z" fill="#E7EEAF"/>
<path id="Vector_448" d="M162.653 348.748H156.428V367.432H162.653V348.748Z" fill="#E7EEAF"/>
<path id="Vector_449" d="M150.194 348.748H143.969V367.432H150.194V348.748Z" fill="#E7EEAF"/>
<path id="Vector_450" d="M175.104 392.342H162.653V398.567H175.104V392.342Z" fill="#E7EEAF"/>
<path id="Vector_451" d="M168.878 373.657H143.969V386.117H168.878V373.657Z" fill="#E7EEAF"/>
<path id="Vector_452" d="M150.203 386.108H131.518V398.567H150.203V386.108Z" fill="#E7EEAF"/>
<path id="Vector_453" d="M224.933 435.937H212.473V442.162H224.933V435.937Z" fill="#E7EEAF"/>
<path id="Vector_454" d="M224.933 392.342H218.707V398.567H224.933V392.342Z" fill="#E7EEAF"/>
<path id="Vector_455" d="M231.158 386.108H224.932V392.342H231.158V386.108Z" fill="#E7EEAF"/>
<path id="Vector_456" d="M231.158 274.018H224.932V286.477H231.158V274.018Z" fill="#E7EEAF"/>
<path id="Vector_457" d="M224.923 267.784H218.698V280.243H224.923V267.784Z" fill="#E7EEAF"/>
<path id="Vector_458" d="M218.698 261.567H212.473V274.018H218.698V261.567Z" fill="#E7EEAF"/>
<path id="Vector_459" d="M218.707 261.558H206.248V267.784H218.707V261.558Z" fill="#E7EEAF"/>
<path id="Vector_460" d="M224.933 267.793H212.473V274.018H224.933V267.793Z" fill="#E7EEAF"/>
<path id="Vector_461" d="M231.158 274.018H218.698V280.243H231.158V274.018Z" fill="#E7EEAF"/>
<g id="Group_13">
<path id="Vector_462" d="M112.834 348.748H94.1489V354.973H112.834V348.748Z" fill="#E7EEAF"/>
<path id="Vector_463" d="M131.518 348.748H119.059V354.973H131.518V348.748Z" fill="#E7EEAF"/>
<path id="Vector_464" d="M125.293 354.973H112.833V361.198H125.293V354.973Z" fill="#E7EEAF"/>
<path id="Vector_465" d="M119.068 361.198H106.608V367.423H119.068V361.198Z" fill="#E7EEAF"/>
<path id="Vector_466" d="M106.599 342.522H100.374V361.207H106.599V342.522Z" fill="#E7EEAF"/>
<path id="Vector_467" d="M125.284 342.522H119.059V361.207H125.284V342.522Z" fill="#E7EEAF"/>
<path id="Vector_468" d="M119.059 354.973H112.833V367.432H119.059V354.973Z" fill="#E7EEAF"/>
<path id="Vector_469" d="M112.843 367.432H100.383V373.657H112.843V367.432Z" fill="#E7EEAF"/>
<path id="Vector_470" d="M112.833 361.198H106.608V373.649H112.833V361.198Z" fill="#E7EEAF"/>
<path id="Vector_471" d="M106.608 367.432H94.1489V373.657H106.608V367.432Z" fill="#E7EEAF"/>
<path id="Vector_472" d="M100.374 361.198H94.1489V373.649H100.374V361.198Z" fill="#E7EEAF"/>
<path id="Vector_473" d="M94.1488 354.973H87.9236V367.423H94.1488V354.973Z" fill="#E7EEAF"/>
<path id="Vector_474" d="M106.608 367.432H100.383V379.892H106.608V367.432Z" fill="#E7EEAF"/>
<path id="Vector_475" d="M125.293 342.522H112.833V348.748H125.293V342.522Z" fill="#E7EEAF"/>
<path id="Vector_476" d="M119.059 336.288H112.833V348.739H119.059V336.288Z" fill="#E7EEAF"/>
</g>
<path id="Vector_477" d="M218.698 255.333H212.473V267.793H218.698V255.333Z" fill="#E7EEAF"/>
<path id="Vector_478" d="M224.923 249.099H218.698V261.558H224.923V249.099Z" fill="#E7EEAF"/>
<path id="Vector_479" d="M231.149 242.874H224.924V255.324H231.149V242.874Z" fill="#E7EEAF"/>
<path id="Vector_480" d="M231.158 249.108H218.698V255.333H231.158V249.108Z" fill="#E7EEAF"/>
<path id="Vector_481" d="M224.933 255.333H212.473V261.558H224.933V255.333Z" fill="#E7EEAF"/>
<path id="Vector_482" d="M231.158 323.838H218.707V330.063H231.158V323.838Z" fill="#E7EEAF"/>
<path id="Vector_483" d="M168.879 342.522H162.653V348.757H168.879V342.522Z" fill="#E7EEAF"/>
<path id="Vector_484" d="M156.428 342.522H150.203V348.757H156.428V342.522Z" fill="#E7EEAF"/>
<path id="Vector_485" d="M218.707 398.567H212.482V404.793H218.707V398.567Z" fill="#E7EEAF"/>
<path id="Vector_486" d="M231.158 261.558H224.932V267.793H231.158V261.558Z" fill="#E7EEAF"/>
<path id="Vector_487" d="M224.933 230.423H218.707V236.649H224.933V230.423Z" fill="#E7EEAF"/>
<path id="Vector_488" d="M218.698 236.649H212.473V242.874H218.698V236.649Z" fill="#E7EEAF"/>
<path id="Vector_489" d="M212.473 242.874H206.248V249.108H212.473V242.874Z" fill="#E7EEAF"/>
<path id="Vector_490" d="M206.248 249.108H200.022V255.333H206.248V249.108Z" fill="#E7EEAF"/>
<path id="Vector_491" d="M200.014 255.333H193.788V261.558H200.014V255.333Z" fill="#E7EEAF"/>
<path id="Vector_492" d="M193.788 261.558H187.563V267.784H193.788V261.558Z" fill="#E7EEAF"/>
<path id="Vector_493" d="M187.563 267.784H181.338V274.018H187.563V267.784Z" fill="#E7EEAF"/>
<path id="Vector_494" d="M181.329 274.009H175.104V280.234H181.329V274.009Z" fill="#E7EEAF"/>
<path id="Vector_495" d="M175.104 280.243H168.878V286.468H175.104V280.243Z" fill="#E7EEAF"/>
<path id="Vector_496" d="M168.879 286.468H162.653V292.694H168.879V286.468Z" fill="#E7EEAF"/>
<path id="Vector_497" d="M162.644 292.694H156.419V298.928H162.644V292.694Z" fill="#E7EEAF"/>
<path id="Vector_498" d="M156.419 298.919H150.194V305.144H156.419V298.919Z" fill="#E7EEAF"/>
<path id="Vector_499" d="M150.185 305.153H143.959V311.378H150.185V305.153Z" fill="#E7EEAF"/>
<path id="Vector_500" d="M143.96 311.378H137.734V317.603H143.96V311.378Z" fill="#E7EEAF"/>
<path id="Vector_501" d="M137.734 317.603H131.509V323.838H137.734V317.603Z" fill="#E7EEAF"/>
<path id="Vector_502" d="M131.5 323.829H125.275V330.054H131.5V323.829Z" fill="#E7EEAF"/>
<path id="Vector_503" d="M125.275 330.063H119.05V336.288H125.275V330.063Z" fill="#E7EEAF"/>
<path id="Vector_504" d="M212.473 404.793H206.248V411.027H212.473V404.793Z" fill="#E7EEAF"/>
<path id="Vector_505" d="M206.248 411.027H200.022V417.252H206.248V411.027Z" fill="#E7EEAF"/>
<path id="Vector_506" d="M181.338 348.748H193.788V354.973H200.023V348.748H206.248V342.522H212.473H212.482V336.297H218.707V330.063H193.788V336.288H187.563V342.513H181.338V348.748Z" fill="#E7EEAF"/>
<path id="Vector_507" d="M200.022 361.207H206.248V373.657H212.482V367.432H218.707V361.207H224.932V336.297H218.698V342.522H212.473V348.748H206.248V354.973H200.022V361.207Z" fill="#E7EEAF"/>
<path id="Vector_508" d="M206.248 280.243V292.703H200.022V298.928H206.248V305.153H212.473V311.378H212.482V311.387H218.707V317.612H224.932V292.703H218.707V286.468H212.482V280.243H206.248Z" fill="#E7EEAF"/>
<path id="Vector_509" d="M193.788 298.928V305.153H181.338V311.387H187.563V317.612H193.788V323.838H218.698V317.603H212.473V311.378H206.248V305.153H200.023V298.928H193.788Z" fill="#E7EEAF"/>
<path id="Vector_510" d="M200.014 267.793H193.788V292.703H200.014V267.793Z" fill="#E7EEAF"/>
<path id="Vector_511" d="M200.022 274.018H187.563V292.703H200.022V274.018Z" fill="#E7EEAF"/>
<path id="Vector_512" d="M193.303 286.468H181.338V292.694H193.303V286.468Z" fill="#E7EEAF"/>
<path id="Vector_513" d="M175.104 292.703H168.878V317.612H175.104V292.703Z" fill="#E7EEAF"/>
<path id="Vector_514" d="M162.653 311.387H156.428V336.297H162.653V311.387Z" fill="#E7EEAF"/>
<path id="Vector_515" d="M175.113 298.928H162.653V317.612H175.113V298.928Z" fill="#E7EEAF"/>
<path id="Vector_516" d="M168.393 311.378H156.428V317.603H168.393V311.378Z" fill="#E7EEAF"/>
<path id="Vector_517" d="M168.887 317.612H156.428V330.198H168.887V317.612Z" fill="#E7EEAF"/>
<g id="Group_14">
<path id="Vector_518" d="M150.194 317.603H143.969V342.513H150.194V317.603Z" fill="#E7EEAF"/>
<path id="Vector_519" d="M150.203 323.838H137.743V342.522H150.203V323.838Z" fill="#E7EEAF"/>
<path id="Vector_520" d="M143.483 336.288H131.518V342.513H143.483V336.288Z" fill="#E7EEAF"/>
</g>
<path id="Vector_521" d="M137.743 429.703V435.928H143.969V429.703H150.203V423.477H156.428V429.703H162.653V435.928H168.887V429.703H175.113V423.477H168.887V417.252H162.653V411.018H156.428V404.793H150.203V411.018H143.969V417.252H137.743V423.477H131.518V429.703H137.743Z" fill="#E7EEAF"/>
<path id="Vector_522" d="M25.6444 230.423H6.95972V236.649H25.6444V230.423Z" fill="#E7EEAF"/>
<path id="Vector_523" d="M50.5541 230.423H31.8694V236.649H50.5541V230.423Z" fill="#E7EEAF"/>
<path id="Vector_524" d="M50.5541 267.793H31.8694V274.018H50.5541V267.793Z" fill="#E7EEAF"/>
<path id="Vector_525" d="M44.329 236.649H25.6443V242.874H44.329V236.649Z" fill="#E7EEAF"/>
<path id="Vector_526" d="M56.7794 261.558H25.6443V267.793H56.7794V261.558Z" fill="#E7EEAF"/>
<path id="Vector_527" d="M38.1036 242.874H19.4189V249.099H38.1036V242.874Z" fill="#E7EEAF"/>
<path id="Vector_528" d="M69.2298 267.784H56.7793V274.018H69.2298V267.784Z" fill="#E7EEAF"/>
<path id="Vector_529" d="M87.9146 280.243H75.4641V323.838H87.9146V280.243Z" fill="#E7EEAF"/>
<path id="Vector_530" d="M94.1487 286.468H81.6982V317.612H94.1487V286.468Z" fill="#E7EEAF"/>
<path id="Vector_531" d="M81.6892 317.603H69.2388V330.063H81.6892V317.603Z" fill="#E7EEAF"/>
<path id="Vector_532" d="M38.1036 255.333H19.4189V261.558H38.1036V255.333Z" fill="#E7EEAF"/>
<path id="Vector_533" d="M63.0135 255.333H44.3289V261.558H63.0135V255.333Z" fill="#E7EEAF"/>
<path id="Vector_534" d="M69.2389 249.099H50.5542V255.333H69.2389V249.099Z" fill="#E7EEAF"/>
<path id="Vector_535" d="M75.464 242.874H56.7793V249.108H75.464V242.874Z" fill="#E7EEAF"/>
<path id="Vector_536" d="M81.6983 236.649H63.0137V242.883H81.6983V236.649Z" fill="#E7EEAF"/>
<path id="Vector_537" d="M87.9234 230.423H69.2388V236.658H87.9234V230.423Z" fill="#E7EEAF"/>
<path id="Vector_538" d="M31.8785 249.099H13.1938V255.324H31.8785V249.099Z" fill="#E7EEAF"/>
<path id="Vector_539" d="M19.419 236.649H0.734375V242.874H19.419V236.649Z" fill="#E7EEAF"/>
<path id="Vector_540" d="M13.1849 230.423H6.95972V249.108H13.1849V230.423Z" fill="#E7EEAF"/>
<path id="Vector_541" d="M44.329 261.558H38.1038V280.243H44.329V261.558Z" fill="#E7EEAF"/>
<path id="Vector_542" d="M63.0045 280.243H56.7793V298.928H63.0045V280.243Z" fill="#E7EEAF"/>
<path id="Vector_543" d="M87.9235 274.018V267.793H81.6982V261.558H87.9235V255.333H94.1487V261.558H100.374V267.793H94.1487V274.018H87.9235Z" fill="#E7EEAF"/>
<path id="Vector_544" d="M125.284 280.243V274.018H119.059V267.784H125.284V261.558H131.518V267.784H137.743V274.018H131.518V280.243H125.284Z" fill="#E7EEAF"/>
<path id="Vector_545" d="M63.0136 348.748V342.522H56.7883V336.288H63.0136V330.063H69.2388V336.288H75.464V342.522H69.2388V348.748H63.0136Z" fill="#E7EEAF"/>
<path id="Vector_546" d="M63.0136 373.657V367.432H56.7883V361.198H63.0136V354.973H69.2388V361.198H75.464V367.432H69.2388V373.657H63.0136Z" fill="#E7EEAF"/>
<path id="Vector_547" d="M50.5541 361.207V354.973H44.3289V348.748H50.5541V342.522H56.7793V348.748H63.0045V354.973H56.7793V361.207H50.5541Z" fill="#E7EEAF"/>
<path id="Vector_548" d="M75.464 255.333H69.2388V267.784H75.464V255.333Z" fill="#E7EEAF"/>
<path id="Vector_549" d="M69.2299 261.558H63.0046V274.018H69.2299V261.558Z" fill="#E7EEAF"/>
<path id="Vector_550" d="M63.0047 286.468H50.5542V292.694H63.0047V286.468Z" fill="#E7EEAF"/>
<path id="Vector_551" d="M75.464 292.703H56.7793V298.928H75.464V292.703Z" fill="#E7EEAF"/>
<path id="Vector_552" d="M75.464 317.603H56.7793V323.838H75.464V317.603Z" fill="#E7EEAF"/>
<path id="Vector_553" d="M69.2298 305.153H56.7793V311.378H69.2298V305.153Z" fill="#E7EEAF"/>
<path id="Vector_554" d="M63.0047 311.378H50.5542V317.603H63.0047V311.378Z" fill="#E7EEAF"/>
<path id="Vector_555" d="M106.608 292.703H87.9236V298.937H106.608V292.703Z" fill="#E7EEAF"/>
<path id="Vector_556" d="M106.608 305.153H87.9236V311.378H106.608V305.153Z" fill="#E7EEAF"/>
<path id="Vector_557" d="M63.0045 280.243H56.7793V292.694H63.0045V280.243Z" fill="#E7EEAF"/>
<path id="Vector_558" d="M81.6982 286.468H69.2388V311.378H81.6982V286.468Z" fill="#E7EEAF"/>
<path id="Vector_559" d="M69.2387 305.153H56.7793V323.838H69.2387V305.153Z" fill="#E7EEAF"/>
<path id="Vector_560" d="M19.41 230.423H13.1848V242.874H19.41V230.423Z" fill="#E7EEAF"/>
<path id="Vector_561" d="M63.0045 230.423H56.7793V236.649H63.0045V230.423Z" fill="#E7EEAF"/>
<path id="Vector_562" d="M187.563 230.423H175.104V236.649H187.563V230.423Z" fill="#E7EEAF"/>
<path id="Vector_563" d="M193.797 236.649H181.338V242.874H193.797V236.649Z" fill="#E7EEAF"/>
<path id="Vector_564" d="M193.788 236.649H187.563V249.108H193.788V236.649Z" fill="#E7EEAF"/>
<path id="Vector_565" d="M187.563 230.423H181.338V242.883H187.563V230.423Z" fill="#E7EEAF"/>
<g id="Group_15">
<path id="Vector_566" d="M106.608 323.838H100.383V336.297H106.608V323.838Z" fill="#E7EEAF"/>
<path id="Vector_567" d="M100.374 330.063H94.1487V342.522H100.374V330.063Z" fill="#E7EEAF"/>
<path id="Vector_568" d="M94.1488 336.288H87.9236V348.748H94.1488V336.288Z" fill="#E7EEAF"/>
<path id="Vector_569" d="M112.833 330.063H94.1487V336.288H112.833V330.063Z" fill="#E7EEAF"/>
<path id="Vector_570" d="M100.374 336.297H87.9236V342.522H100.374V336.297Z" fill="#E7EEAF"/>
<path id="Vector_571" d="M87.9235 342.513H81.6982V354.973H87.9235V342.513Z" fill="#E7EEAF"/>
<path id="Vector_572" d="M94.1487 342.522H81.6982V348.748H94.1487V342.522Z" fill="#E7EEAF"/>
<path id="Vector_573" d="M87.9235 348.748H81.6982V361.207H87.9235V348.748Z" fill="#E7EEAF"/>
<path id="Vector_574" d="M94.1487 354.973H81.6982V361.198H94.1487V354.973Z" fill="#E7EEAF"/>
<path id="Vector_575" d="M87.9146 348.748H75.4641V354.973H87.9146V348.748Z" fill="#E7EEAF"/>
<path id="Vector_576" d="M112.833 330.063H106.608V342.522H112.833V330.063Z" fill="#E7EEAF"/>
<path id="Vector_577" d="M119.059 336.297H106.608V342.522H119.059V336.297Z" fill="#E7EEAF"/>
</g>
<path id="Vector_578" d="M200.013 236.658H187.563V242.883H200.013V236.658Z" fill="#E7EEAF"/>
<path id="Vector_579" d="M206.248 230.423H193.788V236.649H206.248V230.423Z" fill="#E7EEAF"/>
<path id="Vector_580" d="M200.023 230.423H193.797V242.883H200.023V230.423Z" fill="#E7EEAF"/>
<path id="Vector_581" d="M131.509 230.423H125.284V236.649H131.509V230.423Z" fill="#E7EEAF"/>
<path id="Vector_582" d="M112.824 286.468H106.599V292.694H112.824V286.468Z" fill="#E7EEAF"/>
<path id="Vector_583" d="M112.824 298.928H106.599V305.153H112.824V298.928Z" fill="#E7EEAF"/>
<path id="Vector_584" d="M56.7794 236.649H50.5542V242.874H56.7794V236.649Z" fill="#E7EEAF"/>
<path id="Vector_585" d="M50.5541 242.874H44.3289V249.099H50.5541V242.874Z" fill="#E7EEAF"/>
<path id="Vector_586" d="M44.329 249.099H38.1038V255.324H44.329V249.099Z" fill="#E7EEAF"/>
<path id="Vector_587" d="M106.608 274.018V261.558H100.383V255.333H106.608V249.099H112.834V242.874H119.059V236.649H125.284V261.567H119.059V267.784H112.834V274.018H106.608Z" fill="#E7EEAF"/>
<path id="Vector_588" d="M94.1487 255.333V249.099H81.6982V242.874H87.9235V236.649H94.1487V230.423H119.059V236.649H112.833V242.874H106.599V249.099H100.374V255.333H94.1487Z" fill="#E7EEAF"/>
<path id="Vector_589" d="M175.104 249.099H162.653V255.333H156.428V249.099H150.194V242.874H143.969V236.649H137.743V230.423H162.653V236.649H168.879V242.874H175.104V249.099Z" fill="#E7EEAF"/>
<path id="Vector_590" d="M156.428 261.567H150.194V274.018H143.969V267.793H137.743V261.567H131.518V236.649H137.743V242.874H143.969V249.108H150.194V255.333H156.428V261.567Z" fill="#E7EEAF"/>
<path id="Vector_591" d="M187.563 255.333H162.653V261.558H187.563V255.333Z" fill="#E7EEAF"/>
<path id="Vector_592" d="M181.338 255.333H162.653V267.793H181.338V255.333Z" fill="#E7EEAF"/>
<path id="Vector_593" d="M168.879 262.044H162.653V274.009H168.879V262.044Z" fill="#E7EEAF"/>
<path id="Vector_594" d="M162.653 280.243H137.743V286.477H162.653V280.243Z" fill="#E7EEAF"/>
<path id="Vector_595" d="M143.968 292.703H119.059V298.937H143.968V292.703Z" fill="#E7EEAF"/>
<path id="Vector_596" d="M156.428 280.243H137.743V292.703H156.428V280.243Z" fill="#E7EEAF"/>
<path id="Vector_597" d="M125.284 249.593H119.059V261.567H125.284V249.593Z" fill="#E7EEAF"/>
<path id="Vector_598" d="M137.743 286.468H125.158V298.928H137.743V286.468Z" fill="#E7EEAF"/>
<g id="Group_16">
<path id="Vector_599" d="M137.743 305.153H112.833V311.378H137.743V305.153Z" fill="#E7EEAF"/>
<path id="Vector_600" d="M131.518 305.153H112.833V317.612H131.518V305.153Z" fill="#E7EEAF"/>
<path id="Vector_601" d="M119.059 311.872H112.833V323.838H119.059V311.872Z" fill="#E7EEAF"/>
</g>
<path id="Vector_602" d="M25.6442 317.612H19.4189V311.378H25.6442V305.153H31.8694V298.928H25.6442V292.703H19.4189V286.468H25.6442V280.243H31.8694V286.468H38.1036V292.694H44.3288V298.928H50.5541V305.153H44.3288V311.378H38.1036V317.612H31.8694V323.838H25.6442V317.612Z" fill="#E7EEAF"/>
</g>
<g id="Group_17">
<path id="Vector_603" d="M25.6444 217.964H6.95972V224.189H25.6444V217.964Z" fill="#E7EEAF"/>
<path id="Vector_604" d="M31.8695 224.189H13.1848V230.423H31.8695V224.189Z" fill="#E7EEAF"/>
<path id="Vector_605" d="M56.7884 224.189H38.1038V230.423H56.7884V224.189Z" fill="#E7EEAF"/>
<path id="Vector_606" d="M94.1488 224.189H75.4641V230.423H94.1488V224.189Z" fill="#E7EEAF"/>
<path id="Vector_607" d="M137.743 224.189H119.059V230.423H137.743V224.189Z" fill="#E7EEAF"/>
<path id="Vector_608" d="M50.5541 217.964H31.8694V224.189H50.5541V217.964Z" fill="#E7EEAF"/>
<path id="Vector_609" d="M50.5541 180.604H31.8694V186.829H50.5541V180.604Z" fill="#E7EEAF"/>
<path id="Vector_610" d="M44.329 211.739H25.6443V217.964H44.329V211.739Z" fill="#E7EEAF"/>
<path id="Vector_611" d="M56.7794 186.829H25.6443V193.063H56.7794V186.829Z" fill="#E7EEAF"/>
<path id="Vector_612" d="M38.1036 205.513H19.4189V211.739H38.1036V205.513Z" fill="#E7EEAF"/>
<path id="Vector_613" d="M69.2298 180.604H56.7793V186.838H69.2298V180.604Z" fill="#E7EEAF"/>
<path id="Vector_614" d="M87.9146 130.784H75.4641V174.378H87.9146V130.784Z" fill="#E7EEAF"/>
<path id="Vector_615" d="M94.1487 137.009H81.6982V168.153H94.1487V137.009Z" fill="#E7EEAF"/>
<path id="Vector_616" d="M81.6892 124.549H69.2388V137H81.6892V124.549Z" fill="#E7EEAF"/>
<path id="Vector_617" d="M38.1036 193.054H19.4189V199.279H38.1036V193.054Z" fill="#E7EEAF"/>
<path id="Vector_618" d="M63.0135 193.054H44.3289V199.279H63.0135V193.054Z" fill="#E7EEAF"/>
<path id="Vector_619" d="M69.2389 199.288H50.5542V205.522H69.2389V199.288Z" fill="#E7EEAF"/>
<path id="Vector_620" d="M75.464 205.513H56.7793V211.748H75.464V205.513Z" fill="#E7EEAF"/>
<path id="Vector_621" d="M81.6983 211.739H63.0137V217.973H81.6983V211.739Z" fill="#E7EEAF"/>
<path id="Vector_622" d="M87.9234 217.964H69.2388V224.198H87.9234V217.964Z" fill="#E7EEAF"/>
<path id="Vector_623" d="M31.8695 199.288H13.1848V205.513H31.8695V199.288Z" fill="#E7EEAF"/>
<path id="Vector_624" d="M19.419 211.739H0.734375V217.964H19.419V211.739Z" fill="#E7EEAF"/>
<path id="Vector_625" d="M13.1849 205.513H6.95972V224.198H13.1849V205.513Z" fill="#E7EEAF"/>
<path id="Vector_626" d="M44.32 174.378H38.0947V193.063H44.32V174.378Z" fill="#E7EEAF"/>
<path id="Vector_627" d="M63.0045 155.694H56.7793V174.378H63.0045V155.694Z" fill="#E7EEAF"/>
<path id="Vector_628" d="M87.9234 180.604V186.829H81.6892V193.054H87.9234V199.288H94.1486V193.054H100.374V186.829H94.1486V180.604H87.9234Z" fill="#E7EEAF"/>
<path id="Vector_629" d="M125.284 174.378V180.604H119.059V186.829H125.284V193.054H131.518V186.829H137.743V180.604H131.518V174.378H125.284Z" fill="#E7EEAF"/>
<path id="Vector_630" d="M63.0135 105.874V112.099H56.7793V118.324H63.0135V124.549H69.2387V118.324H75.464V112.099H69.2387V105.874H63.0135Z" fill="#E7EEAF"/>
<path id="Vector_631" d="M63.0135 80.9639V87.1891H56.7793V93.4144H63.0135V99.6486H69.2387V93.4144H75.464V87.1891H69.2387V80.9639H63.0135Z" fill="#E7EEAF"/>
<path id="Vector_632" d="M50.5541 93.4144V99.6396H44.3289V105.874H50.5541V112.099H56.7793V105.874H63.0045V99.6396H56.7793V93.4144H50.5541Z" fill="#E7EEAF"/>
<path id="Vector_633" d="M75.464 68.5045V74.7297H69.2388V80.9639H75.464V87.1891H81.6892V80.9639H87.9145V74.7297H81.6892V68.5045H75.464Z" fill="#E7EEAF"/>
<path id="Vector_634" d="M75.464 186.829H69.2388V199.279H75.464V186.829Z" fill="#E7EEAF"/>
<path id="Vector_635" d="M69.2389 180.604H63.0137V193.063H69.2389V180.604Z" fill="#E7EEAF"/>
<path id="Vector_636" d="M63.0047 161.919H50.5542V168.144H63.0047V161.919Z" fill="#E7EEAF"/>
<path id="Vector_637" d="M75.464 155.694H56.7793V161.919H75.464V155.694Z" fill="#E7EEAF"/>
<path id="Vector_638" d="M75.464 130.784H56.7793V137.018H75.464V130.784Z" fill="#E7EEAF"/>
<path id="Vector_639" d="M69.2298 143.234H56.7793V149.459H69.2298V143.234Z" fill="#E7EEAF"/>
<path id="Vector_640" d="M63.0047 137.009H50.5542V143.234H63.0047V137.009Z" fill="#E7EEAF"/>
<path id="Vector_641" d="M106.599 155.685H87.9146V161.919H106.599V155.685Z" fill="#E7EEAF"/>
<path id="Vector_642" d="M106.599 143.234H87.9146V149.459H106.599V143.234Z" fill="#E7EEAF"/>
<path id="Vector_643" d="M63.0045 161.919H56.7793V174.369H63.0045V161.919Z" fill="#E7EEAF"/>
<path id="Vector_644" d="M81.6982 143.234H69.2388V168.144H81.6982V143.234Z" fill="#E7EEAF"/>
<path id="Vector_645" d="M69.2387 130.784H56.7793V149.468H69.2387V130.784Z" fill="#E7EEAF"/>
<path id="Vector_646" d="M19.41 211.739H13.1848V224.189H19.41V211.739Z" fill="#E7EEAF"/>
<path id="Vector_647" d="M63.0045 217.964H56.7793V224.189H63.0045V217.964Z" fill="#E7EEAF"/>
<path id="Vector_648" d="M69.2299 224.189H63.0046V230.414H69.2299V224.189Z" fill="#E7EEAF"/>
<path id="Vector_649" d="M181.329 224.189H168.878V230.414H181.329V224.189Z" fill="#E7EEAF"/>
<path id="Vector_650" d="M187.563 217.964H175.104V224.189H187.563V217.964Z" fill="#E7EEAF"/>
<path id="Vector_651" d="M193.788 211.739H181.338V217.964H193.788V211.739Z" fill="#E7EEAF"/>
<path id="Vector_652" d="M193.788 205.513H187.563V217.973H193.788V205.513Z" fill="#E7EEAF"/>
<path id="Vector_653" d="M187.563 211.739H181.338V224.198H187.563V211.739Z" fill="#E7EEAF"/>
<path id="Vector_654" d="M181.338 217.964H175.113V230.423H181.338V217.964Z" fill="#E7EEAF"/>
<g id="Group_18">
<path id="Vector_655" d="M106.608 93.4144H100.383V112.099H106.608V93.4144Z" fill="#E7EEAF"/>
<path id="Vector_656" d="M106.608 118.324H100.383V130.784H106.608V118.324Z" fill="#E7EEAF"/>
<path id="Vector_657" d="M100.374 112.099H94.1487V124.558H100.374V112.099Z" fill="#E7EEAF"/>
<path id="Vector_658" d="M94.1488 105.874H87.9236V118.333H94.1488V105.874Z" fill="#E7EEAF"/>
<path id="Vector_659" d="M112.833 99.6396H94.1487V105.865H112.833V99.6396Z" fill="#E7EEAF"/>
<path id="Vector_660" d="M112.833 118.324H94.1487V124.55H112.833V118.324Z" fill="#E7EEAF"/>
<path id="Vector_661" d="M100.383 112.099H87.9236V118.324H100.383V112.099Z" fill="#E7EEAF"/>
<path id="Vector_662" d="M87.9235 99.6486H81.6982V112.108H87.9235V99.6486Z" fill="#E7EEAF"/>
<path id="Vector_663" d="M94.1577 105.874H81.6982V112.099H94.1577V105.874Z" fill="#E7EEAF"/>
<path id="Vector_664" d="M87.9235 93.4144H81.6982V105.874H87.9235V93.4144Z" fill="#E7EEAF"/>
<path id="Vector_665" d="M94.1577 93.4144H81.6982V99.6396H94.1577V93.4144Z" fill="#E7EEAF"/>
<path id="Vector_666" d="M100.383 87.1891H87.9236V93.4144H100.383V87.1891Z" fill="#E7EEAF"/>
<path id="Vector_667" d="M87.9235 99.6486H75.4641V105.874H87.9235V99.6486Z" fill="#E7EEAF"/>
<path id="Vector_668" d="M112.833 112.099H106.608V124.558H112.833V112.099Z" fill="#E7EEAF"/>
<path id="Vector_669" d="M119.059 112.099H106.599V118.324H119.059V112.099Z" fill="#E7EEAF"/>
</g>
<path id="Vector_670" d="M200.022 211.739H187.563V217.964H200.022V211.739Z" fill="#E7EEAF"/>
<path id="Vector_671" d="M206.248 217.964H193.788V224.189H206.248V217.964Z" fill="#E7EEAF"/>
<path id="Vector_672" d="M212.473 224.189H200.014V230.414H212.473V224.189Z" fill="#E7EEAF"/>
<path id="Vector_673" d="M206.248 217.964H200.022V230.423H206.248V217.964Z" fill="#E7EEAF"/>
<path id="Vector_674" d="M200.014 211.739H193.788V224.198H200.014V211.739Z" fill="#E7EEAF"/>
<path id="Vector_675" d="M131.509 217.964H125.284V230.423H131.509V217.964Z" fill="#E7EEAF"/>
<path id="Vector_676" d="M112.824 161.919H106.599V168.144H112.824V161.919Z" fill="#E7EEAF"/>
<path id="Vector_677" d="M112.824 149.459H106.599V155.685H112.824V149.459Z" fill="#E7EEAF"/>
<path id="Vector_678" d="M56.7794 211.739H50.5542V217.964H56.7794V211.739Z" fill="#E7EEAF"/>
<path id="Vector_679" d="M193.788 224.189H187.563V230.414H193.788V224.189Z" fill="#E7EEAF"/>
<path id="Vector_680" d="M224.923 217.964H218.698V224.189H224.923V217.964Z" fill="#E7EEAF"/>
<path id="Vector_681" d="M218.698 211.739H212.473V217.964H218.698V211.739Z" fill="#E7EEAF"/>
<path id="Vector_682" d="M212.473 205.513H206.248V211.739H212.473V205.513Z" fill="#E7EEAF"/>
<path id="Vector_683" d="M206.248 199.288H200.022V205.513H206.248V199.288Z" fill="#E7EEAF"/>
<path id="Vector_684" d="M200.014 193.054H193.788V199.279H200.014V193.054Z" fill="#E7EEAF"/>
<path id="Vector_685" d="M193.788 186.829H187.563V193.054H193.788V186.829Z" fill="#E7EEAF"/>
<path id="Vector_686" d="M187.563 180.595H181.338V186.82H187.563V180.595Z" fill="#E7EEAF"/>
<path id="Vector_687" d="M181.338 174.369H175.113V180.595H181.338V174.369Z" fill="#E7EEAF"/>
<path id="Vector_688" d="M175.104 168.144H168.878V174.369H175.104V168.144Z" fill="#E7EEAF"/>
<path id="Vector_689" d="M168.879 161.919H162.653V168.144H168.879V161.919Z" fill="#E7EEAF"/>
<path id="Vector_690" d="M162.653 155.685H156.428V161.91H162.653V155.685Z" fill="#E7EEAF"/>
<path id="Vector_691" d="M156.428 149.459H150.203V155.685H156.428V149.459Z" fill="#E7EEAF"/>
<path id="Vector_692" d="M150.194 143.225H143.969V149.45H150.194V143.225Z" fill="#E7EEAF"/>
<path id="Vector_693" d="M143.969 137H137.743V143.225H143.969V137Z" fill="#E7EEAF"/>
<path id="Vector_694" d="M137.743 130.775H131.518V137H137.743V130.775Z" fill="#E7EEAF"/>
<path id="Vector_695" d="M131.518 124.541H125.293V130.766H131.518V124.541Z" fill="#E7EEAF"/>
<path id="Vector_696" d="M125.293 118.315H119.068V124.541H125.293V118.315Z" fill="#E7EEAF"/>
<path id="Vector_697" d="M50.5541 205.513H44.3289V211.739H50.5541V205.513Z" fill="#E7EEAF"/>
<path id="Vector_698" d="M44.329 199.288H38.1038V205.513H44.329V199.288Z" fill="#E7EEAF"/>
<path id="Vector_699" d="M106.608 180.604V193.054H100.374V199.288H106.608V205.513H112.833V211.739H119.059V217.964H125.284V193.054H119.059V186.829H112.833V180.604H106.608Z" fill="#E7EEAF"/>
<path id="Vector_700" d="M94.1486 199.288V205.513H81.6892V211.739H87.9234V217.964H94.1486V224.189H119.059V217.964H112.833V211.739H106.599V205.513H100.374V199.288H94.1486Z" fill="#E7EEAF"/>
<path id="Vector_701" d="M175.104 205.513H162.653V199.288H156.419V205.513H150.194V211.739H143.969V217.964H137.743V224.189H162.653V217.964H168.879V211.739H175.104V205.513Z" fill="#E7EEAF"/>
<path id="Vector_702" d="M156.419 193.054H150.194V180.604H143.969V186.829H137.743V193.054H131.518V217.964H137.743V211.739H143.969V205.513H150.194V199.288H156.419V193.054Z" fill="#E7EEAF"/>
<path id="Vector_703" d="M187.563 193.054H162.653V199.279H187.563V193.054Z" fill="#E7EEAF"/>
<path id="Vector_704" d="M181.338 186.829H162.653V199.288H181.338V186.829Z" fill="#E7EEAF"/>
<path id="Vector_705" d="M168.879 180.604H162.653V192.569H168.879V180.604Z" fill="#E7EEAF"/>
<path id="Vector_706" d="M162.653 168.144H137.743V174.378H162.653V168.144Z" fill="#E7EEAF"/>
<path id="Vector_707" d="M143.968 155.685H119.059V161.919H143.968V155.685Z" fill="#E7EEAF"/>
<path id="Vector_708" d="M156.428 161.919H137.743V174.378H156.428V161.919Z" fill="#E7EEAF"/>
<path id="Vector_709" d="M143.969 155.685H137.743V167.659H143.969V155.685Z" fill="#E7EEAF"/>
<path id="Vector_710" d="M137.734 155.685H125.149V168.144H137.734V155.685Z" fill="#E7EEAF"/>
<g id="Group_19">
<path id="Vector_711" d="M137.743 143.234H112.833V149.459H137.743V143.234Z" fill="#E7EEAF"/>
<path id="Vector_712" d="M131.518 137.009H112.833V149.468H131.518V137.009Z" fill="#E7EEAF"/>
<path id="Vector_713" d="M119.059 130.784H112.833V142.749H119.059V130.784Z" fill="#E7EEAF"/>
</g>
<path id="Vector_714" d="M25.6442 137.009H19.4189V143.234H25.6442V149.459H31.8694V155.685H25.6442V161.919H19.4189V168.144H25.6442V174.369H31.8694V168.144H38.1036V161.919H44.3288V155.685H50.5541V149.459H44.3288V143.234H38.1036V137.009H31.8694V130.784H25.6442V137.009Z" fill="#E7EEAF"/>
<path id="Vector_715" d="M224.923 6.22522H218.698V24.9099H224.923V6.22522Z" fill="#E7EEAF"/>
<path id="Vector_716" d="M224.923 31.1351H218.698V49.8198H224.923V31.1351Z" fill="#E7EEAF"/>
<path id="Vector_717" d="M187.563 31.1351H181.338V49.8198H187.563V31.1351Z" fill="#E7EEAF"/>
<path id="Vector_718" d="M218.698 24.9099H212.473V43.5946H218.698V24.9099Z" fill="#E7EEAF"/>
<path id="Vector_719" d="M193.788 24.9099H187.563V56.045H193.788V24.9099Z" fill="#E7EEAF"/>
<path id="Vector_720" d="M212.473 18.6847H206.248V37.3693H212.473V18.6847Z" fill="#E7EEAF"/>
<path id="Vector_721" d="M193.788 62.2703H187.563V74.7297H193.788V62.2703Z" fill="#E7EEAF"/>
<path id="Vector_722" d="M175.113 74.7297H131.518V87.1802H175.113V74.7297Z" fill="#E7EEAF"/>
<path id="Vector_723" d="M168.888 80.9549H137.743V93.4144H168.888V80.9549Z" fill="#E7EEAF"/>
<path id="Vector_724" d="M137.743 68.5045H125.284V80.9639H137.743V68.5045Z" fill="#E7EEAF"/>
<path id="Vector_725" d="M200.014 18.6847H193.788V37.3693H200.014V18.6847Z" fill="#E7EEAF"/>
<path id="Vector_726" d="M200.014 43.5946H193.788V62.2792H200.014V43.5946Z" fill="#E7EEAF"/>
<path id="Vector_727" d="M206.248 49.8198H200.022V68.5045H206.248V49.8198Z" fill="#E7EEAF"/>
<path id="Vector_728" d="M212.473 56.045H206.248V74.7297H212.473V56.045Z" fill="#E7EEAF"/>
<path id="Vector_729" d="M218.698 62.2703H212.473V80.9549H218.698V62.2703Z" fill="#E7EEAF"/>
<path id="Vector_730" d="M224.932 68.5045H218.698V87.1891H224.932V68.5045Z" fill="#E7EEAF"/>
<path id="Vector_731" d="M206.248 12.4594H200.022V31.1441H206.248V12.4594Z" fill="#E7EEAF"/>
<path id="Vector_732" d="M218.698 0H212.473V18.6847H218.698V0Z" fill="#E7EEAF"/>
<path id="Vector_733" d="M224.932 6.22522H206.248V12.4504H224.932V6.22522Z" fill="#E7EEAF"/>
<path id="Vector_734" d="M193.788 37.3693H175.104V43.5946H193.788V37.3693Z" fill="#E7EEAF"/>
<path id="Vector_735" d="M175.113 56.045H156.428V62.2703H175.113V56.045Z" fill="#E7EEAF"/>
<path id="Vector_736" d="M181.338 87.1802H187.563V80.9549H193.788V87.1802H200.014V93.4144H193.788V99.6396H187.563V93.4144H181.338V87.1802Z" fill="#E7EEAF"/>
<path id="Vector_737" d="M175.104 124.55H181.338V118.324H187.563V124.55H193.788V130.784H187.563V137.009H181.338V130.784H175.104V124.55Z" fill="#E7EEAF"/>
<path id="Vector_738" d="M106.599 62.2703H112.833V56.045H119.059V62.2703H125.284V68.5045H119.059V74.7297H112.833V68.5045H106.599V62.2703Z" fill="#E7EEAF"/>
<path id="Vector_739" d="M81.6982 62.2703H87.9235V56.045H94.1487V62.2703H100.374V68.5045H94.1487V74.7297H87.9235V68.5045H81.6982V62.2703Z" fill="#E7EEAF"/>
<path id="Vector_740" d="M94.1487 49.8198H100.374V43.5946H106.599V49.8198H112.824V56.045H106.599V62.2703H100.374V56.045H94.1487V49.8198Z" fill="#E7EEAF"/>
<path id="Vector_741" d="M200.013 68.5045H187.563V74.7387H200.013V68.5045Z" fill="#E7EEAF"/>
<path id="Vector_742" d="M187.563 56.045H181.338V68.5045H187.563V56.045Z" fill="#E7EEAF"/>
<path id="Vector_743" d="M193.788 62.2703H181.338V68.5045H193.788V62.2703Z" fill="#E7EEAF"/>
<path id="Vector_744" d="M168.879 49.8198H162.653V62.2703H168.879V49.8198Z" fill="#E7EEAF"/>
<path id="Vector_745" d="M162.653 56.045H156.428V74.7297H162.653V56.045Z" fill="#E7EEAF"/>
<path id="Vector_746" d="M137.743 56.045H131.518V74.7297H137.743V56.045Z" fill="#E7EEAF"/>
<path id="Vector_747" d="M150.194 56.045H143.969V68.4955H150.194V56.045Z" fill="#E7EEAF"/>
<path id="Vector_748" d="M143.969 49.8198H137.743V62.2703H143.969V49.8198Z" fill="#E7EEAF"/>
<path id="Vector_749" d="M162.644 87.1802H156.419V105.865H162.644V87.1802Z" fill="#E7EEAF"/>
<path id="Vector_750" d="M150.194 87.1802H143.969V105.865H150.194V87.1802Z" fill="#E7EEAF"/>
<path id="Vector_751" d="M175.104 56.045H162.653V62.2703H175.104V56.045Z" fill="#E7EEAF"/>
<path id="Vector_752" d="M168.878 68.5045H143.969V80.9639H168.878V68.5045Z" fill="#E7EEAF"/>
<path id="Vector_753" d="M150.203 56.045H131.518V68.4955H150.203V56.045Z" fill="#E7EEAF"/>
<path id="Vector_754" d="M224.924 12.4505H212.473V18.6847H224.924V12.4505Z" fill="#E7EEAF"/>
<path id="Vector_755" d="M224.923 56.045H218.698V62.2703H224.923V56.045Z" fill="#E7EEAF"/>
<path id="Vector_756" d="M224.923 174.369H218.698V186.829H224.923V174.369Z" fill="#E7EEAF"/>
<path id="Vector_757" d="M218.698 180.595H212.473V193.054H218.698V180.595Z" fill="#E7EEAF"/>
<path id="Vector_758" d="M218.707 186.829H206.248V193.054H218.707V186.829Z" fill="#E7EEAF"/>
<path id="Vector_759" d="M224.933 180.604H212.473V186.829H224.933V180.604Z" fill="#E7EEAF"/>
<g id="Group_20">
<path id="Vector_760" d="M131.518 99.6486H119.059V105.874H131.518V99.6486Z" fill="#E7EEAF"/>
<path id="Vector_761" d="M125.284 93.4144H112.824V99.6396H125.284V93.4144Z" fill="#E7EEAF"/>
<path id="Vector_762" d="M119.059 87.1891H106.599V93.4144H119.059V87.1891Z" fill="#E7EEAF"/>
<path id="Vector_763" d="M125.284 93.4144H119.059V112.099H125.284V93.4144Z" fill="#E7EEAF"/>
<path id="Vector_764" d="M119.058 87.1891H112.833V99.6486H119.058V87.1891Z" fill="#E7EEAF"/>
<path id="Vector_765" d="M112.833 80.9639H100.374V87.1891H112.833V80.9639Z" fill="#E7EEAF"/>
<path id="Vector_766" d="M112.833 80.9639H106.608V93.4144H112.833V80.9639Z" fill="#E7EEAF"/>
<path id="Vector_767" d="M106.608 80.9639H94.1487V87.1891H106.608V80.9639Z" fill="#E7EEAF"/>
<path id="Vector_768" d="M100.374 80.9639H94.1487V93.4144H100.374V80.9639Z" fill="#E7EEAF"/>
<path id="Vector_769" d="M106.608 74.7297H100.383V87.1891H106.608V74.7297Z" fill="#E7EEAF"/>
<path id="Vector_770" d="M125.284 105.874H112.824V112.099H125.284V105.874Z" fill="#E7EEAF"/>
<path id="Vector_771" d="M119.058 105.874H112.833V118.324H119.058V105.874Z" fill="#E7EEAF"/>
</g>
<path id="Vector_772" d="M218.698 186.829H212.473V199.288H218.698V186.829Z" fill="#E7EEAF"/>
<path id="Vector_773" d="M224.923 193.054H218.698V205.513H224.923V193.054Z" fill="#E7EEAF"/>
<path id="Vector_774" d="M224.933 193.054H212.473V199.279H224.933V193.054Z" fill="#E7EEAF"/>
<path id="Vector_775" d="M224.923 124.549H218.698V130.775H224.923V124.549Z" fill="#E7EEAF"/>
<path id="Vector_776" d="M6.9596 224.189H0.734375V230.423H6.9596V224.189Z" fill="#E7EEAF"/>
<path id="Vector_777" d="M168.879 105.865H162.653V112.099H168.879V105.865Z" fill="#E7EEAF"/>
<path id="Vector_778" d="M156.419 105.865H150.194V112.099H156.419V105.865Z" fill="#E7EEAF"/>
<path id="Vector_779" d="M218.698 49.8198H212.473V56.054H218.698V49.8198Z" fill="#E7EEAF"/>
<path id="Vector_780" d="M212.473 43.5946H206.248V49.8288H212.473V43.5946Z" fill="#E7EEAF"/>
<path id="Vector_781" d="M206.248 37.3693H200.022V43.5946H206.248V37.3693Z" fill="#E7EEAF"/>
<path id="Vector_782" d="M181.338 105.874H193.788V99.6486H200.023V105.874H206.248V112.099H212.473V118.324H218.698V124.55H193.788V118.324H187.563V112.099H181.338V105.874Z" fill="#E7EEAF"/>
<path id="Vector_783" d="M200.022 93.4144H206.248V80.9549H212.473V87.1802H218.698V93.4144H224.923V118.324H218.698V112.099H212.473V105.865H206.248V99.6396H200.022V93.4144Z" fill="#E7EEAF"/>
<path id="Vector_784" d="M206.248 174.369V161.919H200.022V155.685H206.248V149.459H212.473V143.234H218.698V137.009H224.923V161.919H218.698V168.144H212.473V174.369H206.248Z" fill="#E7EEAF"/>
<path id="Vector_785" d="M193.788 155.685V149.459H181.338V143.234H187.563V137.009H193.788V130.784H218.698V137.009H212.473V143.234H206.248V149.459H200.023V155.685H193.788Z" fill="#E7EEAF"/>
<path id="Vector_786" d="M200.014 161.919H193.788V186.829H200.014V161.919Z" fill="#E7EEAF"/>
<path id="Vector_787" d="M200.022 161.919H187.563V180.604H200.022V161.919Z" fill="#E7EEAF"/>
<path id="Vector_788" d="M193.303 161.919H181.338V168.153H193.303V161.919Z" fill="#E7EEAF"/>
<path id="Vector_789" d="M175.104 137.009H168.878V161.919H175.104V137.009Z" fill="#E7EEAF"/>
<path id="Vector_790" d="M162.644 118.324H156.419V143.234H162.644V118.324Z" fill="#E7EEAF"/>
<path id="Vector_791" d="M175.113 137.009H162.653V155.694H175.113V137.009Z" fill="#E7EEAF"/>
<path id="Vector_792" d="M205.754 118.324H193.788V124.558H205.754V118.324Z" fill="#E7EEAF"/>
<path id="Vector_793" d="M168.878 124.424H156.419V137.009H168.878V124.424Z" fill="#E7EEAF"/>
<g id="Group_21">
<path id="Vector_794" d="M150.194 112.099H143.969V137.009H150.194V112.099Z" fill="#E7EEAF"/>
<path id="Vector_795" d="M150.203 112.099H137.743V130.784H150.203V112.099Z" fill="#E7EEAF"/>
<path id="Vector_796" d="M143.474 112.099H131.509V118.333H143.474V112.099Z" fill="#E7EEAF"/>
</g>
<path id="Vector_797" d="M137.743 24.9099V18.6847H143.969V24.9099H150.203V31.1351H156.428V24.9099H162.653V18.6847H168.887V24.9099H175.113V31.1351H168.887V37.3693H162.653V43.5946H156.428V49.8198H150.203V43.5946H143.969V37.3693H137.743V31.1351H131.518V24.9099H137.743Z" fill="#E7EEAF"/>
</g>
<g id="Group_22">
<path id="Vector_798" d="M243.608 460.847H237.383V479.531H243.608V460.847Z" fill="#E7EEAF"/>
<path id="Vector_799" d="M243.608 460.838H231.158V473.288H243.608V460.838Z" fill="#E7EEAF"/>
<path id="Vector_800" d="M237.383 454.612H218.707V467.063H237.383V454.612Z" fill="#E7EEAF"/>
<path id="Vector_801" d="M231.158 448.387H224.933V467.072H231.158V448.387Z" fill="#E7EEAF"/>
<path id="Vector_802" d="M218.698 460.847H212.473V479.531H218.698V460.847Z" fill="#E7EEAF"/>
<path id="Vector_803" d="M224.933 460.838H212.473V473.288H224.933V460.838Z" fill="#E7EEAF"/>
</g>
<g id="Group_23">
<path id="Vector_804" d="M243.608 485.748H237.383V504.432H243.608V485.748Z" fill="#E7EEAF"/>
<path id="Vector_805" d="M243.608 485.748H231.158V498.207H243.608V485.748Z" fill="#E7EEAF"/>
<path id="Vector_806" d="M237.383 479.522H218.707V491.982H237.383V479.522Z" fill="#E7EEAF"/>
<path id="Vector_807" d="M231.158 473.297H224.933V491.982H231.158V473.297Z" fill="#E7EEAF"/>
<path id="Vector_808" d="M218.698 485.748H212.473V504.432H218.698V485.748Z" fill="#E7EEAF"/>
<path id="Vector_809" d="M224.933 485.748H212.473V498.207H224.933V485.748Z" fill="#E7EEAF"/>
</g>
<path id="Vector_810" d="M231.158 498.207H224.932V504.441H231.158V498.207Z" fill="#E7EEAF"/>
<g id="Group_24">
<path id="Vector_811" d="M218.501 531.75H202.96V535.594H218.501V531.75Z" fill="#E7EEAF"/>
<path id="Vector_812" d="M217.279 538.154H204.954L195.351 562.561H200.687L202.295 558.438H212.671L214.314 562.561H226.954L217.288 538.154H217.279ZM204.083 553.911L207.478 545.296L210.874 553.911H204.083Z" fill="#E7EEAF"/>
</g>
</g>
<defs>
<clipPath id="clip0_128_3">
<rect width="454.621" height="632" fill="white" transform="translate(0.734375)"/>
</clipPath>
</defs>
</svg>
