<svg width="507" height="704" viewBox="0 0 507 704" fill="none" xmlns="http://www.w3.org/2000/svg">
<g id="HERO_LOGO" clip-path="url(#clip0_128_3)">
<g id="Group">
<path id="Vector" d="M104.69 595.76L91.8401 620.78H104.41V626.27H74.3501L87.2401 601.25H76.0901V595.76H104.69Z" fill="#CDD496"/>
<path id="Vector_2" d="M140.61 620.78V626.27H114.25V595.76H139.92L139.88 601.25H127.51V607.19H136.74V612.68H127.51V620.78H140.61V620.78Z" fill="#CDD496"/>
<path id="Vector_3" d="M177.14 620.78V626.27H150.78V595.76H164.04V620.78H177.14V620.78Z" fill="#CDD496"/>
<path id="Vector_4" d="M214.48 601.26H204.03V626.28H190.77V601.26H180.32V595.77H214.49V601.26H214.48Z" fill="#CDD496"/>
<path id="Vector_5" d="M260.2 626.27V595.76H279.03C280.52 595.76 281.94 596.16 283.3 596.96C284.66 597.76 285.69 598.8 286.39 600.07C287.12 601.43 287.49 602.82 287.49 604.26C287.49 606.02 286.8 607.74 285.42 609.43C287.61 611.25 288.71 613.69 288.71 616.75C288.71 618.38 288.34 619.92 287.59 621.39C286.84 622.85 285.72 624.03 284.23 624.93C282.74 625.83 281.15 626.27 279.47 626.27H260.19H260.2ZM278.59 607.19C279.49 607.19 280.23 606.91 280.83 606.34C281.43 605.77 281.73 605.06 281.73 604.22C281.73 603.43 281.42 602.74 280.79 602.14C280.17 601.55 279.43 601.25 278.59 601.25H273.46V607.19H278.59ZM278.75 620.78C279.89 620.78 280.87 620.39 281.68 619.6C282.49 618.81 282.9 617.86 282.9 616.75C282.9 615.58 282.5 614.61 281.7 613.82C280.9 613.03 279.92 612.64 278.75 612.64H273.46V620.78H278.75V620.78Z" fill="#CDD496"/>
<path id="Vector_6" d="M325.69 620.78V626.27H299.33V595.76H325L324.96 601.25H312.59V607.19H321.82V612.68H312.59V620.78H325.69V620.78Z" fill="#CDD496"/>
<path id="Vector_7" d="M362.22 620.78V626.27H335.86V595.76H349.12V620.78H362.22Z" fill="#CDD496"/>
<path id="Vector_8" d="M397.73 620.78V626.27H371.37V595.76H397.04L397 601.25H384.63V607.19H393.86V612.68H384.63V620.78H397.73V620.78Z" fill="#CDD496"/>
<path id="Vector_9" d="M409.68 617.89C412.47 620.41 415.39 621.67 418.43 621.67C420.06 621.67 421.55 621.4 422.91 620.86L412.46 614.43C408.72 612.13 406.84 609.18 406.84 605.6C406.84 602.65 408.16 600.13 410.81 598.06C413.45 595.98 416.75 594.95 420.71 594.95C424.26 594.95 427.72 596.02 431.08 598.16L427.87 602.6C425.89 601.14 423.52 600.4 420.75 600.4C419.47 600.4 418.27 600.58 417.13 600.93L427.38 607.24C431.12 609.55 432.99 612.52 432.99 616.16C432.99 619.23 431.6 621.82 428.82 623.94C426.04 626.06 422.6 627.12 418.51 627.12C413.52 627.12 409.38 625.48 406.1 622.2L409.68 617.89Z" fill="#CDD496"/>
<path id="Vector_10" d="M153.1 661.22V669.07H139.84V638.56H155.46C159.04 638.56 162.06 639.55 164.53 641.53C167.3 643.75 168.68 646.53 168.68 649.87C168.68 653.21 167.3 656.03 164.53 658.25C162.06 660.23 159.02 661.22 155.42 661.22H153.1V661.22ZM155.42 655.73C157.64 655.73 159.45 655.18 160.85 654.08C162.25 652.98 162.94 651.59 162.94 649.91C162.94 648.23 162.25 646.8 160.87 645.7C159.49 644.6 157.68 644.05 155.46 644.05H153.1V655.72H155.42V655.73Z" fill="#CDD496"/>
<path id="Vector_11" d="M210.78 669.07H196.71L194.88 664.47H183.33L181.54 669.07H175.6L187.6 638.56H198.71L210.79 669.07H210.78ZM192.88 659.43L189.1 649.83L185.32 659.43H192.89H192.88Z" fill="#CDD496"/>
<path id="Vector_12" d="M222.13 660.69C224.92 663.21 227.84 664.47 230.88 664.47C232.51 664.47 234 664.2 235.35 663.66L224.9 657.23C221.16 654.93 219.29 651.98 219.29 648.4C219.29 645.45 220.61 642.93 223.26 640.86C225.9 638.78 229.2 637.75 233.16 637.75C236.71 637.75 240.17 638.82 243.53 640.96L240.32 645.4C238.34 643.96 235.97 643.24 233.2 643.24C231.92 643.24 230.72 643.42 229.58 643.77L239.83 650.08C243.57 652.38 245.44 655.36 245.44 658.99C245.44 662.05 244.05 664.65 241.27 666.76C238.49 668.88 235.05 669.93 230.96 669.93C225.97 669.93 221.84 668.29 218.55 665.01L222.13 660.7V660.69Z" fill="#CDD496"/>
<path id="Vector_13" d="M288.51 669.07H274.43L272.6 664.47H261.05L259.26 669.07H253.32L265.32 638.56H276.43L288.51 669.07ZM270.61 659.43L266.83 649.83L263.05 659.43H270.62H270.61Z" fill="#CDD496"/>
<path id="Vector_14" d="M328.94 666.47L323.94 670.01L314.46 656.79L311.33 661.1V669.07H298.07V638.56H311.33V651.62L321.3 638.56H328.13L318.25 651.66L328.95 666.47H328.94Z" fill="#CDD496"/>
<path id="Vector_15" d="M370.47 669.07H356.4L354.57 664.47H343.02L341.23 669.07H335.29L347.29 638.56H358.4L370.48 669.07H370.47ZM352.57 659.43L348.79 649.83L345.01 659.43H352.58H352.57Z" fill="#CDD496"/>
</g>
<path id="Vector_16" d="M443.69 561.54H62.3999V568.48H443.69V561.54Z" fill="#CDD496"/>
<path id="Vector_17" d="M443.69 575.41H62.3999V582.35H443.69V575.41Z" fill="#CDD496"/>
<path id="Vector_18" d="M443.69 682.75H62.3999V689.68H443.69V682.75Z" fill="#CDD496"/>
<path id="Vector_19" d="M443.69 696.62H62.3999V703.55H443.69V696.62Z" fill="#CDD496"/>
<path id="Vector_20" d="M263.45 6.92999H256.51V27.73H263.45V6.92999Z" fill="#CDD496"/>
<path id="Vector_21" d="M256.51 13.86H249.58V34.66H256.51V13.86Z" fill="#CDD496"/>
<path id="Vector_22" d="M256.51 41.6H249.58V62.4H256.51V41.6Z" fill="#CDD496"/>
<path id="Vector_23" d="M256.51 83.19H249.58V103.99H256.51V83.19Z" fill="#CDD496"/>
<path id="Vector_24" d="M256.51 131.72H249.58V152.52H256.51V131.72Z" fill="#CDD496"/>
<path id="Vector_25" d="M263.45 34.66H256.51V55.46H263.45V34.66Z" fill="#CDD496"/>
<path id="Vector_26" d="M305.04 34.66H298.1V55.46H305.04V34.66Z" fill="#CDD496"/>
<path id="Vector_27" d="M270.38 27.73H263.44V48.53H270.38V27.73Z" fill="#CDD496"/>
<path id="Vector_28" d="M298.1 27.73H291.17V62.39H298.1V27.73Z" fill="#CDD496"/>
<path id="Vector_29" d="M277.31 20.8H270.37V41.6H277.31V20.8Z" fill="#CDD496"/>
<path id="Vector_30" d="M298.1 69.32H291.17V83.18H298.1V69.32Z" fill="#CDD496"/>
<path id="Vector_31" d="M291.18 20.8H284.24V41.6H291.18V20.8Z" fill="#CDD496"/>
<path id="Vector_32" d="M291.18 48.53H284.24V69.33H291.18V48.53Z" fill="#CDD496"/>
<path id="Vector_33" d="M284.24 55.46H277.31V76.26H284.24V55.46Z" fill="#CDD496"/>
<path id="Vector_34" d="M277.31 62.39H270.38V83.19H277.31V62.39Z" fill="#CDD496"/>
<path id="Vector_35" d="M270.37 69.32H263.44V90.12H270.37V69.32Z" fill="#CDD496"/>
<path id="Vector_36" d="M263.44 76.26H256.51V97.06H263.44V76.26Z" fill="#CDD496"/>
<path id="Vector_37" d="M284.24 13.86H277.3V34.66H284.24V13.86Z" fill="#CDD496"/>
<path id="Vector_38" d="M270.38 0H263.44V20.8H270.38V0Z" fill="#CDD496"/>
<path id="Vector_39" d="M277.31 6.92999H256.51V13.86H277.31V6.92999Z" fill="#CDD496"/>
<path id="Vector_40" d="M311.97 41.59H291.17V48.52H311.97V41.59Z" fill="#CDD496"/>
<path id="Vector_41" d="M305.04 97.05H298.1V90.12H291.17V97.05H284.24V103.99H291.17V110.92H298.1V103.99H305.04V97.05Z" fill="#CDD496"/>
<path id="Vector_42" d="M311.97 138.65H305.04V131.72H298.1V138.65H291.17V145.59H298.1V152.52H305.04V145.59H311.97V138.65Z" fill="#CDD496"/>
<path id="Vector_43" d="M388.23 69.32H381.3V62.39H374.37V69.32H367.43V76.26H374.37V83.19H381.3V76.26H388.23V69.32Z" fill="#CDD496"/>
<path id="Vector_44" d="M415.96 69.32H409.03V62.39H402.09V69.32H395.16V76.26H402.09V83.19H409.03V76.26H415.96V69.32Z" fill="#CDD496"/>
<path id="Vector_45" d="M402.1 55.46H395.16V48.53H388.23V55.46H381.3V62.39H388.23V69.32H395.16V62.39H402.1V55.46Z" fill="#CDD496"/>
<path id="Vector_46" d="M305.03 69.32H291.17V76.26H305.03V69.32Z" fill="#CDD496"/>
<path id="Vector_47" d="M305.04 62.39H298.1V76.25H305.04V62.39Z" fill="#CDD496"/>
<path id="Vector_48" d="M429.83 83.19H422.89V76.26H415.96V83.19H409.03V90.12H415.96V97.05H422.89V90.12H429.83V83.19Z" fill="#CDD496"/>
<path id="Vector_49" d="M298.1 76.26H284.24V83.2H298.1V76.26Z" fill="#CDD496"/>
<path id="Vector_50" d="M270.38 13.86H256.51V20.79H270.38V13.86Z" fill="#CDD496"/>
<path id="Vector_51" d="M263.44 62.39H256.51V69.32H263.44V62.39Z" fill="#CDD496"/>
<path id="Vector_52" d="M256.51 69.32H249.58V76.25H256.51V69.32Z" fill="#CDD496"/>
<path id="Vector_53" d="M256.51 187.18H249.58V201.04H256.51V187.18Z" fill="#CDD496"/>
<path id="Vector_54" d="M263.44 194.11H256.51V207.98H263.44V194.11Z" fill="#CDD496"/>
<path id="Vector_55" d="M270.37 201.04H263.44V214.91H270.37V201.04Z" fill="#CDD496"/>
<path id="Vector_56" d="M277.31 207.98H263.44V214.91H277.31V207.98Z" fill="#CDD496"/>
<path id="Vector_57" d="M270.38 201.05H256.51V207.98H270.38V201.05Z" fill="#CDD496"/>
<path id="Vector_58" d="M263.45 194.12H249.58V201.05H263.45V194.12Z" fill="#CDD496"/>
<g id="Group_2">
<path id="Vector_59" d="M402.1 110.93H381.3V117.86H402.1V110.93Z" fill="#CDD496"/>
<path id="Vector_60" d="M374.37 110.93H360.5V117.86H374.37V110.93Z" fill="#CDD496"/>
<path id="Vector_61" d="M381.3 103.99H367.43V110.92H381.3V103.99Z" fill="#CDD496"/>
<path id="Vector_62" d="M388.24 97.06H374.37V103.99H388.24V97.06Z" fill="#CDD496"/>
<path id="Vector_63" d="M395.16 103.99H388.23V124.79H395.16V103.99Z" fill="#CDD496"/>
<path id="Vector_64" d="M374.36 103.99H367.43V124.79H374.36V103.99Z" fill="#CDD496"/>
<path id="Vector_65" d="M381.3 97.06H374.37V110.93H381.3V97.06Z" fill="#CDD496"/>
<path id="Vector_66" d="M395.17 90.13H381.3V97.06H395.17V90.13Z" fill="#CDD496"/>
<path id="Vector_67" d="M388.23 90.13H381.3V103.99H388.23V90.13Z" fill="#CDD496"/>
<path id="Vector_68" d="M402.1 90.13H388.23V97.06H402.1V90.13Z" fill="#CDD496"/>
<path id="Vector_69" d="M402.09 90.13H395.16V103.99H402.09V90.13Z" fill="#CDD496"/>
<path id="Vector_70" d="M395.16 83.19H388.23V97.06H395.16V83.19Z" fill="#CDD496"/>
<path id="Vector_71" d="M381.3 117.86H367.43V124.79H381.3V117.86Z" fill="#CDD496"/>
<path id="Vector_72" d="M381.3 117.85H374.37V131.71H381.3V117.85Z" fill="#CDD496"/>
</g>
<path id="Vector_73" d="M270.37 207.98H263.44V221.85H270.37V207.98Z" fill="#CDD496"/>
<path id="Vector_74" d="M263.44 214.91H256.51V228.78H263.44V214.91Z" fill="#CDD496"/>
<path id="Vector_75" d="M256.51 221.84H249.58V235.7H256.51V221.84Z" fill="#CDD496"/>
<path id="Vector_76" d="M263.45 221.85H249.58V228.78H263.45V221.85Z" fill="#CDD496"/>
<path id="Vector_77" d="M270.38 214.91H256.51V221.84H270.38V214.91Z" fill="#CDD496"/>
<path id="Vector_78" d="M263.44 138.65H249.58V145.59H263.44V138.65Z" fill="#CDD496"/>
<g id="Group_3">
<path id="Vector_79" d="M360.5 83.19H311.97V97.05H360.5V83.19Z" fill="#CDD496"/>
<path id="Vector_80" d="M353.57 90.12H318.9V103.98H353.57V90.12Z" fill="#CDD496"/>
<path id="Vector_81" d="M367.44 76.26H353.57V90.13H367.44V76.26Z" fill="#CDD496"/>
<path id="Vector_82" d="M332.77 62.39H311.97V69.32H332.77V62.39Z" fill="#CDD496"/>
<path id="Vector_83" d="M325.84 55.46H318.9V69.32H325.84V55.46Z" fill="#CDD496"/>
<path id="Vector_84" d="M332.77 62.39H325.83V83.19H332.77V62.39Z" fill="#CDD496"/>
<path id="Vector_85" d="M360.5 62.39H353.57V83.19H360.5V62.39Z" fill="#CDD496"/>
<path id="Vector_86" d="M346.64 62.39H339.7V76.25H346.64V62.39Z" fill="#CDD496"/>
<path id="Vector_87" d="M353.57 55.46H346.63V69.32H353.57V55.46Z" fill="#CDD496"/>
<path id="Vector_88" d="M332.77 97.05H325.84V117.85H332.77V97.05Z" fill="#CDD496"/>
<path id="Vector_89" d="M346.64 97.05H339.7V117.85H346.64V97.05Z" fill="#CDD496"/>
<path id="Vector_90" d="M325.84 62.39H311.97V69.32H325.84V62.39Z" fill="#CDD496"/>
<path id="Vector_91" d="M346.63 76.26H318.9V90.13H346.63V76.26Z" fill="#CDD496"/>
<path id="Vector_92" d="M360.5 62.39H339.7V76.26H360.5V62.39Z" fill="#CDD496"/>
<path id="Vector_93" d="M325.83 117.85H318.9V124.78H325.83V117.85Z" fill="#CDD496"/>
<path id="Vector_94" d="M339.7 117.85H332.77V124.78H339.7V117.85Z" fill="#CDD496"/>
</g>
<path id="Vector_95" d="M270.37 55.46H263.44V62.4H270.37V55.46Z" fill="#CDD496"/>
<path id="Vector_96" d="M256.51 207.98H249.58V214.91H256.51V207.98Z" fill="#CDD496"/>
<path id="Vector_97" d="M263.44 242.64H256.51V249.57H263.44V242.64Z" fill="#CDD496"/>
<path id="Vector_98" d="M256.51 249.57H249.58V256.5H256.51V249.57Z" fill="#CDD496"/>
<path id="Vector_99" d="M270.37 235.71H263.44V242.65H270.37V235.71Z" fill="#CDD496"/>
<path id="Vector_100" d="M277.31 228.78H270.38V235.71H277.31V228.78Z" fill="#CDD496"/>
<path id="Vector_101" d="M284.24 221.85H277.31V228.78H284.24V221.85Z" fill="#CDD496"/>
<path id="Vector_102" d="M291.17 214.91H284.24V221.84H291.17V214.91Z" fill="#CDD496"/>
<path id="Vector_103" d="M298.11 207.98H291.18V214.92H298.11V207.98Z" fill="#CDD496"/>
<path id="Vector_104" d="M305.04 201.05H298.11V207.98H305.04V201.05Z" fill="#CDD496"/>
<path id="Vector_105" d="M311.98 194.12H305.05V201.05H311.98V194.12Z" fill="#CDD496"/>
<path id="Vector_106" d="M318.91 187.18H311.98V194.11H318.91V187.18Z" fill="#CDD496"/>
<path id="Vector_107" d="M325.84 180.25H318.91V187.19H325.84V180.25Z" fill="#CDD496"/>
<path id="Vector_108" d="M332.77 173.32H325.84V180.25H332.77V173.32Z" fill="#CDD496"/>
<path id="Vector_109" d="M339.71 166.39H332.78V173.32H339.71V166.39Z" fill="#CDD496"/>
<path id="Vector_110" d="M346.64 159.45H339.71V166.38H346.64V159.45Z" fill="#CDD496"/>
<path id="Vector_111" d="M353.58 152.52H346.65V159.46H353.58V152.52Z" fill="#CDD496"/>
<path id="Vector_112" d="M360.51 145.59H353.58V152.52H360.51V145.59Z" fill="#CDD496"/>
<path id="Vector_113" d="M367.44 138.66H360.51V145.59H367.44V138.66Z" fill="#CDD496"/>
<path id="Vector_114" d="M374.37 131.73H367.44V138.66H374.37V131.73Z" fill="#CDD496"/>
<path id="Vector_115" d="M277.3 48.53H270.37V55.46H277.3V48.53Z" fill="#CDD496"/>
<path id="Vector_116" d="M284.23 41.6H277.3V48.53H284.23V41.6Z" fill="#CDD496"/>
<path id="Vector_117" d="M305.04 117.86H291.17V110.92H284.24V117.86H277.31V124.79H270.38H270.37V131.72H263.44V138.65H291.17V131.72H298.1V124.79H305.04V117.86Z" fill="#CDD496"/>
<path id="Vector_118" d="M284.24 103.99H277.31V90.12H270.37V97.05H263.44V103.99H256.51V131.72H263.44V124.79H270.38V117.85H277.31V110.92H284.24V103.99Z" fill="#CDD496"/>
<path id="Vector_119" d="M277.3 194.11V180.25H284.24V173.31H277.3V166.38H270.38V159.45H270.37H263.44V152.52H256.51V180.25H263.44V187.18H270.37V194.11H277.3Z" fill="#CDD496"/>
<path id="Vector_120" d="M291.17 173.31V166.38H305.04V159.45H298.1V152.52H291.17V145.59H263.44V152.52H270.38V159.45H277.31V166.38H284.24V173.31H291.17Z" fill="#CDD496"/>
<path id="Vector_121" d="M291.18 180.25H284.24V207.98H291.18V180.25Z" fill="#CDD496"/>
<path id="Vector_122" d="M298.11 180.25H284.24V201.05H298.11V180.25Z" fill="#CDD496"/>
<path id="Vector_123" d="M305.04 180.25H291.71V187.18H305.04V180.25Z" fill="#CDD496"/>
<path id="Vector_124" d="M318.9 152.52H311.97V180.25H318.9V152.52Z" fill="#CDD496"/>
<path id="Vector_125" d="M332.77 131.72H325.84V159.45H332.77V131.72Z" fill="#CDD496"/>
<path id="Vector_126" d="M325.84 152.52H311.97V173.32H325.84V152.52Z" fill="#CDD496"/>
<path id="Vector_127" d="M332.77 152.52H319.45V159.45H332.77V152.52Z" fill="#CDD496"/>
<path id="Vector_128" d="M332.77 138.5H318.9V152.51H332.77V138.5Z" fill="#CDD496"/>
<g id="Group_4">
<path id="Vector_129" d="M346.64 124.79H339.7V152.52H346.64V124.79Z" fill="#CDD496"/>
<path id="Vector_130" d="M353.57 124.79H339.7V145.59H353.57V124.79Z" fill="#CDD496"/>
<path id="Vector_131" d="M360.51 124.79H347.18V131.72H360.51V124.79Z" fill="#CDD496"/>
</g>
<path id="Vector_132" d="M353.57 27.73V20.8H346.64V27.73H339.71V34.66H332.77V27.73H325.84V20.8H318.9V27.73H311.97V34.66H318.9V41.6H325.84V48.53H332.77V55.46H339.7V48.53H346.64V41.6H353.57V34.66H360.5V27.73H353.57Z" fill="#CDD496"/>
<path id="Vector_133" d="M499.16 242.64H478.36V249.57H499.16V242.64Z" fill="#CDD496"/>
<path id="Vector_134" d="M471.43 242.64H450.63V249.57H471.43V242.64Z" fill="#CDD496"/>
<path id="Vector_135" d="M471.43 201.05H450.63V207.98H471.43V201.05Z" fill="#CDD496"/>
<path id="Vector_136" d="M478.36 235.71H457.56V242.64H478.36V235.71Z" fill="#CDD496"/>
<path id="Vector_137" d="M478.36 207.98H443.7V214.91H478.36V207.98Z" fill="#CDD496"/>
<path id="Vector_138" d="M485.29 228.78H464.49V235.71H485.29V228.78Z" fill="#CDD496"/>
<path id="Vector_139" d="M443.69 201.05H429.83V207.98H443.69V201.05Z" fill="#CDD496"/>
<path id="Vector_140" d="M422.9 145.59H409.03V194.12H422.9V145.59Z" fill="#CDD496"/>
<path id="Vector_141" d="M415.96 152.52H402.1V187.19H415.96V152.52Z" fill="#CDD496"/>
<path id="Vector_142" d="M429.83 138.65H415.97V152.51H429.83V138.65Z" fill="#CDD496"/>
<path id="Vector_143" d="M485.29 214.91H464.49V221.84H485.29V214.91Z" fill="#CDD496"/>
<path id="Vector_144" d="M457.56 214.91H436.76V221.84H457.56V214.91Z" fill="#CDD496"/>
<path id="Vector_145" d="M450.63 221.85H429.83V228.78H450.63V221.85Z" fill="#CDD496"/>
<path id="Vector_146" d="M443.7 228.78H422.9V235.71H443.7V228.78Z" fill="#CDD496"/>
<path id="Vector_147" d="M436.76 235.71H415.96V242.64H436.76V235.71Z" fill="#CDD496"/>
<path id="Vector_148" d="M429.83 242.64H409.03V249.57H429.83V242.64Z" fill="#CDD496"/>
<path id="Vector_149" d="M492.22 221.85H471.42V228.78H492.22V221.85Z" fill="#CDD496"/>
<path id="Vector_150" d="M506.09 235.71H485.29V242.64H506.09V235.71Z" fill="#CDD496"/>
<path id="Vector_151" d="M499.16 228.78H492.22V249.58H499.16V228.78Z" fill="#CDD496"/>
<path id="Vector_152" d="M464.5 194.11H457.56V214.91H464.5V194.11Z" fill="#CDD496"/>
<path id="Vector_153" d="M443.7 173.32H436.76V194.12H443.7V173.32Z" fill="#CDD496"/>
<path id="Vector_154" d="M409.03 201.05V207.98H415.96V214.91H409.03V221.84H402.1V214.91H395.16V207.98H402.1V201.05H409.03Z" fill="#CDD496"/>
<path id="Vector_155" d="M367.43 194.11V201.05H374.37V207.98H367.43V214.91H360.5V207.98H353.57V201.05H360.5V194.11H367.43Z" fill="#CDD496"/>
<path id="Vector_156" d="M436.76 117.85V124.79H443.69V131.72H436.76V138.65H429.83V131.72H422.89V124.79H429.83V117.85H436.76Z" fill="#CDD496"/>
<path id="Vector_157" d="M436.76 90.13V97.06H443.69V103.99H436.76V110.92H429.83V103.99H422.89V97.06H429.83V90.13H436.76Z" fill="#CDD496"/>
<path id="Vector_158" d="M450.63 103.99V110.92H457.56V117.85H450.63V124.79H443.7V117.85H436.76V110.92H443.7V103.99H450.63Z" fill="#CDD496"/>
<path id="Vector_159" d="M429.83 207.98H422.89V221.84H429.83V207.98Z" fill="#CDD496"/>
<path id="Vector_160" d="M436.76 201.05H429.83V214.91H436.76V201.05Z" fill="#CDD496"/>
<path id="Vector_161" d="M450.63 180.25H436.76V187.18H450.63V180.25Z" fill="#CDD496"/>
<path id="Vector_162" d="M443.7 173.32H422.9V180.25H443.7V173.32Z" fill="#CDD496"/>
<path id="Vector_163" d="M443.7 145.59H422.9V152.52H443.7V145.59Z" fill="#CDD496"/>
<path id="Vector_164" d="M443.7 159.45H429.83V166.38H443.7V159.45Z" fill="#CDD496"/>
<path id="Vector_165" d="M450.63 152.52H436.76V159.45H450.63V152.52Z" fill="#CDD496"/>
<path id="Vector_166" d="M409.03 173.31H388.24V180.24H409.03V173.31Z" fill="#CDD496"/>
<path id="Vector_167" d="M409.03 159.45H388.24V166.38H409.03V159.45Z" fill="#CDD496"/>
<path id="Vector_168" d="M443.7 180.25H436.76V194.11H443.7V180.25Z" fill="#CDD496"/>
<path id="Vector_169" d="M429.83 159.45H415.96V187.18H429.83V159.45Z" fill="#CDD496"/>
<path id="Vector_170" d="M443.69 145.59H429.82V166.39H443.69V145.59Z" fill="#CDD496"/>
<path id="Vector_171" d="M492.22 235.71H485.29V249.57H492.22V235.71Z" fill="#CDD496"/>
<path id="Vector_172" d="M443.7 242.64H436.76V249.57H443.7V242.64Z" fill="#CDD496"/>
<path id="Vector_173" d="M311.97 242.64H298.1V249.57H311.97V242.64Z" fill="#CDD496"/>
<path id="Vector_174" d="M305.04 235.71H291.17V242.64H305.04V235.71Z" fill="#CDD496"/>
<path id="Vector_175" d="M298.1 228.78H291.17V242.65H298.1V228.78Z" fill="#CDD496"/>
<path id="Vector_176" d="M305.04 235.71H298.11V249.58H305.04V235.71Z" fill="#CDD496"/>
<g id="Group_5">
<path id="Vector_177" d="M395.16 131.72H388.23V145.59H395.16V131.72Z" fill="#CDD496"/>
<path id="Vector_178" d="M402.09 124.79H395.16V138.66H402.09V124.79Z" fill="#CDD496"/>
<path id="Vector_179" d="M409.02 117.85H402.09V131.72H409.02V117.85Z" fill="#CDD496"/>
<path id="Vector_180" d="M402.1 131.72H381.3V138.65H402.1V131.72Z" fill="#CDD496"/>
<path id="Vector_181" d="M409.02 124.79H395.16V131.72H409.02V124.79Z" fill="#CDD496"/>
<path id="Vector_182" d="M415.96 110.92H409.03V124.79H415.96V110.92Z" fill="#CDD496"/>
<path id="Vector_183" d="M415.96 117.86H402.09V124.79H415.96V117.86Z" fill="#CDD496"/>
<path id="Vector_184" d="M415.96 103.99H409.03V117.86H415.96V103.99Z" fill="#CDD496"/>
<path id="Vector_185" d="M415.96 103.99H402.09V110.92H415.96V103.99Z" fill="#CDD496"/>
<path id="Vector_186" d="M409.02 97.06H395.16V103.99H409.02V97.06Z" fill="#CDD496"/>
<path id="Vector_187" d="M422.89 110.93H409.03V117.86H422.89V110.93Z" fill="#CDD496"/>
<path id="Vector_188" d="M388.23 124.79H381.3V138.66H388.23V124.79Z" fill="#CDD496"/>
<path id="Vector_189" d="M388.24 124.79H374.37V131.72H388.24V124.79Z" fill="#CDD496"/>
</g>
<path id="Vector_190" d="M298.1 235.71H284.24V242.64H298.1V235.71Z" fill="#CDD496"/>
<path id="Vector_191" d="M291.18 242.64H277.31V249.57H291.18V242.64Z" fill="#CDD496"/>
<path id="Vector_192" d="M291.17 235.71H284.24V249.58H291.17V235.71Z" fill="#CDD496"/>
<path id="Vector_193" d="M367.44 242.64H360.5V249.57H367.44V242.64Z" fill="#CDD496"/>
<path id="Vector_194" d="M256.51 0H249.58V6.93H256.51V0Z" fill="#CDD496"/>
<path id="Vector_195" d="M388.23 180.25H381.3V187.18H388.23V180.25Z" fill="#CDD496"/>
<path id="Vector_196" d="M388.23 166.38H381.3V173.31H388.23V166.38Z" fill="#CDD496"/>
<path id="Vector_197" d="M450.63 235.71H443.7V242.64H450.63V235.71Z" fill="#CDD496"/>
<path id="Vector_198" d="M457.56 228.78H450.63V235.71H457.56V228.78Z" fill="#CDD496"/>
<path id="Vector_199" d="M464.5 221.85H457.56V228.78H464.5V221.85Z" fill="#CDD496"/>
<path id="Vector_200" d="M388.23 201.05V214.91H395.16V221.85H388.23V228.78H381.3V235.71H374.37V242.64H367.43V214.91H374.37V207.98H381.3V201.05H388.23Z" fill="#CDD496"/>
<path id="Vector_201" d="M402.1 221.85V228.78H415.96V235.71H409.03V242.64H402.1V249.57H374.37V242.64H381.3V235.71H388.23V228.78H395.16V221.85H402.1Z" fill="#CDD496"/>
<path id="Vector_202" d="M311.97 228.78H325.84V221.85H332.77V228.78H339.71V235.71H346.64V242.64H353.57V249.57H325.83V242.64H318.91V235.71H311.97V228.78Z" fill="#CDD496"/>
<path id="Vector_203" d="M332.77 214.91H339.71V201.05H346.64V207.98H353.57V214.91H360.5V242.64H353.57V235.71H346.64V228.78H339.71V221.85H332.77V214.91Z" fill="#CDD496"/>
<path id="Vector_204" d="M325.84 214.91H298.11V221.84H325.84V214.91Z" fill="#CDD496"/>
<path id="Vector_205" d="M325.84 207.98H305.04V221.85H325.84V207.98Z" fill="#CDD496"/>
<path id="Vector_206" d="M325.84 201.05H318.91V214.37H325.84V201.05Z" fill="#CDD496"/>
<path id="Vector_207" d="M353.57 187.18H325.84V194.11H353.57V187.18Z" fill="#CDD496"/>
<path id="Vector_208" d="M374.37 173.31H346.64V180.24H374.37V173.31Z" fill="#CDD496"/>
<path id="Vector_209" d="M353.57 180.25H332.77V194.12H353.57V180.25Z" fill="#CDD496"/>
<path id="Vector_210" d="M374.36 214.91H367.43V228.23H374.36V214.91Z" fill="#CDD496"/>
<path id="Vector_211" d="M367.58 173.31H353.57V187.18H367.58V173.31Z" fill="#CDD496"/>
<g id="Group_6">
<path id="Vector_212" d="M381.3 159.45H353.57V166.38H381.3V159.45Z" fill="#CDD496"/>
<path id="Vector_213" d="M381.3 152.52H360.5V166.39H381.3V152.52Z" fill="#CDD496"/>
<path id="Vector_214" d="M381.3 145.58H374.37V158.9H381.3V145.58Z" fill="#CDD496"/>
</g>
<path id="Vector_215" d="M478.36 152.52H485.29V159.45H478.36V166.38H471.42V173.31H478.36V180.25H485.29V187.18H478.36V194.11H471.42V187.18H464.49V180.25H457.56V173.31H450.63V166.38H457.56V159.45H464.49V152.52H471.42V145.59H478.36V152.52Z" fill="#CDD496"/>
<g id="Group_7">
<path id="Vector_216" d="M499.16 256.51H478.36V263.44H499.16V256.51Z" fill="#CDD496"/>
<path id="Vector_217" d="M492.22 249.57H471.42V256.5H492.22V249.57Z" fill="#CDD496"/>
<path id="Vector_218" d="M464.5 249.57H443.7V256.5H464.5V249.57Z" fill="#CDD496"/>
<path id="Vector_219" d="M422.9 249.57H402.1V256.5H422.9V249.57Z" fill="#CDD496"/>
<path id="Vector_220" d="M374.37 249.57H353.57V256.5H374.37V249.57Z" fill="#CDD496"/>
<path id="Vector_221" d="M471.43 256.51H450.63V263.44H471.43V256.51Z" fill="#CDD496"/>
<path id="Vector_222" d="M471.43 298.1H450.63V305.03H471.43V298.1Z" fill="#CDD496"/>
<path id="Vector_223" d="M478.36 263.44H457.56V270.37H478.36V263.44Z" fill="#CDD496"/>
<path id="Vector_224" d="M478.36 291.17H443.7V298.1H478.36V291.17Z" fill="#CDD496"/>
<path id="Vector_225" d="M485.29 270.37H464.49V277.3H485.29V270.37Z" fill="#CDD496"/>
<path id="Vector_226" d="M443.69 298.1H429.83V305.03H443.69V298.1Z" fill="#CDD496"/>
<path id="Vector_227" d="M422.89 311.97H409.03V360.5H422.89V311.97Z" fill="#CDD496"/>
<path id="Vector_228" d="M415.96 318.9H402.1V353.57H415.96V318.9Z" fill="#CDD496"/>
<path id="Vector_229" d="M429.83 353.56H415.97V367.43H429.83V353.56Z" fill="#CDD496"/>
<path id="Vector_230" d="M485.29 284.24H464.49V291.17H485.29V284.24Z" fill="#CDD496"/>
<path id="Vector_231" d="M457.56 284.24H436.76V291.17H457.56V284.24Z" fill="#CDD496"/>
<path id="Vector_232" d="M450.63 277.3H429.83V284.23H450.63V277.3Z" fill="#CDD496"/>
<path id="Vector_233" d="M443.7 270.37H422.9V277.3H443.7V270.37Z" fill="#CDD496"/>
<path id="Vector_234" d="M436.76 263.44H415.96V270.37H436.76V263.44Z" fill="#CDD496"/>
<path id="Vector_235" d="M429.83 256.51H409.03V263.44H429.83V256.51Z" fill="#CDD496"/>
<path id="Vector_236" d="M492.22 277.3H471.42V284.23H492.22V277.3Z" fill="#CDD496"/>
<path id="Vector_237" d="M506.09 263.44H485.29V270.37H506.09V263.44Z" fill="#CDD496"/>
<path id="Vector_238" d="M499.16 256.51H492.22V277.31H499.16V256.51Z" fill="#CDD496"/>
<path id="Vector_239" d="M464.49 291.17H457.56V311.97H464.49V291.17Z" fill="#CDD496"/>
<path id="Vector_240" d="M443.7 311.97H436.76V332.77H443.7V311.97Z" fill="#CDD496"/>
<path id="Vector_241" d="M409.03 305.04V298.1H415.97V291.17H409.03V284.24H402.1V291.17H395.17V298.1H402.1V305.04H409.03Z" fill="#CDD496"/>
<path id="Vector_242" d="M367.43 311.97V305.03H374.37V298.1H367.43V291.17H360.5V298.1H353.57V305.03H360.5V311.97H367.43Z" fill="#CDD496"/>
<path id="Vector_243" d="M436.76 388.23V381.3H443.7V374.36H436.76V367.43H429.83V374.36H422.9V381.3H429.83V388.23H436.76Z" fill="#CDD496"/>
<path id="Vector_244" d="M436.76 415.96V409.02H443.7V402.09H436.76V395.16H429.83V402.09H422.9V409.02H429.83V415.96H436.76Z" fill="#CDD496"/>
<path id="Vector_245" d="M450.63 402.1V395.16H457.56V388.23H450.63V381.3H443.7V388.23H436.76V395.16H443.7V402.1H450.63Z" fill="#CDD496"/>
<path id="Vector_246" d="M422.9 429.82V422.89H429.83V415.96H422.9V409.03H415.97V415.96H409.03V422.89H415.97V429.82H422.9Z" fill="#CDD496"/>
<path id="Vector_247" d="M429.82 284.24H422.89V298.1H429.82V284.24Z" fill="#CDD496"/>
<path id="Vector_248" d="M436.76 291.17H429.82V305.03H436.76V291.17Z" fill="#CDD496"/>
<path id="Vector_249" d="M450.62 318.9H436.76V325.83H450.62V318.9Z" fill="#CDD496"/>
<path id="Vector_250" d="M443.7 325.83H422.9V332.76H443.7V325.83Z" fill="#CDD496"/>
<path id="Vector_251" d="M443.7 353.56H422.9V360.49H443.7V353.56Z" fill="#CDD496"/>
<path id="Vector_252" d="M443.7 339.7H429.83V346.63H443.7V339.7Z" fill="#CDD496"/>
<path id="Vector_253" d="M450.62 346.63H436.76V353.56H450.62V346.63Z" fill="#CDD496"/>
<path id="Vector_254" d="M409.04 325.84H388.24V332.77H409.04V325.84Z" fill="#CDD496"/>
<path id="Vector_255" d="M409.04 339.7H388.24V346.63H409.04V339.7Z" fill="#CDD496"/>
<path id="Vector_256" d="M443.69 311.97H436.76V325.83H443.69V311.97Z" fill="#CDD496"/>
<path id="Vector_257" d="M429.83 318.9H415.96V346.63H429.83V318.9Z" fill="#CDD496"/>
<path id="Vector_258" d="M443.69 339.7H429.82V360.5H443.69V339.7Z" fill="#CDD496"/>
<path id="Vector_259" d="M492.22 256.51H485.29V270.37H492.22V256.51Z" fill="#CDD496"/>
<path id="Vector_260" d="M443.69 256.51H436.76V263.44H443.69V256.51Z" fill="#CDD496"/>
<path id="Vector_261" d="M436.77 249.58H429.83V256.51H436.77V249.58Z" fill="#CDD496"/>
<path id="Vector_262" d="M318.91 249.58H305.04V256.51H318.91V249.58Z" fill="#CDD496"/>
<path id="Vector_263" d="M311.97 256.51H298.1V263.44H311.97V256.51Z" fill="#CDD496"/>
<path id="Vector_264" d="M305.04 263.44H291.18V270.37H305.04V263.44Z" fill="#CDD496"/>
<path id="Vector_265" d="M298.11 263.44H291.18V277.31H298.11V263.44Z" fill="#CDD496"/>
<path id="Vector_266" d="M305.04 256.51H298.11V270.38H305.04V256.51Z" fill="#CDD496"/>
<path id="Vector_267" d="M311.97 249.58H305.04V263.45H311.97V249.58Z" fill="#CDD496"/>
<g id="Group_8">
<path id="Vector_268" d="M395.16 381.3H388.23V402.1H395.16V381.3Z" fill="#CDD496"/>
<path id="Vector_269" d="M395.16 360.5H388.23V374.37H395.16V360.5Z" fill="#CDD496"/>
<path id="Vector_270" d="M402.09 367.43H395.16V381.3H402.09V367.43Z" fill="#CDD496"/>
<path id="Vector_271" d="M409.03 374.36H402.1V388.23H409.03V374.36Z" fill="#CDD496"/>
<path id="Vector_272" d="M402.1 388.23H381.3V395.16H402.1V388.23Z" fill="#CDD496"/>
<path id="Vector_273" d="M402.1 367.43H381.3V374.36H402.1V367.43Z" fill="#CDD496"/>
<path id="Vector_274" d="M409.03 374.36H395.16V381.29H409.03V374.36Z" fill="#CDD496"/>
<path id="Vector_275" d="M415.96 381.29H409.03V395.16H415.96V381.29Z" fill="#CDD496"/>
<path id="Vector_276" d="M415.96 381.3H402.09V388.23H415.96V381.3Z" fill="#CDD496"/>
<path id="Vector_277" d="M415.96 388.23H409.03V402.1H415.96V388.23Z" fill="#CDD496"/>
<path id="Vector_278" d="M415.96 395.16H402.09V402.09H415.96V395.16Z" fill="#CDD496"/>
<path id="Vector_279" d="M409.03 402.09H395.16V409.02H409.03V402.09Z" fill="#CDD496"/>
<path id="Vector_280" d="M422.9 388.23H409.03V395.16H422.9V388.23Z" fill="#CDD496"/>
<path id="Vector_281" d="M388.23 367.43H381.3V381.3H388.23V367.43Z" fill="#CDD496"/>
<path id="Vector_282" d="M388.24 374.36H374.37V381.29H388.24V374.36Z" fill="#CDD496"/>
</g>
<path id="Vector_283" d="M298.11 263.44H284.24V270.37H298.11V263.44Z" fill="#CDD496"/>
<path id="Vector_284" d="M291.18 256.51H277.31V263.44H291.18V256.51Z" fill="#CDD496"/>
<path id="Vector_285" d="M284.25 249.58H270.38V256.51H284.25V249.58Z" fill="#CDD496"/>
<path id="Vector_286" d="M284.24 249.58H277.31V263.45H284.24V249.58Z" fill="#CDD496"/>
<path id="Vector_287" d="M291.17 256.51H284.24V270.38H291.17V256.51Z" fill="#CDD496"/>
<path id="Vector_288" d="M367.43 249.57H360.5V263.43H367.43V249.57Z" fill="#CDD496"/>
<path id="Vector_289" d="M388.24 318.9H381.3V325.83H388.24V318.9Z" fill="#CDD496"/>
<path id="Vector_290" d="M388.24 332.77H381.3V339.7H388.24V332.77Z" fill="#CDD496"/>
<path id="Vector_291" d="M450.63 263.44H443.7V270.37H450.63V263.44Z" fill="#CDD496"/>
<path id="Vector_292" d="M298.11 249.58H291.17V256.51H298.11V249.58Z" fill="#CDD496"/>
<path id="Vector_293" d="M263.44 256.51H256.51V263.44H263.44V256.51Z" fill="#CDD496"/>
<path id="Vector_294" d="M270.37 263.44H263.44V270.37H270.37V263.44Z" fill="#CDD496"/>
<path id="Vector_295" d="M277.32 270.37H270.38V277.3H277.32V270.37Z" fill="#CDD496"/>
<path id="Vector_296" d="M284.25 277.31H277.31V284.24H284.25V277.31Z" fill="#CDD496"/>
<path id="Vector_297" d="M291.17 284.24H284.24V291.17H291.17V284.24Z" fill="#CDD496"/>
<path id="Vector_298" d="M298.1 291.18H291.17V298.11H298.1V291.18Z" fill="#CDD496"/>
<path id="Vector_299" d="M305.04 298.11H298.1V305.04H305.04V298.11Z" fill="#CDD496"/>
<path id="Vector_300" d="M311.98 305.04H305.04V311.97H311.98V305.04Z" fill="#CDD496"/>
<path id="Vector_301" d="M318.9 311.98H311.97V318.91H318.9V311.98Z" fill="#CDD496"/>
<path id="Vector_302" d="M325.83 318.91H318.9V325.84H325.83V318.91Z" fill="#CDD496"/>
<path id="Vector_303" d="M332.77 325.84H325.83V332.77H332.77V325.84Z" fill="#CDD496"/>
<path id="Vector_304" d="M339.71 332.78H332.77V339.71H339.71V332.78Z" fill="#CDD496"/>
<path id="Vector_305" d="M346.63 339.71H339.7V346.64H346.63V339.71Z" fill="#CDD496"/>
<path id="Vector_306" d="M353.56 346.64H346.63V353.57H353.56V346.64Z" fill="#CDD496"/>
<path id="Vector_307" d="M360.5 353.58H353.56V360.51H360.5V353.58Z" fill="#CDD496"/>
<path id="Vector_308" d="M367.43 360.51H360.49V367.44H367.43V360.51Z" fill="#CDD496"/>
<path id="Vector_309" d="M374.36 367.44H367.43V374.37H374.36V367.44Z" fill="#CDD496"/>
<path id="Vector_310" d="M457.57 270.37H450.63V277.3H457.57V270.37Z" fill="#CDD496"/>
<path id="Vector_311" d="M464.5 277.3H457.56V284.23H464.5V277.3Z" fill="#CDD496"/>
<path id="Vector_312" d="M388.23 305.03V291.17H395.16V284.24H388.23V277.3H381.3V270.37H374.37V263.44H367.43V291.17H374.37V298.1H381.3V305.03H388.23Z" fill="#CDD496"/>
<path id="Vector_313" d="M402.1 284.24V277.3H415.97V270.37H409.03V263.44H402.1V256.51H374.37V263.44H381.3V270.37H388.23V277.3H395.17V284.24H402.1Z" fill="#CDD496"/>
<path id="Vector_314" d="M311.98 277.3H325.84V284.24H332.77V277.3H339.71V270.37H346.64V263.44H353.57V256.51H325.84V263.44H318.91V270.37H311.98V277.3Z" fill="#CDD496"/>
<path id="Vector_315" d="M332.77 291.17H339.71V305.03H346.64V298.1H353.57V291.17H360.5V263.44H353.57V270.37H346.64V277.31H339.71V284.24H332.77V291.17Z" fill="#CDD496"/>
<path id="Vector_316" d="M325.84 284.24H298.11V291.17H325.84V284.24Z" fill="#CDD496"/>
<path id="Vector_317" d="M325.84 284.24H305.04V298.11H325.84V284.24Z" fill="#CDD496"/>
<path id="Vector_318" d="M325.84 291.71H318.91V305.03H325.84V291.71Z" fill="#CDD496"/>
<path id="Vector_319" d="M353.57 311.97H325.84V318.9H353.57V311.97Z" fill="#CDD496"/>
<path id="Vector_320" d="M374.37 325.84H346.64V332.77H374.37V325.84Z" fill="#CDD496"/>
<path id="Vector_321" d="M353.57 311.97H332.77V325.84H353.57V311.97Z" fill="#CDD496"/>
<path id="Vector_322" d="M353.57 319.44H346.64V332.76H353.57V319.44Z" fill="#CDD496"/>
<path id="Vector_323" d="M367.58 318.9H353.57V332.77H367.58V318.9Z" fill="#CDD496"/>
<g id="Group_9">
<path id="Vector_324" d="M381.3 339.7H353.57V346.63H381.3V339.7Z" fill="#CDD496"/>
<path id="Vector_325" d="M381.3 339.7H360.5V353.57H381.3V339.7Z" fill="#CDD496"/>
<path id="Vector_326" d="M381.3 347.18H374.37V360.5H381.3V347.18Z" fill="#CDD496"/>
</g>
<path id="Vector_327" d="M478.36 353.57H485.29V346.63H478.36V339.7H471.42V332.77H478.36V325.84H485.29V318.9H478.36V311.97H471.42V318.9H464.49V325.83H457.56V332.77H450.63V339.7H457.56V346.63H464.49V353.57H471.42V360.5H478.36V353.57Z" fill="#CDD496"/>
<path id="Vector_328" d="M263.44 478.35H256.51V499.15H263.44V478.35Z" fill="#CDD496"/>
<path id="Vector_329" d="M263.44 450.62H256.51V471.42H263.44V450.62Z" fill="#CDD496"/>
<path id="Vector_330" d="M305.04 450.62H298.11V471.42H305.04V450.62Z" fill="#CDD496"/>
<path id="Vector_331" d="M270.37 457.56H263.44V478.36H270.37V457.56Z" fill="#CDD496"/>
<path id="Vector_332" d="M298.11 443.69H291.17V478.35H298.11V443.69Z" fill="#CDD496"/>
<path id="Vector_333" d="M277.31 464.49H270.38V485.29H277.31V464.49Z" fill="#CDD496"/>
<path id="Vector_334" d="M305.03 429.82H298.1V443.68H305.03V429.82Z" fill="#CDD496"/>
<path id="Vector_335" d="M360.5 409.03H311.97V422.89H360.5V409.03Z" fill="#CDD496"/>
<path id="Vector_336" d="M353.57 402.1H318.9V415.96H353.57V402.1Z" fill="#CDD496"/>
<path id="Vector_337" d="M367.44 415.96H353.57V429.82H367.44V415.96Z" fill="#CDD496"/>
<path id="Vector_338" d="M291.17 464.49H284.24V485.29H291.17V464.49Z" fill="#CDD496"/>
<path id="Vector_339" d="M291.17 436.76H284.24V457.56H291.17V436.76Z" fill="#CDD496"/>
<path id="Vector_340" d="M284.25 429.83H277.31V450.63H284.25V429.83Z" fill="#CDD496"/>
<path id="Vector_341" d="M277.32 422.89H270.38V443.69H277.32V422.89Z" fill="#CDD496"/>
<path id="Vector_342" d="M270.38 415.96H263.44V436.76H270.38V415.96Z" fill="#CDD496"/>
<path id="Vector_343" d="M263.45 409.03H256.51V429.83H263.45V409.03Z" fill="#CDD496"/>
<path id="Vector_344" d="M284.24 471.42H277.31V492.22H284.24V471.42Z" fill="#CDD496"/>
<path id="Vector_345" d="M270.37 485.29H263.44V506.09H270.37V485.29Z" fill="#CDD496"/>
<path id="Vector_346" d="M277.31 492.22H256.51V499.15H277.31V492.22Z" fill="#CDD496"/>
<path id="Vector_347" d="M311.97 457.56H291.17V464.49H311.97V457.56Z" fill="#CDD496"/>
<path id="Vector_348" d="M332.77 436.76H311.97V443.69H332.77V436.76Z" fill="#CDD496"/>
<path id="Vector_349" d="M305.04 409.03H298.11V415.96H291.17V409.03H284.24V402.1H291.17V395.16H298.11V402.1H305.04V409.03Z" fill="#CDD496"/>
<path id="Vector_350" d="M311.97 367.43H305.04V374.36H298.1V367.43H291.17V360.5H298.1V353.57H305.04V360.5H311.97V367.43Z" fill="#CDD496"/>
<path id="Vector_351" d="M388.23 436.76H381.3V443.69H374.37V436.76H367.43V429.82H374.37V422.89H381.3V429.82H388.23V436.76Z" fill="#CDD496"/>
<path id="Vector_352" d="M415.96 436.76H409.03V443.69H402.09V436.76H395.16V429.82H402.09V422.89H409.03V429.82H415.96V436.76Z" fill="#CDD496"/>
<path id="Vector_353" d="M402.1 450.62H395.17V457.56H388.23V450.62H381.3V443.69H388.23V436.76H395.17V443.69H402.1V450.62Z" fill="#CDD496"/>
<path id="Vector_354" d="M298.11 422.89H284.24V429.82H298.11V422.89Z" fill="#CDD496"/>
<path id="Vector_355" d="M305.03 429.82H291.17V436.75H305.03V429.82Z" fill="#CDD496"/>
<path id="Vector_356" d="M325.84 436.76H318.91V450.62H325.84V436.76Z" fill="#CDD496"/>
<path id="Vector_357" d="M332.77 422.89H325.84V443.69H332.77V422.89Z" fill="#CDD496"/>
<path id="Vector_358" d="M360.51 422.89H353.57V443.69H360.51V422.89Z" fill="#CDD496"/>
<path id="Vector_359" d="M346.64 429.83H339.71V443.69H346.64V429.83Z" fill="#CDD496"/>
<path id="Vector_360" d="M353.57 436.76H346.64V450.62H353.57V436.76Z" fill="#CDD496"/>
<path id="Vector_361" d="M332.78 388.23H325.84V409.03H332.78V388.23Z" fill="#CDD496"/>
<path id="Vector_362" d="M346.64 388.23H339.71V409.03H346.64V388.23Z" fill="#CDD496"/>
<path id="Vector_363" d="M325.84 436.76H311.98V443.69H325.84V436.76Z" fill="#CDD496"/>
<path id="Vector_364" d="M346.63 415.96H318.91V429.83H346.63V415.96Z" fill="#CDD496"/>
<path id="Vector_365" d="M360.51 429.82H339.71V443.69H360.51V429.82Z" fill="#CDD496"/>
<path id="Vector_366" d="M270.37 485.29H256.51V492.22H270.37V485.29Z" fill="#CDD496"/>
<path id="Vector_367" d="M263.44 436.76H256.51V443.69H263.44V436.76Z" fill="#CDD496"/>
<path id="Vector_368" d="M263.44 298.1H256.51V311.97H263.44V298.1Z" fill="#CDD496"/>
<path id="Vector_369" d="M270.37 291.17H263.44V305.04H270.37V291.17Z" fill="#CDD496"/>
<path id="Vector_370" d="M277.31 291.17H263.44V298.1H277.31V291.17Z" fill="#CDD496"/>
<path id="Vector_371" d="M270.38 298.1H256.51V305.03H270.38V298.1Z" fill="#CDD496"/>
<g id="Group_10">
<path id="Vector_372" d="M374.37 388.23H360.5V395.16H374.37V388.23Z" fill="#CDD496"/>
<path id="Vector_373" d="M381.3 395.16H367.43V402.09H381.3V395.16Z" fill="#CDD496"/>
<path id="Vector_374" d="M388.24 402.09H374.37V409.02H388.24V402.09Z" fill="#CDD496"/>
<path id="Vector_375" d="M374.36 381.3H367.43V402.1H374.36V381.3Z" fill="#CDD496"/>
<path id="Vector_376" d="M381.3 395.16H374.37V409.02H381.3V395.16Z" fill="#CDD496"/>
<path id="Vector_377" d="M395.17 409.03H381.3V415.96H395.17V409.03Z" fill="#CDD496"/>
<path id="Vector_378" d="M388.23 402.09H381.3V415.95H388.23V402.09Z" fill="#CDD496"/>
<path id="Vector_379" d="M402.1 409.03H388.23V415.96H402.1V409.03Z" fill="#CDD496"/>
<path id="Vector_380" d="M402.1 402.09H395.17V415.95H402.1V402.09Z" fill="#CDD496"/>
<path id="Vector_381" d="M395.16 409.03H388.23V422.89H395.16V409.03Z" fill="#CDD496"/>
<path id="Vector_382" d="M381.3 381.3H367.43V388.23H381.3V381.3Z" fill="#CDD496"/>
<path id="Vector_383" d="M381.3 374.36H374.37V388.22H381.3V374.36Z" fill="#CDD496"/>
</g>
<path id="Vector_384" d="M270.38 284.24H263.45V298.1H270.38V284.24Z" fill="#CDD496"/>
<path id="Vector_385" d="M263.44 277.3H256.51V291.17H263.44V277.3Z" fill="#CDD496"/>
<path id="Vector_386" d="M270.38 284.24H256.51V291.17H270.38V284.24Z" fill="#CDD496"/>
<path id="Vector_387" d="M263.44 360.5H256.51V367.43H263.44V360.5Z" fill="#CDD496"/>
<path id="Vector_388" d="M506.09 249.57H499.16V256.5H506.09V249.57Z" fill="#CDD496"/>
<path id="Vector_389" d="M325.84 381.3H318.91V388.23H325.84V381.3Z" fill="#CDD496"/>
<path id="Vector_390" d="M339.7 381.3H332.77V388.23H339.7V381.3Z" fill="#CDD496"/>
<path id="Vector_391" d="M270.37 443.69H263.44V450.62H270.37V443.69Z" fill="#CDD496"/>
<path id="Vector_392" d="M277.31 450.62H270.38V457.55H277.31V450.62Z" fill="#CDD496"/>
<path id="Vector_393" d="M284.24 457.56H277.31V464.49H284.24V457.56Z" fill="#CDD496"/>
<path id="Vector_394" d="M305.04 388.23H291.17V395.16H284.24V388.23H277.31V381.3H270.38V374.36H263.44V367.43H291.18V374.36H298.1V381.29H305.04V388.23Z" fill="#CDD496"/>
<path id="Vector_395" d="M284.24 402.1H277.31V415.96H270.38V409.03H263.44V402.1H256.51V374.37H263.44V381.3H270.38V388.23H277.31V395.16H284.24V402.1Z" fill="#CDD496"/>
<path id="Vector_396" d="M277.31 311.97V325.84H284.24V332.77H277.31V339.7H270.38V346.63V346.64H263.44V353.57H256.51V325.83H263.44V318.9H270.38V311.97H277.31Z" fill="#CDD496"/>
<path id="Vector_397" d="M291.18 332.77V339.7H305.04V346.64H298.11V353.57H291.18V360.5H263.44V353.56H270.38V346.63H277.31V339.7H284.24V332.77H291.18Z" fill="#CDD496"/>
<path id="Vector_398" d="M291.17 298.11H284.24V325.84H291.17V298.11Z" fill="#CDD496"/>
<path id="Vector_399" d="M298.11 305.04H284.24V325.84H298.11V305.04Z" fill="#CDD496"/>
<path id="Vector_400" d="M305.04 318.9H291.72V325.83H305.04V318.9Z" fill="#CDD496"/>
<path id="Vector_401" d="M318.91 325.84H311.97V353.57H318.91V325.84Z" fill="#CDD496"/>
<path id="Vector_402" d="M332.78 346.64H325.84V374.37H332.78V346.64Z" fill="#CDD496"/>
<path id="Vector_403" d="M325.84 332.77H311.97V353.57H325.84V332.77Z" fill="#CDD496"/>
<path id="Vector_404" d="M291.18 367.43H277.85V374.36H291.18V367.43Z" fill="#CDD496"/>
<path id="Vector_405" d="M332.78 353.57H318.91V367.58H332.78V353.57Z" fill="#CDD496"/>
<g id="Group_11">
<path id="Vector_406" d="M346.64 353.56H339.71V381.29H346.64V353.56Z" fill="#CDD496"/>
<path id="Vector_407" d="M353.58 360.5H339.71V381.3H353.58V360.5Z" fill="#CDD496"/>
<path id="Vector_408" d="M360.5 374.36H347.18V381.29H360.5V374.36Z" fill="#CDD496"/>
</g>
<path id="Vector_409" d="M353.57 478.35V485.28H346.64V478.35H339.71V471.42H332.77V478.35H325.84V485.28H318.9V478.35H311.97V471.42H318.9V464.49H325.84V457.55H332.77V450.62H339.7V457.55H346.64V464.49H353.57V471.42H360.5V478.35H353.57Z" fill="#CDD496"/>
</g>
<g id="Group_12">
<path id="Vector_410" d="M249.58 478.36H242.64V499.16H249.58V478.36Z" fill="#CDD496"/>
<path id="Vector_411" d="M256.51 471.42H249.58V492.22H256.51V471.42Z" fill="#CDD496"/>
<path id="Vector_412" d="M256.51 443.69H249.58V464.49H256.51V443.69Z" fill="#CDD496"/>
<path id="Vector_413" d="M256.51 402.1H249.58V422.9H256.51V402.1Z" fill="#CDD496"/>
<path id="Vector_414" d="M256.51 353.57H249.58V374.37H256.51V353.57Z" fill="#CDD496"/>
<path id="Vector_415" d="M249.58 450.62H242.64V471.42H249.58V450.62Z" fill="#CDD496"/>
<path id="Vector_416" d="M207.98 450.62H201.05V471.42H207.98V450.62Z" fill="#CDD496"/>
<path id="Vector_417" d="M242.64 457.56H235.71V478.36H242.64V457.56Z" fill="#CDD496"/>
<path id="Vector_418" d="M214.91 443.69H207.98V478.35H214.91V443.69Z" fill="#CDD496"/>
<path id="Vector_419" d="M235.71 464.49H228.78V485.29H235.71V464.49Z" fill="#CDD496"/>
<path id="Vector_420" d="M207.98 429.82H201.05V443.69H207.98V429.82Z" fill="#CDD496"/>
<path id="Vector_421" d="M194.12 409.03H145.59V422.89H194.12V409.03Z" fill="#CDD496"/>
<path id="Vector_422" d="M187.19 402.1H152.52V415.96H187.19V402.1Z" fill="#CDD496"/>
<path id="Vector_423" d="M152.51 415.96H138.65V429.82H152.51V415.96Z" fill="#CDD496"/>
<path id="Vector_424" d="M221.84 464.49H214.91V485.29H221.84V464.49Z" fill="#CDD496"/>
<path id="Vector_425" d="M221.84 436.76H214.91V457.56H221.84V436.76Z" fill="#CDD496"/>
<path id="Vector_426" d="M228.78 429.83H221.85V450.63H228.78V429.83Z" fill="#CDD496"/>
<path id="Vector_427" d="M235.71 422.89H228.78V443.69H235.71V422.89Z" fill="#CDD496"/>
<path id="Vector_428" d="M242.64 415.96H235.71V436.76H242.64V415.96Z" fill="#CDD496"/>
<path id="Vector_429" d="M249.57 409.03H242.64V429.83H249.57V409.03Z" fill="#CDD496"/>
<path id="Vector_430" d="M228.78 471.42H221.85V492.22H228.78V471.42Z" fill="#CDD496"/>
<path id="Vector_431" d="M242.64 485.29H235.71V506.09H242.64V485.29Z" fill="#CDD496"/>
<path id="Vector_432" d="M249.58 492.22H228.78V499.15H249.58V492.22Z" fill="#CDD496"/>
<path id="Vector_433" d="M214.92 457.56H194.12V464.49H214.92V457.56Z" fill="#CDD496"/>
<path id="Vector_434" d="M194.12 436.76H173.32V443.69H194.12V436.76Z" fill="#CDD496"/>
<path id="Vector_435" d="M201.05 409.03H207.98V415.96H214.91V409.03H221.85V402.1H214.91V395.16H207.98V402.1H201.05V409.03Z" fill="#CDD496"/>
<path id="Vector_436" d="M194.12 367.43H201.05V374.36H207.98V367.43H214.91V360.5H207.98V353.57H201.05V360.5H194.12V367.43Z" fill="#CDD496"/>
<path id="Vector_437" d="M117.86 436.76H124.79V443.69H131.72V436.76H138.65V429.82H131.72V422.89H124.79V429.82H117.86V436.76Z" fill="#CDD496"/>
<path id="Vector_438" d="M90.1299 436.76H97.0599V443.69H103.99V436.76H110.93V429.82H103.99V422.89H97.0599V429.82H90.1299V436.76Z" fill="#CDD496"/>
<path id="Vector_439" d="M103.99 450.63H110.92V457.56H117.86V450.63H124.79V443.69H117.86V436.76H110.92V443.69H103.99V450.63Z" fill="#CDD496"/>
<path id="Vector_440" d="M76.26 422.9H83.19V429.83H90.13V422.9H97.06V415.96H90.13V409.03H83.19V415.96H76.26V422.9Z" fill="#CDD496"/>
<path id="Vector_441" d="M221.84 422.89H207.98V429.82H221.84V422.89Z" fill="#CDD496"/>
<path id="Vector_442" d="M214.91 429.82H201.05V436.75H214.91V429.82Z" fill="#CDD496"/>
<path id="Vector_443" d="M187.18 436.76H180.25V450.62H187.18V436.76Z" fill="#CDD496"/>
<path id="Vector_444" d="M180.25 422.89H173.32V443.69H180.25V422.89Z" fill="#CDD496"/>
<path id="Vector_445" d="M152.52 422.89H145.59V443.69H152.52V422.89Z" fill="#CDD496"/>
<path id="Vector_446" d="M166.38 429.83H159.45V443.69H166.38V429.83Z" fill="#CDD496"/>
<path id="Vector_447" d="M159.45 436.76H152.52V450.62H159.45V436.76Z" fill="#CDD496"/>
<path id="Vector_448" d="M180.25 388.23H173.32V409.03H180.25V388.23Z" fill="#CDD496"/>
<path id="Vector_449" d="M166.38 388.23H159.45V409.03H166.38V388.23Z" fill="#CDD496"/>
<path id="Vector_450" d="M194.11 436.76H180.25V443.69H194.11V436.76Z" fill="#CDD496"/>
<path id="Vector_451" d="M187.18 415.96H159.45V429.83H187.18V415.96Z" fill="#CDD496"/>
<path id="Vector_452" d="M166.39 429.82H145.59V443.69H166.39V429.82Z" fill="#CDD496"/>
<path id="Vector_453" d="M249.58 485.29H235.71V492.22H249.58V485.29Z" fill="#CDD496"/>
<path id="Vector_454" d="M249.58 436.76H242.65V443.69H249.58V436.76Z" fill="#CDD496"/>
<path id="Vector_455" d="M256.51 429.82H249.58V436.76H256.51V429.82Z" fill="#CDD496"/>
<path id="Vector_456" d="M256.51 305.04H249.58V318.91H256.51V305.04Z" fill="#CDD496"/>
<path id="Vector_457" d="M249.57 298.1H242.64V311.97H249.57V298.1Z" fill="#CDD496"/>
<path id="Vector_458" d="M242.64 291.18H235.71V305.04H242.64V291.18Z" fill="#CDD496"/>
<path id="Vector_459" d="M242.65 291.17H228.78V298.1H242.65V291.17Z" fill="#CDD496"/>
<path id="Vector_460" d="M249.58 298.11H235.71V305.04H249.58V298.11Z" fill="#CDD496"/>
<path id="Vector_461" d="M256.51 305.04H242.64V311.97H256.51V305.04Z" fill="#CDD496"/>
<g id="Group_13">
<path id="Vector_462" d="M124.79 388.23H103.99V395.16H124.79V388.23Z" fill="#CDD496"/>
<path id="Vector_463" d="M145.59 388.23H131.72V395.16H145.59V388.23Z" fill="#CDD496"/>
<path id="Vector_464" d="M138.66 395.16H124.79V402.09H138.66V395.16Z" fill="#CDD496"/>
<path id="Vector_465" d="M131.73 402.09H117.86V409.02H131.73V402.09Z" fill="#CDD496"/>
<path id="Vector_466" d="M117.85 381.3H110.92V402.1H117.85V381.3Z" fill="#CDD496"/>
<path id="Vector_467" d="M138.65 381.3H131.72V402.1H138.65V381.3Z" fill="#CDD496"/>
<path id="Vector_468" d="M131.72 395.16H124.79V409.03H131.72V395.16Z" fill="#CDD496"/>
<path id="Vector_469" d="M124.8 409.03H110.93V415.96H124.8V409.03Z" fill="#CDD496"/>
<path id="Vector_470" d="M124.79 402.09H117.86V415.95H124.79V402.09Z" fill="#CDD496"/>
<path id="Vector_471" d="M117.86 409.03H103.99V415.96H117.86V409.03Z" fill="#CDD496"/>
<path id="Vector_472" d="M110.92 402.09H103.99V415.95H110.92V402.09Z" fill="#CDD496"/>
<path id="Vector_473" d="M103.99 395.16H97.0601V409.02H103.99V395.16Z" fill="#CDD496"/>
<path id="Vector_474" d="M117.86 409.03H110.93V422.9H117.86V409.03Z" fill="#CDD496"/>
<path id="Vector_475" d="M138.66 381.3H124.79V388.23H138.66V381.3Z" fill="#CDD496"/>
<path id="Vector_476" d="M131.72 374.36H124.79V388.22H131.72V374.36Z" fill="#CDD496"/>
</g>
<path id="Vector_477" d="M242.64 284.24H235.71V298.11H242.64V284.24Z" fill="#CDD496"/>
<path id="Vector_478" d="M249.57 277.3H242.64V291.17H249.57V277.3Z" fill="#CDD496"/>
<path id="Vector_479" d="M256.5 270.37H249.57V284.23H256.5V270.37Z" fill="#CDD496"/>
<path id="Vector_480" d="M256.51 277.31H242.64V284.24H256.51V277.31Z" fill="#CDD496"/>
<path id="Vector_481" d="M249.58 284.24H235.71V291.17H249.58V284.24Z" fill="#CDD496"/>
<path id="Vector_482" d="M256.51 360.5H242.65V367.43H256.51V360.5Z" fill="#CDD496"/>
<path id="Vector_483" d="M187.18 381.3H180.25V388.24H187.18V381.3Z" fill="#CDD496"/>
<path id="Vector_484" d="M173.32 381.3H166.39V388.24H173.32V381.3Z" fill="#CDD496"/>
<path id="Vector_485" d="M242.65 443.69H235.72V450.62H242.65V443.69Z" fill="#CDD496"/>
<path id="Vector_486" d="M256.51 291.17H249.58V298.11H256.51V291.17Z" fill="#CDD496"/>
<path id="Vector_487" d="M249.58 256.51H242.65V263.44H249.58V256.51Z" fill="#CDD496"/>
<path id="Vector_488" d="M242.64 263.44H235.71V270.37H242.64V263.44Z" fill="#CDD496"/>
<path id="Vector_489" d="M235.71 270.37H228.78V277.31H235.71V270.37Z" fill="#CDD496"/>
<path id="Vector_490" d="M228.78 277.31H221.85V284.24H228.78V277.31Z" fill="#CDD496"/>
<path id="Vector_491" d="M221.84 284.24H214.91V291.17H221.84V284.24Z" fill="#CDD496"/>
<path id="Vector_492" d="M214.91 291.17H207.98V298.1H214.91V291.17Z" fill="#CDD496"/>
<path id="Vector_493" d="M207.98 298.1H201.05V305.04H207.98V298.1Z" fill="#CDD496"/>
<path id="Vector_494" d="M201.04 305.03H194.11V311.96H201.04V305.03Z" fill="#CDD496"/>
<path id="Vector_495" d="M194.11 311.97H187.18V318.9H194.11V311.97Z" fill="#CDD496"/>
<path id="Vector_496" d="M187.18 318.9H180.25V325.83H187.18V318.9Z" fill="#CDD496"/>
<path id="Vector_497" d="M180.24 325.83H173.31V332.77H180.24V325.83Z" fill="#CDD496"/>
<path id="Vector_498" d="M173.31 332.76H166.38V339.69H173.31V332.76Z" fill="#CDD496"/>
<path id="Vector_499" d="M166.37 339.7H159.44V346.63H166.37V339.7Z" fill="#CDD496"/>
<path id="Vector_500" d="M159.44 346.63H152.51V353.56H159.44V346.63Z" fill="#CDD496"/>
<path id="Vector_501" d="M152.51 353.56H145.58V360.5H152.51V353.56Z" fill="#CDD496"/>
<path id="Vector_502" d="M145.57 360.49H138.64V367.42H145.57V360.49Z" fill="#CDD496"/>
<path id="Vector_503" d="M138.64 367.43H131.71V374.36H138.64V367.43Z" fill="#CDD496"/>
<path id="Vector_504" d="M235.71 450.62H228.78V457.56H235.71V450.62Z" fill="#CDD496"/>
<path id="Vector_505" d="M228.78 457.56H221.85V464.49H228.78V457.56Z" fill="#CDD496"/>
<path id="Vector_506" d="M201.05 388.23H214.91V395.16H221.85V388.23H228.78V381.3H235.71H235.72V374.37H242.65V367.43H214.91V374.36H207.98V381.29H201.05V388.23Z" fill="#CDD496"/>
<path id="Vector_507" d="M221.85 402.1H228.78V415.96H235.72V409.03H242.65V402.1H249.58V374.37H242.64V381.3H235.71V388.23H228.78V395.16H221.85V402.1Z" fill="#CDD496"/>
<path id="Vector_508" d="M228.78 311.97V325.84H221.85V332.77H228.78V339.7H235.71V346.63H235.72V346.64H242.65V353.57H249.58V325.84H242.65V318.9H235.72V311.97H228.78Z" fill="#CDD496"/>
<path id="Vector_509" d="M214.91 332.77V339.7H201.05V346.64H207.98V353.57H214.91V360.5H242.64V353.56H235.71V346.63H228.78V339.7H221.85V332.77H214.91Z" fill="#CDD496"/>
<path id="Vector_510" d="M221.84 298.11H214.91V325.84H221.84V298.11Z" fill="#CDD496"/>
<path id="Vector_511" d="M221.85 305.04H207.98V325.84H221.85V305.04Z" fill="#CDD496"/>
<path id="Vector_512" d="M214.37 318.9H201.05V325.83H214.37V318.9Z" fill="#CDD496"/>
<path id="Vector_513" d="M194.11 325.84H187.18V353.57H194.11V325.84Z" fill="#CDD496"/>
<path id="Vector_514" d="M180.25 346.64H173.32V374.37H180.25V346.64Z" fill="#CDD496"/>
<path id="Vector_515" d="M194.12 332.77H180.25V353.57H194.12V332.77Z" fill="#CDD496"/>
<path id="Vector_516" d="M186.64 346.63H173.32V353.56H186.64V346.63Z" fill="#CDD496"/>
<path id="Vector_517" d="M187.19 353.57H173.32V367.58H187.19V353.57Z" fill="#CDD496"/>
<g id="Group_14">
<path id="Vector_518" d="M166.38 353.56H159.45V381.29H166.38V353.56Z" fill="#CDD496"/>
<path id="Vector_519" d="M166.39 360.5H152.52V381.3H166.39V360.5Z" fill="#CDD496"/>
<path id="Vector_520" d="M158.91 374.36H145.59V381.29H158.91V374.36Z" fill="#CDD496"/>
</g>
<path id="Vector_521" d="M152.52 478.35V485.28H159.45V478.35H166.39V471.42H173.32V478.35H180.25V485.28H187.19V478.35H194.12V471.42H187.19V464.49H180.25V457.55H173.32V450.62H166.39V457.55H159.45V464.49H152.52V471.42H145.59V478.35H152.52Z" fill="#CDD496"/>
<path id="Vector_522" d="M27.7299 256.51H6.92993V263.44H27.7299V256.51Z" fill="#CDD496"/>
<path id="Vector_523" d="M55.4599 256.51H34.6599V263.44H55.4599V256.51Z" fill="#CDD496"/>
<path id="Vector_524" d="M55.4599 298.11H34.6599V305.04H55.4599V298.11Z" fill="#CDD496"/>
<path id="Vector_525" d="M48.53 263.44H27.73V270.37H48.53V263.44Z" fill="#CDD496"/>
<path id="Vector_526" d="M62.39 291.17H27.73V298.11H62.39V291.17Z" fill="#CDD496"/>
<path id="Vector_527" d="M41.6 270.37H20.8V277.3H41.6V270.37Z" fill="#CDD496"/>
<path id="Vector_528" d="M76.2499 298.1H62.3899V305.04H76.2499V298.1Z" fill="#CDD496"/>
<path id="Vector_529" d="M97.0499 311.97H83.1899V360.5H97.0499V311.97Z" fill="#CDD496"/>
<path id="Vector_530" d="M103.99 318.9H90.1299V353.57H103.99V318.9Z" fill="#CDD496"/>
<path id="Vector_531" d="M90.12 353.56H76.26V367.43H90.12V353.56Z" fill="#CDD496"/>
<path id="Vector_532" d="M41.6 284.24H20.8V291.17H41.6V284.24Z" fill="#CDD496"/>
<path id="Vector_533" d="M69.33 284.24H48.53V291.17H69.33V284.24Z" fill="#CDD496"/>
<path id="Vector_534" d="M76.26 277.3H55.46V284.24H76.26V277.3Z" fill="#CDD496"/>
<path id="Vector_535" d="M83.1899 270.37H62.3899V277.31H83.1899V270.37Z" fill="#CDD496"/>
<path id="Vector_536" d="M90.1301 263.44H69.3301V270.38H90.1301V263.44Z" fill="#CDD496"/>
<path id="Vector_537" d="M97.06 256.51H76.26V263.45H97.06V256.51Z" fill="#CDD496"/>
<path id="Vector_538" d="M34.6701 277.3H13.8701V284.23H34.6701V277.3Z" fill="#CDD496"/>
<path id="Vector_539" d="M20.8 263.44H0V270.37H20.8V263.44Z" fill="#CDD496"/>
<path id="Vector_540" d="M13.8599 256.51H6.92993V277.31H13.8599V256.51Z" fill="#CDD496"/>
<path id="Vector_541" d="M48.5301 291.17H41.6001V311.97H48.5301V291.17Z" fill="#CDD496"/>
<path id="Vector_542" d="M69.3199 311.97H62.3899V332.77H69.3199V311.97Z" fill="#CDD496"/>
<path id="Vector_543" d="M97.0599 305.04V298.11H90.1299V291.17H97.0599V284.24H103.99V291.17H110.92V298.11H103.99V305.04H97.0599Z" fill="#CDD496"/>
<path id="Vector_544" d="M138.65 311.97V305.04H131.72V298.1H138.65V291.17H145.59V298.1H152.52V305.04H145.59V311.97H138.65Z" fill="#CDD496"/>
<path id="Vector_545" d="M69.3299 388.23V381.3H62.3999V374.36H69.3299V367.43H76.2599V374.36H83.1899V381.3H76.2599V388.23H69.3299Z" fill="#CDD496"/>
<path id="Vector_546" d="M69.3299 415.96V409.03H62.3999V402.09H69.3299V395.16H76.2599V402.09H83.1899V409.03H76.2599V415.96H69.3299Z" fill="#CDD496"/>
<path id="Vector_547" d="M55.46 402.1V395.16H48.53V388.23H55.46V381.3H62.39V388.23H69.32V395.16H62.39V402.1H55.46Z" fill="#CDD496"/>
<path id="Vector_548" d="M83.19 284.24H76.26V298.1H83.19V284.24Z" fill="#CDD496"/>
<path id="Vector_549" d="M76.2501 291.17H69.3201V305.04H76.2501V291.17Z" fill="#CDD496"/>
<path id="Vector_550" d="M69.32 318.9H55.46V325.83H69.32V318.9Z" fill="#CDD496"/>
<path id="Vector_551" d="M83.1899 325.84H62.3899V332.77H83.1899V325.84Z" fill="#CDD496"/>
<path id="Vector_552" d="M83.1899 353.56H62.3899V360.5H83.1899V353.56Z" fill="#CDD496"/>
<path id="Vector_553" d="M76.2499 339.7H62.3899V346.63H76.2499V339.7Z" fill="#CDD496"/>
<path id="Vector_554" d="M69.32 346.63H55.46V353.56H69.32V346.63Z" fill="#CDD496"/>
<path id="Vector_555" d="M117.86 325.84H97.0601V332.78H117.86V325.84Z" fill="#CDD496"/>
<path id="Vector_556" d="M117.86 339.7H97.0601V346.63H117.86V339.7Z" fill="#CDD496"/>
<path id="Vector_557" d="M69.3199 311.97H62.3899V325.83H69.3199V311.97Z" fill="#CDD496"/>
<path id="Vector_558" d="M90.13 318.9H76.26V346.63H90.13V318.9Z" fill="#CDD496"/>
<path id="Vector_559" d="M76.2599 339.7H62.3899V360.5H76.2599V339.7Z" fill="#CDD496"/>
<path id="Vector_560" d="M20.7901 256.51H13.8601V270.37H20.7901V256.51Z" fill="#CDD496"/>
<path id="Vector_561" d="M69.3199 256.51H62.3899V263.44H69.3199V256.51Z" fill="#CDD496"/>
<path id="Vector_562" d="M207.98 256.51H194.11V263.44H207.98V256.51Z" fill="#CDD496"/>
<path id="Vector_563" d="M214.92 263.44H201.05V270.37H214.92V263.44Z" fill="#CDD496"/>
<path id="Vector_564" d="M214.91 263.44H207.98V277.31H214.91V263.44Z" fill="#CDD496"/>
<path id="Vector_565" d="M207.98 256.51H201.05V270.38H207.98V256.51Z" fill="#CDD496"/>
<g id="Group_15">
<path id="Vector_566" d="M117.86 360.5H110.93V374.37H117.86V360.5Z" fill="#CDD496"/>
<path id="Vector_567" d="M110.92 367.43H103.99V381.3H110.92V367.43Z" fill="#CDD496"/>
<path id="Vector_568" d="M103.99 374.36H97.0601V388.23H103.99V374.36Z" fill="#CDD496"/>
<path id="Vector_569" d="M124.79 367.43H103.99V374.36H124.79V367.43Z" fill="#CDD496"/>
<path id="Vector_570" d="M110.92 374.37H97.0601V381.3H110.92V374.37Z" fill="#CDD496"/>
<path id="Vector_571" d="M97.0599 381.29H90.1299V395.16H97.0599V381.29Z" fill="#CDD496"/>
<path id="Vector_572" d="M103.99 381.3H90.1299V388.23H103.99V381.3Z" fill="#CDD496"/>
<path id="Vector_573" d="M97.0599 388.23H90.1299V402.1H97.0599V388.23Z" fill="#CDD496"/>
<path id="Vector_574" d="M103.99 395.16H90.1299V402.09H103.99V395.16Z" fill="#CDD496"/>
<path id="Vector_575" d="M97.0499 388.23H83.1899V395.16H97.0499V388.23Z" fill="#CDD496"/>
<path id="Vector_576" d="M124.79 367.43H117.86V381.3H124.79V367.43Z" fill="#CDD496"/>
<path id="Vector_577" d="M131.72 374.37H117.86V381.3H131.72V374.37Z" fill="#CDD496"/>
</g>
<path id="Vector_578" d="M221.84 263.45H207.98V270.38H221.84V263.45Z" fill="#CDD496"/>
<path id="Vector_579" d="M228.78 256.51H214.91V263.44H228.78V256.51Z" fill="#CDD496"/>
<path id="Vector_580" d="M221.85 256.51H214.92V270.38H221.85V256.51Z" fill="#CDD496"/>
<path id="Vector_581" d="M145.58 256.51H138.65V263.44H145.58V256.51Z" fill="#CDD496"/>
<path id="Vector_582" d="M124.78 318.9H117.85V325.83H124.78V318.9Z" fill="#CDD496"/>
<path id="Vector_583" d="M124.78 332.77H117.85V339.7H124.78V332.77Z" fill="#CDD496"/>
<path id="Vector_584" d="M62.39 263.44H55.46V270.37H62.39V263.44Z" fill="#CDD496"/>
<path id="Vector_585" d="M55.46 270.37H48.53V277.3H55.46V270.37Z" fill="#CDD496"/>
<path id="Vector_586" d="M48.5301 277.3H41.6001V284.23H48.5301V277.3Z" fill="#CDD496"/>
<path id="Vector_587" d="M117.86 305.04V291.17H110.93V284.24H117.86V277.3H124.79V270.37H131.72V263.44H138.65V291.18H131.72V298.1H124.79V305.04H117.86Z" fill="#CDD496"/>
<path id="Vector_588" d="M103.99 284.24V277.3H90.1299V270.37H97.0599V263.44H103.99V256.51H131.72V263.44H124.79V270.37H117.85V277.3H110.92V284.24H103.99Z" fill="#CDD496"/>
<path id="Vector_589" d="M194.11 277.3H180.25V284.24H173.32V277.3H166.38V270.37H159.45V263.44H152.52V256.51H180.25V263.44H187.18V270.37H194.11V277.3Z" fill="#CDD496"/>
<path id="Vector_590" d="M173.32 291.18H166.38V305.04H159.45V298.11H152.52V291.18H145.59V263.44H152.52V270.37H159.45V277.31H166.38V284.24H173.32V291.18Z" fill="#CDD496"/>
<path id="Vector_591" d="M207.98 284.24H180.25V291.17H207.98V284.24Z" fill="#CDD496"/>
<path id="Vector_592" d="M201.05 284.24H180.25V298.11H201.05V284.24Z" fill="#CDD496"/>
<path id="Vector_593" d="M187.18 291.71H180.25V305.03H187.18V291.71Z" fill="#CDD496"/>
<path id="Vector_594" d="M180.25 311.97H152.52V318.91H180.25V311.97Z" fill="#CDD496"/>
<path id="Vector_595" d="M159.45 325.84H131.72V332.78H159.45V325.84Z" fill="#CDD496"/>
<path id="Vector_596" d="M173.32 311.97H152.52V325.84H173.32V311.97Z" fill="#CDD496"/>
<path id="Vector_597" d="M138.65 277.85H131.72V291.18H138.65V277.85Z" fill="#CDD496"/>
<path id="Vector_598" d="M152.52 318.9H138.51V332.77H152.52V318.9Z" fill="#CDD496"/>
<g id="Group_16">
<path id="Vector_599" d="M152.52 339.7H124.79V346.63H152.52V339.7Z" fill="#CDD496"/>
<path id="Vector_600" d="M145.59 339.7H124.79V353.57H145.59V339.7Z" fill="#CDD496"/>
<path id="Vector_601" d="M131.72 347.18H124.79V360.5H131.72V347.18Z" fill="#CDD496"/>
</g>
<path id="Vector_602" d="M27.73 353.57H20.8V346.63H27.73V339.7H34.66V332.77H27.73V325.84H20.8V318.9H27.73V311.97H34.66V318.9H41.6V325.83H48.53V332.77H55.46V339.7H48.53V346.63H41.6V353.57H34.66V360.5H27.73V353.57Z" fill="#CDD496"/>
</g>
<g id="Group_17">
<path id="Vector_603" d="M27.7299 242.64H6.92993V249.57H27.7299V242.64Z" fill="#CDD496"/>
<path id="Vector_604" d="M34.6601 249.57H13.8601V256.51H34.6601V249.57Z" fill="#CDD496"/>
<path id="Vector_605" d="M62.4001 249.57H41.6001V256.51H62.4001V249.57Z" fill="#CDD496"/>
<path id="Vector_606" d="M103.99 249.57H83.1899V256.51H103.99V249.57Z" fill="#CDD496"/>
<path id="Vector_607" d="M152.52 249.57H131.72V256.51H152.52V249.57Z" fill="#CDD496"/>
<path id="Vector_608" d="M55.4599 242.64H34.6599V249.57H55.4599V242.64Z" fill="#CDD496"/>
<path id="Vector_609" d="M55.4599 201.05H34.6599V207.98H55.4599V201.05Z" fill="#CDD496"/>
<path id="Vector_610" d="M48.53 235.71H27.73V242.64H48.53V235.71Z" fill="#CDD496"/>
<path id="Vector_611" d="M62.39 207.98H27.73V214.92H62.39V207.98Z" fill="#CDD496"/>
<path id="Vector_612" d="M41.6 228.78H20.8V235.71H41.6V228.78Z" fill="#CDD496"/>
<path id="Vector_613" d="M76.2499 201.05H62.3899V207.99H76.2499V201.05Z" fill="#CDD496"/>
<path id="Vector_614" d="M97.0499 145.59H83.1899V194.12H97.0499V145.59Z" fill="#CDD496"/>
<path id="Vector_615" d="M103.99 152.52H90.1299V187.19H103.99V152.52Z" fill="#CDD496"/>
<path id="Vector_616" d="M90.12 138.65H76.26V152.51H90.12V138.65Z" fill="#CDD496"/>
<path id="Vector_617" d="M41.6 214.91H20.8V221.84H41.6V214.91Z" fill="#CDD496"/>
<path id="Vector_618" d="M69.33 214.91H48.53V221.84H69.33V214.91Z" fill="#CDD496"/>
<path id="Vector_619" d="M76.26 221.85H55.46V228.79H76.26V221.85Z" fill="#CDD496"/>
<path id="Vector_620" d="M83.1899 228.78H62.3899V235.72H83.1899V228.78Z" fill="#CDD496"/>
<path id="Vector_621" d="M90.1301 235.71H69.3301V242.65H90.1301V235.71Z" fill="#CDD496"/>
<path id="Vector_622" d="M97.06 242.64H76.26V249.58H97.06V242.64Z" fill="#CDD496"/>
<path id="Vector_623" d="M34.6601 221.85H13.8601V228.78H34.6601V221.85Z" fill="#CDD496"/>
<path id="Vector_624" d="M20.8 235.71H0V242.64H20.8V235.71Z" fill="#CDD496"/>
<path id="Vector_625" d="M13.8599 228.78H6.92993V249.58H13.8599V228.78Z" fill="#CDD496"/>
<path id="Vector_626" d="M48.5201 194.12H41.5901V214.92H48.5201V194.12Z" fill="#CDD496"/>
<path id="Vector_627" d="M69.3199 173.32H62.3899V194.12H69.3199V173.32Z" fill="#CDD496"/>
<path id="Vector_628" d="M97.0601 201.05V207.98H90.1201V214.91H97.0601V221.85H103.99V214.91H110.92V207.98H103.99V201.05H97.0601Z" fill="#CDD496"/>
<path id="Vector_629" d="M138.65 194.12V201.05H131.72V207.98H138.65V214.91H145.59V207.98H152.52V201.05H145.59V194.12H138.65Z" fill="#CDD496"/>
<path id="Vector_630" d="M69.3299 117.86V124.79H62.3899V131.72H69.3299V138.65H76.2599V131.72H83.1899V124.79H76.2599V117.86H69.3299Z" fill="#CDD496"/>
<path id="Vector_631" d="M69.3299 90.13V97.06H62.3899V103.99H69.3299V110.93H76.2599V103.99H83.1899V97.06H76.2599V90.13H69.3299Z" fill="#CDD496"/>
<path id="Vector_632" d="M55.46 103.99V110.92H48.53V117.86H55.46V124.79H62.39V117.86H69.32V110.92H62.39V103.99H55.46Z" fill="#CDD496"/>
<path id="Vector_633" d="M83.19 76.26V83.19H76.26V90.13H83.19V97.06H90.12V90.13H97.05V83.19H90.12V76.26H83.19Z" fill="#CDD496"/>
<path id="Vector_634" d="M83.19 207.98H76.26V221.84H83.19V207.98Z" fill="#CDD496"/>
<path id="Vector_635" d="M76.2601 201.05H69.3301V214.92H76.2601V201.05Z" fill="#CDD496"/>
<path id="Vector_636" d="M69.32 180.25H55.46V187.18H69.32V180.25Z" fill="#CDD496"/>
<path id="Vector_637" d="M83.1899 173.32H62.3899V180.25H83.1899V173.32Z" fill="#CDD496"/>
<path id="Vector_638" d="M83.1899 145.59H62.3899V152.53H83.1899V145.59Z" fill="#CDD496"/>
<path id="Vector_639" d="M76.2499 159.45H62.3899V166.38H76.2499V159.45Z" fill="#CDD496"/>
<path id="Vector_640" d="M69.32 152.52H55.46V159.45H69.32V152.52Z" fill="#CDD496"/>
<path id="Vector_641" d="M117.85 173.31H97.05V180.25H117.85V173.31Z" fill="#CDD496"/>
<path id="Vector_642" d="M117.85 159.45H97.05V166.38H117.85V159.45Z" fill="#CDD496"/>
<path id="Vector_643" d="M69.3199 180.25H62.3899V194.11H69.3199V180.25Z" fill="#CDD496"/>
<path id="Vector_644" d="M90.13 159.45H76.26V187.18H90.13V159.45Z" fill="#CDD496"/>
<path id="Vector_645" d="M76.2599 145.59H62.3899V166.39H76.2599V145.59Z" fill="#CDD496"/>
<path id="Vector_646" d="M20.7901 235.71H13.8601V249.57H20.7901V235.71Z" fill="#CDD496"/>
<path id="Vector_647" d="M69.3199 242.64H62.3899V249.57H69.3199V242.64Z" fill="#CDD496"/>
<path id="Vector_648" d="M76.2501 249.57H69.3201V256.5H76.2501V249.57Z" fill="#CDD496"/>
<path id="Vector_649" d="M201.04 249.57H187.18V256.5H201.04V249.57Z" fill="#CDD496"/>
<path id="Vector_650" d="M207.98 242.64H194.11V249.57H207.98V242.64Z" fill="#CDD496"/>
<path id="Vector_651" d="M214.91 235.71H201.05V242.64H214.91V235.71Z" fill="#CDD496"/>
<path id="Vector_652" d="M214.91 228.78H207.98V242.65H214.91V228.78Z" fill="#CDD496"/>
<path id="Vector_653" d="M207.98 235.71H201.05V249.58H207.98V235.71Z" fill="#CDD496"/>
<path id="Vector_654" d="M201.05 242.64H194.12V256.51H201.05V242.64Z" fill="#CDD496"/>
<g id="Group_18">
<path id="Vector_655" d="M117.86 103.99H110.93V124.79H117.86V103.99Z" fill="#CDD496"/>
<path id="Vector_656" d="M117.86 131.72H110.93V145.59H117.86V131.72Z" fill="#CDD496"/>
<path id="Vector_657" d="M110.92 124.79H103.99V138.66H110.92V124.79Z" fill="#CDD496"/>
<path id="Vector_658" d="M103.99 117.86H97.0601V131.73H103.99V117.86Z" fill="#CDD496"/>
<path id="Vector_659" d="M124.79 110.92H103.99V117.85H124.79V110.92Z" fill="#CDD496"/>
<path id="Vector_660" d="M124.79 131.72H103.99V138.65H124.79V131.72Z" fill="#CDD496"/>
<path id="Vector_661" d="M110.93 124.79H97.0601V131.72H110.93V124.79Z" fill="#CDD496"/>
<path id="Vector_662" d="M97.0599 110.93H90.1299V124.8H97.0599V110.93Z" fill="#CDD496"/>
<path id="Vector_663" d="M104 117.86H90.1299V124.79H104V117.86Z" fill="#CDD496"/>
<path id="Vector_664" d="M97.0599 103.99H90.1299V117.86H97.0599V103.99Z" fill="#CDD496"/>
<path id="Vector_665" d="M104 103.99H90.1299V110.92H104V103.99Z" fill="#CDD496"/>
<path id="Vector_666" d="M110.93 97.06H97.0601V103.99H110.93V97.06Z" fill="#CDD496"/>
<path id="Vector_667" d="M97.0599 110.93H83.1899V117.86H97.0599V110.93Z" fill="#CDD496"/>
<path id="Vector_668" d="M124.79 124.79H117.86V138.66H124.79V124.79Z" fill="#CDD496"/>
<path id="Vector_669" d="M131.72 124.79H117.85V131.72H131.72V124.79Z" fill="#CDD496"/>
</g>
<path id="Vector_670" d="M221.85 235.71H207.98V242.64H221.85V235.71Z" fill="#CDD496"/>
<path id="Vector_671" d="M228.78 242.64H214.91V249.57H228.78V242.64Z" fill="#CDD496"/>
<path id="Vector_672" d="M235.71 249.57H221.84V256.5H235.71V249.57Z" fill="#CDD496"/>
<path id="Vector_673" d="M228.78 242.64H221.85V256.51H228.78V242.64Z" fill="#CDD496"/>
<path id="Vector_674" d="M221.84 235.71H214.91V249.58H221.84V235.71Z" fill="#CDD496"/>
<path id="Vector_675" d="M145.58 242.64H138.65V256.51H145.58V242.64Z" fill="#CDD496"/>
<path id="Vector_676" d="M124.78 180.25H117.85V187.18H124.78V180.25Z" fill="#CDD496"/>
<path id="Vector_677" d="M124.78 166.38H117.85V173.31H124.78V166.38Z" fill="#CDD496"/>
<path id="Vector_678" d="M62.39 235.71H55.46V242.64H62.39V235.71Z" fill="#CDD496"/>
<path id="Vector_679" d="M214.91 249.57H207.98V256.5H214.91V249.57Z" fill="#CDD496"/>
<path id="Vector_680" d="M249.57 242.64H242.64V249.57H249.57V242.64Z" fill="#CDD496"/>
<path id="Vector_681" d="M242.64 235.71H235.71V242.64H242.64V235.71Z" fill="#CDD496"/>
<path id="Vector_682" d="M235.71 228.78H228.78V235.71H235.71V228.78Z" fill="#CDD496"/>
<path id="Vector_683" d="M228.78 221.85H221.85V228.78H228.78V221.85Z" fill="#CDD496"/>
<path id="Vector_684" d="M221.84 214.91H214.91V221.84H221.84V214.91Z" fill="#CDD496"/>
<path id="Vector_685" d="M214.91 207.98H207.98V214.91H214.91V207.98Z" fill="#CDD496"/>
<path id="Vector_686" d="M207.98 201.04H201.05V207.97H207.98V201.04Z" fill="#CDD496"/>
<path id="Vector_687" d="M201.05 194.11H194.12V201.04H201.05V194.11Z" fill="#CDD496"/>
<path id="Vector_688" d="M194.11 187.18H187.18V194.11H194.11V187.18Z" fill="#CDD496"/>
<path id="Vector_689" d="M187.18 180.25H180.25V187.18H187.18V180.25Z" fill="#CDD496"/>
<path id="Vector_690" d="M180.25 173.31H173.32V180.24H180.25V173.31Z" fill="#CDD496"/>
<path id="Vector_691" d="M173.32 166.38H166.39V173.31H173.32V166.38Z" fill="#CDD496"/>
<path id="Vector_692" d="M166.38 159.44H159.45V166.37H166.38V159.44Z" fill="#CDD496"/>
<path id="Vector_693" d="M159.45 152.51H152.52V159.44H159.45V152.51Z" fill="#CDD496"/>
<path id="Vector_694" d="M152.52 145.58H145.59V152.51H152.52V145.58Z" fill="#CDD496"/>
<path id="Vector_695" d="M145.59 138.64H138.66V145.57H145.59V138.64Z" fill="#CDD496"/>
<path id="Vector_696" d="M138.66 131.71H131.73V138.64H138.66V131.71Z" fill="#CDD496"/>
<path id="Vector_697" d="M55.46 228.78H48.53V235.71H55.46V228.78Z" fill="#CDD496"/>
<path id="Vector_698" d="M48.5301 221.85H41.6001V228.78H48.5301V221.85Z" fill="#CDD496"/>
<path id="Vector_699" d="M117.86 201.05V214.91H110.92V221.85H117.86V228.78H124.79V235.71H131.72V242.64H138.65V214.91H131.72V207.98H124.79V201.05H117.86Z" fill="#CDD496"/>
<path id="Vector_700" d="M103.99 221.85V228.78H90.1201V235.71H97.0601V242.64H103.99V249.57H131.72V242.64H124.79V235.71H117.85V228.78H110.92V221.85H103.99Z" fill="#CDD496"/>
<path id="Vector_701" d="M194.11 228.78H180.25V221.85H173.31V228.78H166.38V235.71H159.45V242.64H152.52V249.57H180.25V242.64H187.18V235.71H194.11V228.78Z" fill="#CDD496"/>
<path id="Vector_702" d="M173.31 214.91H166.38V201.05H159.45V207.98H152.52V214.91H145.59V242.64H152.52V235.71H159.45V228.78H166.38V221.85H173.31V214.91Z" fill="#CDD496"/>
<path id="Vector_703" d="M207.98 214.91H180.25V221.84H207.98V214.91Z" fill="#CDD496"/>
<path id="Vector_704" d="M201.05 207.98H180.25V221.85H201.05V207.98Z" fill="#CDD496"/>
<path id="Vector_705" d="M187.18 201.05H180.25V214.37H187.18V201.05Z" fill="#CDD496"/>
<path id="Vector_706" d="M180.25 187.18H152.52V194.12H180.25V187.18Z" fill="#CDD496"/>
<path id="Vector_707" d="M159.45 173.31H131.72V180.25H159.45V173.31Z" fill="#CDD496"/>
<path id="Vector_708" d="M173.32 180.25H152.52V194.12H173.32V180.25Z" fill="#CDD496"/>
<path id="Vector_709" d="M159.45 173.31H152.52V186.64H159.45V173.31Z" fill="#CDD496"/>
<path id="Vector_710" d="M152.51 173.31H138.5V187.18H152.51V173.31Z" fill="#CDD496"/>
<g id="Group_19">
<path id="Vector_711" d="M152.52 159.45H124.79V166.38H152.52V159.45Z" fill="#CDD496"/>
<path id="Vector_712" d="M145.59 152.52H124.79V166.39H145.59V152.52Z" fill="#CDD496"/>
<path id="Vector_713" d="M131.72 145.59H124.79V158.91H131.72V145.59Z" fill="#CDD496"/>
</g>
<path id="Vector_714" d="M27.73 152.52H20.8V159.45H27.73V166.38H34.66V173.31H27.73V180.25H20.8V187.18H27.73V194.11H34.66V187.18H41.6V180.25H48.53V173.31H55.46V166.38H48.53V159.45H41.6V152.52H34.66V145.59H27.73V152.52Z" fill="#CDD496"/>
<path id="Vector_715" d="M249.57 6.92999H242.64V27.73H249.57V6.92999Z" fill="#CDD496"/>
<path id="Vector_716" d="M249.57 34.66H242.64V55.46H249.57V34.66Z" fill="#CDD496"/>
<path id="Vector_717" d="M207.98 34.66H201.05V55.46H207.98V34.66Z" fill="#CDD496"/>
<path id="Vector_718" d="M242.64 27.73H235.71V48.53H242.64V27.73Z" fill="#CDD496"/>
<path id="Vector_719" d="M214.91 27.73H207.98V62.39H214.91V27.73Z" fill="#CDD496"/>
<path id="Vector_720" d="M235.71 20.8H228.78V41.6H235.71V20.8Z" fill="#CDD496"/>
<path id="Vector_721" d="M214.91 69.32H207.98V83.19H214.91V69.32Z" fill="#CDD496"/>
<path id="Vector_722" d="M194.12 83.19H145.59V97.05H194.12V83.19Z" fill="#CDD496"/>
<path id="Vector_723" d="M187.19 90.12H152.52V103.99H187.19V90.12Z" fill="#CDD496"/>
<path id="Vector_724" d="M152.52 76.26H138.65V90.13H152.52V76.26Z" fill="#CDD496"/>
<path id="Vector_725" d="M221.84 20.8H214.91V41.6H221.84V20.8Z" fill="#CDD496"/>
<path id="Vector_726" d="M221.84 48.53H214.91V69.33H221.84V48.53Z" fill="#CDD496"/>
<path id="Vector_727" d="M228.78 55.46H221.85V76.26H228.78V55.46Z" fill="#CDD496"/>
<path id="Vector_728" d="M235.71 62.39H228.78V83.19H235.71V62.39Z" fill="#CDD496"/>
<path id="Vector_729" d="M242.64 69.32H235.71V90.12H242.64V69.32Z" fill="#CDD496"/>
<path id="Vector_730" d="M249.58 76.26H242.64V97.06H249.58V76.26Z" fill="#CDD496"/>
<path id="Vector_731" d="M228.78 13.87H221.85V34.67H228.78V13.87Z" fill="#CDD496"/>
<path id="Vector_732" d="M242.64 0H235.71V20.8H242.64V0Z" fill="#CDD496"/>
<path id="Vector_733" d="M249.58 6.92999H228.78V13.86H249.58V6.92999Z" fill="#CDD496"/>
<path id="Vector_734" d="M214.91 41.6H194.11V48.53H214.91V41.6Z" fill="#CDD496"/>
<path id="Vector_735" d="M194.12 62.39H173.32V69.32H194.12V62.39Z" fill="#CDD496"/>
<path id="Vector_736" d="M201.05 97.05H207.98V90.12H214.91V97.05H221.84V103.99H214.91V110.92H207.98V103.99H201.05V97.05Z" fill="#CDD496"/>
<path id="Vector_737" d="M194.11 138.65H201.05V131.72H207.98V138.65H214.91V145.59H207.98V152.52H201.05V145.59H194.11V138.65Z" fill="#CDD496"/>
<path id="Vector_738" d="M117.85 69.32H124.79V62.39H131.72V69.32H138.65V76.26H131.72V83.19H124.79V76.26H117.85V69.32Z" fill="#CDD496"/>
<path id="Vector_739" d="M90.1299 69.32H97.0599V62.39H103.99V69.32H110.92V76.26H103.99V83.19H97.0599V76.26H90.1299V69.32Z" fill="#CDD496"/>
<path id="Vector_740" d="M103.99 55.46H110.92V48.53H117.85V55.46H124.78V62.39H117.85V69.32H110.92V62.39H103.99V55.46Z" fill="#CDD496"/>
<path id="Vector_741" d="M221.84 76.26H207.98V83.2H221.84V76.26Z" fill="#CDD496"/>
<path id="Vector_742" d="M207.98 62.39H201.05V76.26H207.98V62.39Z" fill="#CDD496"/>
<path id="Vector_743" d="M214.91 69.32H201.05V76.26H214.91V69.32Z" fill="#CDD496"/>
<path id="Vector_744" d="M187.18 55.46H180.25V69.32H187.18V55.46Z" fill="#CDD496"/>
<path id="Vector_745" d="M180.25 62.39H173.32V83.19H180.25V62.39Z" fill="#CDD496"/>
<path id="Vector_746" d="M152.52 62.39H145.59V83.19H152.52V62.39Z" fill="#CDD496"/>
<path id="Vector_747" d="M166.38 62.39H159.45V76.25H166.38V62.39Z" fill="#CDD496"/>
<path id="Vector_748" d="M159.45 55.46H152.52V69.32H159.45V55.46Z" fill="#CDD496"/>
<path id="Vector_749" d="M180.24 97.05H173.31V117.85H180.24V97.05Z" fill="#CDD496"/>
<path id="Vector_750" d="M166.38 97.05H159.45V117.85H166.38V97.05Z" fill="#CDD496"/>
<path id="Vector_751" d="M194.11 62.39H180.25V69.32H194.11V62.39Z" fill="#CDD496"/>
<path id="Vector_752" d="M187.18 76.26H159.45V90.13H187.18V76.26Z" fill="#CDD496"/>
<path id="Vector_753" d="M166.39 62.39H145.59V76.25H166.39V62.39Z" fill="#CDD496"/>
<path id="Vector_754" d="M249.57 13.86H235.71V20.8H249.57V13.86Z" fill="#CDD496"/>
<path id="Vector_755" d="M249.57 62.39H242.64V69.32H249.57V62.39Z" fill="#CDD496"/>
<path id="Vector_756" d="M249.57 194.11H242.64V207.98H249.57V194.11Z" fill="#CDD496"/>
<path id="Vector_757" d="M242.64 201.04H235.71V214.91H242.64V201.04Z" fill="#CDD496"/>
<path id="Vector_758" d="M242.65 207.98H228.78V214.91H242.65V207.98Z" fill="#CDD496"/>
<path id="Vector_759" d="M249.58 201.05H235.71V207.98H249.58V201.05Z" fill="#CDD496"/>
<g id="Group_20">
<path id="Vector_760" d="M145.59 110.93H131.72V117.86H145.59V110.93Z" fill="#CDD496"/>
<path id="Vector_761" d="M138.65 103.99H124.78V110.92H138.65V103.99Z" fill="#CDD496"/>
<path id="Vector_762" d="M131.72 97.06H117.85V103.99H131.72V97.06Z" fill="#CDD496"/>
<path id="Vector_763" d="M138.65 103.99H131.72V124.79H138.65V103.99Z" fill="#CDD496"/>
<path id="Vector_764" d="M131.72 97.06H124.79V110.93H131.72V97.06Z" fill="#CDD496"/>
<path id="Vector_765" d="M124.79 90.13H110.92V97.06H124.79V90.13Z" fill="#CDD496"/>
<path id="Vector_766" d="M124.79 90.13H117.86V103.99H124.79V90.13Z" fill="#CDD496"/>
<path id="Vector_767" d="M117.86 90.13H103.99V97.06H117.86V90.13Z" fill="#CDD496"/>
<path id="Vector_768" d="M110.92 90.13H103.99V103.99H110.92V90.13Z" fill="#CDD496"/>
<path id="Vector_769" d="M117.86 83.19H110.93V97.06H117.86V83.19Z" fill="#CDD496"/>
<path id="Vector_770" d="M138.65 117.86H124.78V124.79H138.65V117.86Z" fill="#CDD496"/>
<path id="Vector_771" d="M131.72 117.86H124.79V131.72H131.72V117.86Z" fill="#CDD496"/>
</g>
<path id="Vector_772" d="M242.64 207.98H235.71V221.85H242.64V207.98Z" fill="#CDD496"/>
<path id="Vector_773" d="M249.57 214.91H242.64V228.78H249.57V214.91Z" fill="#CDD496"/>
<path id="Vector_774" d="M249.58 214.91H235.71V221.84H249.58V214.91Z" fill="#CDD496"/>
<path id="Vector_775" d="M249.57 138.65H242.64V145.58H249.57V138.65Z" fill="#CDD496"/>
<path id="Vector_776" d="M6.93 249.57H0V256.51H6.93V249.57Z" fill="#CDD496"/>
<path id="Vector_777" d="M187.18 117.85H180.25V124.79H187.18V117.85Z" fill="#CDD496"/>
<path id="Vector_778" d="M173.31 117.85H166.38V124.79H173.31V117.85Z" fill="#CDD496"/>
<path id="Vector_779" d="M242.64 55.46H235.71V62.4H242.64V55.46Z" fill="#CDD496"/>
<path id="Vector_780" d="M235.71 48.53H228.78V55.47H235.71V48.53Z" fill="#CDD496"/>
<path id="Vector_781" d="M228.78 41.6H221.85V48.53H228.78V41.6Z" fill="#CDD496"/>
<path id="Vector_782" d="M201.05 117.86H214.91V110.93H221.85V117.86H228.78V124.79H235.71V131.72H242.64V138.65H214.91V131.72H207.98V124.79H201.05V117.86Z" fill="#CDD496"/>
<path id="Vector_783" d="M221.85 103.99H228.78V90.12H235.71V97.05H242.64V103.99H249.57V131.72H242.64V124.79H235.71V117.85H228.78V110.92H221.85V103.99Z" fill="#CDD496"/>
<path id="Vector_784" d="M228.78 194.11V180.25H221.85V173.31H228.78V166.38H235.71V159.45H242.64V152.52H249.57V180.25H242.64V187.18H235.71V194.11H228.78Z" fill="#CDD496"/>
<path id="Vector_785" d="M214.91 173.31V166.38H201.05V159.45H207.98V152.52H214.91V145.59H242.64V152.52H235.71V159.45H228.78V166.38H221.85V173.31H214.91Z" fill="#CDD496"/>
<path id="Vector_786" d="M221.84 180.25H214.91V207.98H221.84V180.25Z" fill="#CDD496"/>
<path id="Vector_787" d="M221.85 180.25H207.98V201.05H221.85V180.25Z" fill="#CDD496"/>
<path id="Vector_788" d="M214.37 180.25H201.05V187.19H214.37V180.25Z" fill="#CDD496"/>
<path id="Vector_789" d="M194.11 152.52H187.18V180.25H194.11V152.52Z" fill="#CDD496"/>
<path id="Vector_790" d="M180.24 131.72H173.31V159.45H180.24V131.72Z" fill="#CDD496"/>
<path id="Vector_791" d="M194.12 152.52H180.25V173.32H194.12V152.52Z" fill="#CDD496"/>
<path id="Vector_792" d="M228.23 131.72H214.91V138.66H228.23V131.72Z" fill="#CDD496"/>
<path id="Vector_793" d="M187.18 138.51H173.31V152.52H187.18V138.51Z" fill="#CDD496"/>
<g id="Group_21">
<path id="Vector_794" d="M166.38 124.79H159.45V152.52H166.38V124.79Z" fill="#CDD496"/>
<path id="Vector_795" d="M166.39 124.79H152.52V145.59H166.39V124.79Z" fill="#CDD496"/>
<path id="Vector_796" d="M158.9 124.79H145.58V131.73H158.9V124.79Z" fill="#CDD496"/>
</g>
<path id="Vector_797" d="M152.52 27.73V20.8H159.45V27.73H166.39V34.66H173.32V27.73H180.25V20.8H187.19V27.73H194.12V34.66H187.19V41.6H180.25V48.53H173.32V55.46H166.39V48.53H159.45V41.6H152.52V34.66H145.59V27.73H152.52Z" fill="#CDD496"/>
</g>
<g id="Group_22">
<path id="Vector_798" d="M270.37 513.02H263.44V533.82H270.37V513.02Z" fill="#CDD496"/>
<path id="Vector_799" d="M270.37 513.01H256.51V526.87H270.37V513.01Z" fill="#CDD496"/>
<path id="Vector_800" d="M263.44 506.08H242.65V519.94H263.44V506.08Z" fill="#CDD496"/>
<path id="Vector_801" d="M256.51 499.15H249.58V519.95H256.51V499.15Z" fill="#CDD496"/>
<path id="Vector_802" d="M242.64 513.02H235.71V533.82H242.64V513.02Z" fill="#CDD496"/>
<path id="Vector_803" d="M249.58 513.01H235.71V526.87H249.58V513.01Z" fill="#CDD496"/>
</g>
<g id="Group_23">
<path id="Vector_804" d="M270.37 540.74H263.44V561.54H270.37V540.74Z" fill="#CDD496"/>
<path id="Vector_805" d="M270.37 540.74H256.51V554.61H270.37V540.74Z" fill="#CDD496"/>
<path id="Vector_806" d="M263.44 533.81H242.65V547.68H263.44V533.81Z" fill="#CDD496"/>
<path id="Vector_807" d="M256.51 526.88H249.58V547.68H256.51V526.88Z" fill="#CDD496"/>
<path id="Vector_808" d="M242.64 540.74H235.71V561.54H242.64V540.74Z" fill="#CDD496"/>
<path id="Vector_809" d="M249.58 540.74H235.71V554.61H249.58V540.74Z" fill="#CDD496"/>
</g>
<path id="Vector_810" d="M256.51 554.61H249.58V561.55H256.51V554.61Z" fill="#CDD496"/>
<g id="Group_24">
<path id="Vector_811" d="M242.42 591.95H225.12V596.23H242.42V591.95Z" fill="#CDD496"/>
<path id="Vector_812" d="M241.06 599.08H227.34L216.65 626.25H222.59L224.38 621.66H235.93L237.76 626.25H251.83L241.07 599.08H241.06ZM226.37 616.62L230.15 607.03L233.93 616.62H226.37Z" fill="#CDD496"/>
</g>
</g>
<defs>
<clipPath id="clip0_128_3">
<rect width="506.09" height="703.55" fill="white"/>
</clipPath>
</defs>
</svg>
