<svg width="323" height="71" viewBox="0 0 323 71" fill="none" xmlns="http://www.w3.org/2000/svg">
<g id="Logo_name">
<path id="Vector" d="M27.7777 4.1721L16.2345 26.6476H27.5261V31.5793H0.523193L12.1023 9.10377H2.08624V4.1721H27.7777Z" fill="#E7EEAF"/>
<path id="Vector_2" d="M60.0447 26.6476V31.5793H36.3655V4.1721H59.4249L59.389 9.10377H48.277V14.4397H56.5683V19.3713H48.277V26.6476H60.0447Z" fill="#E7EEAF"/>
<path id="Vector_3" d="M92.8596 26.6476V31.5793H69.1804V4.1721H81.0919V26.6476H92.8596Z" fill="#E7EEAF"/>
<path id="Vector_4" d="M126.402 9.11276H117.015V31.5883H105.104V9.11276H95.7163V4.18109H126.411V9.11276H126.402Z" fill="#E7EEAF"/>
<path id="Vector_5" d="M167.473 31.5793V4.1721H184.388C185.726 4.1721 187.002 4.53144 188.223 5.25008C189.445 5.96872 190.37 6.90294 190.999 8.04378C191.655 9.26547 191.987 10.5141 191.987 11.8077C191.987 13.3887 191.367 14.9337 190.128 16.4519C192.095 18.0868 193.083 20.2786 193.083 23.0274C193.083 24.4917 192.751 25.8751 192.077 27.1956C191.403 28.5071 190.397 29.5671 189.059 30.3755C187.72 31.184 186.292 31.5793 184.783 31.5793H167.464H167.473ZM183.992 14.4397C184.801 14.4397 185.466 14.1882 186.005 13.6761C186.544 13.1641 186.813 12.5263 186.813 11.7717C186.813 11.062 186.535 10.4423 185.969 9.90327C185.412 9.37327 184.747 9.10377 183.992 9.10377H179.384V14.4397H183.992ZM184.136 26.6476C185.16 26.6476 186.04 26.2972 186.768 25.5876C187.496 24.8779 187.864 24.0246 187.864 23.0274C187.864 21.9764 187.505 21.1051 186.786 20.3954C186.067 19.6858 185.187 19.3354 184.136 19.3354H179.384V26.6476H184.136Z" fill="#E7EEAF"/>
<path id="Vector_6" d="M226.302 26.6476V31.5793H202.623V4.1721H225.682L225.647 9.10377H214.535V14.4397H222.826V19.3713H214.535V26.6476H226.302Z" fill="#E7EEAF"/>
<path id="Vector_7" d="M259.117 26.6476V31.5793H235.438V4.1721H247.349V26.6476H259.117Z" fill="#E7EEAF"/>
<path id="Vector_8" d="M291.016 26.6476V31.5793H267.337V4.1721H290.396L290.36 9.10377H279.248V14.4397H287.539V19.3713H279.248V26.6476H291.016Z" fill="#E7EEAF"/>
<path id="Vector_9" d="M301.751 24.0515C304.257 26.3152 306.88 27.4471 309.611 27.4471C311.075 27.4471 312.413 27.2045 313.635 26.7194L304.248 20.9434C300.888 18.8773 299.199 16.2273 299.199 13.0114C299.199 10.3614 300.385 8.09766 302.766 6.23818C305.137 4.36971 308.102 3.44447 311.659 3.44447C314.848 3.44447 317.956 4.40562 320.974 6.32799L318.091 10.3164C316.312 9.00493 314.183 8.34023 311.695 8.34023C310.545 8.34023 309.467 8.50189 308.443 8.8163L317.651 14.4846C321.01 16.5597 322.69 19.2276 322.69 22.4974C322.69 25.2552 321.441 27.5818 318.944 29.4862C316.447 31.3906 313.357 32.3428 309.683 32.3428C305.2 32.3428 301.481 30.8696 298.535 27.9232L301.751 24.0515Z" fill="#E7EEAF"/>
<path id="Vector_10" d="M71.2645 62.9749V70.0266H59.353V42.6194H73.3845C76.6004 42.6194 79.3133 43.5087 81.5321 45.2874C84.0204 47.2816 85.26 49.7789 85.26 52.7792C85.26 55.7795 84.0204 58.3127 81.5321 60.307C79.3133 62.0856 76.5825 62.9749 73.3486 62.9749H71.2645ZM73.3486 58.0432C75.3428 58.0432 76.9687 57.5492 78.2264 56.5611C79.484 55.5729 80.1038 54.3242 80.1038 52.8151C80.1038 51.306 79.484 50.0214 78.2443 49.0333C77.0047 48.0452 75.3787 47.5511 73.3845 47.5511H71.2645V58.0342H73.3486V58.0432Z" fill="#E7EEAF"/>
<path id="Vector_11" d="M123.079 70.0266H110.439L108.796 65.8944H98.4202L96.8122 70.0266H91.4763L102.256 42.6194H112.236L123.088 70.0266H123.079ZM106.999 61.3669L103.603 52.7433L100.208 61.3669H107.008H106.999Z" fill="#E7EEAF"/>
<path id="Vector_12" d="M133.274 62.4988C135.781 64.7625 138.404 65.8944 141.134 65.8944C142.599 65.8944 143.937 65.6518 145.15 65.1667L135.763 59.3907C132.403 57.3246 130.723 54.6746 130.723 51.4587C130.723 48.8087 131.909 46.545 134.289 44.6855C136.661 42.817 139.625 41.8918 143.183 41.8918C146.372 41.8918 149.48 42.853 152.498 44.7753L149.614 48.7638C147.836 47.4702 145.707 46.8234 143.218 46.8234C142.069 46.8234 140.991 46.9852 139.967 47.2996L149.174 52.9678C152.534 55.0339 154.214 57.7108 154.214 60.9717C154.214 63.7205 152.965 66.0561 150.468 67.9515C147.97 69.8559 144.88 70.7991 141.206 70.7991C136.724 70.7991 133.014 69.3259 130.058 66.3795L133.274 62.5078V62.4988Z" fill="#E7EEAF"/>
<path id="Vector_13" d="M192.903 70.0266H180.255L178.611 65.8944H168.236L166.628 70.0266H161.292L172.072 42.6194H182.052L192.903 70.0266ZM176.824 61.3669L173.428 52.7433L170.033 61.3669H176.833H176.824Z" fill="#E7EEAF"/>
<path id="Vector_14" d="M229.222 67.691L224.73 70.871L216.214 58.9954L213.403 62.8671V70.0266H201.491V42.6194H213.403V54.3512L222.359 42.6194H228.494L219.619 54.3871L229.231 67.691H229.222Z" fill="#E7EEAF"/>
<path id="Vector_15" d="M266.528 70.0266H253.889L252.245 65.8944H241.87L240.262 70.0266H234.926L245.706 42.6194H255.686L266.537 70.0266H266.528ZM250.449 61.3669L247.053 52.7433L243.658 61.3669H250.458H250.449Z" fill="#E7EEAF"/>
<g id="A">
<path id="Vector_16" d="M151.501 0.749573H135.96V4.59427H151.501V0.749573Z" fill="#E7EEAF"/>
<path id="Vector_17" d="M150.279 7.15446H137.954L128.351 31.5613H133.687L135.295 27.4381H145.671L147.314 31.5613H159.954L150.288 7.15446H150.279ZM137.083 22.9107L140.478 14.296L143.874 22.9107H137.083Z" fill="#E7EEAF"/>
</g>
</g>
</svg>
