<svg width="924" height="203" viewBox="0 0 924 203" fill="none" xmlns="http://www.w3.org/2000/svg">
<g id="Section_2_2">
<path id="Vector" d="M924 119H112V70H924" fill="#BD111F"/>
<path id="Vector_2" d="M924 203H112V154H924" fill="#BD111F"/>
<path id="Vector_3" d="M924 98H112V91H924" fill="white"/>
<path id="Vector_4" d="M924 112H112V105H924" fill="white"/>
<path id="Vector_5" d="M924 182H112V175H924" fill="white"/>
<path id="Vector_6" d="M924 189H112V196H924" fill="white"/>
<path id="Vector_7" d="M70 196H111.5V161H70V196Z" fill="white"/>
<path id="Vector_8" d="M70 147H14V203H70V147Z" fill="#738928"/>
<path id="Vector_9" d="M49 140H14V147H49V140Z" fill="#738928"/>
<path id="Vector_10" d="M42 133H14V140H42V133Z" fill="#738928"/>
<path id="Vector_11" d="M35 105H14V133H35V105Z" fill="#738928"/>
<path id="Vector_12" d="M28 98H14V105H28V98Z" fill="#738928"/>
<g id="Group">
<path id="Vector_13" d="M21 168H14V175H21V168Z" fill="#CDD496"/>
<path id="Vector_14" d="M28 161H21V168H28V161Z" fill="#CDD496"/>
<path id="Vector_15" d="M35 154H28V161H35V154Z" fill="#CDD496"/>
<path id="Vector_16" d="M42 147H35V154H42V147Z" fill="#CDD496"/>
</g>
<g id="Group_2">
<path id="Vector_17" d="M21 147H14V154H21V147Z" fill="#CDD496"/>
<path id="Vector_18" d="M28 140H21V147H28V140Z" fill="#CDD496"/>
<path id="Vector_19" d="M35 133H28V140H35V133Z" fill="#CDD496"/>
</g>
<path id="Vector_20" d="M42 126H35V133H42V126Z" fill="white"/>
<path id="Vector_21" d="M49 133H42V140H49V133Z" fill="white"/>
<path id="Vector_22" d="M56 140H49V147H56V140Z" fill="white"/>
<path id="Vector_23" d="M14 98H7V203H14V98Z" fill="white"/>
<path id="Vector_24" d="M7 105H0V112H7V105Z" fill="#738928"/>
<path id="Vector_25" d="M7 119H0V126H7V119Z" fill="#738928"/>
<path id="Vector_26" d="M7 133H0V140H7V133Z" fill="#738928"/>
<path id="Vector_27" d="M7 147H0V154H7V147Z" fill="#738928"/>
<path id="Vector_28" d="M7 161H0V168H7V161Z" fill="#738928"/>
<path id="Vector_29" d="M7 175H0V182H7V175Z" fill="#738928"/>
<path id="Vector_30" d="M7 189H0V196H7V189Z" fill="#738928"/>
<path id="Vector_31" d="M105 112H112V77H105V112Z" fill="white"/>
<path id="Vector_32" d="M105 63H49V119H105V63Z" fill="#738928"/>
<path id="Vector_33" d="M84 56H49V63H84V56Z" fill="#738928"/>
<path id="Vector_34" d="M77 49H49V56H77V49Z" fill="#738928"/>
<path id="Vector_35" d="M70 21H49V49H70V21Z" fill="#738928"/>
<path id="Vector_36" d="M63 14H49V21H63V14Z" fill="#738928"/>
<g id="Group_3">
<path id="Vector_37" d="M56 84H49V91H56V84Z" fill="#CDD496"/>
<path id="Vector_38" d="M63 77H56V84H63V77Z" fill="#CDD496"/>
<path id="Vector_39" d="M70 70H63V77H70V70Z" fill="#CDD496"/>
<path id="Vector_40" d="M77 63H70V70H77V63Z" fill="#CDD496"/>
</g>
<g id="Group_4">
<path id="Vector_41" d="M56 63H49V70H56V63Z" fill="#CDD496"/>
<path id="Vector_42" d="M63 56H56V63H63V56Z" fill="#CDD496"/>
<path id="Vector_43" d="M70 49H63V56H70V49Z" fill="#CDD496"/>
</g>
<path id="Vector_44" d="M77 42H70V49H77V42Z" fill="white"/>
<path id="Vector_45" d="M84 49H77V56H84V49Z" fill="white"/>
<path id="Vector_46" d="M91 56H84V63H91V56Z" fill="white"/>
<path id="Vector_47" d="M49 14H42V119H49V14Z" fill="white"/>
<path id="Vector_48" d="M42 21H35V28H42V21Z" fill="#738928"/>
<path id="Vector_49" d="M42 35H35V42H42V35Z" fill="#738928"/>
<path id="Vector_50" d="M42 49H35V56H42V49Z" fill="#738928"/>
<path id="Vector_51" d="M42 63H35V70H42V63Z" fill="#738928"/>
<path id="Vector_52" d="M42 77H35V84H42V77Z" fill="#738928"/>
<path id="Vector_53" d="M42 91H35V98H42V91Z" fill="#738928"/>
<path id="Vector_54" d="M42 105H35V112H42V105Z" fill="#738928"/>
<path id="Vector_55" d="M924 0H126V14H924" fill="#BD111F"/>
<g id="Group_5">
<path id="Vector_56" d="M126 0H63V14H126V0Z" fill="#F8C4B6"/>
<path id="Vector_57" d="M63 7H42V14H63V7Z" fill="#F8C4B6"/>
<path id="Vector_58" d="M42 14H35V21H42V14Z" fill="#F8C4B6"/>
</g>
</g>
</svg>
