<svg width="616" height="234" viewBox="0 0 616 234" fill="none" xmlns="http://www.w3.org/2000/svg">
<g id="Section_2_mobile" clip-path="url(#clip0_404_2)">
<g id="Section_2">
<g id="Section_2_1" clip-path="url(#clip1_404_2)">
<g id="Group">
<path id="Vector" d="M214.889 151.875H-281.029V182.25H214.889V151.875Z" fill="#BD111F"/>
<path id="Vector_2" d="M214.889 203.946H-281.029V234.321H214.889V203.946Z" fill="#BD111F"/>
<path id="Vector_3" d="M214.889 164.893H-281.029V169.232H214.889V164.893Z" fill="white"/>
<path id="Vector_4" d="M214.889 173.571H-281.029V177.911H214.889V173.571Z" fill="white"/>
<path id="Vector_5" d="M214.889 216.964H-281.029V221.304H214.889V216.964Z" fill="white"/>
<path id="Vector_6" d="M214.889 225.643H-281.029V229.982H214.889V225.643Z" fill="white"/>
<path id="Vector_7" d="M284.318 108.482H214.889V234.321H284.318V108.482Z" fill="#BD111F"/>
<g id="Group_2">
<path id="Vector_8" d="M236.586 21.6964H149.8V108.482H236.586V21.6964Z" fill="#F8C4B6"/>
<path id="Vector_9" d="M154.139 73.7678H136.782V91.125H154.139V73.7678Z" fill="#F8C4B6"/>
<path id="Vector_10" d="M253.943 73.7678H236.585V91.125H253.943V73.7678Z" fill="#F8C4B6"/>
</g>
<path id="Vector_11" d="M262.621 108.482H-281.029V117.161H262.621V108.482Z" fill="#BD111F"/>
<path id="Vector_12" d="M279.978 104.143H236.585V108.482H279.978V104.143Z" fill="#BD111F"/>
<path id="Vector_13" d="M275.639 99.8035H236.585V104.143H275.639V99.8035Z" fill="#BD111F"/>
<path id="Vector_14" d="M271.3 95.4643H236.585V99.8036H271.3V95.4643Z" fill="#BD111F"/>
<path id="Vector_15" d="M266.96 91.125H236.585V95.4643H266.96V91.125Z" fill="#BD111F"/>
<path id="Vector_16" d="M219.228 99.8035H167.157V104.143H219.228V99.8035Z" fill="white"/>
<path id="Vector_17" d="M162.818 86.7857H158.479V91.125H162.818V86.7857Z" fill="#738928"/>
<path id="Vector_18" d="M227.907 86.7857H223.568V91.125H227.907V86.7857Z" fill="#738928"/>
<g id="Group_3">
<path id="Vector_19" d="M262.621 225.643H249.604V238.661H262.621V225.643Z" fill="#738928"/>
<path id="Vector_20" d="M275.639 212.625H262.621V225.643H275.639V212.625Z" fill="#738928"/>
<path id="Vector_21" d="M288.657 225.643H275.639V238.661H288.657V225.643Z" fill="#738928"/>
<path id="Vector_22" d="M262.621 199.607H249.604V212.625H262.621V199.607Z" fill="#738928"/>
<path id="Vector_23" d="M288.657 199.607H275.639V212.625H288.657V199.607Z" fill="#738928"/>
<path id="Vector_24" d="M262.621 212.625H249.604V225.643H262.621V212.625Z" fill="white"/>
<path id="Vector_25" d="M288.657 212.625H275.639V225.643H288.657V212.625Z" fill="white"/>
<path id="Vector_26" d="M275.639 199.607H262.621V212.625H275.639V199.607Z" fill="white"/>
<path id="Vector_27" d="M275.639 225.643H262.621V238.661H275.639V225.643Z" fill="white"/>
<path id="Vector_28" d="M249.603 212.625H245.264V225.643H249.603V212.625Z" fill="#738928"/>
<path id="Vector_29" d="M292.997 212.625H288.657V225.643H292.997V212.625Z" fill="#738928"/>
<path id="Vector_30" d="M262.621 195.268V199.607H275.639V195.268H262.621Z" fill="#738928"/>
</g>
</g>
</g>
<g id="Section_2_2" clip-path="url(#clip2_404_2)">
<path id="Vector_31" d="M942.03 182.25H438.672V151.875H942.03" fill="#BD111F"/>
<path id="Vector_32" d="M942.03 234.321H438.672V203.946H942.03" fill="#BD111F"/>
<path id="Vector_33" d="M942.03 169.232H438.672V164.893H942.03" fill="white"/>
<path id="Vector_34" d="M942.03 177.911H438.672V173.571H942.03" fill="white"/>
<path id="Vector_35" d="M942.03 221.304H438.672V216.964H942.03" fill="white"/>
<path id="Vector_36" d="M942.03 225.643H438.672V229.982H942.03" fill="white"/>
<path id="Vector_37" d="M412.637 229.982H438.362V208.286H412.637V229.982Z" fill="white"/>
<path id="Vector_38" d="M412.637 199.607H377.922V234.321H412.637V199.607Z" fill="#738928"/>
<path id="Vector_39" d="M399.619 195.268H377.922V199.607H399.619V195.268Z" fill="#738928"/>
<path id="Vector_40" d="M395.28 190.929H377.922V195.268H395.28V190.929Z" fill="#738928"/>
<path id="Vector_41" d="M390.94 173.571H377.922V190.929H390.94V173.571Z" fill="#738928"/>
<path id="Vector_42" d="M386.601 169.232H377.922V173.571H386.601V169.232Z" fill="#738928"/>
<g id="Group_4">
<path id="Vector_43" d="M382.262 212.625H377.922V216.964H382.262V212.625Z" fill="#CDD496"/>
<path id="Vector_44" d="M386.601 208.286H382.262V212.625H386.601V208.286Z" fill="#CDD496"/>
<path id="Vector_45" d="M390.94 203.946H386.601V208.286H390.94V203.946Z" fill="#CDD496"/>
<path id="Vector_46" d="M395.28 199.607H390.94V203.946H395.28V199.607Z" fill="#CDD496"/>
</g>
<g id="Group_5">
<path id="Vector_47" d="M382.262 199.607H377.922V203.946H382.262V199.607Z" fill="#CDD496"/>
<path id="Vector_48" d="M386.601 195.268H382.262V199.607H386.601V195.268Z" fill="#CDD496"/>
<path id="Vector_49" d="M390.94 190.929H386.601V195.268H390.94V190.929Z" fill="#CDD496"/>
</g>
<path id="Vector_50" d="M395.279 186.589H390.94V190.929H395.279V186.589Z" fill="white"/>
<path id="Vector_51" d="M399.619 190.929H395.279V195.268H399.619V190.929Z" fill="white"/>
<path id="Vector_52" d="M403.958 195.268H399.619V199.607H403.958V195.268Z" fill="white"/>
<path id="Vector_53" d="M377.922 169.232H373.583V234.321H377.922V169.232Z" fill="white"/>
<path id="Vector_54" d="M373.583 173.571H369.244V177.911H373.583V173.571Z" fill="#738928"/>
<path id="Vector_55" d="M373.583 182.25H369.244V186.589H373.583V182.25Z" fill="#738928"/>
<path id="Vector_56" d="M373.583 190.929H369.244V195.268H373.583V190.929Z" fill="#738928"/>
<path id="Vector_57" d="M373.583 199.607H369.244V203.946H373.583V199.607Z" fill="#738928"/>
<path id="Vector_58" d="M373.583 208.286H369.244V212.625H373.583V208.286Z" fill="#738928"/>
<path id="Vector_59" d="M373.583 216.964H369.244V221.304H373.583V216.964Z" fill="#738928"/>
<path id="Vector_60" d="M373.583 225.643H369.244V229.982H373.583V225.643Z" fill="#738928"/>
<path id="Vector_61" d="M434.333 177.911H438.672V156.214H434.333V177.911Z" fill="white"/>
<path id="Vector_62" d="M434.333 147.536H399.619V182.25H434.333V147.536Z" fill="#738928"/>
<path id="Vector_63" d="M421.315 143.196H399.619V147.536H421.315V143.196Z" fill="#738928"/>
<path id="Vector_64" d="M416.976 138.857H399.619V143.196H416.976V138.857Z" fill="#738928"/>
<path id="Vector_65" d="M412.637 121.5H399.619V138.857H412.637V121.5Z" fill="#738928"/>
<path id="Vector_66" d="M408.297 117.161H399.619V121.5H408.297V117.161Z" fill="#738928"/>
<g id="Group_6">
<path id="Vector_67" d="M403.958 160.554H399.619V164.893H403.958V160.554Z" fill="#CDD496"/>
<path id="Vector_68" d="M408.297 156.214H403.958V160.554H408.297V156.214Z" fill="#CDD496"/>
<path id="Vector_69" d="M412.637 151.875H408.297V156.214H412.637V151.875Z" fill="#CDD496"/>
<path id="Vector_70" d="M416.976 147.536H412.637V151.875H416.976V147.536Z" fill="#CDD496"/>
</g>
<g id="Group_7">
<path id="Vector_71" d="M403.958 147.536H399.619V151.875H403.958V147.536Z" fill="#CDD496"/>
<path id="Vector_72" d="M408.297 143.196H403.958V147.536H408.297V143.196Z" fill="#CDD496"/>
<path id="Vector_73" d="M412.637 138.857H408.297V143.196H412.637V138.857Z" fill="#CDD496"/>
</g>
<path id="Vector_74" d="M416.976 134.518H412.637V138.857H416.976V134.518Z" fill="white"/>
<path id="Vector_75" d="M421.315 138.857H416.976V143.196H421.315V138.857Z" fill="white"/>
<path id="Vector_76" d="M425.654 143.196H421.315V147.536H425.654V143.196Z" fill="white"/>
<path id="Vector_77" d="M399.619 117.161H395.279V182.25H399.619V117.161Z" fill="white"/>
<path id="Vector_78" d="M395.279 121.5H390.94V125.839H395.279V121.5Z" fill="#738928"/>
<path id="Vector_79" d="M395.279 130.179H390.94V134.518H395.279V130.179Z" fill="#738928"/>
<path id="Vector_80" d="M395.279 138.857H390.94V143.196H395.279V138.857Z" fill="#738928"/>
<path id="Vector_81" d="M395.279 147.536H390.94V151.875H395.279V147.536Z" fill="#738928"/>
<path id="Vector_82" d="M395.279 156.214H390.94V160.554H395.279V156.214Z" fill="#738928"/>
<path id="Vector_83" d="M395.279 164.893H390.94V169.232H395.279V164.893Z" fill="#738928"/>
<path id="Vector_84" d="M395.279 173.571H390.94V177.911H395.279V173.571Z" fill="#738928"/>
<path id="Vector_85" d="M942.029 108.482H447.351V117.161H942.029" fill="#BD111F"/>
<g id="Group_8">
<path id="Vector_86" d="M447.35 108.482H408.297V117.161H447.35V108.482Z" fill="#F8C4B6"/>
<path id="Vector_87" d="M408.297 112.821H395.279V117.161H408.297V112.821Z" fill="#F8C4B6"/>
<path id="Vector_88" d="M395.279 117.161H390.94V121.5H395.279V117.161Z" fill="#F8C4B6"/>
</g>
</g>
</g>
<g id="Group_9">
<path id="Vector_89" d="M219.228 34.7143H236.585V21.6964H219.228V34.7143Z" fill="#BD111F"/>
<path id="Vector_90" d="M158.478 21.6964L227.907 21.6964V8.67855L158.478 8.67855V21.6964Z" fill="#BD111F"/>
<path id="Vector_91" d="M227.907 65.0893H240.925V34.7143H227.907V65.0893Z" fill="#BD111F"/>
<path id="Vector_92" d="M236.586 73.7679H240.925V65.0893H236.586V73.7679Z" fill="#BD111F"/>
<path id="Vector_93" d="M167.157 21.6964H149.8V34.7143H167.157V21.6964Z" fill="#BD111F"/>
<path id="Vector_94" d="M158.478 34.7143H145.46V65.0893H158.478V34.7143Z" fill="#BD111F"/>
<path id="Vector_95" d="M149.8 65.0893H145.46V73.7679H149.8V65.0893Z" fill="#BD111F"/>
<path id="Vector_96" d="M223.567 26.0357L258.282 26.0357V-9.53674e-06L223.567 -9.53674e-06V26.0357Z" fill="#BD111F"/>
<path id="Vector_97" d="M249.603 26.0357L266.96 26.0357V4.33928L249.603 4.33928V26.0357Z" fill="#BD111F"/>
<path id="Vector_98" d="M253.943 47.7321H266.96V26.0357H253.943V47.7321Z" fill="#BD111F"/>
<path id="Vector_99" d="M258.282 56.4107H266.96V43.3928H258.282V56.4107Z" fill="#BD111F"/>
<path id="Vector_100" d="M258.282 43.3929H271.3V13.0179H258.282V43.3929Z" fill="#BD111F"/>
</g>
</g>
<defs>
<clipPath id="clip0_404_2">
<rect width="616" height="234" fill="white"/>
</clipPath>
<clipPath id="clip1_404_2">
<rect width="574.026" height="243" fill="white" transform="translate(-281.029)"/>
</clipPath>
<clipPath id="clip2_404_2">
<rect width="572.786" height="125.839" fill="white" transform="translate(369.244 108.482)"/>
</clipPath>
</defs>
</svg>
