<svg width="509" height="461" viewBox="0 0 509 461" fill="none" xmlns="http://www.w3.org/2000/svg">
<g id="Section7">
<path id="Vector" d="M422 293H86V300H422V293Z" fill="white"/>
<path id="Vector_2" d="M422 307H86V314H422V307Z" fill="white"/>
<path id="Vector_3" d="M422 363H86V370H422V363Z" fill="white"/>
<path id="Vector_4" d="M422 349H86V356H422V349Z" fill="white"/>
<path id="Vector_5" d="M422 335H86V342H422V335Z" fill="white"/>
<path id="Vector_6" d="M422 321H86V328H422V321Z" fill="white"/>
<path id="Vector_7" d="M345 377H163V384H345V377Z" fill="white"/>
<path id="Vector_8" d="M345 447H163V454H345V447Z" fill="white"/>
<path id="Vector_9" d="M345 433H163V440H345V433Z" fill="white"/>
<path id="Vector_10" d="M345 419H163V426H345V419Z" fill="white"/>
<path id="Vector_11" d="M345 405H163V412H345V405Z" fill="white"/>
<path id="Vector_12" d="M345 391H163V398H345V391Z" fill="white"/>
<path id="Vector_13" d="M324 384H184V461H324V384Z" fill="#738928"/>
<path id="Vector_14" d="M352 384H156V391H352V384Z" fill="#738928"/>
<path id="Vector_15" d="M310 328H198V384H310V328Z" fill="#738928"/>
<path id="Vector_16" d="M205 286H198V328H205V286Z" fill="#738928"/>
<path id="Vector_17" d="M310 286H303V328H310V286Z" fill="#738928"/>
<path id="Vector_18" d="M310 202H198V272H310V202Z" fill="white"/>
<path id="Vector_19" d="M317 195H191V265H317V195Z" fill="white"/>
<path id="Vector_20" d="M331 167H177V195H331V167Z" fill="white"/>
<g id="Group">
<path id="Vector_21" d="M289 265H219V300H289V265Z" fill="#F8C4B6"/>
<path id="Vector_22" d="M303 265H205V279H303V265Z" fill="#F8C4B6"/>
</g>
<path id="Vector_23" d="M261 286H247V293H261V286Z" fill="#40500E"/>
<g id="Group_2">
<path id="Vector_24" d="M86 300H58V335H86V300Z" fill="#F8C4B6"/>
<path id="Vector_25" d="M79 279H72V328H79V279Z" fill="#F8C4B6"/>
<path id="Vector_26" d="M79 293H37V300H79V293Z" fill="#F8C4B6"/>
<path id="Vector_27" d="M72 307H30V314H72V307Z" fill="#F8C4B6"/>
<path id="Vector_28" d="M79 321H37V328H79V321Z" fill="#F8C4B6"/>
<path id="Vector_29" d="M79 335H44V342H79V335Z" fill="#F8C4B6"/>
<path id="Vector_30" d="M422 335H450V300H422V335Z" fill="#F8C4B6"/>
<path id="Vector_31" d="M429 328H436V279H429V328Z" fill="#F8C4B6"/>
<path id="Vector_32" d="M429 300H471V293H429V300Z" fill="#F8C4B6"/>
<path id="Vector_33" d="M436 314H478V307H436V314Z" fill="#F8C4B6"/>
<path id="Vector_34" d="M429 328H471V321H429V328Z" fill="#F8C4B6"/>
<path id="Vector_35" d="M429 342H464V335H429V342Z" fill="#F8C4B6"/>
</g>
<path id="Vector_36" d="M233 265H226V272H233V265Z" fill="#738928"/>
<path id="Vector_37" d="M282 265H275V272H282V265Z" fill="#738928"/>
<g id="Bread_3">
<path id="Vector_38" d="M72 209H86V202H72V209Z" fill="#CDD496"/>
<path id="Vector_39" d="M86 216H93V209H86V216Z" fill="#CDD496"/>
<path id="Vector_40" d="M93 237H100V216H93V237Z" fill="#CDD496"/>
<path id="Vector_41" d="M86 244H93V237H86V244Z" fill="#CDD496"/>
<path id="Vector_42" d="M72 251H86V244H72V251Z" fill="#CDD496"/>
<path id="Vector_43" d="M51 251H72V244H51V251Z" fill="#CDD496"/>
<path id="Vector_44" d="M65 216H72V209H65V216Z" fill="#CDD496"/>
<path id="Vector_45" d="M51 202H37V209H51V202Z" fill="#CDD496"/>
<path id="Vector_46" d="M37 209H30V216H37V209Z" fill="#CDD496"/>
<path id="Vector_47" d="M30 216H23V237H30V216Z" fill="#CDD496"/>
<path id="Vector_48" d="M37 237H30V244H37V237Z" fill="#CDD496"/>
<path id="Vector_49" d="M51 244H37V251H51V244Z" fill="#CDD496"/>
<path id="Vector_50" d="M58 209H51V216H58V209Z" fill="#CDD496"/>
<path id="Vector_51" d="M65 237H72V230H65V237Z" fill="#CDD496"/>
<path id="Vector_52" d="M58 230H51V237H58V230Z" fill="#CDD496"/>
<path id="Vector_53" d="M65 237H58V244H65V237Z" fill="#CDD496"/>
<path id="Vector_54" d="M65 216H58V230H65V216Z" fill="#CDD496"/>
</g>
<g id="Bread_4">
<path id="Vector_55" d="M471 230V244H478V230H471Z" fill="#CDD496"/>
<path id="Vector_56" d="M464 244V251H471V244H464Z" fill="#CDD496"/>
<path id="Vector_57" d="M443 251V258H464V251H443Z" fill="#CDD496"/>
<path id="Vector_58" d="M436 244V251H443V244H436Z" fill="#CDD496"/>
<path id="Vector_59" d="M429 230V244H436V230H429Z" fill="#CDD496"/>
<path id="Vector_60" d="M429 209V230H436V209H429Z" fill="#CDD496"/>
<path id="Vector_61" d="M464 223V230H471V223H464Z" fill="#CDD496"/>
<path id="Vector_62" d="M478 209V195H471V209H478Z" fill="#CDD496"/>
<path id="Vector_63" d="M471 195V188H464V195H471Z" fill="#CDD496"/>
<path id="Vector_64" d="M464 188V181H443V188H464Z" fill="#CDD496"/>
<path id="Vector_65" d="M443 195V188H436V195H443Z" fill="#CDD496"/>
<path id="Vector_66" d="M436 209V195H429V209H436Z" fill="#CDD496"/>
<path id="Vector_67" d="M471 216V209H464V216H471Z" fill="#CDD496"/>
<path id="Vector_68" d="M443 223V230H450V223H443Z" fill="#CDD496"/>
<path id="Vector_69" d="M450 216V209H443V216H450Z" fill="#CDD496"/>
<path id="Vector_70" d="M443 223V216H436V223H443Z" fill="#CDD496"/>
<path id="Vector_71" d="M464 223V216H450V223H464Z" fill="#CDD496"/>
</g>
<g id="Bread_5">
<path id="Vector_72" d="M415 111H429V104H415V111Z" fill="#CDD496"/>
<path id="Vector_73" d="M429 118H436V111H429V118Z" fill="#CDD496"/>
<path id="Vector_74" d="M436 139H443V118H436V139Z" fill="#CDD496"/>
<path id="Vector_75" d="M429 146H436V139H429V146Z" fill="#CDD496"/>
<path id="Vector_76" d="M415 153H429V146H415V153Z" fill="#CDD496"/>
<path id="Vector_77" d="M394 153H415V146H394V153Z" fill="#CDD496"/>
<path id="Vector_78" d="M408 118H415V111H408V118Z" fill="#CDD496"/>
<path id="Vector_79" d="M394 104H380V111H394V104Z" fill="#CDD496"/>
<path id="Vector_80" d="M380 111H373V118H380V111Z" fill="#CDD496"/>
<path id="Vector_81" d="M373 118H366V139H373V118Z" fill="#CDD496"/>
<path id="Vector_82" d="M380 139H373V146H380V139Z" fill="#CDD496"/>
<path id="Vector_83" d="M394 146H380V153H394V146Z" fill="#CDD496"/>
<path id="Vector_84" d="M401 111H394V118H401V111Z" fill="#CDD496"/>
<path id="Vector_85" d="M408 139H415V132H408V139Z" fill="#CDD496"/>
<path id="Vector_86" d="M401 132H394V139H401V132Z" fill="#CDD496"/>
<path id="Vector_87" d="M408 139H401V146H408V139Z" fill="#CDD496"/>
<path id="Vector_88" d="M408 118H401V132H408V118Z" fill="#CDD496"/>
</g>
<g id="Bread_6">
<path id="Vector_89" d="M107 132V146H114V132H107Z" fill="#CDD496"/>
<path id="Vector_90" d="M100 146V153H107V146H100Z" fill="#CDD496"/>
<path id="Vector_91" d="M79 153V160H100V153H79Z" fill="#CDD496"/>
<path id="Vector_92" d="M72 146V153H79V146H72Z" fill="#CDD496"/>
<path id="Vector_93" d="M65 132V146H72V132H65Z" fill="#CDD496"/>
<path id="Vector_94" d="M65 111V132H72V111H65Z" fill="#CDD496"/>
<path id="Vector_95" d="M100 125V132H107V125H100Z" fill="#CDD496"/>
<path id="Vector_96" d="M114 111V97H107V111H114Z" fill="#CDD496"/>
<path id="Vector_97" d="M107 97V90H100V97H107Z" fill="#CDD496"/>
<path id="Vector_98" d="M100 90V83H79V90H100Z" fill="#CDD496"/>
<path id="Vector_99" d="M79 97V90H72V97H79Z" fill="#CDD496"/>
<path id="Vector_100" d="M72 111V97H65V111H72Z" fill="#CDD496"/>
<path id="Vector_101" d="M107 118V111H100V118H107Z" fill="#CDD496"/>
<path id="Vector_102" d="M79 125V132H86V125H79Z" fill="#CDD496"/>
<path id="Vector_103" d="M86 118V111H79V118H86Z" fill="#CDD496"/>
<path id="Vector_104" d="M79 125V118H72V125H79Z" fill="#CDD496"/>
<path id="Vector_105" d="M100 125V118H86V125H100Z" fill="#CDD496"/>
</g>
<g id="Bread_7">
<path id="Vector_106" d="M289 69V83H296V69H289Z" fill="#CDD496"/>
<path id="Vector_107" d="M296 83V90H303V83H296Z" fill="#CDD496"/>
<path id="Vector_108" d="M303 90V97H324V90H303Z" fill="#CDD496"/>
<path id="Vector_109" d="M324 83V90H331V83H324Z" fill="#CDD496"/>
<path id="Vector_110" d="M331 69V83H338V69H331Z" fill="#CDD496"/>
<path id="Vector_111" d="M331 48V69H338V48H331Z" fill="#CDD496"/>
<path id="Vector_112" d="M296 62V69H303V62H296Z" fill="#CDD496"/>
<path id="Vector_113" d="M296 48V34H289V48H296Z" fill="#CDD496"/>
<path id="Vector_114" d="M303 34V27H296V34H303Z" fill="#CDD496"/>
<path id="Vector_115" d="M324 27V20H303V27H324Z" fill="#CDD496"/>
<path id="Vector_116" d="M331 34V27H324V34H331Z" fill="#CDD496"/>
<path id="Vector_117" d="M338 48V34H331V48H338Z" fill="#CDD496"/>
<path id="Vector_118" d="M303 55V48H296V55H303Z" fill="#CDD496"/>
<path id="Vector_119" d="M317 62V69H324V62H317Z" fill="#CDD496"/>
<path id="Vector_120" d="M324 55V48H317V55H324Z" fill="#CDD496"/>
<path id="Vector_121" d="M331 62V55H324V62H331Z" fill="#CDD496"/>
<path id="Vector_122" d="M317 62V55H303V62H317Z" fill="#CDD496"/>
</g>
<g id="Bread_8">
<path id="Vector_123" d="M198 83H212V76H198V83Z" fill="#CDD496"/>
<path id="Vector_124" d="M212 76H219V69H212V76Z" fill="#CDD496"/>
<path id="Vector_125" d="M219 69H226V48H219V69Z" fill="#CDD496"/>
<path id="Vector_126" d="M212 48H219V41H212V48Z" fill="#CDD496"/>
<path id="Vector_127" d="M198 41H212V34H198V41Z" fill="#CDD496"/>
<path id="Vector_128" d="M177 41H198V34H177V41Z" fill="#CDD496"/>
<path id="Vector_129" d="M191 76H198V69H191V76Z" fill="#CDD496"/>
<path id="Vector_130" d="M177 76H163V83H177V76Z" fill="#CDD496"/>
<path id="Vector_131" d="M163 69H156V76H163V69Z" fill="#CDD496"/>
<path id="Vector_132" d="M156 48H149V69H156V48Z" fill="#CDD496"/>
<path id="Vector_133" d="M163 41H156V48H163V41Z" fill="#CDD496"/>
<path id="Vector_134" d="M177 34H163V41H177V34Z" fill="#CDD496"/>
<path id="Vector_135" d="M184 69H177V76H184V69Z" fill="#CDD496"/>
<path id="Vector_136" d="M191 55H198V48H191V55Z" fill="#CDD496"/>
<path id="Vector_137" d="M184 48H177V55H184V48Z" fill="#CDD496"/>
<path id="Vector_138" d="M191 41H184V48H191V41Z" fill="#CDD496"/>
<path id="Vector_139" d="M191 55H184V69H191V55Z" fill="#CDD496"/>
</g>
</g>
</svg>
