<svg width="1973" height="392" viewBox="0 0 1973 392" fill="none" xmlns="http://www.w3.org/2000/svg">
<g id="Section_2">
<g id="Section_2_1" clip-path="url(#clip0_233_3)">
<g id="Group">
<path id="Vector" d="M800 245H0V294H800V245Z" fill="#BD111F"/>
<path id="Vector_2" d="M800 329H0V378H800V329Z" fill="#BD111F"/>
<path id="Vector_3" d="M800 266H0V273H800V266Z" fill="white"/>
<path id="Vector_4" d="M800 280H0V287H800V280Z" fill="white"/>
<path id="Vector_5" d="M800 350H0V357H800V350Z" fill="white"/>
<path id="Vector_6" d="M800 364H0V371H800V364Z" fill="white"/>
<path id="Vector_7" d="M912 175H800V378H912V175Z" fill="#BD111F"/>
<g id="Group_2">
<path id="Vector_8" d="M835 35H695V175H835V35Z" fill="#F8C4B6"/>
<path id="Vector_9" d="M702 119H674V147H702V119Z" fill="#F8C4B6"/>
<path id="Vector_10" d="M863 119H835V147H863V119Z" fill="#F8C4B6"/>
</g>
<path id="Vector_11" d="M877 175H0V189H877V175Z" fill="#BD111F"/>
<path id="Vector_12" d="M905 168H835V175H905V168Z" fill="#BD111F"/>
<path id="Vector_13" d="M898 161H835V168H898V161Z" fill="#BD111F"/>
<path id="Vector_14" d="M891 154H835V161H891V154Z" fill="#BD111F"/>
<path id="Vector_15" d="M884 147H835V154H884V147Z" fill="#BD111F"/>
<path id="Vector_16" d="M807 161H723V168H807V161Z" fill="white"/>
<path id="Vector_17" d="M716 140H709V147H716V140Z" fill="#738928"/>
<path id="Vector_18" d="M821 140H814V147H821V140Z" fill="#738928"/>
<g id="Group_3">
<path id="Vector_19" d="M877 364H856V385H877V364Z" fill="#738928"/>
<path id="Vector_20" d="M898 343H877V364H898V343Z" fill="#738928"/>
<path id="Vector_21" d="M919 364H898V385H919V364Z" fill="#738928"/>
<path id="Vector_22" d="M877 322H856V343H877V322Z" fill="#738928"/>
<path id="Vector_23" d="M919 322H898V343H919V322Z" fill="#738928"/>
<path id="Vector_24" d="M877 343H856V364H877V343Z" fill="white"/>
<path id="Vector_25" d="M919 343H898V364H919V343Z" fill="white"/>
<path id="Vector_26" d="M898 322H877V343H898V322Z" fill="white"/>
<path id="Vector_27" d="M898 364H877V385H898V364Z" fill="white"/>
<path id="Vector_28" d="M856 343H849V364H856V343Z" fill="#738928"/>
<path id="Vector_29" d="M926 343H919V364H926V343Z" fill="#738928"/>
<path id="Vector_30" d="M877 385V392H898V385H877Z" fill="#738928"/>
<path id="Vector_31" d="M877 315V322H898V315H877Z" fill="#738928"/>
</g>
</g>
<g id="Group_4">
<path id="Vector_32" d="M807 56H835V35H807V56Z" fill="#BD111F"/>
<path id="Vector_33" d="M709 35L821 35V14L709 14V35Z" fill="#BD111F"/>
<path id="Vector_34" d="M821 105H842V56H821V105Z" fill="#BD111F"/>
<path id="Vector_35" d="M835 119H842V105H835V119Z" fill="#BD111F"/>
<path id="Vector_36" d="M723 35H695V56H723V35Z" fill="#BD111F"/>
<path id="Vector_37" d="M709 56H688V105H709V56Z" fill="#BD111F"/>
<path id="Vector_38" d="M695 105H688V119H695V105Z" fill="#BD111F"/>
<path id="Vector_39" d="M814 42L870 42V0L814 0V42Z" fill="#BD111F"/>
<path id="Vector_40" d="M856 42H884V7H856V42Z" fill="#BD111F"/>
<path id="Vector_41" d="M863 77H884V42H863V77Z" fill="#BD111F"/>
<path id="Vector_42" d="M870 91H884V70H870V91Z" fill="#BD111F"/>
<path id="Vector_43" d="M870 70H891V21H870V70Z" fill="#BD111F"/>
</g>
</g>
<g id="Section_2_2">
<path id="Vector_44" d="M1973 294H1161V245H1973" fill="#BD111F"/>
<path id="Vector_45" d="M1973 378H1161V329H1973" fill="#BD111F"/>
<path id="Vector_46" d="M1973 273H1161V266H1973" fill="white"/>
<path id="Vector_47" d="M1973 287H1161V280H1973" fill="white"/>
<path id="Vector_48" d="M1973 357H1161V350H1973" fill="white"/>
<path id="Vector_49" d="M1973 364H1161V371H1973" fill="white"/>
<path id="Vector_50" d="M1119 371H1160.5V336H1119V371Z" fill="white"/>
<path id="Vector_51" d="M1119 322H1063V378H1119V322Z" fill="#738928"/>
<path id="Vector_52" d="M1098 315H1063V322H1098V315Z" fill="#738928"/>
<path id="Vector_53" d="M1091 308H1063V315H1091V308Z" fill="#738928"/>
<path id="Vector_54" d="M1084 280H1063V308H1084V280Z" fill="#738928"/>
<path id="Vector_55" d="M1077 273H1063V280H1077V273Z" fill="#738928"/>
<g id="Group_5">
<path id="Vector_56" d="M1070 343H1063V350H1070V343Z" fill="#CDD496"/>
<path id="Vector_57" d="M1077 336H1070V343H1077V336Z" fill="#CDD496"/>
<path id="Vector_58" d="M1084 329H1077V336H1084V329Z" fill="#CDD496"/>
<path id="Vector_59" d="M1091 322H1084V329H1091V322Z" fill="#CDD496"/>
</g>
<g id="Group_6">
<path id="Vector_60" d="M1070 322H1063V329H1070V322Z" fill="#CDD496"/>
<path id="Vector_61" d="M1077 315H1070V322H1077V315Z" fill="#CDD496"/>
<path id="Vector_62" d="M1084 308H1077V315H1084V308Z" fill="#CDD496"/>
</g>
<path id="Vector_63" d="M1091 301H1084V308H1091V301Z" fill="white"/>
<path id="Vector_64" d="M1098 308H1091V315H1098V308Z" fill="white"/>
<path id="Vector_65" d="M1105 315H1098V322H1105V315Z" fill="white"/>
<path id="Vector_66" d="M1063 273H1056V378H1063V273Z" fill="white"/>
<path id="Vector_67" d="M1056 280H1049V287H1056V280Z" fill="#738928"/>
<path id="Vector_68" d="M1056 294H1049V301H1056V294Z" fill="#738928"/>
<path id="Vector_69" d="M1056 308H1049V315H1056V308Z" fill="#738928"/>
<path id="Vector_70" d="M1056 322H1049V329H1056V322Z" fill="#738928"/>
<path id="Vector_71" d="M1056 336H1049V343H1056V336Z" fill="#738928"/>
<path id="Vector_72" d="M1056 350H1049V357H1056V350Z" fill="#738928"/>
<path id="Vector_73" d="M1056 364H1049V371H1056V364Z" fill="#738928"/>
<path id="Vector_74" d="M1154 287H1161V252H1154V287Z" fill="white"/>
<path id="Vector_75" d="M1154 238H1098V294H1154V238Z" fill="#738928"/>
<path id="Vector_76" d="M1133 231H1098V238H1133V231Z" fill="#738928"/>
<path id="Vector_77" d="M1126 224H1098V231H1126V224Z" fill="#738928"/>
<path id="Vector_78" d="M1119 196H1098V224H1119V196Z" fill="#738928"/>
<path id="Vector_79" d="M1112 189H1098V196H1112V189Z" fill="#738928"/>
<g id="Group_7">
<path id="Vector_80" d="M1105 259H1098V266H1105V259Z" fill="#CDD496"/>
<path id="Vector_81" d="M1112 252H1105V259H1112V252Z" fill="#CDD496"/>
<path id="Vector_82" d="M1119 245H1112V252H1119V245Z" fill="#CDD496"/>
<path id="Vector_83" d="M1126 238H1119V245H1126V238Z" fill="#CDD496"/>
</g>
<g id="Group_8">
<path id="Vector_84" d="M1105 238H1098V245H1105V238Z" fill="#CDD496"/>
<path id="Vector_85" d="M1112 231H1105V238H1112V231Z" fill="#CDD496"/>
<path id="Vector_86" d="M1119 224H1112V231H1119V224Z" fill="#CDD496"/>
</g>
<path id="Vector_87" d="M1126 217H1119V224H1126V217Z" fill="white"/>
<path id="Vector_88" d="M1133 224H1126V231H1133V224Z" fill="white"/>
<path id="Vector_89" d="M1140 231H1133V238H1140V231Z" fill="white"/>
<path id="Vector_90" d="M1098 189H1091V294H1098V189Z" fill="white"/>
<path id="Vector_91" d="M1091 196H1084V203H1091V196Z" fill="#738928"/>
<path id="Vector_92" d="M1091 210H1084V217H1091V210Z" fill="#738928"/>
<path id="Vector_93" d="M1091 224H1084V231H1091V224Z" fill="#738928"/>
<path id="Vector_94" d="M1091 238H1084V245H1091V238Z" fill="#738928"/>
<path id="Vector_95" d="M1091 252H1084V259H1091V252Z" fill="#738928"/>
<path id="Vector_96" d="M1091 266H1084V273H1091V266Z" fill="#738928"/>
<path id="Vector_97" d="M1091 280H1084V287H1091V280Z" fill="#738928"/>
<path id="Vector_98" d="M1973 175H1175V189H1973" fill="#BD111F"/>
<g id="Group_9">
<path id="Vector_99" d="M1175 175H1112V189H1175V175Z" fill="#F8C4B6"/>
<path id="Vector_100" d="M1112 182H1091V189H1112V182Z" fill="#F8C4B6"/>
<path id="Vector_101" d="M1091 189H1084V196H1091V189Z" fill="#F8C4B6"/>
</g>
</g>
</g>
<defs>
<clipPath id="clip0_233_3">
<rect width="926" height="392" fill="white"/>
</clipPath>
</defs>
</svg>
