<svg width="455" height="441" viewBox="0 0 455 441" fill="none" xmlns="http://www.w3.org/2000/svg">
<g id="Section7">
<path id="Vector" d="M399 273H63V280H399V273Z" fill="white"/>
<path id="Vector_2" d="M399 287H63V294H399V287Z" fill="white"/>
<path id="Vector_3" d="M399 343H63V350H399V343Z" fill="white"/>
<path id="Vector_4" d="M399 329H63V336H399V329Z" fill="white"/>
<path id="Vector_5" d="M399 315H63V322H399V315Z" fill="white"/>
<path id="Vector_6" d="M399 301H63V308H399V301Z" fill="white"/>
<path id="Vector_7" d="M322 357H140V364H322V357Z" fill="white"/>
<path id="Vector_8" d="M322 427H140V434H322V427Z" fill="white"/>
<path id="Vector_9" d="M322 413H140V420H322V413Z" fill="white"/>
<path id="Vector_10" d="M322 399H140V406H322V399Z" fill="white"/>
<path id="Vector_11" d="M322 385H140V392H322V385Z" fill="white"/>
<path id="Vector_12" d="M322 371H140V378H322V371Z" fill="white"/>
<path id="Vector_13" d="M301 364H161V441H301V364Z" fill="#738928"/>
<path id="Vector_14" d="M329 364H133V371H329V364Z" fill="#738928"/>
<path id="Vector_15" d="M287 308H175V364H287V308Z" fill="#738928"/>
<path id="Vector_16" d="M182 266H175V308H182V266Z" fill="#738928"/>
<path id="Vector_17" d="M287 266H280V308H287V266Z" fill="#738928"/>
<path id="Vector_18" d="M287 182H175V252H287V182Z" fill="white"/>
<path id="Vector_19" d="M294 175H168V245H294V175Z" fill="white"/>
<path id="Vector_20" d="M308 147H154V175H308V147Z" fill="white"/>
<g id="Group">
<path id="Vector_21" d="M266 245H196V280H266V245Z" fill="#F8C4B6"/>
<path id="Vector_22" d="M280 245H182V259H280V245Z" fill="#F8C4B6"/>
</g>
<path id="Vector_23" d="M238 266H224V273H238V266Z" fill="#40500E"/>
<g id="Group_2">
<path id="Vector_24" d="M63 280H35V315H63V280Z" fill="#F8C4B6"/>
<path id="Vector_25" d="M56 259H49V308H56V259Z" fill="#F8C4B6"/>
<path id="Vector_26" d="M56 273H14V280H56V273Z" fill="#F8C4B6"/>
<path id="Vector_27" d="M49 287H7V294H49V287Z" fill="#F8C4B6"/>
<path id="Vector_28" d="M56 301H14V308H56V301Z" fill="#F8C4B6"/>
<path id="Vector_29" d="M56 315H21V322H56V315Z" fill="#F8C4B6"/>
<path id="Vector_30" d="M399 315H427V280H399V315Z" fill="#F8C4B6"/>
<path id="Vector_31" d="M406 308H413V259H406V308Z" fill="#F8C4B6"/>
<path id="Vector_32" d="M406 280H448V273H406V280Z" fill="#F8C4B6"/>
<path id="Vector_33" d="M413 294H455V287H413V294Z" fill="#F8C4B6"/>
<path id="Vector_34" d="M406 308H448V301H406V308Z" fill="#F8C4B6"/>
<path id="Vector_35" d="M406 322H441V315H406V322Z" fill="#F8C4B6"/>
</g>
<path id="Vector_36" d="M210 245H203V252H210V245Z" fill="#738928"/>
<path id="Vector_37" d="M259 245H252V252H259V245Z" fill="#738928"/>
<g id="Group_3">
<path id="Vector_38" d="M49 189H63V182H49V189Z" fill="#CDD496"/>
<path id="Vector_39" d="M63 196H70V189H63V196Z" fill="#CDD496"/>
<path id="Vector_40" d="M70 217H77V196H70V217Z" fill="#CDD496"/>
<path id="Vector_41" d="M63 224H70V217H63V224Z" fill="#CDD496"/>
<path id="Vector_42" d="M49 231H63V224H49V231Z" fill="#CDD496"/>
<path id="Vector_43" d="M28 231H49V224H28V231Z" fill="#CDD496"/>
<path id="Vector_44" d="M42 196H49V189H42V196Z" fill="#CDD496"/>
<path id="Vector_45" d="M28 182H14V189H28V182Z" fill="#CDD496"/>
<path id="Vector_46" d="M14 189H7V196H14V189Z" fill="#CDD496"/>
<path id="Vector_47" d="M7 196H0V217H7V196Z" fill="#CDD496"/>
<path id="Vector_48" d="M14 217H7V224H14V217Z" fill="#CDD496"/>
<path id="Vector_49" d="M28 224H14V231H28V224Z" fill="#CDD496"/>
<path id="Vector_50" d="M35 189H28V196H35V189Z" fill="#CDD496"/>
<path id="Vector_51" d="M42 217H49V210H42V217Z" fill="#CDD496"/>
<path id="Vector_52" d="M35 210H28V217H35V210Z" fill="#CDD496"/>
<path id="Vector_53" d="M42 217H35V224H42V217Z" fill="#CDD496"/>
<path id="Vector_54" d="M42 196H35V210H42V196Z" fill="#CDD496"/>
</g>
<g id="Group_4">
<path id="Vector_55" d="M448 210V224H455V210H448Z" fill="#CDD496"/>
<path id="Vector_56" d="M441 224V231H448V224H441Z" fill="#CDD496"/>
<path id="Vector_57" d="M420 231V238H441V231H420Z" fill="#CDD496"/>
<path id="Vector_58" d="M413 224V231H420V224H413Z" fill="#CDD496"/>
<path id="Vector_59" d="M406 210V224H413V210H406Z" fill="#CDD496"/>
<path id="Vector_60" d="M406 189V210H413V189H406Z" fill="#CDD496"/>
<path id="Vector_61" d="M441 203V210H448V203H441Z" fill="#CDD496"/>
<path id="Vector_62" d="M455 189V175H448V189H455Z" fill="#CDD496"/>
<path id="Vector_63" d="M448 175V168H441V175H448Z" fill="#CDD496"/>
<path id="Vector_64" d="M441 168V161H420V168H441Z" fill="#CDD496"/>
<path id="Vector_65" d="M420 175V168H413V175H420Z" fill="#CDD496"/>
<path id="Vector_66" d="M413 189V175H406V189H413Z" fill="#CDD496"/>
<path id="Vector_67" d="M448 196V189H441V196H448Z" fill="#CDD496"/>
<path id="Vector_68" d="M420 203V210H427V203H420Z" fill="#CDD496"/>
<path id="Vector_69" d="M427 196V189H420V196H427Z" fill="#CDD496"/>
<path id="Vector_70" d="M420 203V196H413V203H420Z" fill="#CDD496"/>
<path id="Vector_71" d="M441 203V196H427V203H441Z" fill="#CDD496"/>
</g>
<g id="Group_5">
<path id="Vector_72" d="M392 91H406V84H392V91Z" fill="#CDD496"/>
<path id="Vector_73" d="M406 98H413V91H406V98Z" fill="#CDD496"/>
<path id="Vector_74" d="M413 119H420V98H413V119Z" fill="#CDD496"/>
<path id="Vector_75" d="M406 126H413V119H406V126Z" fill="#CDD496"/>
<path id="Vector_76" d="M392 133H406V126H392V133Z" fill="#CDD496"/>
<path id="Vector_77" d="M371 133H392V126H371V133Z" fill="#CDD496"/>
<path id="Vector_78" d="M385 98H392V91H385V98Z" fill="#CDD496"/>
<path id="Vector_79" d="M371 84H357V91H371V84Z" fill="#CDD496"/>
<path id="Vector_80" d="M357 91H350V98H357V91Z" fill="#CDD496"/>
<path id="Vector_81" d="M350 98H343V119H350V98Z" fill="#CDD496"/>
<path id="Vector_82" d="M357 119H350V126H357V119Z" fill="#CDD496"/>
<path id="Vector_83" d="M371 126H357V133H371V126Z" fill="#CDD496"/>
<path id="Vector_84" d="M378 91H371V98H378V91Z" fill="#CDD496"/>
<path id="Vector_85" d="M385 119H392V112H385V119Z" fill="#CDD496"/>
<path id="Vector_86" d="M378 112H371V119H378V112Z" fill="#CDD496"/>
<path id="Vector_87" d="M385 119H378V126H385V119Z" fill="#CDD496"/>
<path id="Vector_88" d="M385 98H378V112H385V98Z" fill="#CDD496"/>
</g>
<g id="Group_6">
<path id="Vector_89" d="M84 112V126H91V112H84Z" fill="#CDD496"/>
<path id="Vector_90" d="M77 126V133H84V126H77Z" fill="#CDD496"/>
<path id="Vector_91" d="M56 133V140H77V133H56Z" fill="#CDD496"/>
<path id="Vector_92" d="M49 126V133H56V126H49Z" fill="#CDD496"/>
<path id="Vector_93" d="M42 112V126H49V112H42Z" fill="#CDD496"/>
<path id="Vector_94" d="M42 91V112H49V91H42Z" fill="#CDD496"/>
<path id="Vector_95" d="M77 105V112H84V105H77Z" fill="#CDD496"/>
<path id="Vector_96" d="M91 91V77H84V91H91Z" fill="#CDD496"/>
<path id="Vector_97" d="M84 77V70H77V77H84Z" fill="#CDD496"/>
<path id="Vector_98" d="M77 70V63H56V70H77Z" fill="#CDD496"/>
<path id="Vector_99" d="M56 77V70H49V77H56Z" fill="#CDD496"/>
<path id="Vector_100" d="M49 91V77H42V91H49Z" fill="#CDD496"/>
<path id="Vector_101" d="M84 98V91H77V98H84Z" fill="#CDD496"/>
<path id="Vector_102" d="M56 105V112H63V105H56Z" fill="#CDD496"/>
<path id="Vector_103" d="M63 98V91H56V98H63Z" fill="#CDD496"/>
<path id="Vector_104" d="M56 105V98H49V105H56Z" fill="#CDD496"/>
<path id="Vector_105" d="M77 105V98H63V105H77Z" fill="#CDD496"/>
</g>
<g id="Group_7">
<path id="Vector_106" d="M266 49V63H273V49H266Z" fill="#CDD496"/>
<path id="Vector_107" d="M273 63V70H280V63H273Z" fill="#CDD496"/>
<path id="Vector_108" d="M280 70V77H301V70H280Z" fill="#CDD496"/>
<path id="Vector_109" d="M301 63V70H308V63H301Z" fill="#CDD496"/>
<path id="Vector_110" d="M308 49V63H315V49H308Z" fill="#CDD496"/>
<path id="Vector_111" d="M308 28V49H315V28H308Z" fill="#CDD496"/>
<path id="Vector_112" d="M273 42V49H280V42H273Z" fill="#CDD496"/>
<path id="Vector_113" d="M273 28V14H266V28H273Z" fill="#CDD496"/>
<path id="Vector_114" d="M280 14V7H273V14H280Z" fill="#CDD496"/>
<path id="Vector_115" d="M301 7V0L280 0V7L301 7Z" fill="#CDD496"/>
<path id="Vector_116" d="M308 14V7H301V14H308Z" fill="#CDD496"/>
<path id="Vector_117" d="M315 28V14H308V28H315Z" fill="#CDD496"/>
<path id="Vector_118" d="M280 35V28H273V35H280Z" fill="#CDD496"/>
<path id="Vector_119" d="M294 42V49H301V42H294Z" fill="#CDD496"/>
<path id="Vector_120" d="M301 35V28H294V35H301Z" fill="#CDD496"/>
<path id="Vector_121" d="M308 42V35H301V42H308Z" fill="#CDD496"/>
<path id="Vector_122" d="M294 42V35H280V42H294Z" fill="#CDD496"/>
</g>
<g id="Group_8">
<path id="Vector_123" d="M175 63H189V56H175V63Z" fill="#CDD496"/>
<path id="Vector_124" d="M189 56H196V49H189V56Z" fill="#CDD496"/>
<path id="Vector_125" d="M196 49H203V28H196V49Z" fill="#CDD496"/>
<path id="Vector_126" d="M189 28H196V21H189V28Z" fill="#CDD496"/>
<path id="Vector_127" d="M175 21H189V14L175 14V21Z" fill="#CDD496"/>
<path id="Vector_128" d="M154 21L175 21V14L154 14V21Z" fill="#CDD496"/>
<path id="Vector_129" d="M168 56H175V49H168V56Z" fill="#CDD496"/>
<path id="Vector_130" d="M154 56H140V63H154V56Z" fill="#CDD496"/>
<path id="Vector_131" d="M140 49H133V56H140V49Z" fill="#CDD496"/>
<path id="Vector_132" d="M133 28H126V49H133V28Z" fill="#CDD496"/>
<path id="Vector_133" d="M140 21H133V28H140V21Z" fill="#CDD496"/>
<path id="Vector_134" d="M154 14H140V21H154V14Z" fill="#CDD496"/>
<path id="Vector_135" d="M161 49H154V56H161V49Z" fill="#CDD496"/>
<path id="Vector_136" d="M168 35H175V28H168V35Z" fill="#CDD496"/>
<path id="Vector_137" d="M161 28H154V35H161V28Z" fill="#CDD496"/>
<path id="Vector_138" d="M168 21H161V28H168V21Z" fill="#CDD496"/>
<path id="Vector_139" d="M168 35H161V49H168V35Z" fill="#CDD496"/>
</g>
</g>
</svg>
