<svg width="448" height="931" viewBox="0 0 448 931" fill="none" xmlns="http://www.w3.org/2000/svg">
<g id="Section_6">
<g id="Horse">
<g id="HorseBody">
<path id="Vector" d="M371 189H49V350H371V189Z" fill="#BD111F"/>
<path id="Vector_2" d="M77 315H49V903H77V315Z" fill="#BD111F"/>
<path id="Vector_3" d="M301 315H273V903H301V315Z" fill="#BD111F"/>
<path id="Vector_4" d="M294 882H280V896H294V882Z" fill="#BD111F"/>
<path id="Vector_5" d="M168 287H140V875H168V287Z" fill="#BD111F"/>
<path id="Vector_6" d="M371 287H343V875H371V287Z" fill="#BD111F"/>
<path id="Vector_7" d="M364 875H350V882H364V875Z" fill="#BD111F"/>
<path id="Vector_8" d="M161 875H147V882H161V875Z" fill="#BD111F"/>
<path id="Vector_9" d="M70 903H56V910H70V903Z" fill="#BD111F"/>
<path id="Vector_10" d="M294 903H280V910H294V903Z" fill="#BD111F"/>
<path id="Vector_11" d="M371 175H238V189H371V175Z" fill="#BD111F"/>
<path id="Vector_12" d="M371 161H245V175H371V161Z" fill="#BD111F"/>
<path id="Vector_13" d="M371 147H252V161H371V147Z" fill="#BD111F"/>
<path id="Vector_14" d="M371 133H259V147H371V133Z" fill="#BD111F"/>
<path id="Vector_15" d="M371 119H266V133H371V119Z" fill="#BD111F"/>
<path id="Vector_16" d="M448 105H273V119H448V105Z" fill="#BD111F"/>
<path id="Vector_17" d="M406 91H280V105H406V91Z" fill="#BD111F"/>
<path id="Vector_18" d="M434 77H287V91H434V77Z" fill="#BD111F"/>
<path id="Vector_19" d="M406 63H294V77H406V63Z" fill="#BD111F"/>
<path id="Vector_20" d="M378 49H301V63H378V49Z" fill="#BD111F"/>
<path id="Vector_21" d="M392 56H378V63H392V56Z" fill="#BD111F"/>
<path id="Vector_22" d="M420 70H406V77H420V70Z" fill="#BD111F"/>
<path id="Vector_23" d="M448 84H378V105H448V84Z" fill="#BD111F"/>
<g id="Group">
<path id="Vector_24" d="M364 21H357V70H364V21Z" fill="#BD111F"/>
<path id="Vector_25" d="M357 28H350V77H357V28Z" fill="#BD111F"/>
<path id="Vector_26" d="M350 35H343V84H350V35Z" fill="#BD111F"/>
</g>
<path id="Vector_27" d="M238 168H224V189H238V168Z" fill="white"/>
<path id="Vector_28" d="M245 154H231V175H245V154Z" fill="white"/>
<path id="Vector_29" d="M252 140H238V161H252V140Z" fill="white"/>
<path id="Vector_30" d="M259 126H245V147H259V126Z" fill="white"/>
<path id="Vector_31" d="M266 112H252V133H266V112Z" fill="white"/>
<path id="Vector_32" d="M273 98H259V119H273V98Z" fill="white"/>
<path id="Vector_33" d="M280 84H266V105H280V84Z" fill="white"/>
<path id="Vector_34" d="M287 70H273V91H287V70Z" fill="white"/>
<path id="Vector_35" d="M294 56H280V77H294V56Z" fill="white"/>
<path id="Vector_36" d="M301 42H287V63H301V42Z" fill="white"/>
<path id="Vector_37" d="M315 35H294V49H315V35Z" fill="white"/>
<path id="Vector_38" d="M350 28H329V49H350V28Z" fill="white"/>
<path id="Vector_39" d="M322 28H308V35H322V28Z" fill="white"/>
<path id="Vector_40" d="M49 203H42V329H49V203Z" fill="white"/>
<path id="Vector_41" d="M42 210H35V329H42V210Z" fill="white"/>
<path id="Vector_42" d="M35 217H28V329H35V217Z" fill="white"/>
<path id="Vector_43" d="M28 224H21V329H28V224Z" fill="white"/>
<path id="Vector_44" d="M21 238H14V329H21V238Z" fill="white"/>
<path id="Vector_45" d="M14 252H7V329H14V252Z" fill="white"/>
<path id="Vector_46" d="M7 280H0V329H7V280Z" fill="white"/>
<path id="Vector_47" d="M238 189H133V217H238V189Z" fill="#CDD496"/>
<path id="Vector_48" d="M231 189H140V210H231V189Z" fill="#738928"/>
<g id="Group_2">
<path id="Vector_49" d="M315 182H224V189H315V182Z" fill="white"/>
<path id="Vector_50" d="M336 175H315V182H336V175Z" fill="white"/>
<path id="Vector_51" d="M357 168H336V175H357V168Z" fill="white"/>
<path id="Vector_52" d="M371 161H357V168H371V161Z" fill="white"/>
<path id="Vector_53" d="M385 154H371V161H385V154Z" fill="white"/>
<path id="Vector_54" d="M392 147H385V154H392V147Z" fill="white"/>
<path id="Vector_55" d="M399 140H392V147H399V140Z" fill="white"/>
<path id="Vector_56" d="M406 133H399V140H406V133Z" fill="white"/>
<path id="Vector_57" d="M413 126H406V133H413V126Z" fill="white"/>
<path id="Vector_58" d="M420 70H413V126H420V70Z" fill="white"/>
</g>
<g id="Group_3">
<path id="Horse_Eye_2" d="M350 84H343V91H350V84Z" fill="white"/>
<path id="Horse_Eye_1" d="M378 63H371V70H378V63Z" fill="white"/>
</g>
<g id="Group_4">
<path id="Vector_59" d="M336 21H329V70H336V21Z" fill="#BD111F"/>
<path id="Vector_60" d="M329 28H322V77H329V28Z" fill="#BD111F"/>
<path id="Vector_61" d="M322 35H315V84H322V35Z" fill="#BD111F"/>
</g>
</g>
<g id="Tires">
<g id="Tire_1">
<g id="Group_5">
<path id="Vector_62" d="M28 875H21V903H28V875Z" fill="#40500E"/>
<path id="Vector_63" d="M35 861H28V875H35V861Z" fill="#40500E"/>
<path id="Vector_64" d="M49 854H35V861H49V854Z" fill="#40500E"/>
<path id="Vector_65" d="M77 854V847H49V854H77Z" fill="#40500E"/>
<path id="Vector_66" d="M91 861V854H77V861H91Z" fill="#40500E"/>
<path id="Vector_67" d="M98 875V861H91V875H98Z" fill="#40500E"/>
<path id="Vector_68" d="M98 903H105V875H98V903Z" fill="#40500E"/>
<path id="Vector_69" d="M91 917H98V903H91V917Z" fill="#40500E"/>
<path id="Vector_70" d="M77 924H91V917H77V924Z" fill="#40500E"/>
<path id="Vector_71" d="M49 924V931H77V924H49Z" fill="#40500E"/>
<path id="Vector_72" d="M35 917V924H49V917H35Z" fill="#40500E"/>
<path id="Vector_73" d="M28 903V917H35V903H28Z" fill="#40500E"/>
</g>
<g id="Group_6">
<path id="Vector_74" d="M35 875H28V903H35V875Z" fill="white"/>
<path id="Vector_75" d="M42 861H35V875H42V861Z" fill="white"/>
<path id="Vector_76" d="M49 861H42V868H49V861Z" fill="white"/>
<path id="Vector_77" d="M77 861V854H49V861H77Z" fill="white"/>
<path id="Vector_78" d="M91 868V861H77V868H91Z" fill="white"/>
<path id="Vector_79" d="M91 875V868H84V875H91Z" fill="white"/>
<path id="Vector_80" d="M91 903H98V875H91V903Z" fill="white"/>
<path id="Vector_81" d="M84 917H91V903H84V917Z" fill="white"/>
<path id="Vector_82" d="M77 917H84V910H77V917Z" fill="white"/>
<path id="Vector_83" d="M49 917V924H77V917H49Z" fill="white"/>
<path id="Vector_84" d="M35 910V917H49V910H35Z" fill="white"/>
<path id="Vector_85" d="M35 903V910H42V903H35Z" fill="white"/>
<path id="Vector_86" d="M70 882H56V896H70V882Z" fill="white"/>
</g>
</g>
<g id="Tire_2">
<g id="Group_7">
<path id="Vector_87" d="M119 847H112V875H119V847Z" fill="#40500E"/>
<path id="Vector_88" d="M126 833H119V847H126V833Z" fill="#40500E"/>
<path id="Vector_89" d="M140 826H126V833H140V826Z" fill="#40500E"/>
<path id="Vector_90" d="M168 826V819H140V826H168Z" fill="#40500E"/>
<path id="Vector_91" d="M182 833V826H168V833H182Z" fill="#40500E"/>
<path id="Vector_92" d="M189 847V833H182V847H189Z" fill="#40500E"/>
<path id="Vector_93" d="M189 875H196V847H189V875Z" fill="#40500E"/>
<path id="Vector_94" d="M182 889H189V875H182V889Z" fill="#40500E"/>
<path id="Vector_95" d="M168 896H182V889H168V896Z" fill="#40500E"/>
<path id="Vector_96" d="M140 896V903H168V896H140Z" fill="#40500E"/>
<path id="Vector_97" d="M126 889V896H140V889H126Z" fill="#40500E"/>
<path id="Vector_98" d="M119 875V889H126V875H119Z" fill="#40500E"/>
</g>
<g id="Group_8">
<path id="Vector_99" d="M126 847H119V875H126V847Z" fill="white"/>
<path id="Vector_100" d="M133 833H126V847H133V833Z" fill="white"/>
<path id="Vector_101" d="M140 833H133V840H140V833Z" fill="white"/>
<path id="Vector_102" d="M168 833V826H140V833H168Z" fill="white"/>
<path id="Vector_103" d="M182 840V833H168V840H182Z" fill="white"/>
<path id="Vector_104" d="M182 847V840H175V847H182Z" fill="white"/>
<path id="Vector_105" d="M182 875H189V847H182V875Z" fill="white"/>
<path id="Vector_106" d="M175 889H182V875H175V889Z" fill="white"/>
<path id="Vector_107" d="M168 889H175V882H168V889Z" fill="white"/>
<path id="Vector_108" d="M140 889V896H168V889H140Z" fill="white"/>
<path id="Vector_109" d="M126 882V889H140V882H126Z" fill="white"/>
<path id="Vector_110" d="M126 875V882H133V875H126Z" fill="white"/>
<path id="Vector_111" d="M161 854H147V868H161V854Z" fill="white"/>
</g>
</g>
<g id="Tire_4">
<g id="Group_9">
<path id="Vector_112" d="M322 847H315V875H322V847Z" fill="#40500E"/>
<path id="Vector_113" d="M329 833H322V847H329V833Z" fill="#40500E"/>
<path id="Vector_114" d="M343 826H329V833H343V826Z" fill="#40500E"/>
<path id="Vector_115" d="M371 826V819H343V826H371Z" fill="#40500E"/>
<path id="Vector_116" d="M385 833V826H371V833H385Z" fill="#40500E"/>
<path id="Vector_117" d="M392 847V833H385V847H392Z" fill="#40500E"/>
<path id="Vector_118" d="M392 875H399V847H392V875Z" fill="#40500E"/>
<path id="Vector_119" d="M385 889H392V875H385V889Z" fill="#40500E"/>
<path id="Vector_120" d="M371 896H385V889H371V896Z" fill="#40500E"/>
<path id="Vector_121" d="M343 896V903H371V896H343Z" fill="#40500E"/>
<path id="Vector_122" d="M329 889V896H343V889H329Z" fill="#40500E"/>
<path id="Vector_123" d="M322 875V889H329V875H322Z" fill="#40500E"/>
</g>
<g id="Group_10">
<path id="Vector_124" d="M329 847H322V875H329V847Z" fill="white"/>
<path id="Vector_125" d="M336 833H329V847H336V833Z" fill="white"/>
<path id="Vector_126" d="M343 833H336V840H343V833Z" fill="white"/>
<path id="Vector_127" d="M371 833V826H343V833H371Z" fill="white"/>
<path id="Vector_128" d="M385 840V833H371V840H385Z" fill="white"/>
<path id="Vector_129" d="M385 847V840H378V847H385Z" fill="white"/>
<path id="Vector_130" d="M385 875H392V847H385V875Z" fill="white"/>
<path id="Vector_131" d="M378 889H385V875H378V889Z" fill="white"/>
<path id="Vector_132" d="M371 889H378V882H371V889Z" fill="white"/>
<path id="Vector_133" d="M343 889V896H371V889H343Z" fill="white"/>
<path id="Vector_134" d="M329 882V889H343V882H329Z" fill="white"/>
<path id="Vector_135" d="M329 875V882H336V875H329Z" fill="white"/>
<path id="Vector_136" d="M364 854H350V868H364V854Z" fill="white"/>
</g>
</g>
<g id="Tire_3">
<g id="Group_11">
<path id="Vector_137" d="M252.05 875H245.05V903H252.05V875Z" fill="#40500E"/>
<path id="Vector_138" d="M259.05 861H252.05V875H259.05V861Z" fill="#40500E"/>
<path id="Vector_139" d="M273.05 854H259.05V861H273.05V854Z" fill="#40500E"/>
<path id="Vector_140" d="M301.05 854V847H273.05V854H301.05Z" fill="#40500E"/>
<path id="Vector_141" d="M315.05 861V854H301.05V861H315.05Z" fill="#40500E"/>
<path id="Vector_142" d="M322.05 875V861H315.05V875H322.05Z" fill="#40500E"/>
<path id="Vector_143" d="M322.06 903H329.06V875H322.06V903Z" fill="#40500E"/>
<path id="Vector_144" d="M315.06 917H322.06V903H315.06V917Z" fill="#40500E"/>
<path id="Vector_145" d="M301.06 924H315.06V917H301.06V924Z" fill="#40500E"/>
<path id="Vector_146" d="M273.05 924V931H301.05V924H273.05Z" fill="#40500E"/>
<path id="Vector_147" d="M259.05 917V924H273.05V917H259.05Z" fill="#40500E"/>
<path id="Vector_148" d="M252.05 903V917H259.05V903H252.05Z" fill="#40500E"/>
</g>
<g id="Group_12">
<path id="Vector_149" d="M259.05 875H252.05V903H259.05V875Z" fill="white"/>
<path id="Vector_150" d="M266.05 861H259.05V875H266.05V861Z" fill="white"/>
<path id="Vector_151" d="M273.05 861H266.05V868H273.05V861Z" fill="white"/>
<path id="Vector_152" d="M301.05 861V854H273.05V861H301.05Z" fill="white"/>
<path id="Vector_153" d="M315.05 868V861H301.05V868H315.05Z" fill="white"/>
<path id="Vector_154" d="M315.05 875V868H308.05V875H315.05Z" fill="white"/>
<path id="Vector_155" d="M315.06 903H322.06V875H315.06V903Z" fill="white"/>
<path id="Vector_156" d="M308.06 917H315.06V903H308.06V917Z" fill="white"/>
<path id="Vector_157" d="M301.06 917H308.06V910H301.06V917Z" fill="white"/>
<path id="Vector_158" d="M273.05 917V924H301.05V917H273.05Z" fill="white"/>
<path id="Vector_159" d="M259.05 910V917H273.05V910H259.05Z" fill="white"/>
<path id="Vector_160" d="M259.05 903V910H266.05V903H259.05Z" fill="white"/>
<path id="Vector_161" d="M294 882H280V896H294V882Z" fill="white"/>
</g>
</g>
</g>
</g>
<path id="Vector_162" d="M168 154H147V161H168V154Z" fill="#BD111F"/>
<path id="Vector_163" d="M140 154H119V161H140V154Z" fill="#40500E"/>
<path id="Vector_164" d="M133 168H126V175H133V168Z" fill="#40500E"/>
<path id="Vector_165" d="M140 161H91V168H140V161Z" fill="#40500E"/>
<path id="Vector_166" d="M168 161H140V168H168V161Z" fill="#BD111F"/>
<path id="Vector_167" d="M147 147H133V154H147V147Z" fill="#40500E"/>
<path id="Vector_168" d="M161 147H147V154H161V147Z" fill="#738928"/>
<path id="Vector_169" d="M154 140H147V147H154V140Z" fill="#738928"/>
<path id="Vector_170" d="M168 140H154V147H168V140Z" fill="#BD111F"/>
<path id="Vector_171" d="M168 147H161V154H168V147Z" fill="#BD111F"/>
<path id="Vector_172" d="M168 133H154V140H168V133Z" fill="#738928"/>
<path id="Vector_173" d="M179 140H168V147H179V140Z" fill="#738928"/>
<path id="Vector_174" d="M147 154H140V161H147V154Z" fill="#A1AC45"/>
<path id="Vector_175" d="M161 154H154V161H161V154Z" fill="white"/>
<path id="Vector_176" d="M154 154H147V161H154V154Z" fill="#40500E"/>
<path id="Vector_177" d="M161 168H133V175H161V168Z" fill="#BD111F"/>
<path id="Vector_178" d="M154 175H140V182H154V175Z" fill="#BD111F"/>
<g id="Frame 1">
<rect id="Bird_eye" x="161" y="140" width="7" height="7" fill="#40500E"/>
</g>
</g>
</svg>
