<svg width="448" height="910" viewBox="0 0 448 910" fill="none" xmlns="http://www.w3.org/2000/svg">
<g id="Section_6">
<g id="Group">
<path id="Vector" d="M371 168H49V329H371V168Z" fill="#BD111F"/>
<path id="Vector_2" d="M77 294H49V882H77V294Z" fill="#BD111F"/>
<g id="Group_2">
<path id="Vector_3" d="M28 854H21V882H28V854Z" fill="#40500E"/>
<path id="Vector_4" d="M35 840H28V854H35V840Z" fill="#40500E"/>
<path id="Vector_5" d="M49 833H35V840H49V833Z" fill="#40500E"/>
<path id="Vector_6" d="M77 833V826H49V833H77Z" fill="#40500E"/>
<path id="Vector_7" d="M91 840V833H77V840H91Z" fill="#40500E"/>
<path id="Vector_8" d="M98 854V840H91V854H98Z" fill="#40500E"/>
<path id="Vector_9" d="M98 882H105V854H98V882Z" fill="#40500E"/>
<path id="Vector_10" d="M91 896H98V882H91V896Z" fill="#40500E"/>
<path id="Vector_11" d="M77 903H91V896H77V903Z" fill="#40500E"/>
<path id="Vector_12" d="M49 903V910H77V903H49Z" fill="#40500E"/>
<path id="Vector_13" d="M35 896V903H49V896H35Z" fill="#40500E"/>
<path id="Vector_14" d="M28 882V896H35V882H28Z" fill="#40500E"/>
</g>
<g id="Group_3">
<path id="Vector_15" d="M35 854H28V882H35V854Z" fill="white"/>
<path id="Vector_16" d="M42 840H35V854H42V840Z" fill="white"/>
<path id="Vector_17" d="M49 840H42V847H49V840Z" fill="white"/>
<path id="Vector_18" d="M77 840V833H49V840H77Z" fill="white"/>
<path id="Vector_19" d="M91 847V840H77V847H91Z" fill="white"/>
<path id="Vector_20" d="M91 854V847H84V854H91Z" fill="white"/>
<path id="Vector_21" d="M91 882H98V854H91V882Z" fill="white"/>
<path id="Vector_22" d="M84 896H91V882H84V896Z" fill="white"/>
<path id="Vector_23" d="M77 896H84V889H77V896Z" fill="white"/>
<path id="Vector_24" d="M49 896V903H77V896H49Z" fill="white"/>
<path id="Vector_25" d="M35 889V896H49V889H35Z" fill="white"/>
<path id="Vector_26" d="M35 882V889H42V882H35Z" fill="white"/>
<path id="Vector_27" d="M70 861H56V875H70V861Z" fill="white"/>
</g>
<path id="Vector_28" d="M301 294H273V882H301V294Z" fill="#BD111F"/>
<g id="Group_4">
<path id="Vector_29" d="M119 826H112V854H119V826Z" fill="#40500E"/>
<path id="Vector_30" d="M126 812H119V826H126V812Z" fill="#40500E"/>
<path id="Vector_31" d="M140 805H126V812H140V805Z" fill="#40500E"/>
<path id="Vector_32" d="M168 805V798H140V805H168Z" fill="#40500E"/>
<path id="Vector_33" d="M182 812V805H168V812H182Z" fill="#40500E"/>
<path id="Vector_34" d="M189 826V812H182V826H189Z" fill="#40500E"/>
<path id="Vector_35" d="M189 854H196V826H189V854Z" fill="#40500E"/>
<path id="Vector_36" d="M182 868H189V854H182V868Z" fill="#40500E"/>
<path id="Vector_37" d="M168 875H182V868H168V875Z" fill="#40500E"/>
<path id="Vector_38" d="M140 875V882H168V875H140Z" fill="#40500E"/>
<path id="Vector_39" d="M126 868V875H140V868H126Z" fill="#40500E"/>
<path id="Vector_40" d="M119 854V868H126V854H119Z" fill="#40500E"/>
</g>
<g id="Group_5">
<path id="Vector_41" d="M126 826H119V854H126V826Z" fill="white"/>
<path id="Vector_42" d="M133 812H126V826H133V812Z" fill="white"/>
<path id="Vector_43" d="M140 812H133V819H140V812Z" fill="white"/>
<path id="Vector_44" d="M168 812V805H140V812H168Z" fill="white"/>
<path id="Vector_45" d="M182 819V812H168V819H182Z" fill="white"/>
<path id="Vector_46" d="M182 826V819H175V826H182Z" fill="white"/>
<path id="Vector_47" d="M182 854H189V826H182V854Z" fill="white"/>
<path id="Vector_48" d="M175 868H182V854H175V868Z" fill="white"/>
<path id="Vector_49" d="M168 868H175V861H168V868Z" fill="white"/>
<path id="Vector_50" d="M140 868V875H168V868H140Z" fill="white"/>
<path id="Vector_51" d="M126 861V868H140V861H126Z" fill="white"/>
<path id="Vector_52" d="M126 854V861H133V854H126Z" fill="white"/>
<path id="Vector_53" d="M161 833H147V847H161V833Z" fill="white"/>
</g>
<path id="Vector_54" d="M294 861H280V875H294V861Z" fill="#A1AC45"/>
<path id="Vector_55" d="M168 266H140V854H168V266Z" fill="#BD111F"/>
<g id="Group_6">
<path id="Vector_56" d="M322 826H315V854H322V826Z" fill="#40500E"/>
<path id="Vector_57" d="M329 812H322V826H329V812Z" fill="#40500E"/>
<path id="Vector_58" d="M343 805H329V812H343V805Z" fill="#40500E"/>
<path id="Vector_59" d="M371 805V798H343V805H371Z" fill="#40500E"/>
<path id="Vector_60" d="M385 812V805H371V812H385Z" fill="#40500E"/>
<path id="Vector_61" d="M392 826V812H385V826H392Z" fill="#40500E"/>
<path id="Vector_62" d="M392 854H399V826H392V854Z" fill="#40500E"/>
<path id="Vector_63" d="M385 868H392V854H385V868Z" fill="#40500E"/>
<path id="Vector_64" d="M371 875H385V868H371V875Z" fill="#40500E"/>
<path id="Vector_65" d="M343 875V882H371V875H343Z" fill="#40500E"/>
<path id="Vector_66" d="M329 868V875H343V868H329Z" fill="#40500E"/>
<path id="Vector_67" d="M322 854V868H329V854H322Z" fill="#40500E"/>
</g>
<g id="Group_7">
<path id="Vector_68" d="M329 826H322V854H329V826Z" fill="white"/>
<path id="Vector_69" d="M336 812H329V826H336V812Z" fill="white"/>
<path id="Vector_70" d="M343 812H336V819H343V812Z" fill="white"/>
<path id="Vector_71" d="M371 812V805H343V812H371Z" fill="white"/>
<path id="Vector_72" d="M385 819V812H371V819H385Z" fill="white"/>
<path id="Vector_73" d="M385 826V819H378V826H385Z" fill="white"/>
<path id="Vector_74" d="M385 854H392V826H385V854Z" fill="white"/>
<path id="Vector_75" d="M378 868H385V854H378V868Z" fill="white"/>
<path id="Vector_76" d="M371 868H378V861H371V868Z" fill="white"/>
<path id="Vector_77" d="M343 868V875H371V868H343Z" fill="white"/>
<path id="Vector_78" d="M329 861V868H343V861H329Z" fill="white"/>
<path id="Vector_79" d="M329 854V861H336V854H329Z" fill="white"/>
<path id="Vector_80" d="M364 833H350V847H364V833Z" fill="white"/>
</g>
<path id="Vector_81" d="M371 266H343V854H371V266Z" fill="#BD111F"/>
<path id="Vector_82" d="M364 854H350V861H364V854Z" fill="#BD111F"/>
<path id="Vector_83" d="M161 854H147V861H161V854Z" fill="#BD111F"/>
<path id="Vector_84" d="M70 882H56V889H70V882Z" fill="#BD111F"/>
<path id="Vector_85" d="M294 882H280V889H294V882Z" fill="#BD111F"/>
<path id="Vector_86" d="M371 154H238V168H371V154Z" fill="#BD111F"/>
<path id="Vector_87" d="M371 140H245V154H371V140Z" fill="#BD111F"/>
<path id="Vector_88" d="M371 126H252V140H371V126Z" fill="#BD111F"/>
<path id="Vector_89" d="M371 112H259V126H371V112Z" fill="#BD111F"/>
<path id="Vector_90" d="M371 98H266V112H371V98Z" fill="#BD111F"/>
<path id="Vector_91" d="M448 84H273V98H448V84Z" fill="#BD111F"/>
<path id="Vector_92" d="M406 70H280V84H406V70Z" fill="#BD111F"/>
<path id="Vector_93" d="M434 56H287V70H434V56Z" fill="#BD111F"/>
<path id="Vector_94" d="M406 42H294V56H406V42Z" fill="#BD111F"/>
<path id="Vector_95" d="M378 28H301V42H378V28Z" fill="#BD111F"/>
<path id="Vector_96" d="M392 35H378V42H392V35Z" fill="#BD111F"/>
<path id="Vector_97" d="M420 49H406V56H420V49Z" fill="#BD111F"/>
<path id="Vector_98" d="M448 63H378V84H448V63Z" fill="#BD111F"/>
<g id="Group_8">
<path id="Vector_99" d="M364 0H357V49H364V0Z" fill="#BD111F"/>
<path id="Vector_100" d="M357 7H350V56H357V7Z" fill="#BD111F"/>
<path id="Vector_101" d="M350 14H343V63H350V14Z" fill="#BD111F"/>
</g>
<path id="Vector_102" d="M238 147H224V168H238V147Z" fill="white"/>
<path id="Vector_103" d="M245 133H231V154H245V133Z" fill="white"/>
<path id="Vector_104" d="M252 119H238V140H252V119Z" fill="white"/>
<path id="Vector_105" d="M259 105H245V126H259V105Z" fill="white"/>
<path id="Vector_106" d="M266 91H252V112H266V91Z" fill="white"/>
<path id="Vector_107" d="M273 77H259V98H273V77Z" fill="white"/>
<path id="Vector_108" d="M280 63H266V84H280V63Z" fill="white"/>
<path id="Vector_109" d="M287 49H273V70H287V49Z" fill="white"/>
<path id="Vector_110" d="M294 35H280V56H294V35Z" fill="white"/>
<path id="Vector_111" d="M301 21H287V42H301V21Z" fill="white"/>
<path id="Vector_112" d="M315 14H294V28H315V14Z" fill="white"/>
<path id="Vector_113" d="M350 7H329V28H350V7Z" fill="white"/>
<path id="Vector_114" d="M322 7H308V14H322V7Z" fill="white"/>
<path id="Vector_115" d="M49 182H42V308H49V182Z" fill="white"/>
<path id="Vector_116" d="M42 189H35V308H42V189Z" fill="white"/>
<path id="Vector_117" d="M35 196H28V308H35V196Z" fill="white"/>
<path id="Vector_118" d="M28 203H21V308H28V203Z" fill="white"/>
<path id="Vector_119" d="M21 217H14V308H21V217Z" fill="white"/>
<path id="Vector_120" d="M14 231H7V308H14V231Z" fill="white"/>
<path id="Vector_121" d="M7 259H0V308H7V259Z" fill="white"/>
<path id="Vector_122" d="M238 168H133V196H238V168Z" fill="#CDD496"/>
<path id="Vector_123" d="M231 168H140V189H231V168Z" fill="#738928"/>
<g id="Group_9">
<path id="Vector_124" d="M315 161H224V168H315V161Z" fill="white"/>
<path id="Vector_125" d="M336 154H315V161H336V154Z" fill="white"/>
<path id="Vector_126" d="M357 147H336V154H357V147Z" fill="white"/>
<path id="Vector_127" d="M371 140H357V147H371V140Z" fill="white"/>
<path id="Vector_128" d="M385 133H371V140H385V133Z" fill="white"/>
<path id="Vector_129" d="M392 126H385V133H392V126Z" fill="white"/>
<path id="Vector_130" d="M399 119H392V126H399V119Z" fill="white"/>
<path id="Vector_131" d="M406 112H399V119H406V112Z" fill="white"/>
<path id="Vector_132" d="M413 105H406V112H413V105Z" fill="white"/>
<path id="Vector_133" d="M420 49H413V105H420V49Z" fill="white"/>
</g>
<g id="Group_10">
<path id="Vector_134" d="M350 63H343V70H350V63Z" fill="white"/>
<path id="Vector_135" d="M378 42H371V49H378V42Z" fill="white"/>
</g>
<g id="Group_11">
<path id="Vector_136" d="M336 0H329V49H336V0Z" fill="#BD111F"/>
<path id="Vector_137" d="M329 7H322V56H329V7Z" fill="#BD111F"/>
<path id="Vector_138" d="M322 14H315V63H322V14Z" fill="#BD111F"/>
</g>
<g id="Group_12">
<g id="Group_13">
<path id="Vector_139" d="M252.05 854H245.05V882H252.05V854Z" fill="#40500E"/>
<path id="Vector_140" d="M259.05 840H252.05V854H259.05V840Z" fill="#40500E"/>
<path id="Vector_141" d="M273.05 833H259.05V840H273.05V833Z" fill="#40500E"/>
<path id="Vector_142" d="M301.05 833V826H273.05V833H301.05Z" fill="#40500E"/>
<path id="Vector_143" d="M315.05 840V833H301.05V840H315.05Z" fill="#40500E"/>
<path id="Vector_144" d="M322.05 854V840H315.05V854H322.05Z" fill="#40500E"/>
<path id="Vector_145" d="M322.06 882H329.06V854H322.06V882Z" fill="#40500E"/>
<path id="Vector_146" d="M315.06 896H322.06V882H315.06V896Z" fill="#40500E"/>
<path id="Vector_147" d="M301.06 903H315.06V896H301.06V903Z" fill="#40500E"/>
<path id="Vector_148" d="M273.05 903V910H301.05V903H273.05Z" fill="#40500E"/>
<path id="Vector_149" d="M259.05 896V903H273.05V896H259.05Z" fill="#40500E"/>
<path id="Vector_150" d="M252.05 882V896H259.05V882H252.05Z" fill="#40500E"/>
</g>
<g id="Group_14">
<path id="Vector_151" d="M259.05 854H252.05V882H259.05V854Z" fill="white"/>
<path id="Vector_152" d="M266.05 840H259.05V854H266.05V840Z" fill="white"/>
<path id="Vector_153" d="M273.05 840H266.05V847H273.05V840Z" fill="white"/>
<path id="Vector_154" d="M301.05 840V833H273.05V840H301.05Z" fill="white"/>
<path id="Vector_155" d="M315.05 847V840H301.05V847H315.05Z" fill="white"/>
<path id="Vector_156" d="M315.05 854V847H308.05V854H315.05Z" fill="white"/>
<path id="Vector_157" d="M315.06 882H322.06V854H315.06V882Z" fill="white"/>
<path id="Vector_158" d="M308.06 896H315.06V882H308.06V896Z" fill="white"/>
<path id="Vector_159" d="M301.06 896H308.06V889H301.06V896Z" fill="white"/>
<path id="Vector_160" d="M273.05 896V903H301.05V896H273.05Z" fill="white"/>
<path id="Vector_161" d="M259.05 889V896H273.05V889H259.05Z" fill="white"/>
<path id="Vector_162" d="M259.05 882V889H266.05V882H259.05Z" fill="white"/>
<path id="Vector_163" d="M294.05 861H280.05V875H294.05V861Z" fill="white"/>
</g>
</g>
</g>
<g id="Group_15">
<path id="Vector_164" d="M168 133H147V140H168V133Z" fill="#BD111F"/>
<path id="Vector_165" d="M140 133H119V140H140V133Z" fill="#40500E"/>
<path id="Vector_166" d="M133 147H126V154H133V147Z" fill="#40500E"/>
<path id="Vector_167" d="M140 140H91V147H140V140Z" fill="#40500E"/>
<path id="Vector_168" d="M168 140H140V147H168V140Z" fill="#BD111F"/>
<path id="Vector_169" d="M147 126H133V133H147V126Z" fill="#40500E"/>
<path id="Vector_170" d="M161 126H147V133H161V126Z" fill="#738928"/>
<path id="Vector_171" d="M154 119H147V126H154V119Z" fill="#738928"/>
<path id="Vector_172" d="M168 119H154V126H168V119Z" fill="#BD111F"/>
<path id="Vector_173" d="M168 126H161V133H168V126Z" fill="#BD111F"/>
<path id="Vector_174" d="M168 112H154V119H168V112Z" fill="#738928"/>
<path id="Vector_175" d="M182 119H168V126H182V119Z" fill="#40500E"/>
<path id="Vector_176" d="M147 133H140V140H147V133Z" fill="#A1AC45"/>
<path id="Vector_177" d="M161 133H154V140H161V133Z" fill="white"/>
<path id="Vector_178" d="M154 133H147V140H154V133Z" fill="#40500E"/>
<path id="Vector_179" d="M161 147H133V154H161V147Z" fill="#BD111F"/>
<path id="Vector_180" d="M154 154H140V161H154V154Z" fill="#BD111F"/>
</g>
</g>
</svg>
