<svg width="749" height="329" viewBox="0 0 749 329" fill="none" xmlns="http://www.w3.org/2000/svg">
<g id="Work_Hours">
<g id="Group 6">
<g id="Group">
<g id="Group_2">
<path id="Vector" d="M728 224H21V231H728V224Z" fill="white"/>
<path id="Vector_2" d="M728 238H21V245H728V238Z" fill="white"/>
<path id="Vector_3" d="M728 308H21V315H728V308Z" fill="white"/>
<path id="Vector_4" d="M728 322H21V329H728V322Z" fill="white"/>
</g>
<g id="Group_3">
<g id="Group_4">
<path id="Vector_5" d="M119 245H112V252H119V245Z" fill="white"/>
<path id="Vector_6" d="M126 252H119V259H126V252Z" fill="white"/>
<path id="Vector_7" d="M133 259H126V266H133V259Z" fill="white"/>
<path id="Vector_8" d="M140 266H133V273H140V266Z" fill="white"/>
<path id="Vector_9" d="M147 273H140V280H147V273Z" fill="white"/>
<path id="Vector_10" d="M140 280H133V287H140V280Z" fill="white"/>
<path id="Vector_11" d="M133 287H126V294H133V287Z" fill="white"/>
<path id="Vector_12" d="M126 294H119V301H126V294Z" fill="white"/>
<path id="Vector_13" d="M119 301H112V308H119V301Z" fill="white"/>
</g>
<g id="Group_5">
<path id="Vector_14" d="M91 245H84V252H91V245Z" fill="white"/>
<path id="Vector_15" d="M98 252H91V259H98V252Z" fill="white"/>
<path id="Vector_16" d="M105 259H98V266H105V259Z" fill="white"/>
<path id="Vector_17" d="M112 266H105V273H112V266Z" fill="white"/>
<path id="Vector_18" d="M119 273H112V280H119V273Z" fill="white"/>
<path id="Vector_19" d="M112 280H105V287H112V280Z" fill="white"/>
<path id="Vector_20" d="M105 287H98V294H105V287Z" fill="white"/>
<path id="Vector_21" d="M98 294H91V301H98V294Z" fill="white"/>
<path id="Vector_22" d="M91 301H84V308H91V301Z" fill="white"/>
</g>
<g id="Group_6">
<path id="Vector_23" d="M63 245H56V252H63V245Z" fill="white"/>
<path id="Vector_24" d="M70 252H63V259H70V252Z" fill="white"/>
<path id="Vector_25" d="M77 259H70V266H77V259Z" fill="white"/>
<path id="Vector_26" d="M84 266H77V273H84V266Z" fill="white"/>
<path id="Vector_27" d="M91 273H84V280H91V273Z" fill="white"/>
<path id="Vector_28" d="M84 280H77V287H84V280Z" fill="white"/>
<path id="Vector_29" d="M77 287H70V294H77V287Z" fill="white"/>
<path id="Vector_30" d="M70 294H63V301H70V294Z" fill="white"/>
<path id="Vector_31" d="M63 301H56V308H63V301Z" fill="white"/>
</g>
<g id="Group_7">
<path id="Vector_32" d="M35 245H28V252H35V245Z" fill="white"/>
<path id="Vector_33" d="M42 252H35V259H42V252Z" fill="white"/>
<path id="Vector_34" d="M49 259H42V266H49V259Z" fill="white"/>
<path id="Vector_35" d="M56 266H49V273H56V266Z" fill="white"/>
<path id="Vector_36" d="M63 273H56V280H63V273Z" fill="white"/>
<path id="Vector_37" d="M56 280H49V287H56V280Z" fill="white"/>
<path id="Vector_38" d="M49 287H42V294H49V287Z" fill="white"/>
<path id="Vector_39" d="M42 294H35V301H42V294Z" fill="white"/>
<path id="Vector_40" d="M35 301H28V308H35V301Z" fill="white"/>
</g>
<g id="Group_8">
<path id="Vector_41" d="M28 266H21V273H28V266Z" fill="white"/>
<path id="Vector_42" d="M35 273H28V280H35V273Z" fill="white"/>
<path id="Vector_43" d="M28 280H21V287H28V280Z" fill="white"/>
</g>
<g id="Group_9">
<path id="Vector_44" d="M147 245H140V252H147V245Z" fill="white"/>
<path id="Vector_45" d="M154 252H147V259H154V252Z" fill="white"/>
<path id="Vector_46" d="M161 259H154V266H161V259Z" fill="white"/>
<path id="Vector_47" d="M168 266H161V273H168V266Z" fill="white"/>
<path id="Vector_48" d="M175 273H168V280H175V273Z" fill="white"/>
<path id="Vector_49" d="M168 280H161V287H168V280Z" fill="white"/>
<path id="Vector_50" d="M161 287H154V294H161V287Z" fill="white"/>
<path id="Vector_51" d="M154 294H147V301H154V294Z" fill="white"/>
<path id="Vector_52" d="M147 301H140V308H147V301Z" fill="white"/>
</g>
<g id="Group_10">
<path id="Vector_53" d="M175 245H168V252H175V245Z" fill="white"/>
<path id="Vector_54" d="M182 252H175V259H182V252Z" fill="white"/>
<path id="Vector_55" d="M189 259H182V266H189V259Z" fill="white"/>
<path id="Vector_56" d="M196 266H189V273H196V266Z" fill="white"/>
<path id="Vector_57" d="M203 273H196V280H203V273Z" fill="white"/>
<path id="Vector_58" d="M196 280H189V287H196V280Z" fill="white"/>
<path id="Vector_59" d="M189 287H182V294H189V287Z" fill="white"/>
<path id="Vector_60" d="M182 294H175V301H182V294Z" fill="white"/>
<path id="Vector_61" d="M175 301H168V308H175V301Z" fill="white"/>
</g>
<g id="Group_11">
<path id="Vector_62" d="M203 245H196V252H203V245Z" fill="white"/>
<path id="Vector_63" d="M210 252H203V259H210V252Z" fill="white"/>
<path id="Vector_64" d="M217 259H210V266H217V259Z" fill="white"/>
<path id="Vector_65" d="M224 266H217V273H224V266Z" fill="white"/>
<path id="Vector_66" d="M231 273H224V280H231V273Z" fill="white"/>
<path id="Vector_67" d="M224 280H217V287H224V280Z" fill="white"/>
<path id="Vector_68" d="M217 287H210V294H217V287Z" fill="white"/>
<path id="Vector_69" d="M210 294H203V301H210V294Z" fill="white"/>
<path id="Vector_70" d="M203 301H196V308H203V301Z" fill="white"/>
</g>
<g id="Group_12">
<path id="Vector_71" d="M231 245H224V252H231V245Z" fill="white"/>
<path id="Vector_72" d="M238 252H231V259H238V252Z" fill="white"/>
<path id="Vector_73" d="M245 259H238V266H245V259Z" fill="white"/>
<path id="Vector_74" d="M252 266H245V273H252V266Z" fill="white"/>
<path id="Vector_75" d="M259 273H252V280H259V273Z" fill="white"/>
<path id="Vector_76" d="M252 280H245V287H252V280Z" fill="white"/>
<path id="Vector_77" d="M245 287H238V294H245V287Z" fill="white"/>
<path id="Vector_78" d="M238 294H231V301H238V294Z" fill="white"/>
<path id="Vector_79" d="M231 301H224V308H231V301Z" fill="white"/>
</g>
<g id="Group_13">
<path id="Vector_80" d="M259 245H252V252H259V245Z" fill="white"/>
<path id="Vector_81" d="M266 252H259V259H266V252Z" fill="white"/>
<path id="Vector_82" d="M273 259H266V266H273V259Z" fill="white"/>
<path id="Vector_83" d="M280 266H273V273H280V266Z" fill="white"/>
<path id="Vector_84" d="M287 273H280V280H287V273Z" fill="white"/>
<path id="Vector_85" d="M280 280H273V287H280V280Z" fill="white"/>
<path id="Vector_86" d="M273 287H266V294H273V287Z" fill="white"/>
<path id="Vector_87" d="M266 294H259V301H266V294Z" fill="white"/>
<path id="Vector_88" d="M259 301H252V308H259V301Z" fill="white"/>
</g>
<g id="Group_14">
<path id="Vector_89" d="M287 245H280V252H287V245Z" fill="white"/>
<path id="Vector_90" d="M294 252H287V259H294V252Z" fill="white"/>
<path id="Vector_91" d="M301 259H294V266H301V259Z" fill="white"/>
<path id="Vector_92" d="M308 266H301V273H308V266Z" fill="white"/>
<path id="Vector_93" d="M315 273H308V280H315V273Z" fill="white"/>
<path id="Vector_94" d="M308 280H301V287H308V280Z" fill="white"/>
<path id="Vector_95" d="M301 287H294V294H301V287Z" fill="white"/>
<path id="Vector_96" d="M294 294H287V301H294V294Z" fill="white"/>
<path id="Vector_97" d="M287 301H280V308H287V301Z" fill="white"/>
</g>
<g id="Group_15">
<path id="Vector_98" d="M315 245H308V252H315V245Z" fill="white"/>
<path id="Vector_99" d="M322 252H315V259H322V252Z" fill="white"/>
<path id="Vector_100" d="M329 259H322V266H329V259Z" fill="white"/>
<path id="Vector_101" d="M336 266H329V273H336V266Z" fill="white"/>
<path id="Vector_102" d="M343 273H336V280H343V273Z" fill="white"/>
<path id="Vector_103" d="M336 280H329V287H336V280Z" fill="white"/>
<path id="Vector_104" d="M329 287H322V294H329V287Z" fill="white"/>
<path id="Vector_105" d="M322 294H315V301H322V294Z" fill="white"/>
<path id="Vector_106" d="M315 301H308V308H315V301Z" fill="white"/>
</g>
<g id="Group_16">
<path id="Vector_107" d="M343 245H336V252H343V245Z" fill="white"/>
<path id="Vector_108" d="M350 252H343V259H350V252Z" fill="white"/>
<path id="Vector_109" d="M357 259H350V266H357V259Z" fill="white"/>
<path id="Vector_110" d="M364 266H357V273H364V266Z" fill="white"/>
<path id="Vector_111" d="M371 273H364V280H371V273Z" fill="white"/>
<path id="Vector_112" d="M364 280H357V287H364V280Z" fill="white"/>
<path id="Vector_113" d="M357 287H350V294H357V287Z" fill="white"/>
<path id="Vector_114" d="M350 294H343V301H350V294Z" fill="white"/>
<path id="Vector_115" d="M343 301H336V308H343V301Z" fill="white"/>
</g>
<g id="Group_17">
<path id="Vector_116" d="M371 245H364V252H371V245Z" fill="white"/>
<path id="Vector_117" d="M378 252H371V259H378V252Z" fill="white"/>
<path id="Vector_118" d="M385 259H378V266H385V259Z" fill="white"/>
<path id="Vector_119" d="M392 266H385V273H392V266Z" fill="white"/>
<path id="Vector_120" d="M399 273H392V280H399V273Z" fill="white"/>
<path id="Vector_121" d="M392 280H385V287H392V280Z" fill="white"/>
<path id="Vector_122" d="M385 287H378V294H385V287Z" fill="white"/>
<path id="Vector_123" d="M378 294H371V301H378V294Z" fill="white"/>
<path id="Vector_124" d="M371 301H364V308H371V301Z" fill="white"/>
</g>
<g id="Group_18">
<path id="Vector_125" d="M399 245H392V252H399V245Z" fill="white"/>
<path id="Vector_126" d="M406 252H399V259H406V252Z" fill="white"/>
<path id="Vector_127" d="M413 259H406V266H413V259Z" fill="white"/>
<path id="Vector_128" d="M420 266H413V273H420V266Z" fill="white"/>
<path id="Vector_129" d="M427 273H420V280H427V273Z" fill="white"/>
<path id="Vector_130" d="M420 280H413V287H420V280Z" fill="white"/>
<path id="Vector_131" d="M413 287H406V294H413V287Z" fill="white"/>
<path id="Vector_132" d="M406 294H399V301H406V294Z" fill="white"/>
<path id="Vector_133" d="M399 301H392V308H399V301Z" fill="white"/>
</g>
<g id="Group_19">
<path id="Vector_134" d="M427 245H420V252H427V245Z" fill="white"/>
<path id="Vector_135" d="M434 252H427V259H434V252Z" fill="white"/>
<path id="Vector_136" d="M441 259H434V266H441V259Z" fill="white"/>
<path id="Vector_137" d="M448 266H441V273H448V266Z" fill="white"/>
<path id="Vector_138" d="M455 273H448V280H455V273Z" fill="white"/>
<path id="Vector_139" d="M448 280H441V287H448V280Z" fill="white"/>
<path id="Vector_140" d="M441 287H434V294H441V287Z" fill="white"/>
<path id="Vector_141" d="M434 294H427V301H434V294Z" fill="white"/>
<path id="Vector_142" d="M427 301H420V308H427V301Z" fill="white"/>
</g>
<g id="Group_20">
<path id="Vector_143" d="M455 245H448V252H455V245Z" fill="white"/>
<path id="Vector_144" d="M462 252H455V259H462V252Z" fill="white"/>
<path id="Vector_145" d="M469 259H462V266H469V259Z" fill="white"/>
<path id="Vector_146" d="M476 266H469V273H476V266Z" fill="white"/>
<path id="Vector_147" d="M483 273H476V280H483V273Z" fill="white"/>
<path id="Vector_148" d="M476 280H469V287H476V280Z" fill="white"/>
<path id="Vector_149" d="M469 287H462V294H469V287Z" fill="white"/>
<path id="Vector_150" d="M462 294H455V301H462V294Z" fill="white"/>
<path id="Vector_151" d="M455 301H448V308H455V301Z" fill="white"/>
</g>
<g id="Group_21">
<path id="Vector_152" d="M483 245H476V252H483V245Z" fill="white"/>
<path id="Vector_153" d="M490 252H483V259H490V252Z" fill="white"/>
<path id="Vector_154" d="M497 259H490V266H497V259Z" fill="white"/>
<path id="Vector_155" d="M504 266H497V273H504V266Z" fill="white"/>
<path id="Vector_156" d="M511 273H504V280H511V273Z" fill="white"/>
<path id="Vector_157" d="M504 280H497V287H504V280Z" fill="white"/>
<path id="Vector_158" d="M497 287H490V294H497V287Z" fill="white"/>
<path id="Vector_159" d="M490 294H483V301H490V294Z" fill="white"/>
<path id="Vector_160" d="M483 301H476V308H483V301Z" fill="white"/>
</g>
<g id="Group_22">
<path id="Vector_161" d="M511 245H504V252H511V245Z" fill="white"/>
<path id="Vector_162" d="M518 252H511V259H518V252Z" fill="white"/>
<path id="Vector_163" d="M525 259H518V266H525V259Z" fill="white"/>
<path id="Vector_164" d="M532 266H525V273H532V266Z" fill="white"/>
<path id="Vector_165" d="M539 273H532V280H539V273Z" fill="white"/>
<path id="Vector_166" d="M532 280H525V287H532V280Z" fill="white"/>
<path id="Vector_167" d="M525 287H518V294H525V287Z" fill="white"/>
<path id="Vector_168" d="M518 294H511V301H518V294Z" fill="white"/>
<path id="Vector_169" d="M511 301H504V308H511V301Z" fill="white"/>
</g>
<g id="Group_23">
<path id="Vector_170" d="M539 245H532V252H539V245Z" fill="white"/>
<path id="Vector_171" d="M546 252H539V259H546V252Z" fill="white"/>
<path id="Vector_172" d="M553 259H546V266H553V259Z" fill="white"/>
<path id="Vector_173" d="M560 266H553V273H560V266Z" fill="white"/>
<path id="Vector_174" d="M567 273H560V280H567V273Z" fill="white"/>
<path id="Vector_175" d="M595 273H588V280H595V273Z" fill="white"/>
<path id="Vector_176" d="M560 280H553V287H560V280Z" fill="white"/>
<path id="Vector_177" d="M553 287H546V294H553V287Z" fill="white"/>
<path id="Vector_178" d="M546 294H539V301H546V294Z" fill="white"/>
<path id="Vector_179" d="M539 301H532V308H539V301Z" fill="white"/>
</g>
<g id="Group_24">
<path id="Vector_180" d="M567 245H560V252H567V245Z" fill="white"/>
<path id="Vector_181" d="M574 252H567V259H574V252Z" fill="white"/>
<path id="Vector_182" d="M581 259H574V266H581V259Z" fill="white"/>
<path id="Vector_183" d="M588 266H581V273H588V266Z" fill="white"/>
<path id="Vector_184" d="M588 280H581V287H588V280Z" fill="white"/>
<path id="Vector_185" d="M581 287H574V294H581V287Z" fill="white"/>
<path id="Vector_186" d="M574 294H567V301H574V294Z" fill="white"/>
<path id="Vector_187" d="M567 301H560V308H567V301Z" fill="white"/>
</g>
<path id="Vector_188" d="M623 273H616V280H623V273Z" fill="white"/>
<g id="Group_25">
<path id="Vector_189" d="M595 245H588V252H595V245Z" fill="white"/>
<path id="Vector_190" d="M602 252H595V259H602V252Z" fill="white"/>
<path id="Vector_191" d="M609 259H602V266H609V259Z" fill="white"/>
<path id="Vector_192" d="M616 266H609V273H616V266Z" fill="white"/>
<path id="Vector_193" d="M616 280H609V287H616V280Z" fill="white"/>
<path id="Vector_194" d="M609 287H602V294H609V287Z" fill="white"/>
<path id="Vector_195" d="M602 294H595V301H602V294Z" fill="white"/>
<path id="Vector_196" d="M595 301H588V308H595V301Z" fill="white"/>
</g>
<path id="Vector_197" d="M651 273H644V280H651V273Z" fill="white"/>
<g id="Group_26">
<path id="Vector_198" d="M623 245H616V252H623V245Z" fill="white"/>
<path id="Vector_199" d="M630 252H623V259H630V252Z" fill="white"/>
<path id="Vector_200" d="M637 259H630V266H637V259Z" fill="white"/>
<path id="Vector_201" d="M644 266H637V273H644V266Z" fill="white"/>
<path id="Vector_202" d="M644 280H637V287H644V280Z" fill="white"/>
<path id="Vector_203" d="M637 287H630V294H637V287Z" fill="white"/>
<path id="Vector_204" d="M630 294H623V301H630V294Z" fill="white"/>
<path id="Vector_205" d="M623 301H616V308H623V301Z" fill="white"/>
</g>
<path id="Vector_206" d="M679 273H672V280H679V273Z" fill="white"/>
<g id="Group_27">
<path id="Vector_207" d="M651 245H644V252H651V245Z" fill="white"/>
<path id="Vector_208" d="M658 252H651V259H658V252Z" fill="white"/>
<path id="Vector_209" d="M665 259H658V266H665V259Z" fill="white"/>
<path id="Vector_210" d="M672 266H665V273H672V266Z" fill="white"/>
<path id="Vector_211" d="M672 280H665V287H672V280Z" fill="white"/>
<path id="Vector_212" d="M665 287H658V294H665V287Z" fill="white"/>
<path id="Vector_213" d="M658 294H651V301H658V294Z" fill="white"/>
<path id="Vector_214" d="M651 301H644V308H651V301Z" fill="white"/>
</g>
<path id="Vector_215" d="M707 273H700V280H707V273Z" fill="white"/>
<g id="Group_28">
<path id="Vector_216" d="M679 245H672V252H679V245Z" fill="white"/>
<path id="Vector_217" d="M686 252H679V259H686V252Z" fill="white"/>
<path id="Vector_218" d="M693 259H686V266H693V259Z" fill="white"/>
<path id="Vector_219" d="M700 266H693V273H700V266Z" fill="white"/>
<path id="Vector_220" d="M700 280H693V287H700V280Z" fill="white"/>
<path id="Vector_221" d="M693 287H686V294H693V287Z" fill="white"/>
<path id="Vector_222" d="M686 294H679V301H686V294Z" fill="white"/>
<path id="Vector_223" d="M679 301H672V308H679V301Z" fill="white"/>
</g>
<g id="Group_29">
<path id="Vector_224" d="M707 245H700V252H707V245Z" fill="white"/>
<path id="Vector_225" d="M714 252H707V259H714V252Z" fill="white"/>
<path id="Vector_226" d="M721 259H714V266H721V259Z" fill="white"/>
<path id="Vector_227" d="M728 266H721V273H728V266Z" fill="white"/>
<path id="Vector_228" d="M728 280H721V287H728V280Z" fill="white"/>
<path id="Vector_229" d="M721 287H714V294H721V287Z" fill="white"/>
<path id="Vector_230" d="M714 294H707V301H714V294Z" fill="white"/>
<path id="Vector_231" d="M707 301H700V308H707V301Z" fill="white"/>
</g>
</g>
<g id="Group_30">
<path id="Vector_232" d="M21 224H0V231H21V224Z" fill="white"/>
<path id="Vector_233" d="M21 238H0V245H21V238Z" fill="white"/>
<path id="Vector_234" d="M21 252H0V259H21V252Z" fill="white"/>
<path id="Vector_235" d="M21 266H0V273H21V266Z" fill="white"/>
<path id="Vector_236" d="M21 280H0V287H21V280Z" fill="white"/>
<path id="Vector_237" d="M21 294H0V301H21V294Z" fill="white"/>
<path id="Vector_238" d="M21 308H0V315H21V308Z" fill="white"/>
<path id="Vector_239" d="M21 322H0V329H21V322Z" fill="white"/>
</g>
<g id="Group_31">
<path id="Vector_240" d="M749 224H728V231H749V224Z" fill="white"/>
<path id="Vector_241" d="M749 238H728V245H749V238Z" fill="white"/>
<path id="Vector_242" d="M749 252H728V259H749V252Z" fill="white"/>
<path id="Vector_243" d="M749 266H728V273H749V266Z" fill="white"/>
<path id="Vector_244" d="M749 280H728V287H749V280Z" fill="white"/>
<path id="Vector_245" d="M749 294H728V301H749V294Z" fill="white"/>
<path id="Vector_246" d="M749 308H728V315H749V308Z" fill="white"/>
<path id="Vector_247" d="M749 322H728V329H749V322Z" fill="white"/>
</g>
</g>
<path id="Vector_248" d="M504 126H273V259H504V126Z" fill="#738928"/>
<path id="Vector_249" d="M287 154H252V308H287V154Z" fill="#40500E"/>
<path id="Vector_250" d="M490 161H448V294H490V161Z" fill="#40500E"/>
<path id="Vector_251" d="M518 301H455V308H518V301Z" fill="#F8C4B6"/>
<path id="Vector_252" d="M504 294H455V301H504V294Z" fill="#F8C4B6"/>
<path id="Vector_253" d="M273 280H168V308H273V280Z" fill="#40500E"/>
<path id="Vector_254" d="M168 280H161V315H168V280Z" fill="#738928"/>
<path id="Vector_255" d="M161 280H154V322H161V280Z" fill="#738928"/>
<path id="Vector_256" d="M154 280H147V329H154V280Z" fill="#738928"/>
<path id="Vector_257" d="M595 98H504V203H595V98Z" fill="#F8C4B6"/>
<path id="Vector_258" d="M602 154H581V161H602V154Z" fill="#F8C4B6"/>
<path id="Vector_259" d="M588 147H581V154H588V147Z" fill="#40500E"/>
<path id="Vector_260" d="M518 154H497V168H518V154Z" fill="#F8C4B6"/>
<path id="Vector_261" d="M595 161H567V175H595V161Z" fill="#BD111F"/>
<path id="Vector_262" d="M581 168H553V182H581V168Z" fill="#BD111F"/>
<path id="Vector_263" d="M595 182H504V203H595V182Z" fill="#BD111F"/>
<g id="Group_32">
<path id="Vector_264" d="M497 70H448V126H497V70Z" fill="#40500E"/>
<path id="Vector_265" d="M511 126H455V133H511V126Z" fill="#BD111F"/>
<path id="Vector_266" d="M518 119H511V133H518V119Z" fill="#BD111F"/>
<path id="Vector_267" d="M504 14H448V70H504V14Z" fill="#F8C4B6"/>
<path id="Vector_268" d="M504 14H441V28H504V14Z" fill="#BD111F"/>
<path id="Vector_269" d="M490 21H434V42H490V21Z" fill="#BD111F"/>
<path id="Vector_270" d="M483 42H434V49H483V42Z" fill="#BD111F"/>
<path id="Vector_271" d="M455 49H434V56H455V49Z" fill="#BD111F"/>
<path id="Vector_272" d="M448 56H441V63H448V56Z" fill="#BD111F"/>
<path id="Vector_273" d="M497 7H448V14H497V7Z" fill="#BD111F"/>
<path id="Vector_274" d="M434 14H427V28H434V14Z" fill="#BD111F"/>
<path id="Vector_275" d="M427 21H420V35H427V21Z" fill="#BD111F"/>
<path id="Vector_276" d="M511 56H504V63H511V56Z" fill="#F8C4B6"/>
<path id="Vector_277" d="M497 49H490V56H497V49Z" fill="#738928"/>
</g>
<g id="Group_33">
<path id="Vector_278" d="M406 70H357V126H406V70Z" fill="#BD111F"/>
<path id="Vector_279" d="M420 126H364V133H420V126Z" fill="#40500E"/>
<path id="Vector_280" d="M427 119H420V133H427V119Z" fill="#BD111F"/>
<path id="Vector_281" d="M413 14H357V70H413V14Z" fill="#F8C4B6"/>
<path id="Vector_282" d="M413 14H350V28H413V14Z" fill="#BD111F"/>
<path id="Vector_283" d="M399 21H343V42H399V21Z" fill="#BD111F"/>
<path id="Vector_284" d="M392 42H343V49H392V42Z" fill="#BD111F"/>
<path id="Vector_285" d="M364 49H343V56H364V49Z" fill="#BD111F"/>
<path id="Vector_286" d="M357 56H350V63H357V56Z" fill="#BD111F"/>
<path id="Vector_287" d="M406 7H357V14H406V7Z" fill="#BD111F"/>
<path id="Vector_288" d="M420 56H413V63H420V56Z" fill="#F8C4B6"/>
<path id="Vector_289" d="M406 49H399V56H406V49Z" fill="#738928"/>
</g>
<path id="Vector_290" d="M483 91H476V98H483V91Z" fill="#A1AC45"/>
<path id="Vector_291" d="M483 77H476V84H483V77Z" fill="#A1AC45"/>
<path id="Vector_292" d="M490 91H483V98H490V91Z" fill="#738928"/>
<path id="Vector_293" d="M483 84H476V91H483V84Z" fill="#738928"/>
<path id="Vector_294" d="M497 91H490V98H497V91Z" fill="#A1AC45"/>
<path id="Vector_295" d="M504 91H497V98H504V91Z" fill="#738928"/>
<path id="Vector_296" d="M511 91H504V98H511V91Z" fill="#F8C4B6"/>
<path id="Vector_297" d="M392 77H385V84H392V77Z" fill="#738928"/>
<path id="Vector_298" d="M399 77H392V84H399V77Z" fill="#CDD496"/>
<path id="Vector_299" d="M406 77H399V84H406V77Z" fill="#738928"/>
<path id="Vector_300" d="M413 77H406V84H413V77Z" fill="#CDD496"/>
<path id="Vector_301" d="M420 77H413V84H420V77Z" fill="#738928"/>
<path id="Vector_302" d="M427 77H420V84H427V77Z" fill="#CDD496"/>
<path id="Vector_303" d="M434 77H427V84H434V77Z" fill="#738928"/>
<path id="Vector_304" d="M441 77H434V84H441V77Z" fill="#CDD496"/>
<path id="Vector_305" d="M448 77H441V84H448V77Z" fill="#738928"/>
<path id="Vector_306" d="M455 77H448V84H455V77Z" fill="#F8C4B6"/>
<g id="Group_34">
<path id="Vector_307" d="M308 70H259V126H308V70Z" fill="white"/>
<path id="Vector_308" d="M322 126H266V133H322V126Z" fill="white"/>
<path id="Vector_309" d="M329 119H322V133H329V119Z" fill="#40500E"/>
<path id="Vector_310" d="M294 77H287V84H294V77Z" fill="#738928"/>
<path id="Vector_311" d="M301 77H294V84H301V77Z" fill="#CDD496"/>
<path id="Vector_312" d="M308 77H301V84H308V77Z" fill="#738928"/>
<path id="Vector_313" d="M315 77H308V84H315V77Z" fill="#CDD496"/>
<path id="Vector_314" d="M322 77H315V84H322V77Z" fill="#738928"/>
<path id="Vector_315" d="M329 77H322V84H329V77Z" fill="#CDD496"/>
<path id="Vector_316" d="M336 77H329V84H336V77Z" fill="#738928"/>
<path id="Vector_317" d="M343 77H336V84H343V77Z" fill="#CDD496"/>
<path id="Vector_318" d="M350 77H343V84H350V77Z" fill="#738928"/>
<path id="Vector_319" d="M357 77H350V84H357V77Z" fill="#40500E"/>
<g id="Group_35">
<path id="Vector_320" d="M266 42H245V49H266V42Z" fill="#40500E"/>
<path id="Vector_321" d="M266 35H252V42H266V35Z" fill="#40500E"/>
<path id="Vector_322" d="M273 28H259V35H273V28Z" fill="#40500E"/>
<path id="Vector_323" d="M273 21H266V28H273V21Z" fill="#40500E"/>
<path id="Vector_324" d="M280 14H273V21H280V14Z" fill="#40500E"/>
<path id="Vector_325" d="M315 14H308V21H315V14Z" fill="#40500E"/>
<path id="Vector_326" d="M294 7H287V14H294V7Z" fill="#40500E"/>
<path id="Vector_327" d="M315 7H301V14H315V7Z" fill="#40500E"/>
<path id="Vector_328" d="M259 49H245V70H259V49Z" fill="#40500E"/>
</g>
<g id="Group_36">
<path id="Vector_329" d="M308 49H259V70H308V49Z" fill="white"/>
<path id="Vector_330" d="M308 35H266V49H308V35Z" fill="white"/>
<path id="Vector_331" d="M308 21H273V35H308V21Z" fill="white"/>
<path id="Vector_332" d="M308 14H280V28H308V14Z" fill="white"/>
<path id="Vector_333" d="M315 21H308V63H315V21Z" fill="white"/>
<path id="Vector_334" d="M322 28H315V63H322V28Z" fill="white"/>
<path id="Vector_335" d="M329 35H322V56H329V35Z" fill="white"/>
<path id="Vector_336" d="M336 42H329V56H336V42Z" fill="white"/>
<path id="Vector_337" d="M301 0H294V21H301V0Z" fill="white"/>
<path id="Vector_338" d="M287 0H280V21H287V0Z" fill="white"/>
</g>
<path id="Vector_339" d="M308 28H301V35H308V28Z" fill="#40500E"/>
<g id="Group_37">
<path id="Vector_340" d="M259 119H252V126H259V119Z" fill="#40500E"/>
<path id="Vector_341" d="M252 119H245V133H252V119Z" fill="#40500E"/>
<path id="Vector_342" d="M245 126H238V161H245V126Z" fill="#40500E"/>
<path id="Vector_343" d="M238 133H231V161H238V133Z" fill="#40500E"/>
<path id="Vector_344" d="M231 140H224V161H231V140Z" fill="#40500E"/>
</g>
<path id="Vector_345" d="M308 63H259V70H308V63Z" fill="#CDD496"/>
<path id="Vector_346" d="M308 91H259V98H308V91Z" fill="#CDD496"/>
<path id="Vector_347" d="M308 105H259V112H308V105Z" fill="#CDD496"/>
<path id="Vector_348" d="M287 77H259V84H287V77Z" fill="#CDD496"/>
</g>
<path id="Vector_349" d="M287 147H259V154H287V147Z" fill="#40500E"/>
<path id="Vector_350" d="M483 154H455V161H483V154Z" fill="#40500E"/>
<path id="Vector_351" d="M476 147H462V154H476V147Z" fill="#40500E"/>
<g id="Group_38">
<path id="Vector_352" d="M420 252H413V259H420V252Z" fill="#A1AC45"/>
<path id="Vector_353" d="M427 245H420V252H427V245Z" fill="#A1AC45"/>
<path id="Vector_354" d="M434 238H427V245H434V238Z" fill="#A1AC45"/>
<path id="Vector_355" d="M427 231H420V238H427V231Z" fill="#A1AC45"/>
<path id="Vector_356" d="M420 224H413V231H420V224Z" fill="#A1AC45"/>
<path id="Vector_357" d="M427 217H420V224H427V217Z" fill="#A1AC45"/>
<path id="Vector_358" d="M434 210H427V217H434V210Z" fill="#A1AC45"/>
<path id="Vector_359" d="M427 203H420V210H427V203Z" fill="#A1AC45"/>
<path id="Vector_360" d="M420 196H413V203H420V196Z" fill="#A1AC45"/>
<path id="Vector_361" d="M427 189H420V196H427V189Z" fill="#A1AC45"/>
<path id="Vector_362" d="M434 182H427V189H434V182Z" fill="#A1AC45"/>
<path id="Vector_363" d="M427 175H420V182H427V175Z" fill="#A1AC45"/>
<path id="Vector_364" d="M420 168H413V175H420V168Z" fill="#A1AC45"/>
<path id="Vector_365" d="M427 161H420V168H427V161Z" fill="#A1AC45"/>
<path id="Vector_366" d="M434 154H427V161H434V154Z" fill="#A1AC45"/>
<path id="Vector_367" d="M427 147H420V154H427V147Z" fill="#A1AC45"/>
<path id="Vector_368" d="M420 140H413V147H420V140Z" fill="#A1AC45"/>
<path id="Vector_369" d="M427 133H420V140H427V133Z" fill="#A1AC45"/>
</g>
<g id="Group_39">
<g id="Group_40">
<path id="Vector_370" d="M483 185.5V192.5H490V185.5H483Z" fill="#738928"/>
<path id="Vector_371" d="M476 192.5V199.5H483V192.5H476Z" fill="#738928"/>
<path id="Vector_372" d="M469 199.5V206.5H476V199.5H469Z" fill="#738928"/>
<path id="Vector_373" d="M462 192.5V199.5H469V192.5H462Z" fill="#738928"/>
<path id="Vector_374" d="M455 185.5V192.5H462V185.5H455Z" fill="#738928"/>
<path id="Vector_375" d="M448 192.5V199.5H455V192.5H448Z" fill="#738928"/>
</g>
<g id="Group_41">
<path id="Vector_376" d="M483 206.5V213.5H490V206.5H483Z" fill="#738928"/>
<path id="Vector_377" d="M476 213.5V220.5H483V213.5H476Z" fill="#738928"/>
<path id="Vector_378" d="M469 220.5V227.5H476V220.5H469Z" fill="#738928"/>
<path id="Vector_379" d="M462 213.5V220.5H469V213.5H462Z" fill="#738928"/>
<path id="Vector_380" d="M455 206.5V213.5H462V206.5H455Z" fill="#738928"/>
<path id="Vector_381" d="M448 213.5V220.5H455V213.5H448Z" fill="#738928"/>
</g>
</g>
<g id="Group_42">
<path id="Vector_382" d="M395.5 252H388.5V259H395.5V252Z" fill="#A1AC45"/>
<path id="Vector_383" d="M402.5 245H395.5V252H402.5V245Z" fill="#A1AC45"/>
<path id="Vector_384" d="M409.5 238H402.5V245H409.5V238Z" fill="#A1AC45"/>
<path id="Vector_385" d="M402.5 231H395.5V238H402.5V231Z" fill="#A1AC45"/>
<path id="Vector_386" d="M395.5 224H388.5V231H395.5V224Z" fill="#A1AC45"/>
<path id="Vector_387" d="M402.5 217H395.5V224H402.5V217Z" fill="#A1AC45"/>
<path id="Vector_388" d="M409.5 210H402.5V217H409.5V210Z" fill="#A1AC45"/>
<path id="Vector_389" d="M402.5 203H395.5V210H402.5V203Z" fill="#A1AC45"/>
<path id="Vector_390" d="M395.5 196H388.5V203H395.5V196Z" fill="#A1AC45"/>
<path id="Vector_391" d="M402.5 189H395.5V196H402.5V189Z" fill="#A1AC45"/>
<path id="Vector_392" d="M409.5 182H402.5V189H409.5V182Z" fill="#A1AC45"/>
<path id="Vector_393" d="M402.5 175H395.5V182H402.5V175Z" fill="#A1AC45"/>
<path id="Vector_394" d="M395.5 168H388.5V175H395.5V168Z" fill="#A1AC45"/>
<path id="Vector_395" d="M402.5 161H395.5V168H402.5V161Z" fill="#A1AC45"/>
<path id="Vector_396" d="M409.5 154H402.5V161H409.5V154Z" fill="#A1AC45"/>
<path id="Vector_397" d="M402.5 147H395.5V154H402.5V147Z" fill="#A1AC45"/>
<path id="Vector_398" d="M395.5 140H388.5V147H395.5V140Z" fill="#A1AC45"/>
<path id="Vector_399" d="M402.5 133H395.5V140H402.5V133Z" fill="#A1AC45"/>
</g>
</g>
</g>
</svg>
