<svg width="749" height="350" viewBox="0 0 749 350" fill="none" xmlns="http://www.w3.org/2000/svg">
<g id="Work_Hours">
<g id="Group 6">
<g id="Group">
<g id="Group_2">
<path id="Vector" d="M728 245H21V252H728V245Z" fill="white"/>
<path id="Vector_2" d="M728 259H21V266H728V259Z" fill="white"/>
<path id="Vector_3" d="M728 329H21V336H728V329Z" fill="white"/>
<path id="Vector_4" d="M728 343H21V350H728V343Z" fill="white"/>
</g>
<g id="Group_3">
<g id="Group_4">
<path id="Vector_5" d="M119 266H112V273H119V266Z" fill="white"/>
<path id="Vector_6" d="M126 273H119V280H126V273Z" fill="white"/>
<path id="Vector_7" d="M133 280H126V287H133V280Z" fill="white"/>
<path id="Vector_8" d="M140 287H133V294H140V287Z" fill="white"/>
<path id="Vector_9" d="M147 294H140V301H147V294Z" fill="white"/>
<path id="Vector_10" d="M140 301H133V308H140V301Z" fill="white"/>
<path id="Vector_11" d="M133 308H126V315H133V308Z" fill="white"/>
<path id="Vector_12" d="M126 315H119V322H126V315Z" fill="white"/>
<path id="Vector_13" d="M119 322H112V329H119V322Z" fill="white"/>
</g>
<g id="Group_5">
<path id="Vector_14" d="M91 266H84V273H91V266Z" fill="white"/>
<path id="Vector_15" d="M98 273H91V280H98V273Z" fill="white"/>
<path id="Vector_16" d="M105 280H98V287H105V280Z" fill="white"/>
<path id="Vector_17" d="M112 287H105V294H112V287Z" fill="white"/>
<path id="Vector_18" d="M119 294H112V301H119V294Z" fill="white"/>
<path id="Vector_19" d="M112 301H105V308H112V301Z" fill="white"/>
<path id="Vector_20" d="M105 308H98V315H105V308Z" fill="white"/>
<path id="Vector_21" d="M98 315H91V322H98V315Z" fill="white"/>
<path id="Vector_22" d="M91 322H84V329H91V322Z" fill="white"/>
</g>
<g id="Group_6">
<path id="Vector_23" d="M63 266H56V273H63V266Z" fill="white"/>
<path id="Vector_24" d="M70 273H63V280H70V273Z" fill="white"/>
<path id="Vector_25" d="M77 280H70V287H77V280Z" fill="white"/>
<path id="Vector_26" d="M84 287H77V294H84V287Z" fill="white"/>
<path id="Vector_27" d="M91 294H84V301H91V294Z" fill="white"/>
<path id="Vector_28" d="M84 301H77V308H84V301Z" fill="white"/>
<path id="Vector_29" d="M77 308H70V315H77V308Z" fill="white"/>
<path id="Vector_30" d="M70 315H63V322H70V315Z" fill="white"/>
<path id="Vector_31" d="M63 322H56V329H63V322Z" fill="white"/>
</g>
<g id="Group_7">
<path id="Vector_32" d="M35 266H28V273H35V266Z" fill="white"/>
<path id="Vector_33" d="M42 273H35V280H42V273Z" fill="white"/>
<path id="Vector_34" d="M49 280H42V287H49V280Z" fill="white"/>
<path id="Vector_35" d="M56 287H49V294H56V287Z" fill="white"/>
<path id="Vector_36" d="M63 294H56V301H63V294Z" fill="white"/>
<path id="Vector_37" d="M56 301H49V308H56V301Z" fill="white"/>
<path id="Vector_38" d="M49 308H42V315H49V308Z" fill="white"/>
<path id="Vector_39" d="M42 315H35V322H42V315Z" fill="white"/>
<path id="Vector_40" d="M35 322H28V329H35V322Z" fill="white"/>
</g>
<g id="Group_8">
<path id="Vector_41" d="M28 287H21V294H28V287Z" fill="white"/>
<path id="Vector_42" d="M35 294H28V301H35V294Z" fill="white"/>
<path id="Vector_43" d="M28 301H21V308H28V301Z" fill="white"/>
</g>
<g id="Group_9">
<path id="Vector_44" d="M147 266H140V273H147V266Z" fill="white"/>
<path id="Vector_45" d="M154 273H147V280H154V273Z" fill="white"/>
<path id="Vector_46" d="M161 280H154V287H161V280Z" fill="white"/>
<path id="Vector_47" d="M168 287H161V294H168V287Z" fill="white"/>
<path id="Vector_48" d="M175 294H168V301H175V294Z" fill="white"/>
<path id="Vector_49" d="M168 301H161V308H168V301Z" fill="white"/>
<path id="Vector_50" d="M161 308H154V315H161V308Z" fill="white"/>
<path id="Vector_51" d="M154 315H147V322H154V315Z" fill="white"/>
<path id="Vector_52" d="M147 322H140V329H147V322Z" fill="white"/>
</g>
<g id="Group_10">
<path id="Vector_53" d="M175 266H168V273H175V266Z" fill="white"/>
<path id="Vector_54" d="M182 273H175V280H182V273Z" fill="white"/>
<path id="Vector_55" d="M189 280H182V287H189V280Z" fill="white"/>
<path id="Vector_56" d="M196 287H189V294H196V287Z" fill="white"/>
<path id="Vector_57" d="M203 294H196V301H203V294Z" fill="white"/>
<path id="Vector_58" d="M196 301H189V308H196V301Z" fill="white"/>
<path id="Vector_59" d="M189 308H182V315H189V308Z" fill="white"/>
<path id="Vector_60" d="M182 315H175V322H182V315Z" fill="white"/>
<path id="Vector_61" d="M175 322H168V329H175V322Z" fill="white"/>
</g>
<g id="Group_11">
<path id="Vector_62" d="M203 266H196V273H203V266Z" fill="white"/>
<path id="Vector_63" d="M210 273H203V280H210V273Z" fill="white"/>
<path id="Vector_64" d="M217 280H210V287H217V280Z" fill="white"/>
<path id="Vector_65" d="M224 287H217V294H224V287Z" fill="white"/>
<path id="Vector_66" d="M231 294H224V301H231V294Z" fill="white"/>
<path id="Vector_67" d="M224 301H217V308H224V301Z" fill="white"/>
<path id="Vector_68" d="M217 308H210V315H217V308Z" fill="white"/>
<path id="Vector_69" d="M210 315H203V322H210V315Z" fill="white"/>
<path id="Vector_70" d="M203 322H196V329H203V322Z" fill="white"/>
</g>
<g id="Group_12">
<path id="Vector_71" d="M231 266H224V273H231V266Z" fill="white"/>
<path id="Vector_72" d="M238 273H231V280H238V273Z" fill="white"/>
<path id="Vector_73" d="M245 280H238V287H245V280Z" fill="white"/>
<path id="Vector_74" d="M252 287H245V294H252V287Z" fill="white"/>
<path id="Vector_75" d="M259 294H252V301H259V294Z" fill="white"/>
<path id="Vector_76" d="M252 301H245V308H252V301Z" fill="white"/>
<path id="Vector_77" d="M245 308H238V315H245V308Z" fill="white"/>
<path id="Vector_78" d="M238 315H231V322H238V315Z" fill="white"/>
<path id="Vector_79" d="M231 322H224V329H231V322Z" fill="white"/>
</g>
<g id="Group_13">
<path id="Vector_80" d="M259 266H252V273H259V266Z" fill="white"/>
<path id="Vector_81" d="M266 273H259V280H266V273Z" fill="white"/>
<path id="Vector_82" d="M273 280H266V287H273V280Z" fill="white"/>
<path id="Vector_83" d="M280 287H273V294H280V287Z" fill="white"/>
<path id="Vector_84" d="M287 294H280V301H287V294Z" fill="white"/>
<path id="Vector_85" d="M280 301H273V308H280V301Z" fill="white"/>
<path id="Vector_86" d="M273 308H266V315H273V308Z" fill="white"/>
<path id="Vector_87" d="M266 315H259V322H266V315Z" fill="white"/>
<path id="Vector_88" d="M259 322H252V329H259V322Z" fill="white"/>
</g>
<g id="Group_14">
<path id="Vector_89" d="M287 266H280V273H287V266Z" fill="white"/>
<path id="Vector_90" d="M294 273H287V280H294V273Z" fill="white"/>
<path id="Vector_91" d="M301 280H294V287H301V280Z" fill="white"/>
<path id="Vector_92" d="M308 287H301V294H308V287Z" fill="white"/>
<path id="Vector_93" d="M315 294H308V301H315V294Z" fill="white"/>
<path id="Vector_94" d="M308 301H301V308H308V301Z" fill="white"/>
<path id="Vector_95" d="M301 308H294V315H301V308Z" fill="white"/>
<path id="Vector_96" d="M294 315H287V322H294V315Z" fill="white"/>
<path id="Vector_97" d="M287 322H280V329H287V322Z" fill="white"/>
</g>
<g id="Group_15">
<path id="Vector_98" d="M315 266H308V273H315V266Z" fill="white"/>
<path id="Vector_99" d="M322 273H315V280H322V273Z" fill="white"/>
<path id="Vector_100" d="M329 280H322V287H329V280Z" fill="white"/>
<path id="Vector_101" d="M336 287H329V294H336V287Z" fill="white"/>
<path id="Vector_102" d="M343 294H336V301H343V294Z" fill="white"/>
<path id="Vector_103" d="M336 301H329V308H336V301Z" fill="white"/>
<path id="Vector_104" d="M329 308H322V315H329V308Z" fill="white"/>
<path id="Vector_105" d="M322 315H315V322H322V315Z" fill="white"/>
<path id="Vector_106" d="M315 322H308V329H315V322Z" fill="white"/>
</g>
<g id="Group_16">
<path id="Vector_107" d="M343 266H336V273H343V266Z" fill="white"/>
<path id="Vector_108" d="M350 273H343V280H350V273Z" fill="white"/>
<path id="Vector_109" d="M357 280H350V287H357V280Z" fill="white"/>
<path id="Vector_110" d="M364 287H357V294H364V287Z" fill="white"/>
<path id="Vector_111" d="M371 294H364V301H371V294Z" fill="white"/>
<path id="Vector_112" d="M364 301H357V308H364V301Z" fill="white"/>
<path id="Vector_113" d="M357 308H350V315H357V308Z" fill="white"/>
<path id="Vector_114" d="M350 315H343V322H350V315Z" fill="white"/>
<path id="Vector_115" d="M343 322H336V329H343V322Z" fill="white"/>
</g>
<g id="Group_17">
<path id="Vector_116" d="M371 266H364V273H371V266Z" fill="white"/>
<path id="Vector_117" d="M378 273H371V280H378V273Z" fill="white"/>
<path id="Vector_118" d="M385 280H378V287H385V280Z" fill="white"/>
<path id="Vector_119" d="M392 287H385V294H392V287Z" fill="white"/>
<path id="Vector_120" d="M399 294H392V301H399V294Z" fill="white"/>
<path id="Vector_121" d="M392 301H385V308H392V301Z" fill="white"/>
<path id="Vector_122" d="M385 308H378V315H385V308Z" fill="white"/>
<path id="Vector_123" d="M378 315H371V322H378V315Z" fill="white"/>
<path id="Vector_124" d="M371 322H364V329H371V322Z" fill="white"/>
</g>
<g id="Group_18">
<path id="Vector_125" d="M399 266H392V273H399V266Z" fill="white"/>
<path id="Vector_126" d="M406 273H399V280H406V273Z" fill="white"/>
<path id="Vector_127" d="M413 280H406V287H413V280Z" fill="white"/>
<path id="Vector_128" d="M420 287H413V294H420V287Z" fill="white"/>
<path id="Vector_129" d="M427 294H420V301H427V294Z" fill="white"/>
<path id="Vector_130" d="M420 301H413V308H420V301Z" fill="white"/>
<path id="Vector_131" d="M413 308H406V315H413V308Z" fill="white"/>
<path id="Vector_132" d="M406 315H399V322H406V315Z" fill="white"/>
<path id="Vector_133" d="M399 322H392V329H399V322Z" fill="white"/>
</g>
<g id="Group_19">
<path id="Vector_134" d="M427 266H420V273H427V266Z" fill="white"/>
<path id="Vector_135" d="M434 273H427V280H434V273Z" fill="white"/>
<path id="Vector_136" d="M441 280H434V287H441V280Z" fill="white"/>
<path id="Vector_137" d="M448 287H441V294H448V287Z" fill="white"/>
<path id="Vector_138" d="M455 294H448V301H455V294Z" fill="white"/>
<path id="Vector_139" d="M448 301H441V308H448V301Z" fill="white"/>
<path id="Vector_140" d="M441 308H434V315H441V308Z" fill="white"/>
<path id="Vector_141" d="M434 315H427V322H434V315Z" fill="white"/>
<path id="Vector_142" d="M427 322H420V329H427V322Z" fill="white"/>
</g>
<g id="Group_20">
<path id="Vector_143" d="M455 266H448V273H455V266Z" fill="white"/>
<path id="Vector_144" d="M462 273H455V280H462V273Z" fill="white"/>
<path id="Vector_145" d="M469 280H462V287H469V280Z" fill="white"/>
<path id="Vector_146" d="M476 287H469V294H476V287Z" fill="white"/>
<path id="Vector_147" d="M483 294H476V301H483V294Z" fill="white"/>
<path id="Vector_148" d="M476 301H469V308H476V301Z" fill="white"/>
<path id="Vector_149" d="M469 308H462V315H469V308Z" fill="white"/>
<path id="Vector_150" d="M462 315H455V322H462V315Z" fill="white"/>
<path id="Vector_151" d="M455 322H448V329H455V322Z" fill="white"/>
</g>
<g id="Group_21">
<path id="Vector_152" d="M483 266H476V273H483V266Z" fill="white"/>
<path id="Vector_153" d="M490 273H483V280H490V273Z" fill="white"/>
<path id="Vector_154" d="M497 280H490V287H497V280Z" fill="white"/>
<path id="Vector_155" d="M504 287H497V294H504V287Z" fill="white"/>
<path id="Vector_156" d="M511 294H504V301H511V294Z" fill="white"/>
<path id="Vector_157" d="M504 301H497V308H504V301Z" fill="white"/>
<path id="Vector_158" d="M497 308H490V315H497V308Z" fill="white"/>
<path id="Vector_159" d="M490 315H483V322H490V315Z" fill="white"/>
<path id="Vector_160" d="M483 322H476V329H483V322Z" fill="white"/>
</g>
<g id="Group_22">
<path id="Vector_161" d="M511 266H504V273H511V266Z" fill="white"/>
<path id="Vector_162" d="M518 273H511V280H518V273Z" fill="white"/>
<path id="Vector_163" d="M525 280H518V287H525V280Z" fill="white"/>
<path id="Vector_164" d="M532 287H525V294H532V287Z" fill="white"/>
<path id="Vector_165" d="M539 294H532V301H539V294Z" fill="white"/>
<path id="Vector_166" d="M532 301H525V308H532V301Z" fill="white"/>
<path id="Vector_167" d="M525 308H518V315H525V308Z" fill="white"/>
<path id="Vector_168" d="M518 315H511V322H518V315Z" fill="white"/>
<path id="Vector_169" d="M511 322H504V329H511V322Z" fill="white"/>
</g>
<g id="Group_23">
<path id="Vector_170" d="M539 266H532V273H539V266Z" fill="white"/>
<path id="Vector_171" d="M546 273H539V280H546V273Z" fill="white"/>
<path id="Vector_172" d="M553 280H546V287H553V280Z" fill="white"/>
<path id="Vector_173" d="M560 287H553V294H560V287Z" fill="white"/>
<path id="Vector_174" d="M567 294H560V301H567V294Z" fill="white"/>
<path id="Vector_175" d="M595 294H588V301H595V294Z" fill="white"/>
<path id="Vector_176" d="M560 301H553V308H560V301Z" fill="white"/>
<path id="Vector_177" d="M553 308H546V315H553V308Z" fill="white"/>
<path id="Vector_178" d="M546 315H539V322H546V315Z" fill="white"/>
<path id="Vector_179" d="M539 322H532V329H539V322Z" fill="white"/>
</g>
<g id="Group_24">
<path id="Vector_180" d="M567 266H560V273H567V266Z" fill="white"/>
<path id="Vector_181" d="M574 273H567V280H574V273Z" fill="white"/>
<path id="Vector_182" d="M581 280H574V287H581V280Z" fill="white"/>
<path id="Vector_183" d="M588 287H581V294H588V287Z" fill="white"/>
<path id="Vector_184" d="M588 301H581V308H588V301Z" fill="white"/>
<path id="Vector_185" d="M581 308H574V315H581V308Z" fill="white"/>
<path id="Vector_186" d="M574 315H567V322H574V315Z" fill="white"/>
<path id="Vector_187" d="M567 322H560V329H567V322Z" fill="white"/>
</g>
<path id="Vector_188" d="M623 294H616V301H623V294Z" fill="white"/>
<g id="Group_25">
<path id="Vector_189" d="M595 266H588V273H595V266Z" fill="white"/>
<path id="Vector_190" d="M602 273H595V280H602V273Z" fill="white"/>
<path id="Vector_191" d="M609 280H602V287H609V280Z" fill="white"/>
<path id="Vector_192" d="M616 287H609V294H616V287Z" fill="white"/>
<path id="Vector_193" d="M616 301H609V308H616V301Z" fill="white"/>
<path id="Vector_194" d="M609 308H602V315H609V308Z" fill="white"/>
<path id="Vector_195" d="M602 315H595V322H602V315Z" fill="white"/>
<path id="Vector_196" d="M595 322H588V329H595V322Z" fill="white"/>
</g>
<path id="Vector_197" d="M651 294H644V301H651V294Z" fill="white"/>
<g id="Group_26">
<path id="Vector_198" d="M623 266H616V273H623V266Z" fill="white"/>
<path id="Vector_199" d="M630 273H623V280H630V273Z" fill="white"/>
<path id="Vector_200" d="M637 280H630V287H637V280Z" fill="white"/>
<path id="Vector_201" d="M644 287H637V294H644V287Z" fill="white"/>
<path id="Vector_202" d="M644 301H637V308H644V301Z" fill="white"/>
<path id="Vector_203" d="M637 308H630V315H637V308Z" fill="white"/>
<path id="Vector_204" d="M630 315H623V322H630V315Z" fill="white"/>
<path id="Vector_205" d="M623 322H616V329H623V322Z" fill="white"/>
</g>
<path id="Vector_206" d="M679 294H672V301H679V294Z" fill="white"/>
<g id="Group_27">
<path id="Vector_207" d="M651 266H644V273H651V266Z" fill="white"/>
<path id="Vector_208" d="M658 273H651V280H658V273Z" fill="white"/>
<path id="Vector_209" d="M665 280H658V287H665V280Z" fill="white"/>
<path id="Vector_210" d="M672 287H665V294H672V287Z" fill="white"/>
<path id="Vector_211" d="M672 301H665V308H672V301Z" fill="white"/>
<path id="Vector_212" d="M665 308H658V315H665V308Z" fill="white"/>
<path id="Vector_213" d="M658 315H651V322H658V315Z" fill="white"/>
<path id="Vector_214" d="M651 322H644V329H651V322Z" fill="white"/>
</g>
<path id="Vector_215" d="M707 294H700V301H707V294Z" fill="white"/>
<g id="Group_28">
<path id="Vector_216" d="M679 266H672V273H679V266Z" fill="white"/>
<path id="Vector_217" d="M686 273H679V280H686V273Z" fill="white"/>
<path id="Vector_218" d="M693 280H686V287H693V280Z" fill="white"/>
<path id="Vector_219" d="M700 287H693V294H700V287Z" fill="white"/>
<path id="Vector_220" d="M700 301H693V308H700V301Z" fill="white"/>
<path id="Vector_221" d="M693 308H686V315H693V308Z" fill="white"/>
<path id="Vector_222" d="M686 315H679V322H686V315Z" fill="white"/>
<path id="Vector_223" d="M679 322H672V329H679V322Z" fill="white"/>
</g>
<g id="Group_29">
<path id="Vector_224" d="M707 266H700V273H707V266Z" fill="white"/>
<path id="Vector_225" d="M714 273H707V280H714V273Z" fill="white"/>
<path id="Vector_226" d="M721 280H714V287H721V280Z" fill="white"/>
<path id="Vector_227" d="M728 287H721V294H728V287Z" fill="white"/>
<path id="Vector_228" d="M728 301H721V308H728V301Z" fill="white"/>
<path id="Vector_229" d="M721 308H714V315H721V308Z" fill="white"/>
<path id="Vector_230" d="M714 315H707V322H714V315Z" fill="white"/>
<path id="Vector_231" d="M707 322H700V329H707V322Z" fill="white"/>
</g>
</g>
<g id="Group_30">
<path id="Vector_232" d="M21 245H0V252H21V245Z" fill="white"/>
<path id="Vector_233" d="M21 259H0V266H21V259Z" fill="white"/>
<path id="Vector_234" d="M21 273H0V280H21V273Z" fill="white"/>
<path id="Vector_235" d="M21 287H0V294H21V287Z" fill="white"/>
<path id="Vector_236" d="M21 301H0V308H21V301Z" fill="white"/>
<path id="Vector_237" d="M21 315H0V322H21V315Z" fill="white"/>
<path id="Vector_238" d="M21 329H0V336H21V329Z" fill="white"/>
<path id="Vector_239" d="M21 343H0V350H21V343Z" fill="white"/>
</g>
<g id="Group_31">
<path id="Vector_240" d="M749 245H728V252H749V245Z" fill="white"/>
<path id="Vector_241" d="M749 259H728V266H749V259Z" fill="white"/>
<path id="Vector_242" d="M749 273H728V280H749V273Z" fill="white"/>
<path id="Vector_243" d="M749 287H728V294H749V287Z" fill="white"/>
<path id="Vector_244" d="M749 301H728V308H749V301Z" fill="white"/>
<path id="Vector_245" d="M749 315H728V322H749V315Z" fill="white"/>
<path id="Vector_246" d="M749 329H728V336H749V329Z" fill="white"/>
<path id="Vector_247" d="M749 343H728V350H749V343Z" fill="white"/>
</g>
</g>
<path id="Vector_248" d="M504 147H273V280H504V147Z" fill="#738928"/>
<path id="Vector_249" d="M287 175H252V329H287V175Z" fill="#40500E"/>
<path id="Vector_250" d="M490 182H448V315H490V182Z" fill="#40500E"/>
<path id="Vector_251" d="M518 322H455V329H518V322Z" fill="#F8C4B6"/>
<path id="Vector_252" d="M504 315H455V322H504V315Z" fill="#F8C4B6"/>
<path id="Vector_253" d="M273 301H168V329H273V301Z" fill="#40500E"/>
<path id="Vector_254" d="M168 301H161V336H168V301Z" fill="#738928"/>
<path id="Vector_255" d="M161 301H154V343H161V301Z" fill="#738928"/>
<path id="Vector_256" d="M154 301H147V350H154V301Z" fill="#738928"/>
<g id="Head">
<path id="Vector_257" d="M595 119H504V224H595V119Z" fill="#F8C4B6"/>
<path id="Vector_258" d="M602 175H581V182H602V175Z" fill="#F8C4B6"/>
<path id="Vector_259" d="M588 168H581V175H588V168Z" fill="#40500E"/>
<path id="Vector_260" d="M518 175H497V189H518V175Z" fill="#F8C4B6"/>
<path id="Vector_261" d="M595 182H567V196H595V182Z" fill="#BD111F"/>
<path id="Vector_262" d="M581 189H553V203H581V189Z" fill="#BD111F"/>
<path id="Vector_263" d="M595 203H504V224H595V203Z" fill="#BD111F"/>
</g>
<g id="Person_3">
<path id="Vector_264" d="M497 91H448V147H497V91Z" fill="#40500E"/>
<path id="Vector_265" d="M511 147H455V154H511V147Z" fill="#BD111F"/>
<path id="Vector_266" d="M518 140H511V154H518V140Z" fill="#BD111F"/>
<path id="Vector_267" d="M504 35H448V91H504V35Z" fill="#F8C4B6"/>
<path id="Vector_268" d="M504 35H441V49H504V35Z" fill="#BD111F"/>
<path id="Vector_269" d="M490 42H434V63H490V42Z" fill="#BD111F"/>
<path id="Vector_270" d="M483 63H434V70H483V63Z" fill="#BD111F"/>
<path id="Vector_271" d="M455 70H434V77H455V70Z" fill="#BD111F"/>
<path id="Vector_272" d="M448 77H441V84H448V77Z" fill="#BD111F"/>
<path id="Vector_273" d="M497 28H448V35H497V28Z" fill="#BD111F"/>
<path id="Vector_274" d="M434 35H427V49H434V35Z" fill="#BD111F"/>
<path id="Vector_275" d="M427 42H420V56H427V42Z" fill="#BD111F"/>
<path id="Vector_276" d="M511 77H504V84H511V77Z" fill="#F8C4B6"/>
<path id="Vector_277" d="M497 70H490V77H497V70Z" fill="#738928"/>
<path id="Vector_278" d="M483 112H476V119H483V112Z" fill="#A1AC45"/>
<path id="Vector_279" d="M483 98H476V105H483V98Z" fill="#A1AC45"/>
<path id="Vector_280" d="M490 112H483V119H490V112Z" fill="#738928"/>
<path id="Vector_281" d="M483 105H476V112H483V105Z" fill="#738928"/>
<path id="Vector_282" d="M497 112H490V119H497V112Z" fill="#A1AC45"/>
<path id="Vector_283" d="M504 112H497V119H504V112Z" fill="#738928"/>
<path id="Vector_284" d="M511 112H504V119H511V112Z" fill="#F8C4B6"/>
</g>
<g id="Person_2">
<path id="Vector_285" d="M406 91H357V147H406V91Z" fill="#BD111F"/>
<path id="Vector_286" d="M420 147H364V154H420V147Z" fill="#40500E"/>
<path id="Vector_287" d="M427 140H420V154H427V140Z" fill="#BD111F"/>
<path id="Vector_288" d="M413 35H357V91H413V35Z" fill="#F8C4B6"/>
<path id="Vector_289" d="M413 35H350V49H413V35Z" fill="#BD111F"/>
<path id="Vector_290" d="M399 42H343V63H399V42Z" fill="#BD111F"/>
<path id="Vector_291" d="M392 63H343V70H392V63Z" fill="#BD111F"/>
<path id="Vector_292" d="M364 70H343V77H364V70Z" fill="#BD111F"/>
<path id="Vector_293" d="M357 77H350V84H357V77Z" fill="#BD111F"/>
<path id="Vector_294" d="M406 28H357V35H406V28Z" fill="#BD111F"/>
<path id="Vector_295" d="M420 77H413V84H420V77Z" fill="#F8C4B6"/>
<path id="Vector_296" d="M406 70H399V77H406V70Z" fill="#738928"/>
<path id="Vector_297" d="M392 98H385V105H392V98Z" fill="#738928"/>
<path id="Vector_298" d="M399 98H392V105H399V98Z" fill="#CDD496"/>
<path id="Vector_299" d="M406 98H399V105H406V98Z" fill="#738928"/>
<path id="Vector_300" d="M413 98H406V105H413V98Z" fill="#CDD496"/>
<path id="Vector_301" d="M420 98H413V105H420V98Z" fill="#738928"/>
<path id="Vector_302" d="M427 98H420V105H427V98Z" fill="#CDD496"/>
<path id="Vector_303" d="M434 98H427V105H434V98Z" fill="#738928"/>
<path id="Vector_304" d="M441 98H434V105H441V98Z" fill="#CDD496"/>
<path id="Vector_305" d="M448 98H441V105H448V98Z" fill="#738928"/>
<path id="Vector_306" d="M455 98H448V105H455V98Z" fill="#F8C4B6"/>
</g>
<g id="Person_1">
<path id="Vector_307" d="M308 91H259V147H308V91Z" fill="white"/>
<path id="Vector_308" d="M322 147H266V154H322V147Z" fill="white"/>
<path id="Vector_309" d="M329 140H322V154H329V140Z" fill="#40500E"/>
<path id="Vector_310" d="M294 98H287V105H294V98Z" fill="#738928"/>
<path id="Vector_311" d="M301 98H294V105H301V98Z" fill="#CDD496"/>
<path id="Vector_312" d="M308 98H301V105H308V98Z" fill="#738928"/>
<path id="Vector_313" d="M315 98H308V105H315V98Z" fill="#CDD496"/>
<path id="Vector_314" d="M322 98H315V105H322V98Z" fill="#738928"/>
<path id="Vector_315" d="M329 98H322V105H329V98Z" fill="#CDD496"/>
<path id="Vector_316" d="M336 98H329V105H336V98Z" fill="#738928"/>
<path id="Vector_317" d="M343 98H336V105H343V98Z" fill="#CDD496"/>
<path id="Vector_318" d="M350 98H343V105H350V98Z" fill="#738928"/>
<path id="Vector_319" d="M357 98H350V105H357V98Z" fill="#40500E"/>
<g id="Group_32">
<path id="Vector_320" d="M266 63H245V70H266V63Z" fill="#40500E"/>
<path id="Vector_321" d="M266 56H252V63H266V56Z" fill="#40500E"/>
<path id="Vector_322" d="M273 49H259V56H273V49Z" fill="#40500E"/>
<path id="Vector_323" d="M273 42H266V49H273V42Z" fill="#40500E"/>
<path id="Vector_324" d="M280 35H273V42H280V35Z" fill="#40500E"/>
<path id="Vector_325" d="M315 35H308V42H315V35Z" fill="#40500E"/>
<path id="Vector_326" d="M294 28H287V35H294V28Z" fill="#40500E"/>
<path id="Vector_327" d="M315 28H301V35H315V28Z" fill="#40500E"/>
<path id="Vector_328" d="M259 70H245V91H259V70Z" fill="#40500E"/>
</g>
<g id="Group_33">
<path id="Vector_329" d="M308 70H259V91H308V70Z" fill="white"/>
<path id="Vector_330" d="M308 56H266V70H308V56Z" fill="white"/>
<path id="Vector_331" d="M308 42H273V56H308V42Z" fill="white"/>
<path id="Vector_332" d="M308 35H280V49H308V35Z" fill="white"/>
<path id="Vector_333" d="M315 42H308V84H315V42Z" fill="white"/>
<path id="Vector_334" d="M322 49H315V84H322V49Z" fill="white"/>
<path id="Vector_335" d="M329 56H322V77H329V56Z" fill="white"/>
<path id="Vector_336" d="M336 63H329V77H336V63Z" fill="white"/>
<path id="Vector_337" d="M301 21H294V42H301V21Z" fill="white"/>
<path id="Vector_338" d="M287 21H280V42H287V21Z" fill="white"/>
</g>
<path id="Vector_339" d="M308 49H301V56H308V49Z" fill="#40500E"/>
<g id="Group_34">
<path id="Vector_340" d="M259 140H252V147H259V140Z" fill="#40500E"/>
<path id="Vector_341" d="M252 140H245V154H252V140Z" fill="#40500E"/>
<path id="Vector_342" d="M245 147H238V182H245V147Z" fill="#40500E"/>
<path id="Vector_343" d="M238 154H231V182H238V154Z" fill="#40500E"/>
<path id="Vector_344" d="M231 161H224V182H231V161Z" fill="#40500E"/>
</g>
<path id="Vector_345" d="M308 84H259V91H308V84Z" fill="#CDD496"/>
<path id="Vector_346" d="M308 112H259V119H308V112Z" fill="#CDD496"/>
<path id="Vector_347" d="M308 126H259V133H308V126Z" fill="#CDD496"/>
<path id="Vector_348" d="M287 98H259V105H287V98Z" fill="#CDD496"/>
</g>
<path id="Vector_349" d="M287 168H259V175H287V168Z" fill="#40500E"/>
<path id="Vector_350" d="M483 175H455V182H483V175Z" fill="#40500E"/>
<path id="Vector_351" d="M476 168H462V175H476V168Z" fill="#40500E"/>
<g id="Group_35">
<path id="Vector_352" d="M420 273H413V280H420V273Z" fill="#A1AC45"/>
<path id="Vector_353" d="M427 266H420V273H427V266Z" fill="#A1AC45"/>
<path id="Vector_354" d="M434 259H427V266H434V259Z" fill="#A1AC45"/>
<path id="Vector_355" d="M427 252H420V259H427V252Z" fill="#A1AC45"/>
<path id="Vector_356" d="M420 245H413V252H420V245Z" fill="#A1AC45"/>
<path id="Vector_357" d="M427 238H420V245H427V238Z" fill="#A1AC45"/>
<path id="Vector_358" d="M434 231H427V238H434V231Z" fill="#A1AC45"/>
<path id="Vector_359" d="M427 224H420V231H427V224Z" fill="#A1AC45"/>
<path id="Vector_360" d="M420 217H413V224H420V217Z" fill="#A1AC45"/>
<path id="Vector_361" d="M427 210H420V217H427V210Z" fill="#A1AC45"/>
<path id="Vector_362" d="M434 203H427V210H434V203Z" fill="#A1AC45"/>
<path id="Vector_363" d="M427 196H420V203H427V196Z" fill="#A1AC45"/>
<path id="Vector_364" d="M420 189H413V196H420V189Z" fill="#A1AC45"/>
<path id="Vector_365" d="M427 182H420V189H427V182Z" fill="#A1AC45"/>
<path id="Vector_366" d="M434 175H427V182H434V175Z" fill="#A1AC45"/>
<path id="Vector_367" d="M427 168H420V175H427V168Z" fill="#A1AC45"/>
<path id="Vector_368" d="M420 161H413V168H420V161Z" fill="#A1AC45"/>
<path id="Vector_369" d="M427 154H420V161H427V154Z" fill="#A1AC45"/>
</g>
<g id="Group_36">
<g id="Group_37">
<path id="Vector_370" d="M483 206.5V213.5H490V206.5H483Z" fill="#738928"/>
<path id="Vector_371" d="M476 213.5V220.5H483V213.5H476Z" fill="#738928"/>
<path id="Vector_372" d="M469 220.5V227.5H476V220.5H469Z" fill="#738928"/>
<path id="Vector_373" d="M462 213.5V220.5H469V213.5H462Z" fill="#738928"/>
<path id="Vector_374" d="M455 206.5V213.5H462V206.5H455Z" fill="#738928"/>
<path id="Vector_375" d="M448 213.5V220.5H455V213.5H448Z" fill="#738928"/>
</g>
<g id="Group_38">
<path id="Vector_376" d="M483 227.5V234.5H490V227.5H483Z" fill="#738928"/>
<path id="Vector_377" d="M476 234.5V241.5H483V234.5H476Z" fill="#738928"/>
<path id="Vector_378" d="M469 241.5V248.5H476V241.5H469Z" fill="#738928"/>
<path id="Vector_379" d="M462 234.5V241.5H469V234.5H462Z" fill="#738928"/>
<path id="Vector_380" d="M455 227.5V234.5H462V227.5H455Z" fill="#738928"/>
<path id="Vector_381" d="M448 234.5V241.5H455V234.5H448Z" fill="#738928"/>
</g>
</g>
<g id="Group_39">
<path id="Vector_382" d="M395.5 273H388.5V280H395.5V273Z" fill="#A1AC45"/>
<path id="Vector_383" d="M402.5 266H395.5V273H402.5V266Z" fill="#A1AC45"/>
<path id="Vector_384" d="M409.5 259H402.5V266H409.5V259Z" fill="#A1AC45"/>
<path id="Vector_385" d="M402.5 252H395.5V259H402.5V252Z" fill="#A1AC45"/>
<path id="Vector_386" d="M395.5 245H388.5V252H395.5V245Z" fill="#A1AC45"/>
<path id="Vector_387" d="M402.5 238H395.5V245H402.5V238Z" fill="#A1AC45"/>
<path id="Vector_388" d="M409.5 231H402.5V238H409.5V231Z" fill="#A1AC45"/>
<path id="Vector_389" d="M402.5 224H395.5V231H402.5V224Z" fill="#A1AC45"/>
<path id="Vector_390" d="M395.5 217H388.5V224H395.5V217Z" fill="#A1AC45"/>
<path id="Vector_391" d="M402.5 210H395.5V217H402.5V210Z" fill="#A1AC45"/>
<path id="Vector_392" d="M409.5 203H402.5V210H409.5V203Z" fill="#A1AC45"/>
<path id="Vector_393" d="M402.5 196H395.5V203H402.5V196Z" fill="#A1AC45"/>
<path id="Vector_394" d="M395.5 189H388.5V196H395.5V189Z" fill="#A1AC45"/>
<path id="Vector_395" d="M402.5 182H395.5V189H402.5V182Z" fill="#A1AC45"/>
<path id="Vector_396" d="M409.5 175H402.5V182H409.5V175Z" fill="#A1AC45"/>
<path id="Vector_397" d="M402.5 168H395.5V175H402.5V168Z" fill="#A1AC45"/>
<path id="Vector_398" d="M395.5 161H388.5V168H395.5V161Z" fill="#A1AC45"/>
<path id="Vector_399" d="M402.5 154H395.5V161H402.5V154Z" fill="#A1AC45"/>
</g>
</g>
</g>
</svg>
